  0
SECTION
  2
HEADER
  9
$ACADVER
  1
AC1009
  9
$INSBASE
 10
0.000000000
 20
0.000000000
 30
0.000000000
  9
$EXTMIN
 10
40.000000000
 20
28.000000000
 30
0.000000000
  9
$EXTMAX
 10
272.000000000
 20
211.000000000
 30
0.000000000
  0
ENDSEC
  0
SECTION
  2
TABLES
  0
TABLE
  2
LAYER
 70
     3
  0
LAYER
  2
VISIBLE
 70
     0
 62
     7
  6
CONTINUOUS
  0
LAYER
  2
HIDDEN
 70
     0
 62
     8
  6
CONTINUOUS
  0
LAYER
  2
HATCH
 70
     0
 62
     8
  6
CONTINUOUS
  0
ENDTAB
  0
ENDSEC
  0
SECTION
  2
ENTITIES
  0
LINE
  8
VISIBLE
 10
160.000000000
 20
150.000000000
 30
0.000000000
 11
40.000000000
 21
150.000000000
 31
0.000000000
  0
LINE
  8
VISIBLE
 10
40.000000000
 20
150.000000000
 30
0.000000000
 11
40.000000000
 21
70.000000000
 31
0.000000000
  0
LINE
  8
VISIBLE
 10
40.000000000
 20
70.000000000
 30
0.000000000
 11
160.000000000
 21
70.000000000
 31
0.000000000
  0
LINE
  8
VISIBLE
 10
160.000000000
 20
70.000000000
 30
0.000000000
 11
160.000000000
 21
150.000000000
 31
0.000000000
  0
CIRCLE
  8
VISIBLE
 10
100.000000000
 20
110.000000000
 30
0.000000000
 40
10.000000000
  0
POINT
  8
VISIBLE
 10
40.000000000
 20
150.000000000
 30
0.000000000
  0
POINT
  8
VISIBLE
 10
40.000000000
 20
70.000000000
 30
0.000000000
  0
POINT
  8
VISIBLE
 10
160.000000000
 20
70.000000000
 30
0.000000000
  0
POINT
  8
VISIBLE
 10
160.000000000
 20
150.000000000
 30
0.000000000
  0
POINT
  8
VISIBLE
 10
91.909830056
 20
104.122147477
 30
0.000000000
  0
POINT
  8
VISIBLE
 10
229.000000000
 20
150.000000000
 30
0.000000000
  0
POINT
  8
VISIBLE
 10
229.000000000
 20
70.000000000
 30
0.000000000
  0
LINE
  8
VISIBLE
 10
229.000000000
 20
70.000000000
 30
0.000000000
 11
229.000000000
 21
150.000000000
 31
0.000000000
  0
LINE
  8
VISIBLE
 10
229.000000000
 20
120.000000000
 30
0.000000000
 11
229.000000000
 21
100.000000000
 31
0.000000000
  0
POINT
  8
VISIBLE
 10
241.000000000
 20
150.000000000
 30
0.000000000
  0
LINE
  8
VISIBLE
 10
241.000000000
 20
150.000000000
 30
0.000000000
 11
241.000000000
 21
70.000000000
 31
0.000000000
  0
POINT
  8
VISIBLE
 10
241.000000000
 20
70.000000000
 30
0.000000000
  0
LINE
  8
VISIBLE
 10
241.000000000
 20
120.000000000
 30
0.000000000
 11
241.000000000
 21
100.000000000
 31
0.000000000
  0
LINE
  8
VISIBLE
 10
241.000000000
 20
70.000000000
 30
0.000000000
 11
229.000000000
 21
70.000000000
 31
0.000000000
  0
LINE
  8
VISIBLE
 10
241.000000000
 20
150.000000000
 30
0.000000000
 11
229.000000000
 21
150.000000000
 31
0.000000000
  0
LINE
  8
HIDDEN
 10
229.000000000
 20
104.122147477
 30
0.000000000
 11
241.000000000
 21
104.122147477
 31
0.000000000
  0
LINE
  8
HIDDEN
 10
241.000000000
 20
100.000000000
 30
0.000000000
 11
229.000000000
 21
100.000000000
 31
0.000000000
  0
LINE
  8
HIDDEN
 10
241.000000000
 20
120.000000000
 30
0.000000000
 11
229.000000000
 21
120.000000000
 31
0.000000000
  0
POINT
  8
VISIBLE
 10
40.000000000
 20
199.000000000
 30
0.000000000
  0
LINE
  8
VISIBLE
 10
40.000000000
 20
199.000000000
 30
0.000000000
 11
160.000000000
 21
199.000000000
 31
0.000000000
  0
POINT
  8
VISIBLE
 10
160.000000000
 20
199.000000000
 30
0.000000000
  0
LINE
  8
VISIBLE
 10
160.000000000
 20
199.000000000
 30
0.000000000
 11
110.000000000
 21
199.000000000
 31
0.000000000
  0
LINE
  8
VISIBLE
 10
100.241637452
 20
199.000000000
 30
0.000000000
 11
110.000000000
 21
199.000000000
 31
0.000000000
  0
LINE
  8
VISIBLE
 10
90.000000000
 20
199.000000000
 30
0.000000000
 11
100.241637452
 21
199.000000000
 31
0.000000000
  0
LINE
  8
VISIBLE
 10
90.000000000
 20
199.000000000
 30
0.000000000
 11
40.000000000
 21
199.000000000
 31
0.000000000
  0
POINT
  8
VISIBLE
 10
40.000000000
 20
211.000000000
 30
0.000000000
  0
LINE
  8
VISIBLE
 10
40.000000000
 20
211.000000000
 30
0.000000000
 11
90.000000000
 21
211.000000000
 31
0.000000000
  0
LINE
  8
VISIBLE
 10
100.241637452
 20
211.000000000
 30
0.000000000
 11
90.000000000
 21
211.000000000
 31
0.000000000
  0
LINE
  8
VISIBLE
 10
100.241637452
 20
211.000000000
 30
0.000000000
 11
110.000000000
 21
211.000000000
 31
0.000000000
  0
LINE
  8
VISIBLE
 10
110.000000000
 20
211.000000000
 30
0.000000000
 11
160.000000000
 21
211.000000000
 31
0.000000000
  0
POINT
  8
VISIBLE
 10
160.000000000
 20
211.000000000
 30
0.000000000
  0
LINE
  8
VISIBLE
 10
160.000000000
 20
211.000000000
 30
0.000000000
 11
40.000000000
 21
211.000000000
 31
0.000000000
  0
LINE
  8
VISIBLE
 10
40.000000000
 20
199.000000000
 30
0.000000000
 11
40.000000000
 21
211.000000000
 31
0.000000000
  0
LINE
  8
VISIBLE
 10
160.000000000
 20
211.000000000
 30
0.000000000
 11
160.000000000
 21
199.000000000
 31
0.000000000
  0
LINE
  8
VISIBLE
 10
110.000000000
 20
199.000000000
 30
0.000000000
 11
110.000000000
 21
211.000000000
 31
0.000000000
  0
LINE
  8
VISIBLE
 10
90.000000000
 20
211.000000000
 30
0.000000000
 11
90.000000000
 21
199.000000000
 31
0.000000000
  0
LINE
  8
VISIBLE
 10
240.000000000
 20
92.000000000
 30
0.000000000
 11
240.000000000
 21
60.000000000
 31
0.000000000
  0
LINE
  8
VISIBLE
 10
240.000000000
 20
60.000000000
 30
0.000000000
 11
272.000000000
 21
60.000000000
 31
0.000000000
  0
POINT
  8
VISIBLE
 10
240.000000000
 20
60.000000000
 30
0.000000000
  0
LINE
  8
HATCH
 10
40.000000000
 20
201.000000000
 30
0.000000000
 11
42.000000000
 21
199.000000000
 31
0.000000000
  0
LINE
  8
HATCH
 10
40.000000000
 20
205.242640687
 30
0.000000000
 11
46.242640687
 21
199.000000000
 31
0.000000000
  0
LINE
  8
HATCH
 10
40.000000000
 20
209.485281374
 30
0.000000000
 11
50.485281374
 21
199.000000000
 31
0.000000000
  0
LINE
  8
HATCH
 10
42.727922061
 20
211.000000000
 30
0.000000000
 11
54.727922061
 21
199.000000000
 31
0.000000000
  0
LINE
  8
HATCH
 10
46.970562748
 20
211.000000000
 30
0.000000000
 11
58.970562748
 21
199.000000000
 31
0.000000000
  0
LINE
  8
HATCH
 10
51.213203436
 20
211.000000000
 30
0.000000000
 11
63.213203436
 21
199.000000000
 31
0.000000000
  0
LINE
  8
HATCH
 10
55.455844123
 20
211.000000000
 30
0.000000000
 11
67.455844123
 21
199.000000000
 31
0.000000000
  0
LINE
  8
HATCH
 10
59.698484810
 20
211.000000000
 30
0.000000000
 11
71.698484810
 21
199.000000000
 31
0.000000000
  0
LINE
  8
HATCH
 10
63.941125497
 20
211.000000000
 30
0.000000000
 11
75.941125497
 21
199.000000000
 31
0.000000000
  0
LINE
  8
HATCH
 10
68.183766184
 20
211.000000000
 30
0.000000000
 11
80.183766184
 21
199.000000000
 31
0.000000000
  0
LINE
  8
HATCH
 10
72.426406871
 20
211.000000000
 30
0.000000000
 11
84.426406871
 21
199.000000000
 31
0.000000000
  0
LINE
  8
HATCH
 10
76.669047558
 20
211.000000000
 30
0.000000000
 11
88.669047558
 21
199.000000000
 31
0.000000000
  0
LINE
  8
HATCH
 10
80.911688245
 20
211.000000000
 30
0.000000000
 11
90.000000000
 21
201.911688245
 31
0.000000000
  0
LINE
  8
HATCH
 10
85.154328933
 20
211.000000000
 30
0.000000000
 11
90.000000000
 21
206.154328933
 31
0.000000000
  0
LINE
  8
HATCH
 10
89.396969620
 20
211.000000000
 30
0.000000000
 11
90.000000000
 21
210.396969620
 31
0.000000000
  0
LINE
  8
HATCH
 10
110.000000000
 20
203.124891681
 30
0.000000000
 11
114.124891681
 21
199.000000000
 31
0.000000000
  0
LINE
  8
HATCH
 10
110.000000000
 20
207.367532368
 30
0.000000000
 11
118.367532368
 21
199.000000000
 31
0.000000000
  0
LINE
  8
HATCH
 10
110.610173055
 20
211.000000000
 30
0.000000000
 11
122.610173055
 21
199.000000000
 31
0.000000000
  0
LINE
  8
HATCH
 10
114.852813742
 20
211.000000000
 30
0.000000000
 11
126.852813742
 21
199.000000000
 31
0.000000000
  0
LINE
  8
HATCH
 10
119.095454430
 20
211.000000000
 30
0.000000000
 11
131.095454430
 21
199.000000000
 31
0.000000000
  0
LINE
  8
HATCH
 10
123.338095117
 20
211.000000000
 30
0.000000000
 11
135.338095117
 21
199.000000000
 31
0.000000000
  0
LINE
  8
HATCH
 10
127.580735804
 20
211.000000000
 30
0.000000000
 11
139.580735804
 21
199.000000000
 31
0.000000000
  0
LINE
  8
HATCH
 10
131.823376491
 20
211.000000000
 30
0.000000000
 11
143.823376491
 21
199.000000000
 31
0.000000000
  0
LINE
  8
HATCH
 10
136.066017178
 20
211.000000000
 30
0.000000000
 11
148.066017178
 21
199.000000000
 31
0.000000000
  0
LINE
  8
HATCH
 10
140.308657865
 20
211.000000000
 30
0.000000000
 11
152.308657865
 21
199.000000000
 31
0.000000000
  0
LINE
  8
HATCH
 10
144.551298552
 20
211.000000000
 30
0.000000000
 11
156.551298552
 21
199.000000000
 31
0.000000000
  0
LINE
  8
HATCH
 10
148.793939239
 20
211.000000000
 30
0.000000000
 11
160.000000000
 21
199.793939239
 31
0.000000000
  0
LINE
  8
HATCH
 10
153.036579926
 20
211.000000000
 30
0.000000000
 11
160.000000000
 21
204.036579926
 31
0.000000000
  0
LINE
  8
HATCH
 10
157.279220614
 20
211.000000000
 30
0.000000000
 11
160.000000000
 21
208.279220614
 31
0.000000000
  0
ENDSEC
  0
EOF
