  0
SECTION
  2
HEADER
  9
$ACADVER
  1
AC1009
  9
$INSBASE
 10
0.000000000
 20
0.000000000
 30
0.000000000
  9
$EXTMIN
 10
-42.426406871
 20
-40.824829046
 30
0.000000000
  9
$EXTMAX
 10
28.284271247
 20
4.898979486
 30
0.000000000
  0
ENDSEC
  0
SECTION
  2
TABLES
  0
TABLE
  2
LAYER
 70
     2
  0
LAYER
  2
VISIBLE
 70
     0
 62
     7
  6
CONTINUOUS
  0
LAYER
  2
HIDDEN
 70
     0
 62
     8
  6
CONTINUOUS
  0
ENDTAB
  0
ENDSEC
  0
SECTION
  2
ENTITIES
  0
LINE
  8
VISIBLE
 10
-14.142135624
 20
-35.925849561
 30
0.000000000
 11
28.284271247
 21
-11.430952133
 31
0.000000000
  0
LINE
  8
VISIBLE
 10
28.284271247
 20
-11.430952133
 30
0.000000000
 11
0.000000000
 21
4.898979486
 31
0.000000000
  0
LINE
  8
VISIBLE
 10
0.000000000
 20
4.898979486
 30
0.000000000
 11
-42.426406871
 21
-19.595917942
 31
0.000000000
  0
LINE
  8
VISIBLE
 10
-42.426406871
 20
-19.595917942
 30
0.000000000
 11
-14.142135624
 21
-35.925849561
 31
0.000000000
  0
POLYLINE
  8
VISIBLE
 66
     1
 10
0.000000000
 20
0.000000000
 30
0.000000000
 70
     1
  0
VERTEX
  8
VISIBLE
 10
-6.288895487
 20
-12.662224391
 30
0.000000000
  0
VERTEX
  8
VISIBLE
 10
-6.914014016
 20
-12.628108129
 30
0.000000000
  0
VERTEX
  8
VISIBLE
 10
-7.541609378
 20
-12.639495196
 30
0.000000000
  0
VERTEX
  8
VISIBLE
 10
-8.161784019
 20
-12.696206012
 30
0.000000000
  0
VERTEX
  8
VISIBLE
 10
-8.764757413
 20
-12.797346211
 30
0.000000000
  0
VERTEX
  8
VISIBLE
 10
-9.341020311
 20
-12.941320755
 30
0.000000000
  0
VERTEX
  8
VISIBLE
 10
-9.881484701
 20
-13.125859077
 30
0.000000000
  0
VERTEX
  8
VISIBLE
 10
-10.377627138
 20
-13.348050898
 30
0.000000000
  0
VERTEX
  8
VISIBLE
 10
-10.821623160
 20
-13.604392120
 30
0.000000000
  0
VERTEX
  8
VISIBLE
 10
-11.206470683
 20
-13.890840090
 30
0.000000000
  0
VERTEX
  8
VISIBLE
 10
-11.526100433
 20
-14.202877351
 30
0.000000000
  0
VERTEX
  8
VISIBLE
 10
-11.775471657
 20
-14.535582890
 30
0.000000000
  0
VERTEX
  8
VISIBLE
 10
-11.950651622
 20
-14.883709742
 30
0.000000000
  0
VERTEX
  8
VISIBLE
 10
-12.048877635
 20
-15.241767737
 30
0.000000000
  0
VERTEX
  8
VISIBLE
 10
-12.068600614
 20
-15.604110089
 30
0.000000000
  0
VERTEX
  8
VISIBLE
 10
-12.009509515
 20
-15.965022440
 30
0.000000000
  0
VERTEX
  8
VISIBLE
 10
-11.872536240
 20
-16.318812988
 30
0.000000000
  0
VERTEX
  8
VISIBLE
 10
-11.659840940
 20
-16.659902245
 30
0.000000000
  0
VERTEX
  8
VISIBLE
 10
-11.374777947
 20
-16.982911030
 30
0.000000000
  0
VERTEX
  8
VISIBLE
 10
-11.021842874
 20
-17.282745300
 30
0.000000000
  0
VERTEX
  8
VISIBLE
 10
-10.606601718
 20
-17.554676490
 30
0.000000000
  0
VERTEX
  8
VISIBLE
 10
-10.135603080
 20
-17.794416083
 30
0.000000000
  0
VERTEX
  8
VISIBLE
 10
-9.616274891
 20
-17.998183243
 30
0.000000000
  0
VERTEX
  8
VISIBLE
 10
-9.056807265
 20
-18.162764439
 30
0.000000000
  0
VERTEX
  8
VISIBLE
 10
-8.466023342
 20
-18.285564127
 30
0.000000000
  0
VERTEX
  8
VISIBLE
 10
-7.853240137
 20
-18.364645684
 30
0.000000000
  0
VERTEX
  8
VISIBLE
 10
-7.228121607
 20
-18.398761946
 30
0.000000000
  0
VERTEX
  8
VISIBLE
 10
-6.600526245
 20
-18.387374879
 30
0.000000000
  0
VERTEX
  8
VISIBLE
 10
-5.980351605
 20
-18.330664064
 30
0.000000000
  0
VERTEX
  8
VISIBLE
 10
-5.377378211
 20
-18.229523864
 30
0.000000000
  0
VERTEX
  8
VISIBLE
 10
-4.801115313
 20
-18.085549321
 30
0.000000000
  0
VERTEX
  8
VISIBLE
 10
-4.260650923
 20
-17.901010999
 30
0.000000000
  0
VERTEX
  8
VISIBLE
 10
-3.764508485
 20
-17.678819177
 30
0.000000000
  0
VERTEX
  8
VISIBLE
 10
-3.320512464
 20
-17.422477955
 30
0.000000000
  0
VERTEX
  8
VISIBLE
 10
-2.935664940
 20
-17.136029985
 30
0.000000000
  0
VERTEX
  8
VISIBLE
 10
-2.616035191
 20
-16.823992724
 30
0.000000000
  0
VERTEX
  8
VISIBLE
 10
-2.366663967
 20
-16.491287185
 30
0.000000000
  0
VERTEX
  8
VISIBLE
 10
-2.191484002
 20
-16.143160333
 30
0.000000000
  0
VERTEX
  8
VISIBLE
 10
-2.093257989
 20
-15.785102338
 30
0.000000000
  0
VERTEX
  8
VISIBLE
 10
-2.073535010
 20
-15.422759987
 30
0.000000000
  0
VERTEX
  8
VISIBLE
 10
-2.132626109
 20
-15.061847635
 30
0.000000000
  0
VERTEX
  8
VISIBLE
 10
-2.269599383
 20
-14.708057087
 30
0.000000000
  0
VERTEX
  8
VISIBLE
 10
-2.482294683
 20
-14.366967830
 30
0.000000000
  0
VERTEX
  8
VISIBLE
 10
-2.767357677
 20
-14.043959046
 30
0.000000000
  0
VERTEX
  8
VISIBLE
 10
-3.120292750
 20
-13.744124776
 30
0.000000000
  0
VERTEX
  8
VISIBLE
 10
-3.535533906
 20
-13.472193585
 30
0.000000000
  0
VERTEX
  8
VISIBLE
 10
-4.006532544
 20
-13.232453992
 30
0.000000000
  0
VERTEX
  8
VISIBLE
 10
-4.525860733
 20
-13.028686833
 30
0.000000000
  0
VERTEX
  8
VISIBLE
 10
-5.085328359
 20
-12.864105637
 30
0.000000000
  0
VERTEX
  8
VISIBLE
 10
-5.676112282
 20
-12.741305948
 30
0.000000000
  0
VERTEX
  8
VISIBLE
 10
-6.288895487
 20
-12.662224391
 30
0.000000000
  0
SEQEND
  8
VISIBLE
  0
LINE
  8
HIDDEN
 10
0.000000000
 20
0.000000000
 30
0.000000000
 11
28.284271247
 21
-16.329931619
 31
0.000000000
  0
LINE
  8
VISIBLE
 10
28.284271247
 20
-16.329931619
 30
0.000000000
 11
-14.142135624
 21
-40.824829046
 31
0.000000000
  0
LINE
  8
VISIBLE
 10
-14.142135624
 20
-40.824829046
 30
0.000000000
 11
-42.426406871
 21
-24.494897428
 31
0.000000000
  0
LINE
  8
HIDDEN
 10
-42.426406871
 20
-24.494897428
 30
0.000000000
 11
0.000000000
 21
0.000000000
 31
0.000000000
  0
POLYLINE
  8
VISIBLE
 66
     1
 10
0.000000000
 20
0.000000000
 30
0.000000000
 70
     0
  0
VERTEX
  8
VISIBLE
 10
-6.288895487
 20
-17.561203877
 30
0.000000000
  0
VERTEX
  8
VISIBLE
 10
-6.881280634
 20
-17.527743495
 30
0.000000000
  0
VERTEX
  8
VISIBLE
 10
-7.476355286
 20
-17.535162242
 30
0.000000000
  0
VERTEX
  8
VISIBLE
 10
-8.065686544
 20
-17.583354987
 30
0.000000000
  0
VERTEX
  8
VISIBLE
 10
-8.640922903
 20
-17.671638782
 30
0.000000000
  0
VERTEX
  8
VISIBLE
 10
-9.193912598
 20
-17.798762543
 30
0.000000000
  0
VERTEX
  8
VISIBLE
 10
-9.716819123
 20
-17.962924780
 30
0.000000000
  0
SEQEND
  8
VISIBLE
  0
POLYLINE
  8
HIDDEN
 66
     1
 10
0.000000000
 20
0.000000000
 30
0.000000000
 70
     0
  0
VERTEX
  8
HIDDEN
 10
-9.716819123
 20
-17.962924780
 30
0.000000000
  0
VERTEX
  8
HIDDEN
 10
-10.229314007
 20
-18.174448112
 30
0.000000000
  0
VERTEX
  8
HIDDEN
 10
-10.691671433
 20
-18.421499372
 30
0.000000000
  0
VERTEX
  8
HIDDEN
 10
-11.096551435
 20
-18.700156599
 30
0.000000000
  0
VERTEX
  8
HIDDEN
 10
-11.437526503
 20
-19.005996082
 30
0.000000000
  0
VERTEX
  8
HIDDEN
 10
-11.709183627
 20
-19.334162591
 30
0.000000000
  0
VERTEX
  8
HIDDEN
 10
-11.907210222
 20
-19.679446451
 30
0.000000000
  0
VERTEX
  8
HIDDEN
 10
-12.028462600
 20
-20.036366249
 30
0.000000000
  0
VERTEX
  8
HIDDEN
 10
-12.071015866
 20
-20.399255849
 30
0.000000000
  0
VERTEX
  8
HIDDEN
 10
-12.034194484
 20
-20.762354344
 30
0.000000000
  0
VERTEX
  8
HIDDEN
 10
-11.918582997
 20
-21.119897511
 30
0.000000000
  0
VERTEX
  8
HIDDEN
 10
-11.726016747
 20
-21.466209319
 30
0.000000000
  0
VERTEX
  8
HIDDEN
 10
-11.459552742
 20
-21.795792034
 30
0.000000000
  0
VERTEX
  8
HIDDEN
 10
-11.123421124
 20
-22.103413501
 30
0.000000000
  0
VERTEX
  8
HIDDEN
 10
-10.722958014
 20
-22.384190200
 30
0.000000000
  0
VERTEX
  8
HIDDEN
 10
-10.264520801
 20
-22.633664772
 30
0.000000000
  0
VERTEX
  8
HIDDEN
 10
-9.755387220
 20
-22.847876787
 30
0.000000000
  0
VERTEX
  8
HIDDEN
 10
-9.203639814
 20
-23.023425608
 30
0.000000000
  0
VERTEX
  8
HIDDEN
 10
-8.618037626
 20
-23.157524381
 30
0.000000000
  0
VERTEX
  8
HIDDEN
 10
-8.007877146
 20
-23.248044275
 30
0.000000000
  0
VERTEX
  8
HIDDEN
 10
-7.382844729
 20
-23.293548279
 30
0.000000000
  0
VERTEX
  8
HIDDEN
 10
-6.752862824
 20
-23.293314012
 30
0.000000000
  0
VERTEX
  8
HIDDEN
 10
-6.127932453
 20
-23.247345192
 30
0.000000000
  0
VERTEX
  8
HIDDEN
 10
-5.517974445
 20
-23.156371580
 30
0.000000000
  0
VERTEX
  8
HIDDEN
 10
-4.932671942
 20
-23.021837391
 30
0.000000000
  0
VERTEX
  8
HIDDEN
 10
-4.381316675
 20
-22.845878366
 30
0.000000000
  0
VERTEX
  8
HIDDEN
 10
-3.872661462
 20
-22.631287872
 30
0.000000000
  0
VERTEX
  8
HIDDEN
 10
-3.414781252
 20
-22.381472555
 30
0.000000000
  0
VERTEX
  8
HIDDEN
 10
-3.014944938
 20
-22.100398254
 30
0.000000000
  0
VERTEX
  8
HIDDEN
 10
-2.679499958
 20
-21.792527052
 30
0.000000000
  0
VERTEX
  8
HIDDEN
 10
-2.413771533
 20
-21.462746434
 30
0.000000000
  0
VERTEX
  8
HIDDEN
 10
-2.221978127
 20
-21.116291696
 30
0.000000000
  0
VERTEX
  8
HIDDEN
 10
-2.107164478
 20
-20.758662843
 30
0.000000000
  0
VERTEX
  8
HIDDEN
 10
-2.071153265
 20
-20.395537264
 30
0.000000000
  0
VERTEX
  8
HIDDEN
 10
-2.114516168
 20
-20.032679613
 30
0.000000000
  0
VERTEX
  8
HIDDEN
 10
-2.236564798
 20
-19.675850290
 30
0.000000000
  0
VERTEX
  8
HIDDEN
 10
-2.435361620
 20
-19.330713994
 30
0.000000000
  0
VERTEX
  8
HIDDEN
 10
-2.707750717
 20
-19.002749796
 30
0.000000000
  0
VERTEX
  8
HIDDEN
 10
-3.049407885
 20
-18.697164159
 30
0.000000000
  0
VERTEX
  8
HIDDEN
 10
-3.454909286
 20
-18.418808284
 30
0.000000000
  0
VERTEX
  8
HIDDEN
 10
-3.917817545
 20
-18.172101096
 30
0.000000000
  0
VERTEX
  8
HIDDEN
 10
-4.430783950
 20
-17.960959096
 30
0.000000000
  0
SEQEND
  8
HIDDEN
  0
POLYLINE
  8
VISIBLE
 66
     1
 10
0.000000000
 20
0.000000000
 30
0.000000000
 70
     0
  0
VERTEX
  8
VISIBLE
 10
-4.430783950
 20
-17.960959096
 30
0.000000000
  0
VERTEX
  8
VISIBLE
 10
-4.867008752
 20
-17.821267823
 30
0.000000000
  0
VERTEX
  8
VISIBLE
 10
-5.325171261
 20
-17.707367066
 30
0.000000000
  0
VERTEX
  8
VISIBLE
 10
-5.800711240
 20
-17.620390515
 30
0.000000000
  0
VERTEX
  8
VISIBLE
 10
-6.288895487
 20
-17.561203877
 30
0.000000000
  0
SEQEND
  8
VISIBLE
  0
LINE
  8
VISIBLE
 10
28.284271247
 20
-11.430952133
 30
0.000000000
 11
28.284271247
 21
-16.329931619
 31
0.000000000
  0
LINE
  8
HIDDEN
 10
0.000000000
 20
0.000000000
 30
0.000000000
 11
0.000000000
 21
4.898979486
 31
0.000000000
  0
LINE
  8
VISIBLE
 10
-42.426406871
 20
-24.494897428
 30
0.000000000
 11
-42.426406871
 21
-19.595917942
 31
0.000000000
  0
LINE
  8
VISIBLE
 10
-14.142135624
 20
-40.824829046
 30
0.000000000
 11
-14.142135624
 21
-35.925849561
 31
0.000000000
  0
LINE
  8
VISIBLE
 10
-6.288895487
 20
-12.662224391
 30
0.000000000
 11
-6.288895487
 21
-17.561203877
 31
0.000000000
  0
LINE
  8
HIDDEN
 10
-12.071067812
 20
-20.412414523
 30
0.000000000
 11
-12.071067812
 21
-15.513435038
 31
0.000000000
  0
LINE
  8
HIDDEN
 10
-2.071067812
 20
-20.412414523
 30
0.000000000
 11
-2.071067812
 21
-15.513435038
 31
0.000000000
  0
ENDSEC
  0
EOF
