<svg xmlns="http://www.w3.org/2000/svg" viewBox="16.20 -88.80 117.60 117.60" width="235" height="235">
<rect x="16.2" y="-88.8" width="117.6" height="117.6" fill="white"/>
<g class="grid-minor" stroke="#e0e0e0" stroke-width="0.3">
<line x1="10.00" y1="-88.80" x2="10.00" y2="28.80"/>
<line x1="20.00" y1="-88.80" x2="20.00" y2="28.80"/>
<line x1="30.00" y1="-88.80" x2="30.00" y2="28.80"/>
<line x1="40.00" y1="-88.80" x2="40.00" y2="28.80"/>
<line x1="50.00" y1="-88.80" x2="50.00" y2="28.80"/>
<line x1="60.00" y1="-88.80" x2="60.00" y2="28.80"/>
<line x1="70.00" y1="-88.80" x2="70.00" y2="28.80"/>
<line x1="80.00" y1="-88.80" x2="80.00" y2="28.80"/>
<line x1="90.00" y1="-88.80" x2="90.00" y2="28.80"/>
<line x1="100.00" y1="-88.80" x2="100.00" y2="28.80"/>
<line x1="110.00" y1="-88.80" x2="110.00" y2="28.80"/>
<line x1="120.00" y1="-88.80" x2="120.00" y2="28.80"/>
<line x1="130.00" y1="-88.80" x2="130.00" y2="28.80"/>
<line x1="16.20" y1="-90.00" x2="133.80" y2="-90.00"/>
<line x1="16.20" y1="-80.00" x2="133.80" y2="-80.00"/>
<line x1="16.20" y1="-70.00" x2="133.80" y2="-70.00"/>
<line x1="16.20" y1="-60.00" x2="133.80" y2="-60.00"/>
<line x1="16.20" y1="-50.00" x2="133.80" y2="-50.00"/>
<line x1="16.20" y1="-40.00" x2="133.80" y2="-40.00"/>
<line x1="16.20" y1="-30.00" x2="133.80" y2="-30.00"/>
<line x1="16.20" y1="-20.00" x2="133.80" y2="-20.00"/>
<line x1="16.20" y1="-10.00" x2="133.80" y2="-10.00"/>
<line x1="16.20" y1="0.00" x2="133.80" y2="0.00"/>
<line x1="16.20" y1="10.00" x2="133.80" y2="10.00"/>
<line x1="16.20" y1="20.00" x2="133.80" y2="20.00"/>
</g>
<g class="grid-major" stroke="#c0c0c0" stroke-width="0.6">
<line x1="0.00" y1="-88.80" x2="0.00" y2="28.80"/>
<line x1="100.00" y1="-88.80" x2="100.00" y2="28.80"/>
<line x1="16.20" y1="-100.00" x2="133.80" y2="-100.00"/>
<line x1="16.20" y1="0.00" x2="133.80" y2="0.00"/>
</g>
<path d="M33.0000,-30.0000 A42.0000,42.0000 0 1,1 117.0000,-30.0000 A42.0000,42.0000 0 1,1 33.0000,-30.0000 Z" fill="#E3F2FD" fill-opacity="0.5" fill-rule="evenodd" stroke="none"/>
<g class="entities">
<circle cx="75.0000" cy="-30.0000" r="2" fill="#4CAF50"/>
<circle cx="75.0000" cy="-30.0000" r="42.0000" stroke="#2196F3" stroke-width="1.5" fill="none"/>
</g>
<g class="badges" font-family="sans-serif" font-size="4">
<rect x="69.50" y="-36.00" width="17.0" height="5.0" rx="1" fill="#FFFFFF" stroke="#333333" stroke-width="0.3" opacity="0.9"/>
<text x="78.00" y="-32.00" text-anchor="middle" fill="#333333" font-family="sans-serif" font-size="4">R42.0</text>
</g>
<rect x="27.70" y="-81.80" width="50.6" height="5.0" rx="1" fill="#FFFFFF" stroke="#333333" stroke-width="0.3" opacity="0.9"/>
<text x="53.00" y="-77.80" text-anchor="middle" fill="#333333" font-family="sans-serif" font-size="4">Fully Constrained</text>
</svg>
