<svg xmlns="http://www.w3.org/2000/svg" viewBox="8.00 -120.00 84.00 140.00" width="168" height="280">
<rect x="8" y="-120" width="84" height="140" fill="white"/>
<g class="grid-minor" stroke="#e0e0e0" stroke-width="0.3">
<line x1="0.00" y1="-120.00" x2="0.00" y2="20.00"/>
<line x1="10.00" y1="-120.00" x2="10.00" y2="20.00"/>
<line x1="20.00" y1="-120.00" x2="20.00" y2="20.00"/>
<line x1="30.00" y1="-120.00" x2="30.00" y2="20.00"/>
<line x1="40.00" y1="-120.00" x2="40.00" y2="20.00"/>
<line x1="50.00" y1="-120.00" x2="50.00" y2="20.00"/>
<line x1="60.00" y1="-120.00" x2="60.00" y2="20.00"/>
<line x1="70.00" y1="-120.00" x2="70.00" y2="20.00"/>
<line x1="80.00" y1="-120.00" x2="80.00" y2="20.00"/>
<line x1="90.00" y1="-120.00" x2="90.00" y2="20.00"/>
<line x1="8.00" y1="-120.00" x2="92.00" y2="-120.00"/>
<line x1="8.00" y1="-110.00" x2="92.00" y2="-110.00"/>
<line x1="8.00" y1="-100.00" x2="92.00" y2="-100.00"/>
<line x1="8.00" y1="-90.00" x2="92.00" y2="-90.00"/>
<line x1="8.00" y1="-80.00" x2="92.00" y2="-80.00"/>
<line x1="8.00" y1="-70.00" x2="92.00" y2="-70.00"/>
<line x1="8.00" y1="-60.00" x2="92.00" y2="-60.00"/>
<line x1="8.00" y1="-50.00" x2="92.00" y2="-50.00"/>
<line x1="8.00" y1="-40.00" x2="92.00" y2="-40.00"/>
<line x1="8.00" y1="-30.00" x2="92.00" y2="-30.00"/>
<line x1="8.00" y1="-20.00" x2="92.00" y2="-20.00"/>
<line x1="8.00" y1="-10.00" x2="92.00" y2="-10.00"/>
<line x1="8.00" y1="0.00" x2="92.00" y2="0.00"/>
<line x1="8.00" y1="10.00" x2="92.00" y2="10.00"/>
<line x1="8.00" y1="20.00" x2="92.00" y2="20.00"/>
</g>
<g class="grid-major" stroke="#c0c0c0" stroke-width="0.6">
<line x1="0.00" y1="-120.00" x2="0.00" y2="20.00"/>
<line x1="8.00" y1="-200.00" x2="92.00" y2="-200.00"/>
<line x1="8.00" y1="-100.00" x2="92.00" y2="-100.00"/>
<line x1="8.00" y1="0.00" x2="92.00" y2="0.00"/>
</g>
<g class="entities">
<circle cx="50.0000" cy="-0.0000" r="2" fill="#4CAF50"/>
<circle cx="50.0000" cy="-100.0000" r="2" fill="#4CAF50"/>
<circle cx="20.0000" cy="-30.0000" r="2" fill="#4CAF50"/>
<circle cx="80.0000" cy="-30.0000" r="2" fill="#4CAF50"/>
<line x1="50.0000" y1="-0.0000" x2="50.0000" y2="-100.0000" stroke="#9E9E9E" stroke-width="1.5" stroke-linecap="round" stroke-dasharray="3,2"/>
</g>
<g class="badges" font-family="sans-serif" font-size="4">
<rect x="44.30" y="-36.00" width="11.4" height="5.0" rx="1" fill="#FFFFFF" stroke="#333333" stroke-width="0.3" opacity="0.9"/>
<text x="50.00" y="-32.00" text-anchor="middle" fill="#333333" font-family="sans-serif" font-size="4">Sym</text>
</g>
<rect x="14.70" y="-113.00" width="50.6" height="5.0" rx="1" fill="#FFFFFF" stroke="#333333" stroke-width="0.3" opacity="0.9"/>
<text x="40.00" y="-109.00" text-anchor="middle" fill="#333333" font-family="sans-serif" font-size="4">Fully Constrained</text>
</svg>
