<svg xmlns="http://www.w3.org/2000/svg" viewBox="-30.00 -60.00 210.00 70.00" width="420" height="140">
<rect x="-29.999999998216236" y="-59.99999999780029" width="209.99999999675242" height="70" fill="white"/>
<g class="grid-minor" stroke="#e0e0e0" stroke-width="0.3">
<line x1="-30.00" y1="-60.00" x2="-30.00" y2="10.00"/>
<line x1="-20.00" y1="-60.00" x2="-20.00" y2="10.00"/>
<line x1="-10.00" y1="-60.00" x2="-10.00" y2="10.00"/>
<line x1="0.00" y1="-60.00" x2="0.00" y2="10.00"/>
<line x1="10.00" y1="-60.00" x2="10.00" y2="10.00"/>
<line x1="20.00" y1="-60.00" x2="20.00" y2="10.00"/>
<line x1="30.00" y1="-60.00" x2="30.00" y2="10.00"/>
<line x1="40.00" y1="-60.00" x2="40.00" y2="10.00"/>
<line x1="50.00" y1="-60.00" x2="50.00" y2="10.00"/>
<line x1="60.00" y1="-60.00" x2="60.00" y2="10.00"/>
<line x1="70.00" y1="-60.00" x2="70.00" y2="10.00"/>
<line x1="80.00" y1="-60.00" x2="80.00" y2="10.00"/>
<line x1="90.00" y1="-60.00" x2="90.00" y2="10.00"/>
<line x1="100.00" y1="-60.00" x2="100.00" y2="10.00"/>
<line x1="110.00" y1="-60.00" x2="110.00" y2="10.00"/>
<line x1="120.00" y1="-60.00" x2="120.00" y2="10.00"/>
<line x1="130.00" y1="-60.00" x2="130.00" y2="10.00"/>
<line x1="140.00" y1="-60.00" x2="140.00" y2="10.00"/>
<line x1="150.00" y1="-60.00" x2="150.00" y2="10.00"/>
<line x1="160.00" y1="-60.00" x2="160.00" y2="10.00"/>
<line x1="170.00" y1="-60.00" x2="170.00" y2="10.00"/>
<line x1="-30.00" y1="-60.00" x2="180.00" y2="-60.00"/>
<line x1="-30.00" y1="-50.00" x2="180.00" y2="-50.00"/>
<line x1="-30.00" y1="-40.00" x2="180.00" y2="-40.00"/>
<line x1="-30.00" y1="-30.00" x2="180.00" y2="-30.00"/>
<line x1="-30.00" y1="-20.00" x2="180.00" y2="-20.00"/>
<line x1="-30.00" y1="-10.00" x2="180.00" y2="-10.00"/>
<line x1="-30.00" y1="0.00" x2="180.00" y2="0.00"/>
<line x1="-30.00" y1="10.00" x2="180.00" y2="10.00"/>
</g>
<g class="grid-major" stroke="#c0c0c0" stroke-width="0.6">
<line x1="-100.00" y1="-60.00" x2="-100.00" y2="10.00"/>
<line x1="0.00" y1="-60.00" x2="0.00" y2="10.00"/>
<line x1="100.00" y1="-60.00" x2="100.00" y2="10.00"/>
<line x1="-30.00" y1="-100.00" x2="180.00" y2="-100.00"/>
<line x1="-30.00" y1="0.00" x2="180.00" y2="0.00"/>
</g>
<path d="M50.0000,0.0000 L0.0000,0.0000 Z M150.0000,-0.0000 L100.0000,-0.0000 Z" fill="#E3F2FD" fill-opacity="0.5" fill-rule="evenodd" stroke="none"/>
<g class="entities">
<circle cx="0.0000" cy="0.0000" r="2" fill="#4CAF50"/>
<circle cx="50.0000" cy="0.0000" r="2" fill="#4CAF50"/>
<circle cx="40.0000" cy="-30.0000" r="2" fill="#4CAF50"/>
<line x1="0.0000" y1="0.0000" x2="50.0000" y2="0.0000" stroke="#2196F3" stroke-width="1.5" stroke-linecap="round"/>
<line x1="0.0000" y1="0.0000" x2="40.0000" y2="-30.0000" stroke="#2196F3" stroke-width="1.5" stroke-linecap="round"/>
<circle cx="100.0000" cy="-0.0000" r="2" fill="#4CAF50"/>
<circle cx="150.0000" cy="-0.0000" r="2" fill="#4CAF50"/>
<circle cx="140.0000" cy="-30.0000" r="2" fill="#4CAF50"/>
<line x1="100.0000" y1="-0.0000" x2="150.0000" y2="-0.0000" stroke="#2196F3" stroke-width="1.5" stroke-linecap="round"/>
<line x1="100.0000" y1="-0.0000" x2="140.0000" y2="-30.0000" stroke="#2196F3" stroke-width="1.5" stroke-linecap="round"/>
</g>
<g class="badges" font-family="sans-serif" font-size="4">
<rect x="122.10" y="-6.00" width="5.8" height="5.0" rx="1" fill="#FFFFFF" stroke="#333333" stroke-width="0.3" opacity="0.9"/>
<text x="125.00" y="-2.00" text-anchor="middle" fill="#333333" font-family="sans-serif" font-size="4">H</text>
<rect x="117.90" y="-12.50" width="14.2" height="5.0" rx="1" fill="#FFFFFF" stroke="#333333" stroke-width="0.3" opacity="0.9"/>
<text x="125.00" y="-8.50" text-anchor="middle" fill="#333333" font-family="sans-serif" font-size="4">50.0</text>
<rect x="112.90" y="-21.00" width="14.2" height="5.0" rx="1" fill="#FFFFFF" stroke="#333333" stroke-width="0.3" opacity="0.9"/>
<text x="120.00" y="-17.00" text-anchor="middle" fill="#333333" font-family="sans-serif" font-size="4">50.0</text>
<rect x="17.90" y="-6.00" width="14.2" height="5.0" rx="1" fill="#FFFFFF" stroke="#333333" stroke-width="0.3" opacity="0.9"/>
<text x="25.00" y="-2.00" text-anchor="middle" fill="#333333" font-family="sans-serif" font-size="4">=∠</text>
</g>
<rect x="-5.30" y="-53.00" width="50.6" height="5.0" rx="1" fill="#FFFFFF" stroke="#333333" stroke-width="0.3" opacity="0.9"/>
<text x="20.00" y="-49.00" text-anchor="middle" fill="#333333" font-family="sans-serif" font-size="4">Fully Constrained</text>
</svg>
