<svg xmlns="http://www.w3.org/2000/svg" viewBox="-40.39 -116.22 265.29 75.69" width="531" height="151">
<rect x="-40.38727620659557" y="-116.2239345027551" width="265.2852296674746" height="75.69462109633913" fill="white"/>
<g class="grid-minor" stroke="#e0e0e0" stroke-width="0.3">
<line x1="-50.00" y1="-116.22" x2="-50.00" y2="-40.53"/>
<line x1="-40.00" y1="-116.22" x2="-40.00" y2="-40.53"/>
<line x1="-30.00" y1="-116.22" x2="-30.00" y2="-40.53"/>
<line x1="-20.00" y1="-116.22" x2="-20.00" y2="-40.53"/>
<line x1="-10.00" y1="-116.22" x2="-10.00" y2="-40.53"/>
<line x1="0.00" y1="-116.22" x2="0.00" y2="-40.53"/>
<line x1="10.00" y1="-116.22" x2="10.00" y2="-40.53"/>
<line x1="20.00" y1="-116.22" x2="20.00" y2="-40.53"/>
<line x1="30.00" y1="-116.22" x2="30.00" y2="-40.53"/>
<line x1="40.00" y1="-116.22" x2="40.00" y2="-40.53"/>
<line x1="50.00" y1="-116.22" x2="50.00" y2="-40.53"/>
<line x1="60.00" y1="-116.22" x2="60.00" y2="-40.53"/>
<line x1="70.00" y1="-116.22" x2="70.00" y2="-40.53"/>
<line x1="80.00" y1="-116.22" x2="80.00" y2="-40.53"/>
<line x1="90.00" y1="-116.22" x2="90.00" y2="-40.53"/>
<line x1="100.00" y1="-116.22" x2="100.00" y2="-40.53"/>
<line x1="110.00" y1="-116.22" x2="110.00" y2="-40.53"/>
<line x1="120.00" y1="-116.22" x2="120.00" y2="-40.53"/>
<line x1="130.00" y1="-116.22" x2="130.00" y2="-40.53"/>
<line x1="140.00" y1="-116.22" x2="140.00" y2="-40.53"/>
<line x1="150.00" y1="-116.22" x2="150.00" y2="-40.53"/>
<line x1="160.00" y1="-116.22" x2="160.00" y2="-40.53"/>
<line x1="170.00" y1="-116.22" x2="170.00" y2="-40.53"/>
<line x1="180.00" y1="-116.22" x2="180.00" y2="-40.53"/>
<line x1="190.00" y1="-116.22" x2="190.00" y2="-40.53"/>
<line x1="200.00" y1="-116.22" x2="200.00" y2="-40.53"/>
<line x1="210.00" y1="-116.22" x2="210.00" y2="-40.53"/>
<line x1="220.00" y1="-116.22" x2="220.00" y2="-40.53"/>
<line x1="-40.39" y1="-120.00" x2="224.90" y2="-120.00"/>
<line x1="-40.39" y1="-110.00" x2="224.90" y2="-110.00"/>
<line x1="-40.39" y1="-100.00" x2="224.90" y2="-100.00"/>
<line x1="-40.39" y1="-90.00" x2="224.90" y2="-90.00"/>
<line x1="-40.39" y1="-80.00" x2="224.90" y2="-80.00"/>
<line x1="-40.39" y1="-70.00" x2="224.90" y2="-70.00"/>
<line x1="-40.39" y1="-60.00" x2="224.90" y2="-60.00"/>
<line x1="-40.39" y1="-50.00" x2="224.90" y2="-50.00"/>
</g>
<g class="grid-major" stroke="#c0c0c0" stroke-width="0.6">
<line x1="-100.00" y1="-116.22" x2="-100.00" y2="-40.53"/>
<line x1="0.00" y1="-116.22" x2="0.00" y2="-40.53"/>
<line x1="100.00" y1="-116.22" x2="100.00" y2="-40.53"/>
<line x1="200.00" y1="-116.22" x2="200.00" y2="-40.53"/>
<line x1="-40.39" y1="-200.00" x2="224.90" y2="-200.00"/>
<line x1="-40.39" y1="-100.00" x2="224.90" y2="-100.00"/>
</g>
<path d="M-2.4894,-51.3428 L187.0001,-51.3428 L187.0001,-105.4104 L-2.4894,-105.4104 Z M187.0001,-51.3428 L-2.4894,-51.3428 L-2.4894,-105.4104 L187.0001,-105.4104 Z" fill="#E3F2FD" fill-opacity="0.5" fill-rule="evenodd" stroke="none"/>
<g class="entities">
<circle cx="-2.4894" cy="-51.3428" r="2" fill="#4CAF50"/>
<circle cx="187.0001" cy="-51.3428" r="2" fill="#4CAF50"/>
<circle cx="187.0001" cy="-105.4104" r="2" fill="#4CAF50"/>
<circle cx="-2.4894" cy="-105.4104" r="2" fill="#4CAF50"/>
<line x1="-2.4894" y1="-51.3428" x2="187.0001" y2="-51.3428" stroke="#2196F3" stroke-width="1.5" stroke-linecap="round"/>
<line x1="187.0001" y1="-51.3428" x2="187.0001" y2="-105.4104" stroke="#2196F3" stroke-width="1.5" stroke-linecap="round"/>
<line x1="187.0001" y1="-105.4104" x2="-2.4894" y2="-105.4104" stroke="#2196F3" stroke-width="1.5" stroke-linecap="round"/>
<line x1="-2.4894" y1="-105.4104" x2="-2.4894" y2="-51.3428" stroke="#2196F3" stroke-width="1.5" stroke-linecap="round"/>
</g>
<g class="badges" font-family="sans-serif" font-size="4">
<rect x="89.36" y="-57.34" width="5.8" height="5.0" rx="1" fill="#FFFFFF" stroke="#333333" stroke-width="0.3" opacity="0.9"/>
<text x="92.26" y="-53.34" text-anchor="middle" fill="#333333" font-family="sans-serif" font-size="4">H</text>
<rect x="89.36" y="-111.41" width="5.8" height="5.0" rx="1" fill="#FFFFFF" stroke="#333333" stroke-width="0.3" opacity="0.9"/>
<text x="92.26" y="-107.41" text-anchor="middle" fill="#333333" font-family="sans-serif" font-size="4">H</text>
<rect x="184.10" y="-84.38" width="5.8" height="5.0" rx="1" fill="#FFFFFF" stroke="#333333" stroke-width="0.3" opacity="0.9"/>
<text x="187.00" y="-80.38" text-anchor="middle" fill="#333333" font-family="sans-serif" font-size="4">V</text>
<rect x="-5.39" y="-84.38" width="5.8" height="5.0" rx="1" fill="#FFFFFF" stroke="#333333" stroke-width="0.3" opacity="0.9"/>
<text x="-2.49" y="-80.38" text-anchor="middle" fill="#333333" font-family="sans-serif" font-size="4">V</text>
<rect x="83.76" y="-63.84" width="17.0" height="5.0" rx="1" fill="#FFFFFF" stroke="#333333" stroke-width="0.3" opacity="0.9"/>
<text x="92.26" y="-59.84" text-anchor="middle" fill="#333333" font-family="sans-serif" font-size="4">189.5</text>
<rect x="179.90" y="-90.88" width="14.2" height="5.0" rx="1" fill="#FFFFFF" stroke="#333333" stroke-width="0.3" opacity="0.9"/>
<text x="187.00" y="-86.88" text-anchor="middle" fill="#333333" font-family="sans-serif" font-size="4">54.1</text>
</g>
<rect x="-7.79" y="-109.22" width="50.6" height="5.0" rx="1" fill="#FFFFFF" stroke="#333333" stroke-width="0.3" opacity="0.9"/>
<text x="17.51" y="-105.22" text-anchor="middle" fill="#333333" font-family="sans-serif" font-size="4">Fully Constrained</text>
</svg>
