<svg xmlns="http://www.w3.org/2000/svg" viewBox="-91.70 -24.37 70.00 70.00" width="140" height="140">
<rect x="-91.70150842217133" y="-24.373140542447373" width="70" height="70" fill="white"/>
<g class="grid-minor" stroke="#e0e0e0" stroke-width="0.3">
<line x1="-100.00" y1="-24.37" x2="-100.00" y2="45.63"/>
<line x1="-90.00" y1="-24.37" x2="-90.00" y2="45.63"/>
<line x1="-80.00" y1="-24.37" x2="-80.00" y2="45.63"/>
<line x1="-70.00" y1="-24.37" x2="-70.00" y2="45.63"/>
<line x1="-60.00" y1="-24.37" x2="-60.00" y2="45.63"/>
<line x1="-50.00" y1="-24.37" x2="-50.00" y2="45.63"/>
<line x1="-40.00" y1="-24.37" x2="-40.00" y2="45.63"/>
<line x1="-30.00" y1="-24.37" x2="-30.00" y2="45.63"/>
<line x1="-91.70" y1="-30.00" x2="-21.70" y2="-30.00"/>
<line x1="-91.70" y1="-20.00" x2="-21.70" y2="-20.00"/>
<line x1="-91.70" y1="-10.00" x2="-21.70" y2="-10.00"/>
<line x1="-91.70" y1="0.00" x2="-21.70" y2="0.00"/>
<line x1="-91.70" y1="10.00" x2="-21.70" y2="10.00"/>
<line x1="-91.70" y1="20.00" x2="-21.70" y2="20.00"/>
<line x1="-91.70" y1="30.00" x2="-21.70" y2="30.00"/>
<line x1="-91.70" y1="40.00" x2="-21.70" y2="40.00"/>
</g>
<g class="grid-major" stroke="#c0c0c0" stroke-width="0.6">
<line x1="-100.00" y1="-24.37" x2="-100.00" y2="45.63"/>
<line x1="-91.70" y1="-100.00" x2="-21.70" y2="-100.00"/>
<line x1="-91.70" y1="0.00" x2="-21.70" y2="0.00"/>
</g>
<path d="M-81.7015,23.0859 A12.5410,12.5410 0 1,1 -56.6195,23.0859 A12.5410,12.5410 0 1,1 -81.7015,23.0859 Z" fill="#E3F2FD" fill-opacity="0.5" fill-rule="evenodd" stroke="none"/>
<g class="entities">
<circle cx="-69.1605" cy="23.0859" r="2" fill="#4CAF50"/>
<circle cx="-69.1605" cy="23.0859" r="12.5410" stroke="#2196F3" stroke-width="1.5" fill="none"/>
</g>
<g class="badges" font-family="sans-serif" font-size="4">
<rect x="-74.66" y="17.09" width="17.0" height="5.0" rx="1" fill="#FFFFFF" stroke="#333333" stroke-width="0.3" opacity="0.9"/>
<text x="-66.16" y="21.09" text-anchor="middle" fill="#333333" font-family="sans-serif" font-size="4">R12.5</text>
</g>
<rect x="-87.00" y="-17.37" width="50.6" height="5.0" rx="1" fill="#FFFFFF" stroke="#333333" stroke-width="0.3" opacity="0.9"/>
<text x="-61.70" y="-13.37" text-anchor="middle" fill="#333333" font-family="sans-serif" font-size="4">Fully Constrained</text>
</svg>
