<svg xmlns="http://www.w3.org/2000/svg" viewBox="-31.46 -102.42 72.10 70.00" width="144" height="140">
<rect x="-31.461541461929812" y="-102.42101452636744" width="72.09980345702115" height="70" fill="white"/>
<g class="grid-minor" stroke="#e0e0e0" stroke-width="0.3">
<line x1="-40.00" y1="-102.42" x2="-40.00" y2="-32.42"/>
<line x1="-30.00" y1="-102.42" x2="-30.00" y2="-32.42"/>
<line x1="-20.00" y1="-102.42" x2="-20.00" y2="-32.42"/>
<line x1="-10.00" y1="-102.42" x2="-10.00" y2="-32.42"/>
<line x1="0.00" y1="-102.42" x2="0.00" y2="-32.42"/>
<line x1="10.00" y1="-102.42" x2="10.00" y2="-32.42"/>
<line x1="20.00" y1="-102.42" x2="20.00" y2="-32.42"/>
<line x1="30.00" y1="-102.42" x2="30.00" y2="-32.42"/>
<line x1="40.00" y1="-102.42" x2="40.00" y2="-32.42"/>
<line x1="-31.46" y1="-110.00" x2="40.64" y2="-110.00"/>
<line x1="-31.46" y1="-100.00" x2="40.64" y2="-100.00"/>
<line x1="-31.46" y1="-90.00" x2="40.64" y2="-90.00"/>
<line x1="-31.46" y1="-80.00" x2="40.64" y2="-80.00"/>
<line x1="-31.46" y1="-70.00" x2="40.64" y2="-70.00"/>
<line x1="-31.46" y1="-60.00" x2="40.64" y2="-60.00"/>
<line x1="-31.46" y1="-50.00" x2="40.64" y2="-50.00"/>
<line x1="-31.46" y1="-40.00" x2="40.64" y2="-40.00"/>
</g>
<g class="grid-major" stroke="#c0c0c0" stroke-width="0.6">
<line x1="-100.00" y1="-102.42" x2="-100.00" y2="-32.42"/>
<line x1="0.00" y1="-102.42" x2="0.00" y2="-32.42"/>
<line x1="-31.46" y1="-200.00" x2="40.64" y2="-200.00"/>
<line x1="-31.46" y1="-100.00" x2="40.64" y2="-100.00"/>
</g>
<path d="M-21.1616,-42.4210 L30.3383,-42.4210 L4.5884,-87.0212 Z M30.3383,-42.4210 L-21.1616,-42.4210 L4.5884,-87.0212 Z" fill="#E3F2FD" fill-opacity="0.5" fill-rule="evenodd" stroke="none"/>
<g class="entities">
<circle cx="-21.1616" cy="-42.4210" r="2" fill="#4CAF50"/>
<circle cx="30.3383" cy="-42.4210" r="2" fill="#4CAF50"/>
<circle cx="4.5884" cy="-87.0212" r="2" fill="#4CAF50"/>
<line x1="-21.1616" y1="-42.4210" x2="30.3383" y2="-42.4210" stroke="#2196F3" stroke-width="1.5" stroke-linecap="round"/>
<line x1="30.3383" y1="-42.4210" x2="4.5884" y2="-87.0212" stroke="#2196F3" stroke-width="1.5" stroke-linecap="round"/>
<line x1="4.5884" y1="-87.0212" x2="-21.1616" y2="-42.4210" stroke="#2196F3" stroke-width="1.5" stroke-linecap="round"/>
</g>
<g class="badges" font-family="sans-serif" font-size="4">
<rect x="-2.51" y="-48.42" width="14.2" height="5.0" rx="1" fill="#FFFFFF" stroke="#333333" stroke-width="0.3" opacity="0.9"/>
<text x="4.59" y="-44.42" text-anchor="middle" fill="#333333" font-family="sans-serif" font-size="4">51.5</text>
<rect x="10.36" y="-70.72" width="14.2" height="5.0" rx="1" fill="#FFFFFF" stroke="#333333" stroke-width="0.3" opacity="0.9"/>
<text x="17.46" y="-66.72" text-anchor="middle" fill="#333333" font-family="sans-serif" font-size="4">51.5</text>
<rect x="-15.39" y="-70.72" width="14.2" height="5.0" rx="1" fill="#FFFFFF" stroke="#333333" stroke-width="0.3" opacity="0.9"/>
<text x="-8.29" y="-66.72" text-anchor="middle" fill="#333333" font-family="sans-serif" font-size="4">51.5</text>
<rect x="1.69" y="-54.92" width="5.8" height="5.0" rx="1" fill="#FFFFFF" stroke="#333333" stroke-width="0.3" opacity="0.9"/>
<text x="4.59" y="-50.92" text-anchor="middle" fill="#333333" font-family="sans-serif" font-size="4">H</text>
</g>
<rect x="-26.46" y="-95.42" width="50.6" height="5.0" rx="1" fill="#FFFFFF" stroke="#333333" stroke-width="0.3" opacity="0.9"/>
<text x="-1.16" y="-91.42" text-anchor="middle" fill="#333333" font-family="sans-serif" font-size="4">Fully Constrained</text>
</svg>
