<svg xmlns="http://www.w3.org/2000/svg" viewBox="24.55 -67.29 70.00 70.00" width="140" height="140">
<rect x="24.545456738308623" y="-67.28594390444425" width="70" height="70" fill="white"/>
<g class="grid-minor" stroke="#e0e0e0" stroke-width="0.3">
<line x1="20.00" y1="-67.29" x2="20.00" y2="2.71"/>
<line x1="30.00" y1="-67.29" x2="30.00" y2="2.71"/>
<line x1="40.00" y1="-67.29" x2="40.00" y2="2.71"/>
<line x1="50.00" y1="-67.29" x2="50.00" y2="2.71"/>
<line x1="60.00" y1="-67.29" x2="60.00" y2="2.71"/>
<line x1="70.00" y1="-67.29" x2="70.00" y2="2.71"/>
<line x1="80.00" y1="-67.29" x2="80.00" y2="2.71"/>
<line x1="90.00" y1="-67.29" x2="90.00" y2="2.71"/>
<line x1="24.55" y1="-70.00" x2="94.55" y2="-70.00"/>
<line x1="24.55" y1="-60.00" x2="94.55" y2="-60.00"/>
<line x1="24.55" y1="-50.00" x2="94.55" y2="-50.00"/>
<line x1="24.55" y1="-40.00" x2="94.55" y2="-40.00"/>
<line x1="24.55" y1="-30.00" x2="94.55" y2="-30.00"/>
<line x1="24.55" y1="-20.00" x2="94.55" y2="-20.00"/>
<line x1="24.55" y1="-10.00" x2="94.55" y2="-10.00"/>
<line x1="24.55" y1="0.00" x2="94.55" y2="0.00"/>
</g>
<g class="grid-major" stroke="#c0c0c0" stroke-width="0.6">
<line x1="0.00" y1="-67.29" x2="0.00" y2="2.71"/>
<line x1="24.55" y1="-100.00" x2="94.55" y2="-100.00"/>
<line x1="24.55" y1="0.00" x2="94.55" y2="0.00"/>
</g>
<path d="M34.5455,-7.2859 L81.5703,-7.2859 L58.0579,-48.0106 Z M81.5703,-7.2859 L34.5455,-7.2859 L58.0579,-48.0106 Z" fill="#E3F2FD" fill-opacity="0.5" fill-rule="evenodd" stroke="none"/>
<g class="entities">
<circle cx="34.5455" cy="-7.2859" r="2" fill="#4CAF50"/>
<circle cx="81.5703" cy="-7.2859" r="2" fill="#4CAF50"/>
<circle cx="58.0579" cy="-48.0106" r="2" fill="#4CAF50"/>
<line x1="34.5455" y1="-7.2859" x2="81.5703" y2="-7.2859" stroke="#2196F3" stroke-width="1.5" stroke-linecap="round"/>
<line x1="81.5703" y1="-7.2859" x2="58.0579" y2="-48.0106" stroke="#2196F3" stroke-width="1.5" stroke-linecap="round"/>
<line x1="58.0579" y1="-48.0106" x2="34.5455" y2="-7.2859" stroke="#2196F3" stroke-width="1.5" stroke-linecap="round"/>
</g>
<g class="badges" font-family="sans-serif" font-size="4">
<rect x="50.96" y="-13.29" width="14.2" height="5.0" rx="1" fill="#FFFFFF" stroke="#333333" stroke-width="0.3" opacity="0.9"/>
<text x="58.06" y="-9.29" text-anchor="middle" fill="#333333" font-family="sans-serif" font-size="4">47.0</text>
<rect x="62.71" y="-33.65" width="14.2" height="5.0" rx="1" fill="#FFFFFF" stroke="#333333" stroke-width="0.3" opacity="0.9"/>
<text x="69.81" y="-29.65" text-anchor="middle" fill="#333333" font-family="sans-serif" font-size="4">47.0</text>
<rect x="39.20" y="-33.65" width="14.2" height="5.0" rx="1" fill="#FFFFFF" stroke="#333333" stroke-width="0.3" opacity="0.9"/>
<text x="46.30" y="-29.65" text-anchor="middle" fill="#333333" font-family="sans-serif" font-size="4">47.0</text>
<rect x="55.16" y="-19.79" width="5.8" height="5.0" rx="1" fill="#FFFFFF" stroke="#333333" stroke-width="0.3" opacity="0.9"/>
<text x="58.06" y="-15.79" text-anchor="middle" fill="#333333" font-family="sans-serif" font-size="4">H</text>
</g>
<rect x="29.25" y="-60.29" width="50.6" height="5.0" rx="1" fill="#FFFFFF" stroke="#333333" stroke-width="0.3" opacity="0.9"/>
<text x="54.55" y="-56.29" text-anchor="middle" fill="#333333" font-family="sans-serif" font-size="4">Fully Constrained</text>
</svg>
