<svg xmlns="http://www.w3.org/2000/svg" viewBox="-20.00 -72.00 140.00 84.00" width="280" height="168">
<rect x="-20.00022382056447" y="-72.00001286961705" width="140.00017669897875" height="84.00009008731936" fill="white"/>
<g class="grid-minor" stroke="#e0e0e0" stroke-width="0.3">
<line x1="-30.00" y1="-72.00" x2="-30.00" y2="12.00"/>
<line x1="-20.00" y1="-72.00" x2="-20.00" y2="12.00"/>
<line x1="-10.00" y1="-72.00" x2="-10.00" y2="12.00"/>
<line x1="0.00" y1="-72.00" x2="0.00" y2="12.00"/>
<line x1="10.00" y1="-72.00" x2="10.00" y2="12.00"/>
<line x1="20.00" y1="-72.00" x2="20.00" y2="12.00"/>
<line x1="30.00" y1="-72.00" x2="30.00" y2="12.00"/>
<line x1="40.00" y1="-72.00" x2="40.00" y2="12.00"/>
<line x1="50.00" y1="-72.00" x2="50.00" y2="12.00"/>
<line x1="60.00" y1="-72.00" x2="60.00" y2="12.00"/>
<line x1="70.00" y1="-72.00" x2="70.00" y2="12.00"/>
<line x1="80.00" y1="-72.00" x2="80.00" y2="12.00"/>
<line x1="90.00" y1="-72.00" x2="90.00" y2="12.00"/>
<line x1="100.00" y1="-72.00" x2="100.00" y2="12.00"/>
<line x1="110.00" y1="-72.00" x2="110.00" y2="12.00"/>
<line x1="-20.00" y1="-80.00" x2="120.00" y2="-80.00"/>
<line x1="-20.00" y1="-70.00" x2="120.00" y2="-70.00"/>
<line x1="-20.00" y1="-60.00" x2="120.00" y2="-60.00"/>
<line x1="-20.00" y1="-50.00" x2="120.00" y2="-50.00"/>
<line x1="-20.00" y1="-40.00" x2="120.00" y2="-40.00"/>
<line x1="-20.00" y1="-30.00" x2="120.00" y2="-30.00"/>
<line x1="-20.00" y1="-20.00" x2="120.00" y2="-20.00"/>
<line x1="-20.00" y1="-10.00" x2="120.00" y2="-10.00"/>
<line x1="-20.00" y1="0.00" x2="120.00" y2="0.00"/>
<line x1="-20.00" y1="10.00" x2="120.00" y2="10.00"/>
</g>
<g class="grid-major" stroke="#c0c0c0" stroke-width="0.6">
<line x1="-100.00" y1="-72.00" x2="-100.00" y2="12.00"/>
<line x1="0.00" y1="-72.00" x2="0.00" y2="12.00"/>
<line x1="100.00" y1="-72.00" x2="100.00" y2="12.00"/>
<line x1="-20.00" y1="-100.00" x2="120.00" y2="-100.00"/>
<line x1="-20.00" y1="0.00" x2="120.00" y2="0.00"/>
</g>
<path d="M99.9999,0.0001 L64.6932,-39.6522 A20.7244,20.7244 0 0,0 35.1728,-39.8272 Z" fill="#E3F2FD" fill-opacity="0.5" fill-rule="evenodd" stroke="none"/>
<g class="entities">
<circle cx="-0.0002" cy="-0.0002" r="2" fill="#FF9800"/>
<circle cx="50.0000" cy="-60.0000" r="2" fill="#FF9800"/>
<circle cx="99.9999" cy="0.0001" r="2" fill="#FF9800"/>
<circle cx="35.1728" cy="-39.8272" r="2" fill="#FF9800"/>
<circle cx="64.6932" cy="-39.6522" r="2" fill="#FF9800"/>
<circle cx="49.8272" cy="-25.1728" r="2" fill="#FF9800"/>
<line x1="-0.0002" y1="-0.0002" x2="35.1728" y2="-39.8272" stroke="#2196F3" stroke-width="1.5" stroke-linecap="round"/>
<line x1="64.6932" y1="-39.6522" x2="99.9999" y2="0.0001" stroke="#2196F3" stroke-width="1.5" stroke-linecap="round"/>
<path d="M35.1728,-39.8272 A20.7244,20.7244 0 0,1 64.6932,-39.6522" stroke="#2196F3" stroke-width="1.5" fill="none"/>
</g>
<g class="badges" font-family="sans-serif" font-size="4">
<rect x="30.81" y="-28.54" width="5.8" height="5.0" rx="1" fill="#FFFFFF" stroke="#333333" stroke-width="0.3" opacity="0.9"/>
<text x="33.71" y="-24.54" text-anchor="middle" fill="#333333" font-family="sans-serif" font-size="4">T</text>
<rect x="63.19" y="-28.50" width="5.8" height="5.0" rx="1" fill="#FFFFFF" stroke="#333333" stroke-width="0.3" opacity="0.9"/>
<text x="66.09" y="-24.50" text-anchor="middle" fill="#333333" font-family="sans-serif" font-size="4">T</text>
</g>
<rect x="0.30" y="-65.00" width="39.4" height="5.0" rx="1" fill="#FFFFFF" stroke="#333333" stroke-width="0.3" opacity="0.9"/>
<text x="20.00" y="-61.00" text-anchor="middle" fill="#333333" font-family="sans-serif" font-size="4">Under (6 DOF)</text>
</svg>
