<svg xmlns="http://www.w3.org/2000/svg" width="400" height="300" style="background:#1a1a2e">
<text x="200" y="20" font-family="monospace" font-size="13" fill="#8892b0" text-anchor="middle">Cylinder (r=5, h=12, 96 seg)</text>
  <polygon points="240.6,197.6 243.7,199.2 246.5,200.9" fill="rgb(86,138,190)" stroke="#222240" stroke-width="0.2"/>
  <polygon points="240.6,197.6 246.5,200.9 249.2,202.6" fill="rgb(86,138,190)" stroke="#222240" stroke-width="0.2"/>
  <polygon points="240.6,197.6 249.2,202.6 251.6,204.5" fill="rgb(86,138,190)" stroke="#222240" stroke-width="0.2"/>
  <polygon points="240.6,197.6 251.6,204.5 253.8,206.5" fill="rgb(86,138,190)" stroke="#222240" stroke-width="0.2"/>
  <polygon points="240.6,197.6 253.8,206.5 255.8,208.5" fill="rgb(86,138,190)" stroke="#222240" stroke-width="0.2"/>
  <polygon points="240.6,197.6 255.8,208.5 257.6,210.6" fill="rgb(86,138,190)" stroke="#222240" stroke-width="0.2"/>
  <polygon points="240.6,197.6 257.6,210.6 259.1,212.7" fill="rgb(86,138,190)" stroke="#222240" stroke-width="0.2"/>
  <polygon points="240.6,197.6 259.1,212.7 260.3,214.9" fill="rgb(86,138,190)" stroke="#222240" stroke-width="0.2"/>
  <polygon points="240.6,197.6 260.3,214.9 261.3,217.2" fill="rgb(86,138,190)" stroke="#222240" stroke-width="0.2"/>
  <polygon points="240.6,197.6 261.3,217.2 262.0,219.5" fill="rgb(86,138,190)" stroke="#222240" stroke-width="0.2"/>
  <polygon points="240.6,197.6 262.0,219.5 262.5,221.8" fill="rgb(86,138,190)" stroke="#222240" stroke-width="0.2"/>
  <polygon points="240.6,197.6 262.5,221.8 262.7,224.1" fill="rgb(86,138,190)" stroke="#222240" stroke-width="0.2"/>
  <polygon points="240.6,197.6 262.7,224.1 262.6,226.4" fill="rgb(86,138,190)" stroke="#222240" stroke-width="0.2"/>
  <polygon points="240.6,197.6 262.6,226.4 262.3,228.7" fill="rgb(86,138,190)" stroke="#222240" stroke-width="0.2"/>
  <polygon points="240.6,197.6 262.3,228.7 261.7,231.0" fill="rgb(86,138,190)" stroke="#222240" stroke-width="0.2"/>
  <polygon points="240.6,197.6 261.7,231.0 260.8,233.3" fill="rgb(86,138,190)" stroke="#222240" stroke-width="0.2"/>
  <polygon points="240.6,197.6 260.8,233.3 259.7,235.5" fill="rgb(86,138,190)" stroke="#222240" stroke-width="0.2"/>
  <polygon points="240.6,197.6 259.7,235.5 258.3,237.7" fill="rgb(86,138,190)" stroke="#222240" stroke-width="0.2"/>
  <polygon points="240.6,197.6 258.3,237.7 256.6,239.8" fill="rgb(86,138,190)" stroke="#222240" stroke-width="0.2"/>
  <polygon points="240.6,197.6 256.6,239.8 254.8,241.9" fill="rgb(86,138,190)" stroke="#222240" stroke-width="0.2"/>
  <polygon points="240.6,197.6 254.8,241.9 252.6,243.8" fill="rgb(86,138,190)" stroke="#222240" stroke-width="0.2"/>
  <polygon points="240.6,197.6 252.6,243.8 250.3,245.7" fill="rgb(86,138,190)" stroke="#222240" stroke-width="0.2"/>
  <polygon points="240.6,197.6 250.3,245.7 247.7,247.6" fill="rgb(86,138,190)" stroke="#222240" stroke-width="0.2"/>
  <polygon points="240.6,197.6 247.7,247.6 245.0,249.3" fill="rgb(86,138,190)" stroke="#222240" stroke-width="0.2"/>
  <polygon points="240.6,197.6 245.0,249.3 242.0,250.9" fill="rgb(86,138,190)" stroke="#222240" stroke-width="0.2"/>
  <polygon points="240.6,197.6 242.0,250.9 238.9,252.4" fill="rgb(86,138,190)" stroke="#222240" stroke-width="0.2"/>
  <polygon points="240.6,197.6 238.9,252.4 235.6,253.7" fill="rgb(86,138,190)" stroke="#222240" stroke-width="0.2"/>
  <polygon points="240.6,197.6 235.6,253.7 232.1,255.0" fill="rgb(86,138,190)" stroke="#222240" stroke-width="0.2"/>
  <polygon points="240.6,197.6 232.1,255.0 228.6,256.1" fill="rgb(86,138,190)" stroke="#222240" stroke-width="0.2"/>
  <polygon points="240.6,197.6 228.6,256.1 224.8,257.1" fill="rgb(86,138,190)" stroke="#222240" stroke-width="0.2"/>
  <polygon points="240.6,197.6 224.8,257.1 221.0,258.0" fill="rgb(86,138,190)" stroke="#222240" stroke-width="0.2"/>
  <polygon points="240.6,197.6 221.0,258.0 217.1,258.7" fill="rgb(86,138,190)" stroke="#222240" stroke-width="0.2"/>
  <polygon points="240.6,197.6 217.1,258.7 213.1,259.2" fill="rgb(86,138,190)" stroke="#222240" stroke-width="0.2"/>
  <polygon points="240.6,197.6 213.1,259.2 209.1,259.6" fill="rgb(86,138,190)" stroke="#222240" stroke-width="0.2"/>
  <polygon points="240.6,197.6 209.1,259.6 205.0,259.9" fill="rgb(86,138,190)" stroke="#222240" stroke-width="0.2"/>
  <polygon points="240.6,197.6 205.0,259.9 200.9,260.0" fill="rgb(86,138,190)" stroke="#222240" stroke-width="0.2"/>
  <polygon points="240.6,197.6 200.9,260.0 196.8,260.0" fill="rgb(86,138,190)" stroke="#222240" stroke-width="0.2"/>
  <polygon points="240.6,197.6 196.8,260.0 192.7,259.8" fill="rgb(86,138,190)" stroke="#222240" stroke-width="0.2"/>
  <polygon points="240.6,197.6 192.7,259.8 188.7,259.4" fill="rgb(86,138,190)" stroke="#222240" stroke-width="0.2"/>
  <polygon points="240.6,197.6 188.7,259.4 184.7,258.9" fill="rgb(86,138,190)" stroke="#222240" stroke-width="0.2"/>
  <polygon points="240.6,197.6 184.7,258.9 180.7,258.3" fill="rgb(86,138,190)" stroke="#222240" stroke-width="0.2"/>
  <polygon points="240.6,197.6 180.7,258.3 176.9,257.5" fill="rgb(86,138,190)" stroke="#222240" stroke-width="0.2"/>
  <polygon points="240.6,197.6 176.9,257.5 173.1,256.6" fill="rgb(86,138,190)" stroke="#222240" stroke-width="0.2"/>
  <polygon points="240.6,197.6 173.1,256.6 169.4,255.5" fill="rgb(86,138,190)" stroke="#222240" stroke-width="0.2"/>
  <polygon points="240.6,197.6 169.4,255.5 165.9,254.3" fill="rgb(86,138,190)" stroke="#222240" stroke-width="0.2"/>
  <polygon points="240.6,197.6 165.9,254.3 162.6,253.0" fill="rgb(86,138,190)" stroke="#222240" stroke-width="0.2"/>
  <polygon points="240.6,197.6 162.6,253.0 159.4,251.6" fill="rgb(86,138,190)" stroke="#222240" stroke-width="0.2"/>
  <polygon points="240.6,197.6 159.4,251.6 156.3,250.0" fill="rgb(86,138,190)" stroke="#222240" stroke-width="0.2"/>
  <polygon points="240.6,197.6 156.3,250.0 153.5,248.3" fill="rgb(86,138,190)" stroke="#222240" stroke-width="0.2"/>
  <polygon points="240.6,197.6 153.5,248.3 150.8,246.6" fill="rgb(86,138,190)" stroke="#222240" stroke-width="0.2"/>
  <polygon points="240.6,197.6 150.8,246.6 148.4,244.7" fill="rgb(86,138,190)" stroke="#222240" stroke-width="0.2"/>
  <polygon points="240.6,197.6 148.4,244.7 146.2,242.7" fill="rgb(86,138,190)" stroke="#222240" stroke-width="0.2"/>
  <polygon points="240.6,197.6 146.2,242.7 144.2,240.7" fill="rgb(86,138,190)" stroke="#222240" stroke-width="0.2"/>
  <polygon points="240.6,197.6 144.2,240.7 142.4,238.6" fill="rgb(86,138,190)" stroke="#222240" stroke-width="0.2"/>
  <polygon points="240.6,197.6 142.4,238.6 140.9,236.5" fill="rgb(86,138,190)" stroke="#222240" stroke-width="0.2"/>
  <polygon points="240.6,197.6 140.9,236.5 139.7,234.3" fill="rgb(86,138,190)" stroke="#222240" stroke-width="0.2"/>
  <polygon points="240.6,197.6 139.7,234.3 138.7,232.0" fill="rgb(86,138,190)" stroke="#222240" stroke-width="0.2"/>
  <polygon points="240.6,197.6 138.7,232.0 138.0,229.7" fill="rgb(86,138,190)" stroke="#222240" stroke-width="0.2"/>
  <polygon points="240.6,197.6 138.0,229.7 137.5,227.4" fill="rgb(86,138,190)" stroke="#222240" stroke-width="0.2"/>
  <polygon points="240.6,197.6 137.5,227.4 137.3,225.1" fill="rgb(86,138,190)" stroke="#222240" stroke-width="0.2"/>
  <polygon points="240.6,197.6 137.3,225.1 137.4,222.8" fill="rgb(86,138,190)" stroke="#222240" stroke-width="0.2"/>
  <polygon points="240.6,197.6 137.4,222.8 137.7,220.5" fill="rgb(86,138,190)" stroke="#222240" stroke-width="0.2"/>
  <polygon points="240.6,197.6 137.7,220.5 138.3,218.2" fill="rgb(86,138,190)" stroke="#222240" stroke-width="0.2"/>
  <polygon points="240.6,197.6 138.3,218.2 139.2,215.9" fill="rgb(86,138,190)" stroke="#222240" stroke-width="0.2"/>
  <polygon points="240.6,197.6 139.2,215.9 140.3,213.7" fill="rgb(86,138,190)" stroke="#222240" stroke-width="0.2"/>
  <polygon points="240.6,197.6 140.3,213.7 141.7,211.5" fill="rgb(86,138,190)" stroke="#222240" stroke-width="0.2"/>
  <polygon points="240.6,197.6 141.7,211.5 143.4,209.4" fill="rgb(86,138,190)" stroke="#222240" stroke-width="0.2"/>
  <polygon points="240.6,197.6 143.4,209.4 145.2,207.3" fill="rgb(86,138,190)" stroke="#222240" stroke-width="0.2"/>
  <polygon points="240.6,197.6 145.2,207.3 147.4,205.4" fill="rgb(86,138,190)" stroke="#222240" stroke-width="0.2"/>
  <polygon points="240.6,197.6 147.4,205.4 149.7,203.5" fill="rgb(86,138,190)" stroke="#222240" stroke-width="0.2"/>
  <polygon points="240.6,197.6 149.7,203.5 152.3,201.6" fill="rgb(86,138,190)" stroke="#222240" stroke-width="0.2"/>
  <polygon points="240.6,197.6 152.3,201.6 155.0,199.9" fill="rgb(86,138,190)" stroke="#222240" stroke-width="0.2"/>
  <polygon points="240.6,197.6 155.0,199.9 158.0,198.3" fill="rgb(86,138,190)" stroke="#222240" stroke-width="0.2"/>
  <polygon points="240.6,197.6 158.0,198.3 161.1,196.8" fill="rgb(86,138,190)" stroke="#222240" stroke-width="0.2"/>
  <polygon points="240.6,197.6 161.1,196.8 164.4,195.5" fill="rgb(86,138,190)" stroke="#222240" stroke-width="0.2"/>
  <polygon points="240.6,197.6 164.4,195.5 167.9,194.2" fill="rgb(86,138,190)" stroke="#222240" stroke-width="0.2"/>
  <polygon points="240.6,197.6 167.9,194.2 171.4,193.1" fill="rgb(86,138,190)" stroke="#222240" stroke-width="0.2"/>
  <polygon points="240.6,197.6 171.4,193.1 175.2,192.1" fill="rgb(86,138,190)" stroke="#222240" stroke-width="0.2"/>
  <polygon points="240.6,197.6 175.2,192.1 179.0,191.2" fill="rgb(86,138,190)" stroke="#222240" stroke-width="0.2"/>
  <polygon points="240.6,197.6 179.0,191.2 182.9,190.5" fill="rgb(86,138,190)" stroke="#222240" stroke-width="0.2"/>
  <polygon points="240.6,197.6 182.9,190.5 186.9,190.0" fill="rgb(86,138,190)" stroke="#222240" stroke-width="0.2"/>
  <polygon points="240.6,197.6 186.9,190.0 190.9,189.6" fill="rgb(86,138,190)" stroke="#222240" stroke-width="0.2"/>
  <polygon points="240.6,197.6 190.9,189.6 195.0,189.3" fill="rgb(86,138,190)" stroke="#222240" stroke-width="0.2"/>
  <polygon points="240.6,197.6 195.0,189.3 199.1,189.2" fill="rgb(86,138,190)" stroke="#222240" stroke-width="0.2"/>
  <polygon points="240.6,197.6 199.1,189.2 203.2,189.2" fill="rgb(86,138,190)" stroke="#222240" stroke-width="0.2"/>
  <polygon points="240.6,197.6 203.2,189.2 207.3,189.4" fill="rgb(86,138,190)" stroke="#222240" stroke-width="0.2"/>
  <polygon points="240.6,197.6 207.3,189.4 211.3,189.8" fill="rgb(86,138,190)" stroke="#222240" stroke-width="0.2"/>
  <polygon points="240.6,197.6 211.3,189.8 215.3,190.3" fill="rgb(86,138,190)" stroke="#222240" stroke-width="0.2"/>
  <polygon points="240.6,197.6 215.3,190.3 219.3,190.9" fill="rgb(86,138,190)" stroke="#222240" stroke-width="0.2"/>
  <polygon points="240.6,197.6 219.3,190.9 223.1,191.7" fill="rgb(86,138,190)" stroke="#222240" stroke-width="0.2"/>
  <polygon points="240.6,197.6 223.1,191.7 226.9,192.6" fill="rgb(86,138,190)" stroke="#222240" stroke-width="0.2"/>
  <polygon points="240.6,197.6 226.9,192.6 230.6,193.7" fill="rgb(86,138,190)" stroke="#222240" stroke-width="0.2"/>
  <polygon points="240.6,197.6 230.6,193.7 234.1,194.9" fill="rgb(86,138,190)" stroke="#222240" stroke-width="0.2"/>
  <polygon points="234.1,194.9 237.4,196.2 240.6,197.6" fill="rgb(86,138,190)" stroke="#222240" stroke-width="0.2"/>
  <polygon points="243.7,75.0 243.7,199.2 240.6,197.6" fill="rgb(50,80,110)" stroke="#222240" stroke-width="0.2"/>
  <polygon points="240.6,73.4 240.6,197.6 237.4,196.2" fill="rgb(47,76,104)" stroke="#222240" stroke-width="0.2"/>
  <polygon points="237.4,72.0 237.4,196.2 234.1,194.9" fill="rgb(45,72,99)" stroke="#222240" stroke-width="0.2"/>
  <polygon points="234.1,70.7 234.1,194.9 230.6,193.7" fill="rgb(42,68,93)" stroke="#222240" stroke-width="0.2"/>
  <polygon points="230.6,69.5 230.6,193.7 226.9,192.6" fill="rgb(40,64,88)" stroke="#222240" stroke-width="0.2"/>
  <polygon points="226.9,68.4 226.9,192.6 223.1,191.7" fill="rgb(37,59,82)" stroke="#222240" stroke-width="0.2"/>
  <polygon points="223.1,67.5 223.1,191.7 219.3,190.9" fill="rgb(34,55,76)" stroke="#222240" stroke-width="0.2"/>
  <polygon points="219.3,66.7 219.3,190.9 215.3,190.3" fill="rgb(32,51,70)" stroke="#222240" stroke-width="0.2"/>
  <polygon points="215.3,66.1 215.3,190.3 211.3,189.8" fill="rgb(30,49,67)" stroke="#222240" stroke-width="0.2"/>
  <polygon points="211.3,65.6 211.3,189.8 207.3,189.4" fill="rgb(33,53,73)" stroke="#222240" stroke-width="0.2"/>
  <polygon points="207.3,65.2 207.3,189.4 203.2,189.2" fill="rgb(36,57,79)" stroke="#222240" stroke-width="0.2"/>
  <polygon points="203.2,65.0 203.2,189.2 199.1,189.2" fill="rgb(38,61,85)" stroke="#222240" stroke-width="0.2"/>
  <polygon points="199.1,65.0 199.1,189.2 195.0,189.3" fill="rgb(41,66,90)" stroke="#222240" stroke-width="0.2"/>
  <polygon points="195.0,65.1 195.0,189.3 190.9,189.6" fill="rgb(43,70,96)" stroke="#222240" stroke-width="0.2"/>
  <polygon points="190.9,65.4 190.9,189.6 186.9,190.0" fill="rgb(46,74,102)" stroke="#222240" stroke-width="0.2"/>
  <polygon points="186.9,65.8 186.9,190.0 182.9,190.5" fill="rgb(48,78,107)" stroke="#222240" stroke-width="0.2"/>
  <polygon points="182.9,66.3 182.9,190.5 179.0,191.2" fill="rgb(51,81,112)" stroke="#222240" stroke-width="0.2"/>
  <polygon points="179.0,67.0 179.0,191.2 175.2,192.1" fill="rgb(53,85,117)" stroke="#222240" stroke-width="0.2"/>
  <polygon points="175.2,67.9 175.2,192.1 171.4,193.1" fill="rgb(55,88,122)" stroke="#222240" stroke-width="0.2"/>
  <polygon points="171.4,68.9 171.4,193.1 167.9,194.2" fill="rgb(57,92,126)" stroke="#222240" stroke-width="0.2"/>
  <polygon points="167.9,70.0 167.9,194.2 164.4,195.5" fill="rgb(59,95,131)" stroke="#222240" stroke-width="0.2"/>
  <polygon points="164.4,71.3 164.4,195.5 161.1,196.8" fill="rgb(61,98,135)" stroke="#222240" stroke-width="0.2"/>
  <polygon points="161.1,72.6 161.1,196.8 158.0,198.3" fill="rgb(63,100,138)" stroke="#222240" stroke-width="0.2"/>
  <polygon points="158.0,74.1 158.0,198.3 155.0,199.9" fill="rgb(64,103,142)" stroke="#222240" stroke-width="0.2"/>
  <polygon points="155.0,75.7 155.0,199.9 152.3,201.6" fill="rgb(66,105,145)" stroke="#222240" stroke-width="0.2"/>
  <polygon points="152.3,77.4 152.3,201.6 149.7,203.5" fill="rgb(67,107,147)" stroke="#222240" stroke-width="0.2"/>
  <polygon points="149.7,79.3 149.7,203.5 147.4,205.4" fill="rgb(68,109,150)" stroke="#222240" stroke-width="0.2"/>
  <polygon points="147.4,81.2 147.4,205.4 145.2,207.3" fill="rgb(69,110,152)" stroke="#222240" stroke-width="0.2"/>
  <polygon points="145.2,83.1 145.2,207.3 143.4,209.4" fill="rgb(69,111,153)" stroke="#222240" stroke-width="0.2"/>
  <polygon points="143.4,85.2 143.4,209.4 141.7,211.5" fill="rgb(70,112,155)" stroke="#222240" stroke-width="0.2"/>
  <polygon points="141.7,87.3 141.7,211.5 140.3,213.7" fill="rgb(70,113,156)" stroke="#222240" stroke-width="0.2"/>
  <polygon points="140.3,89.5 140.3,213.7 139.2,215.9" fill="rgb(71,113,156)" stroke="#222240" stroke-width="0.2"/>
  <polygon points="139.2,91.7 139.2,215.9 138.3,218.2" fill="rgb(71,113,156)" stroke="#222240" stroke-width="0.2"/>
  <polygon points="138.3,94.0 138.3,218.2 137.7,220.5" fill="rgb(71,113,156)" stroke="#222240" stroke-width="0.2"/>
  <polygon points="137.7,96.3 137.7,220.5 137.4,222.8" fill="rgb(70,113,155)" stroke="#222240" stroke-width="0.2"/>
  <polygon points="137.4,98.6 137.4,222.8 137.3,225.1" fill="rgb(70,112,154)" stroke="#222240" stroke-width="0.2"/>
  <polygon points="137.3,100.9 137.3,225.1 137.5,227.4" fill="rgb(69,111,153)" stroke="#222240" stroke-width="0.2"/>
  <polygon points="137.5,103.2 137.5,227.4 138.0,229.7" fill="rgb(68,110,151)" stroke="#222240" stroke-width="0.2"/>
  <polygon points="138.0,105.5 138.0,229.7 138.7,232.0" fill="rgb(67,108,149)" stroke="#222240" stroke-width="0.2"/>
  <polygon points="138.7,107.8 138.7,232.0 139.7,234.3" fill="rgb(66,106,146)" stroke="#222240" stroke-width="0.2"/>
  <polygon points="139.7,110.1 139.7,234.3 140.9,236.5" fill="rgb(65,104,143)" stroke="#222240" stroke-width="0.2"/>
  <polygon points="140.9,112.3 140.9,236.5 142.4,238.6" fill="rgb(63,102,140)" stroke="#222240" stroke-width="0.2"/>
  <polygon points="142.4,114.4 142.4,238.6 144.2,240.7" fill="rgb(62,99,137)" stroke="#222240" stroke-width="0.2"/>
  <polygon points="144.2,116.5 144.2,240.7 146.2,242.7" fill="rgb(60,96,133)" stroke="#222240" stroke-width="0.2"/>
  <polygon points="146.2,118.5 146.2,242.7 148.4,244.7" fill="rgb(58,93,129)" stroke="#222240" stroke-width="0.2"/>
  <polygon points="148.4,120.5 148.4,244.7 150.8,246.6" fill="rgb(56,90,124)" stroke="#222240" stroke-width="0.2"/>
  <polygon points="150.8,122.4 150.8,246.6 153.5,248.3" fill="rgb(54,87,120)" stroke="#222240" stroke-width="0.2"/>
  <polygon points="153.5,124.1 153.5,248.3 156.3,250.0" fill="rgb(52,83,115)" stroke="#222240" stroke-width="0.2"/>
  <polygon points="156.3,125.8 156.3,250.0 159.4,251.6" fill="rgb(50,80,110)" stroke="#222240" stroke-width="0.2"/>
  <polygon points="159.4,127.4 159.4,251.6 162.6,253.0" fill="rgb(47,76,104)" stroke="#222240" stroke-width="0.2"/>
  <polygon points="162.6,128.8 162.6,253.0 165.9,254.3" fill="rgb(45,72,99)" stroke="#222240" stroke-width="0.2"/>
  <polygon points="165.9,130.1 165.9,254.3 169.4,255.5" fill="rgb(42,68,93)" stroke="#222240" stroke-width="0.2"/>
  <polygon points="169.4,131.3 169.4,255.5 173.1,256.6" fill="rgb(40,64,88)" stroke="#222240" stroke-width="0.2"/>
  <polygon points="173.1,132.4 173.1,256.6 176.9,257.5" fill="rgb(37,59,82)" stroke="#222240" stroke-width="0.2"/>
  <polygon points="176.9,133.3 176.9,257.5 180.7,258.3" fill="rgb(34,55,76)" stroke="#222240" stroke-width="0.2"/>
  <polygon points="180.7,134.1 180.7,258.3 184.7,258.9" fill="rgb(32,51,70)" stroke="#222240" stroke-width="0.2"/>
  <polygon points="184.7,134.7 184.7,258.9 188.7,259.4" fill="rgb(30,49,67)" stroke="#222240" stroke-width="0.2"/>
  <polygon points="188.7,135.2 188.7,259.4 192.7,259.8" fill="rgb(33,53,73)" stroke="#222240" stroke-width="0.2"/>
  <polygon points="192.7,135.6 192.7,259.8 196.8,260.0" fill="rgb(36,57,79)" stroke="#222240" stroke-width="0.2"/>
  <polygon points="196.8,135.8 196.8,260.0 200.9,260.0" fill="rgb(38,61,85)" stroke="#222240" stroke-width="0.2"/>
  <polygon points="200.9,135.8 200.9,260.0 205.0,259.9" fill="rgb(41,66,90)" stroke="#222240" stroke-width="0.2"/>
  <polygon points="205.0,135.7 205.0,259.9 209.1,259.6" fill="rgb(43,70,96)" stroke="#222240" stroke-width="0.2"/>
  <polygon points="209.1,135.4 209.1,259.6 213.1,259.2" fill="rgb(46,74,102)" stroke="#222240" stroke-width="0.2"/>
  <polygon points="213.1,135.0 213.1,259.2 217.1,258.7" fill="rgb(48,78,107)" stroke="#222240" stroke-width="0.2"/>
  <polygon points="217.1,134.5 217.1,258.7 221.0,258.0" fill="rgb(51,81,112)" stroke="#222240" stroke-width="0.2"/>
  <polygon points="221.0,133.8 221.0,258.0 224.8,257.1" fill="rgb(53,85,117)" stroke="#222240" stroke-width="0.2"/>
  <polygon points="224.8,132.9 224.8,257.1 228.6,256.1" fill="rgb(55,88,122)" stroke="#222240" stroke-width="0.2"/>
  <polygon points="228.6,131.9 228.6,256.1 232.1,255.0" fill="rgb(57,92,126)" stroke="#222240" stroke-width="0.2"/>
  <polygon points="232.1,130.8 232.1,255.0 235.6,253.7" fill="rgb(59,95,131)" stroke="#222240" stroke-width="0.2"/>
  <polygon points="235.6,129.5 235.6,253.7 238.9,252.4" fill="rgb(61,98,135)" stroke="#222240" stroke-width="0.2"/>
  <polygon points="238.9,128.2 238.9,252.4 242.0,250.9" fill="rgb(63,100,138)" stroke="#222240" stroke-width="0.2"/>
  <polygon points="242.0,126.7 242.0,250.9 245.0,249.3" fill="rgb(64,103,142)" stroke="#222240" stroke-width="0.2"/>
  <polygon points="245.0,125.1 245.0,249.3 247.7,247.6" fill="rgb(66,105,145)" stroke="#222240" stroke-width="0.2"/>
  <polygon points="247.7,123.4 247.7,247.6 250.3,245.7" fill="rgb(67,107,147)" stroke="#222240" stroke-width="0.2"/>
  <polygon points="250.3,121.5 250.3,245.7 252.6,243.8" fill="rgb(68,109,150)" stroke="#222240" stroke-width="0.2"/>
  <polygon points="252.6,119.6 252.6,243.8 254.8,241.9" fill="rgb(69,110,152)" stroke="#222240" stroke-width="0.2"/>
  <polygon points="254.8,117.7 254.8,241.9 256.6,239.8" fill="rgb(69,111,153)" stroke="#222240" stroke-width="0.2"/>
  <polygon points="256.6,115.6 256.6,239.8 258.3,237.7" fill="rgb(70,112,155)" stroke="#222240" stroke-width="0.2"/>
  <polygon points="258.3,113.5 258.3,237.7 259.7,235.5" fill="rgb(70,113,156)" stroke="#222240" stroke-width="0.2"/>
  <polygon points="259.7,111.3 259.7,235.5 260.8,233.3" fill="rgb(71,113,156)" stroke="#222240" stroke-width="0.2"/>
  <polygon points="260.8,109.1 260.8,233.3 261.7,231.0" fill="rgb(71,113,156)" stroke="#222240" stroke-width="0.2"/>
  <polygon points="261.7,106.8 261.7,231.0 262.3,228.7" fill="rgb(71,113,156)" stroke="#222240" stroke-width="0.2"/>
  <polygon points="262.3,104.5 262.3,228.7 262.6,226.4" fill="rgb(70,113,155)" stroke="#222240" stroke-width="0.2"/>
  <polygon points="262.6,102.2 262.6,226.4 262.7,224.1" fill="rgb(70,112,154)" stroke="#222240" stroke-width="0.2"/>
  <polygon points="262.7,99.9 262.7,224.1 262.5,221.8" fill="rgb(69,111,153)" stroke="#222240" stroke-width="0.2"/>
  <polygon points="262.5,97.6 262.5,221.8 262.0,219.5" fill="rgb(68,110,151)" stroke="#222240" stroke-width="0.2"/>
  <polygon points="262.0,95.3 262.0,219.5 261.3,217.2" fill="rgb(67,108,149)" stroke="#222240" stroke-width="0.2"/>
  <polygon points="261.3,93.0 261.3,217.2 260.3,214.9" fill="rgb(66,106,146)" stroke="#222240" stroke-width="0.2"/>
  <polygon points="260.3,90.7 260.3,214.9 259.1,212.7" fill="rgb(65,104,143)" stroke="#222240" stroke-width="0.2"/>
  <polygon points="259.1,88.5 259.1,212.7 257.6,210.6" fill="rgb(63,102,140)" stroke="#222240" stroke-width="0.2"/>
  <polygon points="257.6,86.4 257.6,210.6 255.8,208.5" fill="rgb(62,99,137)" stroke="#222240" stroke-width="0.2"/>
  <polygon points="255.8,84.3 255.8,208.5 253.8,206.5" fill="rgb(60,96,133)" stroke="#222240" stroke-width="0.2"/>
  <polygon points="253.8,82.3 253.8,206.5 251.6,204.5" fill="rgb(58,93,129)" stroke="#222240" stroke-width="0.2"/>
  <polygon points="251.6,80.3 251.6,204.5 249.2,202.6" fill="rgb(56,90,124)" stroke="#222240" stroke-width="0.2"/>
  <polygon points="249.2,78.4 249.2,202.6 246.5,200.9" fill="rgb(54,87,120)" stroke="#222240" stroke-width="0.2"/>
  <polygon points="246.5,76.7 246.5,200.9 243.7,199.2" fill="rgb(52,83,115)" stroke="#222240" stroke-width="0.2"/>
  <polygon points="240.6,197.6 240.6,73.4 243.7,75.0" fill="rgb(50,80,110)" stroke="#222240" stroke-width="0.2"/>
  <polygon points="237.4,196.2 237.4,72.0 240.6,73.4" fill="rgb(47,76,104)" stroke="#222240" stroke-width="0.2"/>
  <polygon points="234.1,194.9 234.1,70.7 237.4,72.0" fill="rgb(45,72,99)" stroke="#222240" stroke-width="0.2"/>
  <polygon points="230.6,193.7 230.6,69.5 234.1,70.7" fill="rgb(42,68,93)" stroke="#222240" stroke-width="0.2"/>
  <polygon points="226.9,192.6 226.9,68.4 230.6,69.5" fill="rgb(40,64,88)" stroke="#222240" stroke-width="0.2"/>
  <polygon points="223.1,191.7 223.1,67.5 226.9,68.4" fill="rgb(37,59,82)" stroke="#222240" stroke-width="0.2"/>
  <polygon points="219.3,190.9 219.3,66.7 223.1,67.5" fill="rgb(34,55,76)" stroke="#222240" stroke-width="0.2"/>
  <polygon points="215.3,190.3 215.3,66.1 219.3,66.7" fill="rgb(32,51,70)" stroke="#222240" stroke-width="0.2"/>
  <polygon points="211.3,189.8 211.3,65.6 215.3,66.1" fill="rgb(30,49,67)" stroke="#222240" stroke-width="0.2"/>
  <polygon points="207.3,189.4 207.3,65.2 211.3,65.6" fill="rgb(33,53,73)" stroke="#222240" stroke-width="0.2"/>
  <polygon points="203.2,189.2 203.2,65.0 207.3,65.2" fill="rgb(36,57,79)" stroke="#222240" stroke-width="0.2"/>
  <polygon points="199.1,189.2 199.1,65.0 203.2,65.0" fill="rgb(38,61,85)" stroke="#222240" stroke-width="0.2"/>
  <polygon points="195.0,189.3 195.0,65.1 199.1,65.0" fill="rgb(41,66,90)" stroke="#222240" stroke-width="0.2"/>
  <polygon points="190.9,189.6 190.9,65.4 195.0,65.1" fill="rgb(43,70,96)" stroke="#222240" stroke-width="0.2"/>
  <polygon points="186.9,190.0 186.9,65.8 190.9,65.4" fill="rgb(46,74,102)" stroke="#222240" stroke-width="0.2"/>
  <polygon points="182.9,190.5 182.9,66.3 186.9,65.8" fill="rgb(48,78,107)" stroke="#222240" stroke-width="0.2"/>
  <polygon points="179.0,191.2 179.0,67.0 182.9,66.3" fill="rgb(51,81,112)" stroke="#222240" stroke-width="0.2"/>
  <polygon points="175.2,192.1 175.2,67.9 179.0,67.0" fill="rgb(53,85,117)" stroke="#222240" stroke-width="0.2"/>
  <polygon points="171.4,193.1 171.4,68.9 175.2,67.9" fill="rgb(55,88,122)" stroke="#222240" stroke-width="0.2"/>
  <polygon points="167.9,194.2 167.9,70.0 171.4,68.9" fill="rgb(57,92,126)" stroke="#222240" stroke-width="0.2"/>
  <polygon points="164.4,195.5 164.4,71.3 167.9,70.0" fill="rgb(59,95,131)" stroke="#222240" stroke-width="0.2"/>
  <polygon points="161.1,196.8 161.1,72.6 164.4,71.3" fill="rgb(61,98,135)" stroke="#222240" stroke-width="0.2"/>
  <polygon points="158.0,198.3 158.0,74.1 161.1,72.6" fill="rgb(63,100,138)" stroke="#222240" stroke-width="0.2"/>
  <polygon points="155.0,199.9 155.0,75.7 158.0,74.1" fill="rgb(64,103,142)" stroke="#222240" stroke-width="0.2"/>
  <polygon points="152.3,201.6 152.3,77.4 155.0,75.7" fill="rgb(66,105,145)" stroke="#222240" stroke-width="0.2"/>
  <polygon points="149.7,203.5 149.7,79.3 152.3,77.4" fill="rgb(67,107,147)" stroke="#222240" stroke-width="0.2"/>
  <polygon points="147.4,205.4 147.4,81.2 149.7,79.3" fill="rgb(68,109,150)" stroke="#222240" stroke-width="0.2"/>
  <polygon points="145.2,207.3 145.2,83.1 147.4,81.2" fill="rgb(69,110,152)" stroke="#222240" stroke-width="0.2"/>
  <polygon points="143.4,209.4 143.4,85.2 145.2,83.1" fill="rgb(69,111,153)" stroke="#222240" stroke-width="0.2"/>
  <polygon points="141.7,211.5 141.7,87.3 143.4,85.2" fill="rgb(70,112,155)" stroke="#222240" stroke-width="0.2"/>
  <polygon points="140.3,213.7 140.3,89.5 141.7,87.3" fill="rgb(70,113,156)" stroke="#222240" stroke-width="0.2"/>
  <polygon points="139.2,215.9 139.2,91.7 140.3,89.5" fill="rgb(71,113,156)" stroke="#222240" stroke-width="0.2"/>
  <polygon points="138.3,218.2 138.3,94.0 139.2,91.7" fill="rgb(71,113,156)" stroke="#222240" stroke-width="0.2"/>
  <polygon points="137.7,220.5 137.7,96.3 138.3,94.0" fill="rgb(71,113,156)" stroke="#222240" stroke-width="0.2"/>
  <polygon points="137.4,222.8 137.4,98.6 137.7,96.3" fill="rgb(70,113,155)" stroke="#222240" stroke-width="0.2"/>
  <polygon points="137.3,225.1 137.3,100.9 137.4,98.6" fill="rgb(70,112,154)" stroke="#222240" stroke-width="0.2"/>
  <polygon points="137.5,227.4 137.5,103.2 137.3,100.9" fill="rgb(69,111,153)" stroke="#222240" stroke-width="0.2"/>
  <polygon points="138.0,229.7 138.0,105.5 137.5,103.2" fill="rgb(68,110,151)" stroke="#222240" stroke-width="0.2"/>
  <polygon points="138.7,232.0 138.7,107.8 138.0,105.5" fill="rgb(67,108,149)" stroke="#222240" stroke-width="0.2"/>
  <polygon points="139.7,234.3 139.7,110.1 138.7,107.8" fill="rgb(66,106,146)" stroke="#222240" stroke-width="0.2"/>
  <polygon points="140.9,236.5 140.9,112.3 139.7,110.1" fill="rgb(65,104,143)" stroke="#222240" stroke-width="0.2"/>
  <polygon points="142.4,238.6 142.4,114.4 140.9,112.3" fill="rgb(63,102,140)" stroke="#222240" stroke-width="0.2"/>
  <polygon points="144.2,240.7 144.2,116.5 142.4,114.4" fill="rgb(62,99,137)" stroke="#222240" stroke-width="0.2"/>
  <polygon points="146.2,242.7 146.2,118.5 144.2,116.5" fill="rgb(60,96,133)" stroke="#222240" stroke-width="0.2"/>
  <polygon points="148.4,244.7 148.4,120.5 146.2,118.5" fill="rgb(58,93,129)" stroke="#222240" stroke-width="0.2"/>
  <polygon points="150.8,246.6 150.8,122.4 148.4,120.5" fill="rgb(56,90,124)" stroke="#222240" stroke-width="0.2"/>
  <polygon points="153.5,248.3 153.5,124.1 150.8,122.4" fill="rgb(54,87,120)" stroke="#222240" stroke-width="0.2"/>
  <polygon points="156.3,250.0 156.3,125.8 153.5,124.1" fill="rgb(52,83,115)" stroke="#222240" stroke-width="0.2"/>
  <polygon points="159.4,251.6 159.4,127.4 156.3,125.8" fill="rgb(50,80,110)" stroke="#222240" stroke-width="0.2"/>
  <polygon points="162.6,253.0 162.6,128.8 159.4,127.4" fill="rgb(47,76,104)" stroke="#222240" stroke-width="0.2"/>
  <polygon points="165.9,254.3 165.9,130.1 162.6,128.8" fill="rgb(45,72,99)" stroke="#222240" stroke-width="0.2"/>
  <polygon points="169.4,255.5 169.4,131.3 165.9,130.1" fill="rgb(42,68,93)" stroke="#222240" stroke-width="0.2"/>
  <polygon points="173.1,256.6 173.1,132.4 169.4,131.3" fill="rgb(40,64,88)" stroke="#222240" stroke-width="0.2"/>
  <polygon points="176.9,257.5 176.9,133.3 173.1,132.4" fill="rgb(37,59,82)" stroke="#222240" stroke-width="0.2"/>
  <polygon points="180.7,258.3 180.7,134.1 176.9,133.3" fill="rgb(34,55,76)" stroke="#222240" stroke-width="0.2"/>
  <polygon points="184.7,258.9 184.7,134.7 180.7,134.1" fill="rgb(32,51,70)" stroke="#222240" stroke-width="0.2"/>
  <polygon points="188.7,259.4 188.7,135.2 184.7,134.7" fill="rgb(30,49,67)" stroke="#222240" stroke-width="0.2"/>
  <polygon points="192.7,259.8 192.7,135.6 188.7,135.2" fill="rgb(33,53,73)" stroke="#222240" stroke-width="0.2"/>
  <polygon points="196.8,260.0 196.8,135.8 192.7,135.6" fill="rgb(36,57,79)" stroke="#222240" stroke-width="0.2"/>
  <polygon points="200.9,260.0 200.9,135.8 196.8,135.8" fill="rgb(38,61,85)" stroke="#222240" stroke-width="0.2"/>
  <polygon points="205.0,259.9 205.0,135.7 200.9,135.8" fill="rgb(41,66,90)" stroke="#222240" stroke-width="0.2"/>
  <polygon points="209.1,259.6 209.1,135.4 205.0,135.7" fill="rgb(43,70,96)" stroke="#222240" stroke-width="0.2"/>
  <polygon points="213.1,259.2 213.1,135.0 209.1,135.4" fill="rgb(46,74,102)" stroke="#222240" stroke-width="0.2"/>
  <polygon points="217.1,258.7 217.1,134.5 213.1,135.0" fill="rgb(48,78,107)" stroke="#222240" stroke-width="0.2"/>
  <polygon points="221.0,258.0 221.0,133.8 217.1,134.5" fill="rgb(51,81,112)" stroke="#222240" stroke-width="0.2"/>
  <polygon points="224.8,257.1 224.8,132.9 221.0,133.8" fill="rgb(53,85,117)" stroke="#222240" stroke-width="0.2"/>
  <polygon points="228.6,256.1 228.6,131.9 224.8,132.9" fill="rgb(55,88,122)" stroke="#222240" stroke-width="0.2"/>
  <polygon points="232.1,255.0 232.1,130.8 228.6,131.9" fill="rgb(57,92,126)" stroke="#222240" stroke-width="0.2"/>
  <polygon points="235.6,253.7 235.6,129.5 232.1,130.8" fill="rgb(59,95,131)" stroke="#222240" stroke-width="0.2"/>
  <polygon points="238.9,252.4 238.9,128.2 235.6,129.5" fill="rgb(61,98,135)" stroke="#222240" stroke-width="0.2"/>
  <polygon points="242.0,250.9 242.0,126.7 238.9,128.2" fill="rgb(63,100,138)" stroke="#222240" stroke-width="0.2"/>
  <polygon points="245.0,249.3 245.0,125.1 242.0,126.7" fill="rgb(64,103,142)" stroke="#222240" stroke-width="0.2"/>
  <polygon points="247.7,247.6 247.7,123.4 245.0,125.1" fill="rgb(66,105,145)" stroke="#222240" stroke-width="0.2"/>
  <polygon points="250.3,245.7 250.3,121.5 247.7,123.4" fill="rgb(67,107,147)" stroke="#222240" stroke-width="0.2"/>
  <polygon points="252.6,243.8 252.6,119.6 250.3,121.5" fill="rgb(68,109,150)" stroke="#222240" stroke-width="0.2"/>
  <polygon points="254.8,241.9 254.8,117.7 252.6,119.6" fill="rgb(69,110,152)" stroke="#222240" stroke-width="0.2"/>
  <polygon points="256.6,239.8 256.6,115.6 254.8,117.7" fill="rgb(69,111,153)" stroke="#222240" stroke-width="0.2"/>
  <polygon points="258.3,237.7 258.3,113.5 256.6,115.6" fill="rgb(70,112,155)" stroke="#222240" stroke-width="0.2"/>
  <polygon points="259.7,235.5 259.7,111.3 258.3,113.5" fill="rgb(70,113,156)" stroke="#222240" stroke-width="0.2"/>
  <polygon points="260.8,233.3 260.8,109.1 259.7,111.3" fill="rgb(71,113,156)" stroke="#222240" stroke-width="0.2"/>
  <polygon points="261.7,231.0 261.7,106.8 260.8,109.1" fill="rgb(71,113,156)" stroke="#222240" stroke-width="0.2"/>
  <polygon points="262.3,228.7 262.3,104.5 261.7,106.8" fill="rgb(71,113,156)" stroke="#222240" stroke-width="0.2"/>
  <polygon points="262.6,226.4 262.6,102.2 262.3,104.5" fill="rgb(70,113,155)" stroke="#222240" stroke-width="0.2"/>
  <polygon points="262.7,224.1 262.7,99.9 262.6,102.2" fill="rgb(70,112,154)" stroke="#222240" stroke-width="0.2"/>
  <polygon points="262.5,221.8 262.5,97.6 262.7,99.9" fill="rgb(69,111,153)" stroke="#222240" stroke-width="0.2"/>
  <polygon points="262.0,219.5 262.0,95.3 262.5,97.6" fill="rgb(68,110,151)" stroke="#222240" stroke-width="0.2"/>
  <polygon points="261.3,217.2 261.3,93.0 262.0,95.3" fill="rgb(67,108,149)" stroke="#222240" stroke-width="0.2"/>
  <polygon points="260.3,214.9 260.3,90.7 261.3,93.0" fill="rgb(66,106,146)" stroke="#222240" stroke-width="0.2"/>
  <polygon points="259.1,212.7 259.1,88.5 260.3,90.7" fill="rgb(65,104,143)" stroke="#222240" stroke-width="0.2"/>
  <polygon points="257.6,210.6 257.6,86.4 259.1,88.5" fill="rgb(63,102,140)" stroke="#222240" stroke-width="0.2"/>
  <polygon points="255.8,208.5 255.8,84.3 257.6,86.4" fill="rgb(62,99,137)" stroke="#222240" stroke-width="0.2"/>
  <polygon points="253.8,206.5 253.8,82.3 255.8,84.3" fill="rgb(60,96,133)" stroke="#222240" stroke-width="0.2"/>
  <polygon points="251.6,204.5 251.6,80.3 253.8,82.3" fill="rgb(58,93,129)" stroke="#222240" stroke-width="0.2"/>
  <polygon points="249.2,202.6 249.2,78.4 251.6,80.3" fill="rgb(56,90,124)" stroke="#222240" stroke-width="0.2"/>
  <polygon points="246.5,200.9 246.5,76.7 249.2,78.4" fill="rgb(54,87,120)" stroke="#222240" stroke-width="0.2"/>
  <polygon points="243.7,199.2 243.7,75.0 246.5,76.7" fill="rgb(52,83,115)" stroke="#222240" stroke-width="0.2"/>
  <polygon points="246.5,76.7 243.7,75.0 240.6,73.4" fill="rgb(86,138,190)" stroke="#222240" stroke-width="0.2"/>
  <polygon points="246.5,76.7 240.6,73.4 237.4,72.0" fill="rgb(86,138,190)" stroke="#222240" stroke-width="0.2"/>
  <polygon points="246.5,76.7 237.4,72.0 234.1,70.7" fill="rgb(86,138,190)" stroke="#222240" stroke-width="0.2"/>
  <polygon points="246.5,76.7 234.1,70.7 230.6,69.5" fill="rgb(86,138,190)" stroke="#222240" stroke-width="0.2"/>
  <polygon points="246.5,76.7 230.6,69.5 226.9,68.4" fill="rgb(86,138,190)" stroke="#222240" stroke-width="0.2"/>
  <polygon points="246.5,76.7 226.9,68.4 223.1,67.5" fill="rgb(86,138,190)" stroke="#222240" stroke-width="0.2"/>
  <polygon points="246.5,76.7 223.1,67.5 219.3,66.7" fill="rgb(86,138,190)" stroke="#222240" stroke-width="0.2"/>
  <polygon points="246.5,76.7 219.3,66.7 215.3,66.1" fill="rgb(86,138,190)" stroke="#222240" stroke-width="0.2"/>
  <polygon points="246.5,76.7 215.3,66.1 211.3,65.6" fill="rgb(86,138,190)" stroke="#222240" stroke-width="0.2"/>
  <polygon points="246.5,76.7 211.3,65.6 207.3,65.2" fill="rgb(86,138,190)" stroke="#222240" stroke-width="0.2"/>
  <polygon points="246.5,76.7 207.3,65.2 203.2,65.0" fill="rgb(86,138,190)" stroke="#222240" stroke-width="0.2"/>
  <polygon points="246.5,76.7 203.2,65.0 199.1,65.0" fill="rgb(86,138,190)" stroke="#222240" stroke-width="0.2"/>
  <polygon points="246.5,76.7 199.1,65.0 195.0,65.1" fill="rgb(86,138,190)" stroke="#222240" stroke-width="0.2"/>
  <polygon points="246.5,76.7 195.0,65.1 190.9,65.4" fill="rgb(86,138,190)" stroke="#222240" stroke-width="0.2"/>
  <polygon points="246.5,76.7 190.9,65.4 186.9,65.8" fill="rgb(86,138,190)" stroke="#222240" stroke-width="0.2"/>
  <polygon points="246.5,76.7 186.9,65.8 182.9,66.3" fill="rgb(86,138,190)" stroke="#222240" stroke-width="0.2"/>
  <polygon points="246.5,76.7 182.9,66.3 179.0,67.0" fill="rgb(86,138,190)" stroke="#222240" stroke-width="0.2"/>
  <polygon points="246.5,76.7 179.0,67.0 175.2,67.9" fill="rgb(86,138,190)" stroke="#222240" stroke-width="0.2"/>
  <polygon points="246.5,76.7 175.2,67.9 171.4,68.9" fill="rgb(86,138,190)" stroke="#222240" stroke-width="0.2"/>
  <polygon points="246.5,76.7 171.4,68.9 167.9,70.0" fill="rgb(86,138,190)" stroke="#222240" stroke-width="0.2"/>
  <polygon points="246.5,76.7 167.9,70.0 164.4,71.3" fill="rgb(86,138,190)" stroke="#222240" stroke-width="0.2"/>
  <polygon points="246.5,76.7 164.4,71.3 161.1,72.6" fill="rgb(86,138,190)" stroke="#222240" stroke-width="0.2"/>
  <polygon points="246.5,76.7 161.1,72.6 158.0,74.1" fill="rgb(86,138,190)" stroke="#222240" stroke-width="0.2"/>
  <polygon points="246.5,76.7 158.0,74.1 155.0,75.7" fill="rgb(86,138,190)" stroke="#222240" stroke-width="0.2"/>
  <polygon points="246.5,76.7 155.0,75.7 152.3,77.4" fill="rgb(86,138,190)" stroke="#222240" stroke-width="0.2"/>
  <polygon points="246.5,76.7 152.3,77.4 149.7,79.3" fill="rgb(86,138,190)" stroke="#222240" stroke-width="0.2"/>
  <polygon points="246.5,76.7 149.7,79.3 147.4,81.2" fill="rgb(86,138,190)" stroke="#222240" stroke-width="0.2"/>
  <polygon points="246.5,76.7 147.4,81.2 145.2,83.1" fill="rgb(86,138,190)" stroke="#222240" stroke-width="0.2"/>
  <polygon points="246.5,76.7 145.2,83.1 143.4,85.2" fill="rgb(86,138,190)" stroke="#222240" stroke-width="0.2"/>
  <polygon points="246.5,76.7 143.4,85.2 141.7,87.3" fill="rgb(86,138,190)" stroke="#222240" stroke-width="0.2"/>
  <polygon points="246.5,76.7 141.7,87.3 140.3,89.5" fill="rgb(86,138,190)" stroke="#222240" stroke-width="0.2"/>
  <polygon points="246.5,76.7 140.3,89.5 139.2,91.7" fill="rgb(86,138,190)" stroke="#222240" stroke-width="0.2"/>
  <polygon points="246.5,76.7 139.2,91.7 138.3,94.0" fill="rgb(86,138,190)" stroke="#222240" stroke-width="0.2"/>
  <polygon points="246.5,76.7 138.3,94.0 137.7,96.3" fill="rgb(86,138,190)" stroke="#222240" stroke-width="0.2"/>
  <polygon points="246.5,76.7 137.7,96.3 137.4,98.6" fill="rgb(86,138,190)" stroke="#222240" stroke-width="0.2"/>
  <polygon points="246.5,76.7 137.4,98.6 137.3,100.9" fill="rgb(86,138,190)" stroke="#222240" stroke-width="0.2"/>
  <polygon points="246.5,76.7 137.3,100.9 137.5,103.2" fill="rgb(86,138,190)" stroke="#222240" stroke-width="0.2"/>
  <polygon points="246.5,76.7 137.5,103.2 138.0,105.5" fill="rgb(86,138,190)" stroke="#222240" stroke-width="0.2"/>
  <polygon points="246.5,76.7 138.0,105.5 138.7,107.8" fill="rgb(86,138,190)" stroke="#222240" stroke-width="0.2"/>
  <polygon points="246.5,76.7 138.7,107.8 139.7,110.1" fill="rgb(86,138,190)" stroke="#222240" stroke-width="0.2"/>
  <polygon points="246.5,76.7 139.7,110.1 140.9,112.3" fill="rgb(86,138,190)" stroke="#222240" stroke-width="0.2"/>
  <polygon points="246.5,76.7 140.9,112.3 142.4,114.4" fill="rgb(86,138,190)" stroke="#222240" stroke-width="0.2"/>
  <polygon points="246.5,76.7 142.4,114.4 144.2,116.5" fill="rgb(86,138,190)" stroke="#222240" stroke-width="0.2"/>
  <polygon points="246.5,76.7 144.2,116.5 146.2,118.5" fill="rgb(86,138,190)" stroke="#222240" stroke-width="0.2"/>
  <polygon points="246.5,76.7 146.2,118.5 148.4,120.5" fill="rgb(86,138,190)" stroke="#222240" stroke-width="0.2"/>
  <polygon points="246.5,76.7 148.4,120.5 150.8,122.4" fill="rgb(86,138,190)" stroke="#222240" stroke-width="0.2"/>
  <polygon points="246.5,76.7 150.8,122.4 153.5,124.1" fill="rgb(86,138,190)" stroke="#222240" stroke-width="0.2"/>
  <polygon points="246.5,76.7 153.5,124.1 156.3,125.8" fill="rgb(86,138,190)" stroke="#222240" stroke-width="0.2"/>
  <polygon points="246.5,76.7 156.3,125.8 159.4,127.4" fill="rgb(86,138,190)" stroke="#222240" stroke-width="0.2"/>
  <polygon points="246.5,76.7 159.4,127.4 162.6,128.8" fill="rgb(86,138,190)" stroke="#222240" stroke-width="0.2"/>
  <polygon points="246.5,76.7 162.6,128.8 165.9,130.1" fill="rgb(86,138,190)" stroke="#222240" stroke-width="0.2"/>
  <polygon points="246.5,76.7 165.9,130.1 169.4,131.3" fill="rgb(86,138,190)" stroke="#222240" stroke-width="0.2"/>
  <polygon points="246.5,76.7 169.4,131.3 173.1,132.4" fill="rgb(86,138,190)" stroke="#222240" stroke-width="0.2"/>
  <polygon points="246.5,76.7 173.1,132.4 176.9,133.3" fill="rgb(86,138,190)" stroke="#222240" stroke-width="0.2"/>
  <polygon points="246.5,76.7 176.9,133.3 180.7,134.1" fill="rgb(86,138,190)" stroke="#222240" stroke-width="0.2"/>
  <polygon points="246.5,76.7 180.7,134.1 184.7,134.7" fill="rgb(86,138,190)" stroke="#222240" stroke-width="0.2"/>
  <polygon points="246.5,76.7 184.7,134.7 188.7,135.2" fill="rgb(86,138,190)" stroke="#222240" stroke-width="0.2"/>
  <polygon points="246.5,76.7 188.7,135.2 192.7,135.6" fill="rgb(86,138,190)" stroke="#222240" stroke-width="0.2"/>
  <polygon points="246.5,76.7 192.7,135.6 196.8,135.8" fill="rgb(86,138,190)" stroke="#222240" stroke-width="0.2"/>
  <polygon points="246.5,76.7 196.8,135.8 200.9,135.8" fill="rgb(86,138,190)" stroke="#222240" stroke-width="0.2"/>
  <polygon points="246.5,76.7 200.9,135.8 205.0,135.7" fill="rgb(86,138,190)" stroke="#222240" stroke-width="0.2"/>
  <polygon points="246.5,76.7 205.0,135.7 209.1,135.4" fill="rgb(86,138,190)" stroke="#222240" stroke-width="0.2"/>
  <polygon points="246.5,76.7 209.1,135.4 213.1,135.0" fill="rgb(86,138,190)" stroke="#222240" stroke-width="0.2"/>
  <polygon points="246.5,76.7 213.1,135.0 217.1,134.5" fill="rgb(86,138,190)" stroke="#222240" stroke-width="0.2"/>
  <polygon points="246.5,76.7 217.1,134.5 221.0,133.8" fill="rgb(86,138,190)" stroke="#222240" stroke-width="0.2"/>
  <polygon points="246.5,76.7 221.0,133.8 224.8,132.9" fill="rgb(86,138,190)" stroke="#222240" stroke-width="0.2"/>
  <polygon points="246.5,76.7 224.8,132.9 228.6,131.9" fill="rgb(86,138,190)" stroke="#222240" stroke-width="0.2"/>
  <polygon points="246.5,76.7 228.6,131.9 232.1,130.8" fill="rgb(86,138,190)" stroke="#222240" stroke-width="0.2"/>
  <polygon points="246.5,76.7 232.1,130.8 235.6,129.5" fill="rgb(86,138,190)" stroke="#222240" stroke-width="0.2"/>
  <polygon points="246.5,76.7 235.6,129.5 238.9,128.2" fill="rgb(86,138,190)" stroke="#222240" stroke-width="0.2"/>
  <polygon points="246.5,76.7 238.9,128.2 242.0,126.7" fill="rgb(86,138,190)" stroke="#222240" stroke-width="0.2"/>
  <polygon points="246.5,76.7 242.0,126.7 245.0,125.1" fill="rgb(86,138,190)" stroke="#222240" stroke-width="0.2"/>
  <polygon points="246.5,76.7 245.0,125.1 247.7,123.4" fill="rgb(86,138,190)" stroke="#222240" stroke-width="0.2"/>
  <polygon points="246.5,76.7 247.7,123.4 250.3,121.5" fill="rgb(86,138,190)" stroke="#222240" stroke-width="0.2"/>
  <polygon points="246.5,76.7 250.3,121.5 252.6,119.6" fill="rgb(86,138,190)" stroke="#222240" stroke-width="0.2"/>
  <polygon points="246.5,76.7 252.6,119.6 254.8,117.7" fill="rgb(86,138,190)" stroke="#222240" stroke-width="0.2"/>
  <polygon points="246.5,76.7 254.8,117.7 256.6,115.6" fill="rgb(86,138,190)" stroke="#222240" stroke-width="0.2"/>
  <polygon points="246.5,76.7 256.6,115.6 258.3,113.5" fill="rgb(86,138,190)" stroke="#222240" stroke-width="0.2"/>
  <polygon points="246.5,76.7 258.3,113.5 259.7,111.3" fill="rgb(86,138,190)" stroke="#222240" stroke-width="0.2"/>
  <polygon points="246.5,76.7 259.7,111.3 260.8,109.1" fill="rgb(86,138,190)" stroke="#222240" stroke-width="0.2"/>
  <polygon points="246.5,76.7 260.8,109.1 261.7,106.8" fill="rgb(86,138,190)" stroke="#222240" stroke-width="0.2"/>
  <polygon points="246.5,76.7 261.7,106.8 262.3,104.5" fill="rgb(86,138,190)" stroke="#222240" stroke-width="0.2"/>
  <polygon points="246.5,76.7 262.3,104.5 262.6,102.2" fill="rgb(86,138,190)" stroke="#222240" stroke-width="0.2"/>
  <polygon points="246.5,76.7 262.6,102.2 262.7,99.9" fill="rgb(86,138,190)" stroke="#222240" stroke-width="0.2"/>
  <polygon points="246.5,76.7 262.7,99.9 262.5,97.6" fill="rgb(86,138,190)" stroke="#222240" stroke-width="0.2"/>
  <polygon points="246.5,76.7 262.5,97.6 262.0,95.3" fill="rgb(86,138,190)" stroke="#222240" stroke-width="0.2"/>
  <polygon points="246.5,76.7 262.0,95.3 261.3,93.0" fill="rgb(86,138,190)" stroke="#222240" stroke-width="0.2"/>
  <polygon points="246.5,76.7 261.3,93.0 260.3,90.7" fill="rgb(86,138,190)" stroke="#222240" stroke-width="0.2"/>
  <polygon points="246.5,76.7 260.3,90.7 259.1,88.5" fill="rgb(86,138,190)" stroke="#222240" stroke-width="0.2"/>
  <polygon points="246.5,76.7 259.1,88.5 257.6,86.4" fill="rgb(86,138,190)" stroke="#222240" stroke-width="0.2"/>
  <polygon points="246.5,76.7 257.6,86.4 255.8,84.3" fill="rgb(86,138,190)" stroke="#222240" stroke-width="0.2"/>
  <polygon points="246.5,76.7 255.8,84.3 253.8,82.3" fill="rgb(86,138,190)" stroke="#222240" stroke-width="0.2"/>
  <polygon points="246.5,76.7 253.8,82.3 251.6,80.3" fill="rgb(86,138,190)" stroke="#222240" stroke-width="0.2"/>
  <polygon points="251.6,80.3 249.2,78.4 246.5,76.7" fill="rgb(86,138,190)" stroke="#222240" stroke-width="0.2"/>
  <text x="200" y="292" font-family="monospace" font-size="10" fill="#5a6080" text-anchor="middle">380 triangles, 192 vertices</text>
</svg>
