<svg xmlns="http://www.w3.org/2000/svg" width="400" height="300" style="background:#1a1a2e">
<text x="200" y="20" font-family="monospace" font-size="13" fill="#8892b0" text-anchor="middle">Cylinder (r=5, h=12, 24 segments)</text>
  <polygon points="243.7,199.2 230.6,193.7 215.3,190.3" fill="rgb(86,138,190)" stroke="#2a2a4a" stroke-width="0.5"/>
  <polygon points="243.7,199.2 215.3,190.3 199.1,189.2" fill="rgb(86,138,190)" stroke="#2a2a4a" stroke-width="0.5"/>
  <polygon points="243.7,199.2 199.1,189.2 182.9,190.5" fill="rgb(86,138,190)" stroke="#2a2a4a" stroke-width="0.5"/>
  <polygon points="243.7,199.2 182.9,190.5 167.9,194.2" fill="rgb(86,138,190)" stroke="#2a2a4a" stroke-width="0.5"/>
  <polygon points="243.7,199.2 167.9,194.2 155.0,199.9" fill="rgb(86,138,190)" stroke="#2a2a4a" stroke-width="0.5"/>
  <polygon points="243.7,199.2 155.0,199.9 145.2,207.3" fill="rgb(86,138,190)" stroke="#2a2a4a" stroke-width="0.5"/>
  <polygon points="243.7,199.2 145.2,207.3 139.2,215.9" fill="rgb(86,138,190)" stroke="#2a2a4a" stroke-width="0.5"/>
  <polygon points="243.7,199.2 139.2,215.9 137.3,225.1" fill="rgb(86,138,190)" stroke="#2a2a4a" stroke-width="0.5"/>
  <polygon points="243.7,199.2 137.3,225.1 139.7,234.3" fill="rgb(86,138,190)" stroke="#2a2a4a" stroke-width="0.5"/>
  <polygon points="243.7,199.2 139.7,234.3 146.2,242.7" fill="rgb(86,138,190)" stroke="#2a2a4a" stroke-width="0.5"/>
  <polygon points="243.7,199.2 146.2,242.7 156.3,250.0" fill="rgb(86,138,190)" stroke="#2a2a4a" stroke-width="0.5"/>
  <polygon points="243.7,199.2 156.3,250.0 169.4,255.5" fill="rgb(86,138,190)" stroke="#2a2a4a" stroke-width="0.5"/>
  <polygon points="243.7,199.2 169.4,255.5 184.7,258.9" fill="rgb(86,138,190)" stroke="#2a2a4a" stroke-width="0.5"/>
  <polygon points="243.7,199.2 184.7,258.9 200.9,260.0" fill="rgb(86,138,190)" stroke="#2a2a4a" stroke-width="0.5"/>
  <polygon points="243.7,199.2 200.9,260.0 217.1,258.7" fill="rgb(86,138,190)" stroke="#2a2a4a" stroke-width="0.5"/>
  <polygon points="243.7,199.2 217.1,258.7 232.1,255.0" fill="rgb(86,138,190)" stroke="#2a2a4a" stroke-width="0.5"/>
  <polygon points="243.7,199.2 232.1,255.0 245.0,249.3" fill="rgb(86,138,190)" stroke="#2a2a4a" stroke-width="0.5"/>
  <polygon points="243.7,199.2 245.0,249.3 254.8,241.9" fill="rgb(86,138,190)" stroke="#2a2a4a" stroke-width="0.5"/>
  <polygon points="243.7,199.2 254.8,241.9 260.8,233.3" fill="rgb(86,138,190)" stroke="#2a2a4a" stroke-width="0.5"/>
  <polygon points="243.7,199.2 260.8,233.3 262.7,224.1" fill="rgb(86,138,190)" stroke="#2a2a4a" stroke-width="0.5"/>
  <polygon points="243.7,199.2 262.7,224.1 260.3,214.9" fill="rgb(86,138,190)" stroke="#2a2a4a" stroke-width="0.5"/>
  <polygon points="260.3,214.9 253.8,206.5 243.7,199.2" fill="rgb(86,138,190)" stroke="#2a2a4a" stroke-width="0.5"/>
  <polygon points="243.7,75.0 243.7,199.2 230.6,193.7" fill="rgb(46,74,102)" stroke="#2a2a4a" stroke-width="0.5"/>
  <polygon points="230.6,69.5 230.6,193.7 215.3,190.3" fill="rgb(36,57,79)" stroke="#2a2a4a" stroke-width="0.5"/>
  <polygon points="215.3,66.1 215.3,190.3 199.1,189.2" fill="rgb(34,55,76)" stroke="#2a2a4a" stroke-width="0.5"/>
  <polygon points="199.1,65.0 199.1,189.2 182.9,190.5" fill="rgb(45,72,99)" stroke="#2a2a4a" stroke-width="0.5"/>
  <polygon points="182.9,66.3 182.9,190.5 167.9,194.2" fill="rgb(54,87,120)" stroke="#2a2a4a" stroke-width="0.5"/>
  <polygon points="167.9,70.0 167.9,194.2 155.0,199.9" fill="rgb(62,99,137)" stroke="#2a2a4a" stroke-width="0.5"/>
  <polygon points="155.0,75.7 155.0,199.9 145.2,207.3" fill="rgb(67,108,149)" stroke="#2a2a4a" stroke-width="0.5"/>
  <polygon points="145.2,83.1 145.2,207.3 139.2,215.9" fill="rgb(70,113,155)" stroke="#2a2a4a" stroke-width="0.5"/>
  <polygon points="139.2,91.7 139.2,215.9 137.3,225.1" fill="rgb(70,113,156)" stroke="#2a2a4a" stroke-width="0.5"/>
  <polygon points="137.3,100.9 137.3,225.1 139.7,234.3" fill="rgb(68,109,150)" stroke="#2a2a4a" stroke-width="0.5"/>
  <polygon points="139.7,110.1 139.7,234.3 146.2,242.7" fill="rgb(63,101,138)" stroke="#2a2a4a" stroke-width="0.5"/>
  <polygon points="146.2,118.5 146.2,242.7 156.3,250.0" fill="rgb(55,89,122)" stroke="#2a2a4a" stroke-width="0.5"/>
  <polygon points="156.3,125.8 156.3,250.0 169.4,255.5" fill="rgb(46,74,102)" stroke="#2a2a4a" stroke-width="0.5"/>
  <polygon points="169.4,131.3 169.4,255.5 184.7,258.9" fill="rgb(36,57,79)" stroke="#2a2a4a" stroke-width="0.5"/>
  <polygon points="184.7,134.7 184.7,258.9 200.9,260.0" fill="rgb(34,55,76)" stroke="#2a2a4a" stroke-width="0.5"/>
  <polygon points="200.9,135.8 200.9,260.0 217.1,258.7" fill="rgb(45,72,99)" stroke="#2a2a4a" stroke-width="0.5"/>
  <polygon points="217.1,134.5 217.1,258.7 232.1,255.0" fill="rgb(54,87,120)" stroke="#2a2a4a" stroke-width="0.5"/>
  <polygon points="232.1,130.8 232.1,255.0 245.0,249.3" fill="rgb(62,99,137)" stroke="#2a2a4a" stroke-width="0.5"/>
  <polygon points="245.0,125.1 245.0,249.3 254.8,241.9" fill="rgb(67,108,149)" stroke="#2a2a4a" stroke-width="0.5"/>
  <polygon points="254.8,117.7 254.8,241.9 260.8,233.3" fill="rgb(70,113,155)" stroke="#2a2a4a" stroke-width="0.5"/>
  <polygon points="260.8,109.1 260.8,233.3 262.7,224.1" fill="rgb(70,113,156)" stroke="#2a2a4a" stroke-width="0.5"/>
  <polygon points="262.7,99.9 262.7,224.1 260.3,214.9" fill="rgb(68,109,150)" stroke="#2a2a4a" stroke-width="0.5"/>
  <polygon points="260.3,90.7 260.3,214.9 253.8,206.5" fill="rgb(63,101,138)" stroke="#2a2a4a" stroke-width="0.5"/>
  <polygon points="253.8,82.3 253.8,206.5 243.7,199.2" fill="rgb(55,89,122)" stroke="#2a2a4a" stroke-width="0.5"/>
  <polygon points="230.6,193.7 230.6,69.5 243.7,75.0" fill="rgb(46,74,102)" stroke="#2a2a4a" stroke-width="0.5"/>
  <polygon points="215.3,190.3 215.3,66.1 230.6,69.5" fill="rgb(36,57,79)" stroke="#2a2a4a" stroke-width="0.5"/>
  <polygon points="199.1,189.2 199.1,65.0 215.3,66.1" fill="rgb(34,55,76)" stroke="#2a2a4a" stroke-width="0.5"/>
  <polygon points="182.9,190.5 182.9,66.3 199.1,65.0" fill="rgb(45,72,99)" stroke="#2a2a4a" stroke-width="0.5"/>
  <polygon points="167.9,194.2 167.9,70.0 182.9,66.3" fill="rgb(54,87,120)" stroke="#2a2a4a" stroke-width="0.5"/>
  <polygon points="155.0,199.9 155.0,75.7 167.9,70.0" fill="rgb(62,99,137)" stroke="#2a2a4a" stroke-width="0.5"/>
  <polygon points="145.2,207.3 145.2,83.1 155.0,75.7" fill="rgb(67,108,149)" stroke="#2a2a4a" stroke-width="0.5"/>
  <polygon points="139.2,215.9 139.2,91.7 145.2,83.1" fill="rgb(70,113,155)" stroke="#2a2a4a" stroke-width="0.5"/>
  <polygon points="137.3,225.1 137.3,100.9 139.2,91.7" fill="rgb(70,113,156)" stroke="#2a2a4a" stroke-width="0.5"/>
  <polygon points="139.7,234.3 139.7,110.1 137.3,100.9" fill="rgb(68,109,150)" stroke="#2a2a4a" stroke-width="0.5"/>
  <polygon points="146.2,242.7 146.2,118.5 139.7,110.1" fill="rgb(63,101,138)" stroke="#2a2a4a" stroke-width="0.5"/>
  <polygon points="156.3,250.0 156.3,125.8 146.2,118.5" fill="rgb(55,89,122)" stroke="#2a2a4a" stroke-width="0.5"/>
  <polygon points="169.4,255.5 169.4,131.3 156.3,125.8" fill="rgb(46,74,102)" stroke="#2a2a4a" stroke-width="0.5"/>
  <polygon points="184.7,258.9 184.7,134.7 169.4,131.3" fill="rgb(36,57,79)" stroke="#2a2a4a" stroke-width="0.5"/>
  <polygon points="200.9,260.0 200.9,135.8 184.7,134.7" fill="rgb(34,55,76)" stroke="#2a2a4a" stroke-width="0.5"/>
  <polygon points="217.1,258.7 217.1,134.5 200.9,135.8" fill="rgb(45,72,99)" stroke="#2a2a4a" stroke-width="0.5"/>
  <polygon points="232.1,255.0 232.1,130.8 217.1,134.5" fill="rgb(54,87,120)" stroke="#2a2a4a" stroke-width="0.5"/>
  <polygon points="245.0,249.3 245.0,125.1 232.1,130.8" fill="rgb(62,99,137)" stroke="#2a2a4a" stroke-width="0.5"/>
  <polygon points="254.8,241.9 254.8,117.7 245.0,125.1" fill="rgb(67,108,149)" stroke="#2a2a4a" stroke-width="0.5"/>
  <polygon points="260.8,233.3 260.8,109.1 254.8,117.7" fill="rgb(70,113,155)" stroke="#2a2a4a" stroke-width="0.5"/>
  <polygon points="262.7,224.1 262.7,99.9 260.8,109.1" fill="rgb(70,113,156)" stroke="#2a2a4a" stroke-width="0.5"/>
  <polygon points="260.3,214.9 260.3,90.7 262.7,99.9" fill="rgb(68,109,150)" stroke="#2a2a4a" stroke-width="0.5"/>
  <polygon points="253.8,206.5 253.8,82.3 260.3,90.7" fill="rgb(63,101,138)" stroke="#2a2a4a" stroke-width="0.5"/>
  <polygon points="243.7,199.2 243.7,75.0 253.8,82.3" fill="rgb(55,89,122)" stroke="#2a2a4a" stroke-width="0.5"/>
  <polygon points="253.8,82.3 243.7,75.0 230.6,69.5" fill="rgb(86,138,190)" stroke="#2a2a4a" stroke-width="0.5"/>
  <polygon points="253.8,82.3 230.6,69.5 215.3,66.1" fill="rgb(86,138,190)" stroke="#2a2a4a" stroke-width="0.5"/>
  <polygon points="253.8,82.3 215.3,66.1 199.1,65.0" fill="rgb(86,138,190)" stroke="#2a2a4a" stroke-width="0.5"/>
  <polygon points="253.8,82.3 199.1,65.0 182.9,66.3" fill="rgb(86,138,190)" stroke="#2a2a4a" stroke-width="0.5"/>
  <polygon points="253.8,82.3 182.9,66.3 167.9,70.0" fill="rgb(86,138,190)" stroke="#2a2a4a" stroke-width="0.5"/>
  <polygon points="253.8,82.3 167.9,70.0 155.0,75.7" fill="rgb(86,138,190)" stroke="#2a2a4a" stroke-width="0.5"/>
  <polygon points="253.8,82.3 155.0,75.7 145.2,83.1" fill="rgb(86,138,190)" stroke="#2a2a4a" stroke-width="0.5"/>
  <polygon points="253.8,82.3 145.2,83.1 139.2,91.7" fill="rgb(86,138,190)" stroke="#2a2a4a" stroke-width="0.5"/>
  <polygon points="253.8,82.3 139.2,91.7 137.3,100.9" fill="rgb(86,138,190)" stroke="#2a2a4a" stroke-width="0.5"/>
  <polygon points="253.8,82.3 137.3,100.9 139.7,110.1" fill="rgb(86,138,190)" stroke="#2a2a4a" stroke-width="0.5"/>
  <polygon points="253.8,82.3 139.7,110.1 146.2,118.5" fill="rgb(86,138,190)" stroke="#2a2a4a" stroke-width="0.5"/>
  <polygon points="253.8,82.3 146.2,118.5 156.3,125.8" fill="rgb(86,138,190)" stroke="#2a2a4a" stroke-width="0.5"/>
  <polygon points="253.8,82.3 156.3,125.8 169.4,131.3" fill="rgb(86,138,190)" stroke="#2a2a4a" stroke-width="0.5"/>
  <polygon points="253.8,82.3 169.4,131.3 184.7,134.7" fill="rgb(86,138,190)" stroke="#2a2a4a" stroke-width="0.5"/>
  <polygon points="253.8,82.3 184.7,134.7 200.9,135.8" fill="rgb(86,138,190)" stroke="#2a2a4a" stroke-width="0.5"/>
  <polygon points="253.8,82.3 200.9,135.8 217.1,134.5" fill="rgb(86,138,190)" stroke="#2a2a4a" stroke-width="0.5"/>
  <polygon points="253.8,82.3 217.1,134.5 232.1,130.8" fill="rgb(86,138,190)" stroke="#2a2a4a" stroke-width="0.5"/>
  <polygon points="253.8,82.3 232.1,130.8 245.0,125.1" fill="rgb(86,138,190)" stroke="#2a2a4a" stroke-width="0.5"/>
  <polygon points="253.8,82.3 245.0,125.1 254.8,117.7" fill="rgb(86,138,190)" stroke="#2a2a4a" stroke-width="0.5"/>
  <polygon points="253.8,82.3 254.8,117.7 260.8,109.1" fill="rgb(86,138,190)" stroke="#2a2a4a" stroke-width="0.5"/>
  <polygon points="253.8,82.3 260.8,109.1 262.7,99.9" fill="rgb(86,138,190)" stroke="#2a2a4a" stroke-width="0.5"/>
  <polygon points="262.7,99.9 260.3,90.7 253.8,82.3" fill="rgb(86,138,190)" stroke="#2a2a4a" stroke-width="0.5"/>
  <text x="200" y="292" font-family="monospace" font-size="10" fill="#5a6080" text-anchor="middle">92 triangles, 144 vertices</text>
</svg>
