<svg xmlns="http://www.w3.org/2000/svg" width="400" height="300" style="background:#1a1a2e">
<text x="200" y="20" font-family="monospace" font-size="13" fill="#8892b0" text-anchor="middle">Filleted Box (r=1.5, 32 seg)</text>
  <polygon points="92.8,216.9 289.0,191.7 171.5,260.0" fill="rgb(86,138,190)" stroke="#2a2a4a" stroke-width="0.5"/>
  <polygon points="289.0,191.7 92.8,216.9 210.4,148.5" fill="rgb(86,138,190)" stroke="#2a2a4a" stroke-width="0.5"/>
  <polygon points="171.5,259.0 92.8,216.9 171.5,260.0" fill="rgb(112,40,30)" stroke="#2a2a4a" stroke-width="0.5"/>
  <polygon points="210.4,148.5 289.0,190.7 289.0,191.7" fill="rgb(51,81,112)" stroke="#2a2a4a" stroke-width="0.5"/>
  <polygon points="289.0,190.7 171.5,260.0 289.0,191.7" fill="rgb(140,51,38)" stroke="#2a2a4a" stroke-width="0.5"/>
  <polygon points="171.5,260.0 289.0,190.7 171.5,259.0" fill="rgb(140,51,38)" stroke="#2a2a4a" stroke-width="0.5"/>
  <polygon points="171.6,258.0 92.8,216.9 171.5,259.0" fill="rgb(112,40,30)" stroke="#2a2a4a" stroke-width="0.5"/>
  <polygon points="210.4,148.5 289.1,189.7 289.0,190.7" fill="rgb(51,81,112)" stroke="#2a2a4a" stroke-width="0.5"/>
  <polygon points="289.1,189.7 171.5,259.0 289.0,190.7" fill="rgb(134,48,36)" stroke="#2a2a4a" stroke-width="0.5"/>
  <polygon points="171.7,257.0 92.8,216.9 171.6,258.0" fill="rgb(112,40,30)" stroke="#2a2a4a" stroke-width="0.5"/>
  <polygon points="210.4,148.5 289.2,188.7 289.1,189.7" fill="rgb(51,81,112)" stroke="#2a2a4a" stroke-width="0.5"/>
  <polygon points="171.5,259.0 289.1,189.7 171.6,258.0" fill="rgb(134,48,36)" stroke="#2a2a4a" stroke-width="0.5"/>
  <polygon points="171.8,256.1 92.8,216.9 171.7,257.0" fill="rgb(112,40,30)" stroke="#2a2a4a" stroke-width="0.5"/>
  <polygon points="210.4,148.5 289.4,187.8 289.2,188.7" fill="rgb(51,81,112)" stroke="#2a2a4a" stroke-width="0.5"/>
  <polygon points="289.2,188.7 171.6,258.0 289.1,189.7" fill="rgb(127,46,34)" stroke="#2a2a4a" stroke-width="0.5"/>
  <polygon points="171.6,258.0 289.2,188.7 171.7,257.0" fill="rgb(127,46,34)" stroke="#2a2a4a" stroke-width="0.5"/>
  <polygon points="172.0,255.2 92.8,216.9 171.8,256.1" fill="rgb(112,40,30)" stroke="#2a2a4a" stroke-width="0.5"/>
  <polygon points="210.4,148.5 289.6,186.9 289.4,187.8" fill="rgb(51,81,112)" stroke="#2a2a4a" stroke-width="0.5"/>
  <polygon points="289.4,187.8 171.7,257.0 289.2,188.7" fill="rgb(121,44,33)" stroke="#2a2a4a" stroke-width="0.5"/>
  <polygon points="210.4,148.5 289.8,186.0 289.6,186.9" fill="rgb(51,81,112)" stroke="#2a2a4a" stroke-width="0.5"/>
  <polygon points="171.7,257.0 289.4,187.8 171.8,256.1" fill="rgb(121,44,33)" stroke="#2a2a4a" stroke-width="0.5"/>
  <polygon points="210.4,148.5 290.1,185.2 289.8,186.0" fill="rgb(51,81,112)" stroke="#2a2a4a" stroke-width="0.5"/>
  <polygon points="289.6,186.9 171.8,256.1 289.4,187.8" fill="rgb(114,41,31)" stroke="#2a2a4a" stroke-width="0.5"/>
  <polygon points="171.8,256.1 289.6,186.9 172.0,255.2" fill="rgb(114,41,31)" stroke="#2a2a4a" stroke-width="0.5"/>
  <polygon points="210.4,148.5 290.4,184.4 290.1,185.2" fill="rgb(51,81,112)" stroke="#2a2a4a" stroke-width="0.5"/>
  <polygon points="289.8,186.0 172.0,255.2 289.6,186.9" fill="rgb(107,39,29)" stroke="#2a2a4a" stroke-width="0.5"/>
  <polygon points="210.4,148.5 290.8,183.7 290.4,184.4" fill="rgb(51,81,112)" stroke="#2a2a4a" stroke-width="0.5"/>
  <polygon points="172.0,255.2 289.8,186.0 172.3,254.4" fill="rgb(107,39,29)" stroke="#2a2a4a" stroke-width="0.5"/>
  <polygon points="210.4,148.5 291.2,183.0 290.8,183.7" fill="rgb(51,81,112)" stroke="#2a2a4a" stroke-width="0.5"/>
  <polygon points="290.1,185.2 172.3,254.4 289.8,186.0" fill="rgb(100,36,27)" stroke="#2a2a4a" stroke-width="0.5"/>
  <polygon points="172.3,254.4 290.1,185.2 172.5,253.5" fill="rgb(100,36,27)" stroke="#2a2a4a" stroke-width="0.5"/>
  <polygon points="210.4,148.5 291.6,182.4 291.2,183.0" fill="rgb(51,81,112)" stroke="#2a2a4a" stroke-width="0.5"/>
  <polygon points="290.4,184.4 172.5,253.5 290.1,185.2" fill="rgb(93,34,25)" stroke="#2a2a4a" stroke-width="0.5"/>
  <polygon points="210.4,148.5 292.1,181.7 291.6,182.4" fill="rgb(51,81,112)" stroke="#2a2a4a" stroke-width="0.5"/>
  <polygon points="172.5,253.5 290.4,184.4 172.9,252.8" fill="rgb(93,34,25)" stroke="#2a2a4a" stroke-width="0.5"/>
  <polygon points="210.4,148.5 292.6,181.2 292.1,181.7" fill="rgb(51,81,112)" stroke="#2a2a4a" stroke-width="0.5"/>
  <polygon points="290.8,183.7 172.9,252.8 290.4,184.4" fill="rgb(86,31,23)" stroke="#2a2a4a" stroke-width="0.5"/>
  <polygon points="210.4,148.5 293.1,180.7 292.6,181.2" fill="rgb(51,81,112)" stroke="#2a2a4a" stroke-width="0.5"/>
  <polygon points="172.9,252.8 290.8,183.7 173.2,252.0" fill="rgb(86,31,23)" stroke="#2a2a4a" stroke-width="0.5"/>
  <polygon points="210.4,148.5 293.7,180.2 293.1,180.7" fill="rgb(51,81,112)" stroke="#2a2a4a" stroke-width="0.5"/>
  <polygon points="291.2,183.0 173.2,252.0 290.8,183.7" fill="rgb(79,28,21)" stroke="#2a2a4a" stroke-width="0.5"/>
  <polygon points="173.2,252.0 291.2,183.0 173.6,251.3" fill="rgb(79,28,21)" stroke="#2a2a4a" stroke-width="0.5"/>
  <polygon points="210.4,148.5 294.3,179.8 293.7,180.2" fill="rgb(51,81,112)" stroke="#2a2a4a" stroke-width="0.5"/>
  <polygon points="210.4,148.5 295.0,179.5 294.3,179.8" fill="rgb(51,81,112)" stroke="#2a2a4a" stroke-width="0.5"/>
  <polygon points="291.6,182.4 173.6,251.3 291.2,183.0" fill="rgb(72,26,19)" stroke="#2a2a4a" stroke-width="0.5"/>
  <polygon points="173.6,251.3 291.6,182.4 174.1,250.7" fill="rgb(72,26,19)" stroke="#2a2a4a" stroke-width="0.5"/>
  <polygon points="210.4,148.5 295.7,179.2 295.0,179.5" fill="rgb(51,81,112)" stroke="#2a2a4a" stroke-width="0.5"/>
  <polygon points="210.4,148.5 296.4,178.9 295.7,179.2" fill="rgb(51,81,112)" stroke="#2a2a4a" stroke-width="0.5"/>
  <polygon points="292.1,181.7 174.1,250.7 291.6,182.4" fill="rgb(66,24,18)" stroke="#2a2a4a" stroke-width="0.5"/>
  <polygon points="174.1,250.7 292.1,181.7 174.5,250.1" fill="rgb(66,24,18)" stroke="#2a2a4a" stroke-width="0.5"/>
  <polygon points="210.4,148.5 297.1,178.7 296.4,178.9" fill="rgb(51,81,112)" stroke="#2a2a4a" stroke-width="0.5"/>
  <polygon points="210.4,148.5 297.8,178.6 297.1,178.7" fill="rgb(51,81,112)" stroke="#2a2a4a" stroke-width="0.5"/>
  <polygon points="292.6,181.2 174.5,250.1 292.1,181.7" fill="rgb(74,26,20)" stroke="#2a2a4a" stroke-width="0.5"/>
  <polygon points="210.4,148.5 298.6,178.5 297.8,178.6" fill="rgb(51,81,112)" stroke="#2a2a4a" stroke-width="0.5"/>
  <polygon points="174.5,250.1 292.6,181.2 175.1,249.5" fill="rgb(74,26,20)" stroke="#2a2a4a" stroke-width="0.5"/>
  <polygon points="210.4,148.5 299.4,178.5 298.6,178.5" fill="rgb(51,81,112)" stroke="#2a2a4a" stroke-width="0.5"/>
  <polygon points="293.1,180.7 175.1,249.5 292.6,181.2" fill="rgb(81,29,22)" stroke="#2a2a4a" stroke-width="0.5"/>
  <polygon points="210.4,148.5 300.2,178.5 299.4,178.5" fill="rgb(51,81,112)" stroke="#2a2a4a" stroke-width="0.5"/>
  <polygon points="175.1,249.5 293.1,180.7 175.6,249.0" fill="rgb(81,29,22)" stroke="#2a2a4a" stroke-width="0.5"/>
  <polygon points="210.4,148.5 301.1,178.6 300.2,178.5" fill="rgb(51,81,112)" stroke="#2a2a4a" stroke-width="0.5"/>
  <polygon points="210.4,148.5 301.9,178.8 301.1,178.6" fill="rgb(51,81,112)" stroke="#2a2a4a" stroke-width="0.5"/>
  <polygon points="210.4,148.5 302.8,178.9 301.9,178.8" fill="rgb(51,81,112)" stroke="#2a2a4a" stroke-width="0.5"/>
  <polygon points="293.7,180.2 175.6,249.0 293.1,180.7" fill="rgb(88,32,24)" stroke="#2a2a4a" stroke-width="0.5"/>
  <polygon points="210.4,148.5 303.6,179.2 302.8,178.9" fill="rgb(51,81,112)" stroke="#2a2a4a" stroke-width="0.5"/>
  <polygon points="175.6,249.0 293.7,180.2 176.2,248.6" fill="rgb(88,32,24)" stroke="#2a2a4a" stroke-width="0.5"/>
  <polygon points="294.3,179.8 176.2,248.6 293.7,180.2" fill="rgb(95,34,26)" stroke="#2a2a4a" stroke-width="0.5"/>
  <polygon points="176.2,248.6 294.3,179.8 176.8,248.1" fill="rgb(95,34,26)" stroke="#2a2a4a" stroke-width="0.5"/>
  <polygon points="295.0,179.5 176.8,248.1 294.3,179.8" fill="rgb(46,74,102)" stroke="#2a2a4a" stroke-width="0.5"/>
  <polygon points="176.8,248.1 295.0,179.5 177.5,247.8" fill="rgb(46,74,102)" stroke="#2a2a4a" stroke-width="0.5"/>
  <polygon points="295.7,179.2 177.5,247.8 295.0,179.5" fill="rgb(49,79,109)" stroke="#2a2a4a" stroke-width="0.5"/>
  <polygon points="177.5,247.8 295.7,179.2 178.1,247.5" fill="rgb(49,79,109)" stroke="#2a2a4a" stroke-width="0.5"/>
  <polygon points="296.4,178.9 178.1,247.5 295.7,179.2" fill="rgb(52,84,116)" stroke="#2a2a4a" stroke-width="0.5"/>
  <polygon points="178.1,247.5 296.4,178.9 178.8,247.3" fill="rgb(52,84,116)" stroke="#2a2a4a" stroke-width="0.5"/>
  <polygon points="297.1,178.7 178.8,247.3 296.4,178.9" fill="rgb(55,89,122)" stroke="#2a2a4a" stroke-width="0.5"/>
  <polygon points="178.8,247.3 297.1,178.7 179.6,247.1" fill="rgb(55,89,122)" stroke="#2a2a4a" stroke-width="0.5"/>
  <polygon points="297.8,178.6 179.6,247.1 297.1,178.7" fill="rgb(58,94,129)" stroke="#2a2a4a" stroke-width="0.5"/>
  <polygon points="179.6,247.1 297.8,178.6 180.3,246.9" fill="rgb(58,94,129)" stroke="#2a2a4a" stroke-width="0.5"/>
  <polygon points="298.6,178.5 180.3,246.9 297.8,178.6" fill="rgb(61,98,135)" stroke="#2a2a4a" stroke-width="0.5"/>
  <polygon points="180.3,246.9 298.6,178.5 181.1,246.8" fill="rgb(61,98,135)" stroke="#2a2a4a" stroke-width="0.5"/>
  <polygon points="299.4,178.5 181.1,246.8 298.6,178.5" fill="rgb(64,103,142)" stroke="#2a2a4a" stroke-width="0.5"/>
  <polygon points="181.1,246.8 299.4,178.5 181.9,246.8" fill="rgb(64,103,142)" stroke="#2a2a4a" stroke-width="0.5"/>
  <polygon points="300.2,178.5 181.9,246.8 299.4,178.5" fill="rgb(67,107,148)" stroke="#2a2a4a" stroke-width="0.5"/>
  <polygon points="181.9,246.8 300.2,178.5 182.7,246.9" fill="rgb(67,107,148)" stroke="#2a2a4a" stroke-width="0.5"/>
  <polygon points="301.1,178.6 182.7,246.9 300.2,178.5" fill="rgb(70,112,154)" stroke="#2a2a4a" stroke-width="0.5"/>
  <polygon points="182.7,246.9 301.1,178.6 183.5,246.9" fill="rgb(70,112,154)" stroke="#2a2a4a" stroke-width="0.5"/>
  <polygon points="301.9,178.8 183.5,246.9 301.1,178.6" fill="rgb(72,116,159)" stroke="#2a2a4a" stroke-width="0.5"/>
  <polygon points="183.5,246.9 301.9,178.8 184.4,247.1" fill="rgb(72,116,159)" stroke="#2a2a4a" stroke-width="0.5"/>
  <polygon points="302.8,178.9 184.4,247.1 301.9,178.8" fill="rgb(75,120,165)" stroke="#2a2a4a" stroke-width="0.5"/>
  <polygon points="184.4,247.1 302.8,178.9 185.2,247.3" fill="rgb(75,120,165)" stroke="#2a2a4a" stroke-width="0.5"/>
  <polygon points="303.6,179.2 185.2,247.3 302.8,178.9" fill="rgb(77,123,170)" stroke="#2a2a4a" stroke-width="0.5"/>
  <polygon points="185.2,247.3 303.6,179.2 186.1,247.5" fill="rgb(77,123,170)" stroke="#2a2a4a" stroke-width="0.5"/>
  <polygon points="304.5,179.5 186.1,247.5 303.6,179.2" fill="rgb(79,127,175)" stroke="#2a2a4a" stroke-width="0.5"/>
  <polygon points="186.1,247.5 304.5,179.5 187.0,247.8" fill="rgb(79,127,175)" stroke="#2a2a4a" stroke-width="0.5"/>
  <polygon points="305.4,179.9 187.0,247.8 304.5,179.5" fill="rgb(81,130,179)" stroke="#2a2a4a" stroke-width="0.5"/>
  <polygon points="187.0,247.8 305.4,179.9 187.9,248.2" fill="rgb(81,130,179)" stroke="#2a2a4a" stroke-width="0.5"/>
  <polygon points="306.3,180.3 187.9,248.2 305.4,179.9" fill="rgb(83,134,184)" stroke="#2a2a4a" stroke-width="0.5"/>
  <polygon points="187.9,248.2 306.3,180.3 188.7,248.6" fill="rgb(83,134,184)" stroke="#2a2a4a" stroke-width="0.5"/>
  <polygon points="307.2,180.7 188.7,248.6 306.3,180.3" fill="rgb(85,137,188)" stroke="#2a2a4a" stroke-width="0.5"/>
  <polygon points="188.7,248.6 307.2,180.7 189.6,249.1" fill="rgb(85,137,188)" stroke="#2a2a4a" stroke-width="0.5"/>
  <polygon points="92.8,133.3 210.4,148.5 92.8,216.9" fill="rgb(65,104,143)" stroke="#2a2a4a" stroke-width="0.5"/>
  <polygon points="189.6,186.4 92.8,216.9 172.0,255.2" fill="rgb(112,40,30)" stroke="#2a2a4a" stroke-width="0.5"/>
  <polygon points="189.6,186.4 172.0,255.2 172.3,254.4" fill="rgb(112,40,30)" stroke="#2a2a4a" stroke-width="0.5"/>
  <polygon points="189.6,186.4 172.3,254.4 172.5,253.5" fill="rgb(112,40,30)" stroke="#2a2a4a" stroke-width="0.5"/>
  <polygon points="189.6,186.4 172.5,253.5 172.9,252.8" fill="rgb(112,40,30)" stroke="#2a2a4a" stroke-width="0.5"/>
  <polygon points="189.6,186.4 172.9,252.8 173.2,252.0" fill="rgb(112,40,30)" stroke="#2a2a4a" stroke-width="0.5"/>
  <polygon points="189.6,186.4 173.2,252.0 173.6,251.3" fill="rgb(112,40,30)" stroke="#2a2a4a" stroke-width="0.5"/>
  <polygon points="210.4,148.5 307.2,118.1 303.6,179.2" fill="rgb(51,81,112)" stroke="#2a2a4a" stroke-width="0.5"/>
  <polygon points="189.6,186.4 173.6,251.3 174.1,250.7" fill="rgb(112,40,30)" stroke="#2a2a4a" stroke-width="0.5"/>
  <polygon points="189.6,186.4 174.1,250.7 174.5,250.1" fill="rgb(112,40,30)" stroke="#2a2a4a" stroke-width="0.5"/>
  <polygon points="189.6,186.4 174.5,250.1 175.1,249.5" fill="rgb(112,40,30)" stroke="#2a2a4a" stroke-width="0.5"/>
  <polygon points="189.6,186.4 175.1,249.5 175.6,249.0" fill="rgb(112,40,30)" stroke="#2a2a4a" stroke-width="0.5"/>
  <polygon points="189.6,186.4 175.6,249.0 176.2,248.6" fill="rgb(112,40,30)" stroke="#2a2a4a" stroke-width="0.5"/>
  <polygon points="189.6,186.4 176.2,248.6 176.8,248.1" fill="rgb(112,40,30)" stroke="#2a2a4a" stroke-width="0.5"/>
  <polygon points="189.6,186.4 176.8,248.1 177.5,247.8" fill="rgb(112,40,30)" stroke="#2a2a4a" stroke-width="0.5"/>
  <polygon points="189.6,186.4 177.5,247.8 178.1,247.5" fill="rgb(112,40,30)" stroke="#2a2a4a" stroke-width="0.5"/>
  <polygon points="189.6,186.4 178.1,247.5 178.8,247.3" fill="rgb(112,40,30)" stroke="#2a2a4a" stroke-width="0.5"/>
  <polygon points="189.6,186.4 178.8,247.3 179.6,247.1" fill="rgb(112,40,30)" stroke="#2a2a4a" stroke-width="0.5"/>
  <polygon points="189.6,186.4 179.6,247.1 180.3,246.9" fill="rgb(112,40,30)" stroke="#2a2a4a" stroke-width="0.5"/>
  <polygon points="189.6,186.4 180.3,246.9 181.1,246.8" fill="rgb(112,40,30)" stroke="#2a2a4a" stroke-width="0.5"/>
  <polygon points="189.6,186.4 181.1,246.8 181.9,246.8" fill="rgb(112,40,30)" stroke="#2a2a4a" stroke-width="0.5"/>
  <polygon points="189.6,186.4 181.9,246.8 182.7,246.9" fill="rgb(112,40,30)" stroke="#2a2a4a" stroke-width="0.5"/>
  <polygon points="189.6,186.4 182.7,246.9 183.5,246.9" fill="rgb(112,40,30)" stroke="#2a2a4a" stroke-width="0.5"/>
  <polygon points="189.6,186.4 183.5,246.9 184.4,247.1" fill="rgb(112,40,30)" stroke="#2a2a4a" stroke-width="0.5"/>
  <polygon points="189.6,186.4 184.4,247.1 185.2,247.3" fill="rgb(112,40,30)" stroke="#2a2a4a" stroke-width="0.5"/>
  <polygon points="189.6,186.4 185.2,247.3 186.1,247.5" fill="rgb(112,40,30)" stroke="#2a2a4a" stroke-width="0.5"/>
  <polygon points="189.6,186.4 186.1,247.5 187.0,247.8" fill="rgb(112,40,30)" stroke="#2a2a4a" stroke-width="0.5"/>
  <polygon points="303.6,179.2 307.2,118.1 304.5,179.5" fill="rgb(51,81,112)" stroke="#2a2a4a" stroke-width="0.5"/>
  <polygon points="189.6,186.4 187.0,247.8 187.9,248.2" fill="rgb(112,40,30)" stroke="#2a2a4a" stroke-width="0.5"/>
  <polygon points="304.5,179.5 307.2,118.1 305.4,179.9" fill="rgb(51,81,112)" stroke="#2a2a4a" stroke-width="0.5"/>
  <polygon points="189.6,186.4 187.9,248.2 188.7,248.6" fill="rgb(112,40,30)" stroke="#2a2a4a" stroke-width="0.5"/>
  <polygon points="305.4,179.9 307.2,118.1 306.3,180.3" fill="rgb(51,81,112)" stroke="#2a2a4a" stroke-width="0.5"/>
  <polygon points="189.6,186.4 188.7,248.6 189.6,249.1" fill="rgb(112,40,30)" stroke="#2a2a4a" stroke-width="0.5"/>
  <polygon points="306.3,180.3 307.2,118.1 307.2,180.7" fill="rgb(51,81,112)" stroke="#2a2a4a" stroke-width="0.5"/>
  <polygon points="307.2,180.7 189.6,186.4 189.6,249.1" fill="rgb(143,52,39)" stroke="#2a2a4a" stroke-width="0.5"/>
  <polygon points="92.8,216.9 189.6,186.4 92.8,133.3" fill="rgb(112,40,30)" stroke="#2a2a4a" stroke-width="0.5"/>
  <polygon points="307.2,118.1 210.4,148.5 210.4,65.0" fill="rgb(51,81,112)" stroke="#2a2a4a" stroke-width="0.5"/>
  <polygon points="210.4,148.5 92.8,133.3 210.4,65.0" fill="rgb(65,104,143)" stroke="#2a2a4a" stroke-width="0.5"/>
  <polygon points="189.6,186.4 307.2,180.7 307.2,118.1" fill="rgb(143,52,39)" stroke="#2a2a4a" stroke-width="0.5"/>
  <polygon points="210.4,65.0 189.6,186.4 307.2,118.1" fill="rgb(190,69,51)" stroke="#2a2a4a" stroke-width="0.5"/>
  <polygon points="189.6,186.4 210.4,65.0 92.8,133.3" fill="rgb(190,69,51)" stroke="#2a2a4a" stroke-width="0.5"/>
  <text x="200" y="292" font-family="monospace" font-size="10" fill="#5a6080" text-anchor="middle">140 triangles, 72 vertices</text>
</svg>
