<svg xmlns="http://www.w3.org/2000/svg" width="400" height="300" style="background:#1a1a2e">
<text x="200" y="20" font-family="monospace" font-size="13" fill="#8892b0" text-anchor="middle">Rounded Enclosure (4 fillets, 32 seg)</text>
  <polygon points="201.6,259.6 93.8,200.6 94.4,224.5" fill="rgb(86,138,190)" stroke="#222240" stroke-width="0.2"/>
  <polygon points="201.6,259.6 93.8,200.6 198.4,139.7" fill="rgb(86,138,190)" stroke="#222240" stroke-width="0.2"/>
  <polygon points="201.6,259.6 198.4,139.7 240.9,139.4" fill="rgb(86,138,190)" stroke="#222240" stroke-width="0.2"/>
  <polygon points="201.6,259.6 240.9,139.4 305.6,174.8" fill="rgb(86,138,190)" stroke="#222240" stroke-width="0.2"/>
  <polygon points="201.6,259.6 305.6,174.8 306.2,198.8" fill="rgb(86,138,190)" stroke="#222240" stroke-width="0.2"/>
  <polygon points="159.1,260.0 201.6,259.6 306.2,198.8" fill="rgb(86,138,190)" stroke="#222240" stroke-width="0.2"/>
  <polygon points="159.1,185.6 159.1,260.0 305.6,174.8" fill="rgb(65,104,143)" stroke="#222240" stroke-width="0.2"/>
  <polygon points="306.2,124.4 306.2,198.8 198.4,139.7" fill="rgb(51,81,112)" stroke="#222240" stroke-width="0.2"/>
  <polygon points="240.9,65.0 240.9,139.4 94.4,224.5" fill="rgb(65,104,143)" stroke="#222240" stroke-width="0.2"/>
  <polygon points="93.8,126.2 93.8,200.6 201.6,259.6" fill="rgb(51,81,112)" stroke="#222240" stroke-width="0.2"/>
  <polygon points="304.6,175.4 305.6,100.5 305.6,174.8" fill="rgb(65,105,144)" stroke="#222240" stroke-width="0.2"/>
  <polygon points="303.6,176.1 304.6,101.1 304.6,175.4" fill="rgb(66,106,147)" stroke="#222240" stroke-width="0.2"/>
  <polygon points="302.7,176.7 303.6,101.7 303.6,176.1" fill="rgb(67,108,148)" stroke="#222240" stroke-width="0.2"/>
  <polygon points="301.9,177.4 302.7,102.4 302.7,176.7" fill="rgb(68,109,150)" stroke="#222240" stroke-width="0.2"/>
  <polygon points="301.1,178.1 301.9,103.1 301.9,177.4" fill="rgb(69,110,152)" stroke="#222240" stroke-width="0.2"/>
  <polygon points="300.4,178.9 301.1,103.8 301.1,178.1" fill="rgb(69,111,153)" stroke="#222240" stroke-width="0.2"/>
  <polygon points="299.8,179.6 300.4,104.5 300.4,178.9" fill="rgb(70,112,154)" stroke="#222240" stroke-width="0.2"/>
  <polygon points="299.2,180.4 299.8,105.2 299.8,179.6" fill="rgb(70,112,155)" stroke="#222240" stroke-width="0.2"/>
  <polygon points="298.7,181.2 299.2,106.0 299.2,180.4" fill="rgb(70,113,156)" stroke="#222240" stroke-width="0.2"/>
  <polygon points="298.3,182.0 298.7,106.8 298.7,181.2" fill="rgb(71,113,156)" stroke="#222240" stroke-width="0.2"/>
  <polygon points="297.9,182.8 298.3,107.6 298.3,182.0" fill="rgb(71,113,156)" stroke="#222240" stroke-width="0.2"/>
  <polygon points="297.6,183.6 297.9,108.4 297.9,182.8" fill="rgb(71,113,156)" stroke="#222240" stroke-width="0.2"/>
  <polygon points="297.3,184.4 297.6,109.2 297.6,183.6" fill="rgb(71,113,156)" stroke="#222240" stroke-width="0.2"/>
  <polygon points="297.2,185.2 297.3,110.0 297.3,184.4" fill="rgb(70,113,156)" stroke="#222240" stroke-width="0.2"/>
  <polygon points="297.1,186.1 297.2,110.9 297.2,185.2" fill="rgb(70,113,155)" stroke="#222240" stroke-width="0.2"/>
  <polygon points="297.1,186.9 297.1,111.7 297.1,186.1" fill="rgb(70,112,154)" stroke="#222240" stroke-width="0.2"/>
  <polygon points="297.1,187.7 297.1,112.5 297.1,186.9" fill="rgb(69,111,153)" stroke="#222240" stroke-width="0.2"/>
  <polygon points="297.3,188.6 297.1,113.3 297.1,187.7" fill="rgb(69,110,152)" stroke="#222240" stroke-width="0.2"/>
  <polygon points="297.5,189.4 297.3,114.2 297.3,188.6" fill="rgb(68,109,150)" stroke="#222240" stroke-width="0.2"/>
  <polygon points="297.7,190.2 297.5,115.0 297.5,189.4" fill="rgb(67,108,148)" stroke="#222240" stroke-width="0.2"/>
  <polygon points="298.1,191.0 297.7,115.8 297.7,190.2" fill="rgb(66,106,147)" stroke="#222240" stroke-width="0.2"/>
  <polygon points="298.5,191.8 298.1,116.6 298.1,191.0" fill="rgb(65,105,144)" stroke="#222240" stroke-width="0.2"/>
  <polygon points="299.0,192.6 298.5,117.4 298.5,191.8" fill="rgb(64,103,142)" stroke="#222240" stroke-width="0.2"/>
  <polygon points="299.5,193.4 299.0,118.2 299.0,192.6" fill="rgb(63,101,140)" stroke="#222240" stroke-width="0.2"/>
  <polygon points="300.2,194.1 299.5,119.0 299.5,193.4" fill="rgb(62,100,137)" stroke="#222240" stroke-width="0.2"/>
  <polygon points="300.8,194.9 300.2,119.7 300.2,194.1" fill="rgb(61,97,134)" stroke="#222240" stroke-width="0.2"/>
  <polygon points="301.6,195.6 300.8,120.5 300.8,194.9" fill="rgb(59,95,131)" stroke="#222240" stroke-width="0.2"/>
  <polygon points="302.4,196.3 301.6,121.2 301.6,195.6" fill="rgb(58,93,128)" stroke="#222240" stroke-width="0.2"/>
  <polygon points="303.3,196.9 302.4,121.9 302.4,196.3" fill="rgb(56,91,125)" stroke="#222240" stroke-width="0.2"/>
  <polygon points="304.2,197.6 303.3,122.6 303.3,196.9" fill="rgb(55,88,121)" stroke="#222240" stroke-width="0.2"/>
  <polygon points="305.2,198.2 304.2,123.2 304.2,197.6" fill="rgb(53,86,118)" stroke="#222240" stroke-width="0.2"/>
  <polygon points="306.2,198.8 305.2,123.8 305.2,198.2" fill="rgb(52,83,114)" stroke="#222240" stroke-width="0.2"/>
  <polygon points="159.1,260.0 160.1,185.0 160.1,259.4" fill="rgb(64,103,142)" stroke="#222240" stroke-width="0.2"/>
  <polygon points="160.1,259.4 161.2,184.5 161.2,258.9" fill="rgb(63,101,140)" stroke="#222240" stroke-width="0.2"/>
  <polygon points="161.2,258.9 162.4,184.0 162.4,258.3" fill="rgb(62,99,137)" stroke="#222240" stroke-width="0.2"/>
  <polygon points="162.4,258.3 163.6,183.5 163.6,257.9" fill="rgb(61,97,134)" stroke="#222240" stroke-width="0.2"/>
  <polygon points="163.6,257.9 164.8,183.0 164.8,257.4" fill="rgb(59,95,131)" stroke="#222240" stroke-width="0.2"/>
  <polygon points="164.8,257.4 166.1,182.6 166.1,257.0" fill="rgb(58,93,128)" stroke="#222240" stroke-width="0.2"/>
  <polygon points="166.1,257.0 167.4,182.2 167.4,256.6" fill="rgb(56,91,125)" stroke="#222240" stroke-width="0.2"/>
  <polygon points="167.4,256.6 168.7,181.9 168.7,256.2" fill="rgb(55,88,121)" stroke="#222240" stroke-width="0.2"/>
  <polygon points="168.7,256.2 170.1,181.6 170.1,255.9" fill="rgb(53,85,118)" stroke="#222240" stroke-width="0.2"/>
  <polygon points="170.1,255.9 171.5,181.3 171.5,255.7" fill="rgb(52,83,114)" stroke="#222240" stroke-width="0.2"/>
  <polygon points="171.5,255.7 172.9,181.0 172.9,255.4" fill="rgb(50,80,110)" stroke="#222240" stroke-width="0.2"/>
  <polygon points="172.9,255.4 174.3,180.9 174.3,255.2" fill="rgb(48,77,106)" stroke="#222240" stroke-width="0.2"/>
  <polygon points="174.3,255.2 175.8,180.7 175.8,255.1" fill="rgb(46,74,102)" stroke="#222240" stroke-width="0.2"/>
  <polygon points="175.8,255.1 177.2,180.6 177.2,255.0" fill="rgb(44,71,98)" stroke="#222240" stroke-width="0.2"/>
  <polygon points="177.2,255.0 178.7,180.5 178.7,254.9" fill="rgb(42,68,94)" stroke="#222240" stroke-width="0.2"/>
  <polygon points="178.7,254.9 180.2,180.5 180.2,254.9" fill="rgb(40,65,90)" stroke="#222240" stroke-width="0.2"/>
  <polygon points="180.2,254.9 181.7,180.5 181.7,254.9" fill="rgb(39,62,85)" stroke="#222240" stroke-width="0.2"/>
  <polygon points="181.7,254.9 183.1,180.5 183.1,254.9" fill="rgb(37,59,81)" stroke="#222240" stroke-width="0.2"/>
  <polygon points="183.1,254.9 184.6,180.6 184.6,255.0" fill="rgb(35,56,77)" stroke="#222240" stroke-width="0.2"/>
  <polygon points="184.6,255.0 186.1,180.8 186.1,255.1" fill="rgb(33,52,72)" stroke="#222240" stroke-width="0.2"/>
  <polygon points="186.1,255.1 187.5,180.9 187.5,255.3" fill="rgb(30,49,68)" stroke="#222240" stroke-width="0.2"/>
  <polygon points="187.5,255.3 188.9,181.1 188.9,255.5" fill="rgb(31,49,68)" stroke="#222240" stroke-width="0.2"/>
  <polygon points="188.9,255.5 190.3,181.4 190.3,255.8" fill="rgb(33,52,72)" stroke="#222240" stroke-width="0.2"/>
  <polygon points="190.3,255.8 191.7,181.7 191.7,256.1" fill="rgb(35,56,77)" stroke="#222240" stroke-width="0.2"/>
  <polygon points="191.7,256.1 193.1,182.0 193.1,256.4" fill="rgb(37,59,81)" stroke="#222240" stroke-width="0.2"/>
  <polygon points="193.1,256.4 194.4,182.4 194.4,256.7" fill="rgb(39,62,85)" stroke="#222240" stroke-width="0.2"/>
  <polygon points="194.4,256.7 195.7,182.8 195.7,257.1" fill="rgb(41,65,90)" stroke="#222240" stroke-width="0.2"/>
  <polygon points="195.7,257.1 196.9,183.2 196.9,257.6" fill="rgb(42,68,94)" stroke="#222240" stroke-width="0.2"/>
  <polygon points="196.9,257.6 198.2,183.7 198.2,258.0" fill="rgb(44,71,98)" stroke="#222240" stroke-width="0.2"/>
  <polygon points="198.2,258.0 199.3,184.2 199.3,258.6" fill="rgb(46,74,102)" stroke="#222240" stroke-width="0.2"/>
  <polygon points="199.3,258.6 200.5,184.7 200.5,259.1" fill="rgb(48,77,106)" stroke="#222240" stroke-width="0.2"/>
  <polygon points="200.5,259.1 201.6,185.3 201.6,259.6" fill="rgb(50,80,110)" stroke="#222240" stroke-width="0.2"/>
  <polygon points="199.5,140.3 198.4,65.4 198.4,139.7" fill="rgb(50,80,110)" stroke="#222240" stroke-width="0.2"/>
  <polygon points="200.7,140.8 199.5,65.9 199.5,140.3" fill="rgb(48,77,106)" stroke="#222240" stroke-width="0.2"/>
  <polygon points="201.8,141.3 200.7,66.4 200.7,140.8" fill="rgb(46,74,102)" stroke="#222240" stroke-width="0.2"/>
  <polygon points="203.1,141.8 201.8,67.0 201.8,141.3" fill="rgb(44,71,98)" stroke="#222240" stroke-width="0.2"/>
  <polygon points="204.3,142.2 203.1,67.4 203.1,141.8" fill="rgb(42,68,94)" stroke="#222240" stroke-width="0.2"/>
  <polygon points="205.6,142.6 204.3,67.9 204.3,142.2" fill="rgb(41,65,90)" stroke="#222240" stroke-width="0.2"/>
  <polygon points="206.9,143.0 205.6,68.3 205.6,142.6" fill="rgb(39,62,85)" stroke="#222240" stroke-width="0.2"/>
  <polygon points="208.3,143.3 206.9,68.6 206.9,143.0" fill="rgb(37,59,81)" stroke="#222240" stroke-width="0.2"/>
  <polygon points="209.7,143.6 208.3,68.9 208.3,143.3" fill="rgb(35,56,77)" stroke="#222240" stroke-width="0.2"/>
  <polygon points="211.1,143.9 209.7,69.2 209.7,143.6" fill="rgb(33,52,72)" stroke="#222240" stroke-width="0.2"/>
  <polygon points="212.5,144.1 211.1,69.5 211.1,143.9" fill="rgb(31,49,68)" stroke="#222240" stroke-width="0.2"/>
  <polygon points="213.9,144.2 212.5,69.7 212.5,144.1" fill="rgb(30,49,68)" stroke="#222240" stroke-width="0.2"/>
  <polygon points="215.4,144.4 213.9,69.9 213.9,144.2" fill="rgb(33,52,72)" stroke="#222240" stroke-width="0.2"/>
  <polygon points="216.9,144.5 215.4,70.0 215.4,144.4" fill="rgb(35,56,77)" stroke="#222240" stroke-width="0.2"/>
  <polygon points="218.3,144.5 216.9,70.1 216.9,144.5" fill="rgb(37,59,81)" stroke="#222240" stroke-width="0.2"/>
  <polygon points="219.8,144.5 218.3,70.1 218.3,144.5" fill="rgb(39,62,85)" stroke="#222240" stroke-width="0.2"/>
  <polygon points="221.3,144.5 219.8,70.1 219.8,144.5" fill="rgb(40,65,90)" stroke="#222240" stroke-width="0.2"/>
  <polygon points="222.8,144.4 221.3,70.1 221.3,144.5" fill="rgb(42,68,94)" stroke="#222240" stroke-width="0.2"/>
  <polygon points="224.2,144.3 222.8,70.0 222.8,144.4" fill="rgb(44,71,98)" stroke="#222240" stroke-width="0.2"/>
  <polygon points="225.7,144.1 224.2,69.9 224.2,144.3" fill="rgb(46,74,102)" stroke="#222240" stroke-width="0.2"/>
  <polygon points="227.1,144.0 225.7,69.8 225.7,144.1" fill="rgb(48,77,106)" stroke="#222240" stroke-width="0.2"/>
  <polygon points="228.5,143.7 227.1,69.6 227.1,144.0" fill="rgb(50,80,110)" stroke="#222240" stroke-width="0.2"/>
  <polygon points="229.9,143.4 228.5,69.3 228.5,143.7" fill="rgb(52,83,114)" stroke="#222240" stroke-width="0.2"/>
  <polygon points="231.3,143.1 229.9,69.1 229.9,143.4" fill="rgb(53,85,118)" stroke="#222240" stroke-width="0.2"/>
  <polygon points="232.6,142.8 231.3,68.8 231.3,143.1" fill="rgb(55,88,121)" stroke="#222240" stroke-width="0.2"/>
  <polygon points="233.9,142.4 232.6,68.4 232.6,142.8" fill="rgb(56,91,125)" stroke="#222240" stroke-width="0.2"/>
  <polygon points="235.2,142.0 233.9,68.0 233.9,142.4" fill="rgb(58,93,128)" stroke="#222240" stroke-width="0.2"/>
  <polygon points="236.4,141.5 235.2,67.6 235.2,142.0" fill="rgb(59,95,131)" stroke="#222240" stroke-width="0.2"/>
  <polygon points="237.6,141.0 236.4,67.1 236.4,141.5" fill="rgb(61,97,134)" stroke="#222240" stroke-width="0.2"/>
  <polygon points="238.8,140.5 237.6,66.7 237.6,141.0" fill="rgb(62,99,137)" stroke="#222240" stroke-width="0.2"/>
  <polygon points="239.9,140.0 238.8,66.1 238.8,140.5" fill="rgb(63,101,140)" stroke="#222240" stroke-width="0.2"/>
  <polygon points="240.9,139.4 239.9,65.6 239.9,140.0" fill="rgb(64,103,142)" stroke="#222240" stroke-width="0.2"/>
  <polygon points="95.4,223.9 94.4,150.2 94.4,224.5" fill="rgb(65,105,144)" stroke="#222240" stroke-width="0.2"/>
  <polygon points="96.4,223.3 95.4,149.6 95.4,223.9" fill="rgb(66,106,147)" stroke="#222240" stroke-width="0.2"/>
  <polygon points="97.3,222.6 96.4,148.9 96.4,223.3" fill="rgb(67,108,148)" stroke="#222240" stroke-width="0.2"/>
  <polygon points="98.1,221.9 97.3,148.3 97.3,222.6" fill="rgb(68,109,150)" stroke="#222240" stroke-width="0.2"/>
  <polygon points="98.9,221.2 98.1,147.6 98.1,221.9" fill="rgb(69,110,152)" stroke="#222240" stroke-width="0.2"/>
  <polygon points="99.6,220.5 98.9,146.9 98.9,221.2" fill="rgb(69,111,153)" stroke="#222240" stroke-width="0.2"/>
  <polygon points="100.2,219.8 99.6,146.1 99.6,220.5" fill="rgb(70,112,154)" stroke="#222240" stroke-width="0.2"/>
  <polygon points="100.8,219.0 100.2,145.4 100.2,219.8" fill="rgb(70,112,155)" stroke="#222240" stroke-width="0.2"/>
  <polygon points="101.3,218.2 100.8,144.6 100.8,219.0" fill="rgb(70,113,156)" stroke="#222240" stroke-width="0.2"/>
  <polygon points="101.7,217.4 101.3,143.8 101.3,218.2" fill="rgb(71,113,156)" stroke="#222240" stroke-width="0.2"/>
  <polygon points="102.1,216.6 101.7,143.0 101.7,217.4" fill="rgb(71,113,156)" stroke="#222240" stroke-width="0.2"/>
  <polygon points="102.4,215.8 102.1,142.2 102.1,216.6" fill="rgb(71,113,156)" stroke="#222240" stroke-width="0.2"/>
  <polygon points="102.7,215.0 102.4,141.4 102.4,215.8" fill="rgb(71,113,156)" stroke="#222240" stroke-width="0.2"/>
  <polygon points="102.8,214.1 102.7,140.6 102.7,215.0" fill="rgb(70,113,156)" stroke="#222240" stroke-width="0.2"/>
  <polygon points="102.9,213.3 102.8,139.8 102.8,214.1" fill="rgb(70,113,155)" stroke="#222240" stroke-width="0.2"/>
  <polygon points="102.9,212.5 102.9,138.9 102.9,213.3" fill="rgb(70,112,154)" stroke="#222240" stroke-width="0.2"/>
  <polygon points="102.9,211.7 102.9,138.1 102.9,212.5" fill="rgb(69,111,153)" stroke="#222240" stroke-width="0.2"/>
  <polygon points="102.7,210.8 102.9,137.3 102.9,211.7" fill="rgb(69,110,152)" stroke="#222240" stroke-width="0.2"/>
  <polygon points="102.5,210.0 102.7,136.4 102.7,210.8" fill="rgb(68,109,150)" stroke="#222240" stroke-width="0.2"/>
  <polygon points="102.3,209.2 102.5,135.6 102.5,210.0" fill="rgb(67,108,148)" stroke="#222240" stroke-width="0.2"/>
  <polygon points="101.9,208.4 102.3,134.8 102.3,209.2" fill="rgb(66,106,147)" stroke="#222240" stroke-width="0.2"/>
  <polygon points="101.5,207.6 101.9,134.0 101.9,208.4" fill="rgb(65,105,144)" stroke="#222240" stroke-width="0.2"/>
  <polygon points="101.0,206.8 101.5,133.2 101.5,207.6" fill="rgb(64,103,142)" stroke="#222240" stroke-width="0.2"/>
  <polygon points="100.5,206.0 101.0,132.4 101.0,206.8" fill="rgb(63,101,140)" stroke="#222240" stroke-width="0.2"/>
  <polygon points="99.8,205.3 100.5,131.6 100.5,206.0" fill="rgb(62,100,137)" stroke="#222240" stroke-width="0.2"/>
  <polygon points="99.2,204.5 99.8,130.9 99.8,205.3" fill="rgb(61,97,134)" stroke="#222240" stroke-width="0.2"/>
  <polygon points="98.4,203.8 99.2,130.1 99.2,204.5" fill="rgb(59,95,131)" stroke="#222240" stroke-width="0.2"/>
  <polygon points="97.6,203.1 98.4,129.4 98.4,203.8" fill="rgb(58,93,128)" stroke="#222240" stroke-width="0.2"/>
  <polygon points="96.7,202.4 97.6,128.7 97.6,203.1" fill="rgb(56,91,125)" stroke="#222240" stroke-width="0.2"/>
  <polygon points="95.8,201.8 96.7,128.1 96.7,202.4" fill="rgb(55,88,121)" stroke="#222240" stroke-width="0.2"/>
  <polygon points="94.8,201.2 95.8,127.4 95.8,201.8" fill="rgb(53,86,118)" stroke="#222240" stroke-width="0.2"/>
  <polygon points="93.8,200.6 94.8,126.8 94.8,201.2" fill="rgb(52,83,114)" stroke="#222240" stroke-width="0.2"/>
  <polygon points="305.6,174.8 305.6,100.5 159.1,185.6" fill="rgb(65,104,143)" stroke="#222240" stroke-width="0.2"/>
  <polygon points="198.4,139.7 198.4,65.4 306.2,124.4" fill="rgb(51,81,112)" stroke="#222240" stroke-width="0.2"/>
  <polygon points="94.4,224.5 94.4,150.2 240.9,65.0" fill="rgb(65,104,143)" stroke="#222240" stroke-width="0.2"/>
  <polygon points="201.6,259.6 201.6,185.3 93.8,126.2" fill="rgb(51,81,112)" stroke="#222240" stroke-width="0.2"/>
  <polygon points="305.6,100.5 304.6,175.4 304.6,101.1" fill="rgb(65,105,144)" stroke="#222240" stroke-width="0.2"/>
  <polygon points="304.6,101.1 303.6,176.1 303.6,101.7" fill="rgb(66,106,147)" stroke="#222240" stroke-width="0.2"/>
  <polygon points="303.6,101.7 302.7,176.7 302.7,102.4" fill="rgb(67,108,148)" stroke="#222240" stroke-width="0.2"/>
  <polygon points="302.7,102.4 301.9,177.4 301.9,103.1" fill="rgb(68,109,150)" stroke="#222240" stroke-width="0.2"/>
  <polygon points="301.9,103.1 301.1,178.1 301.1,103.8" fill="rgb(69,110,152)" stroke="#222240" stroke-width="0.2"/>
  <polygon points="301.1,103.8 300.4,178.9 300.4,104.5" fill="rgb(69,111,153)" stroke="#222240" stroke-width="0.2"/>
  <polygon points="300.4,104.5 299.8,179.6 299.8,105.2" fill="rgb(70,112,154)" stroke="#222240" stroke-width="0.2"/>
  <polygon points="299.8,105.2 299.2,180.4 299.2,106.0" fill="rgb(70,112,155)" stroke="#222240" stroke-width="0.2"/>
  <polygon points="299.2,106.0 298.7,181.2 298.7,106.8" fill="rgb(70,113,156)" stroke="#222240" stroke-width="0.2"/>
  <polygon points="298.7,106.8 298.3,182.0 298.3,107.6" fill="rgb(71,113,156)" stroke="#222240" stroke-width="0.2"/>
  <polygon points="298.3,107.6 297.9,182.8 297.9,108.4" fill="rgb(71,113,156)" stroke="#222240" stroke-width="0.2"/>
  <polygon points="297.9,108.4 297.6,183.6 297.6,109.2" fill="rgb(71,113,156)" stroke="#222240" stroke-width="0.2"/>
  <polygon points="297.6,109.2 297.3,184.4 297.3,110.0" fill="rgb(71,113,156)" stroke="#222240" stroke-width="0.2"/>
  <polygon points="297.3,110.0 297.2,185.2 297.2,110.9" fill="rgb(70,113,156)" stroke="#222240" stroke-width="0.2"/>
  <polygon points="297.2,110.9 297.1,186.1 297.1,111.7" fill="rgb(70,113,155)" stroke="#222240" stroke-width="0.2"/>
  <polygon points="297.1,111.7 297.1,186.9 297.1,112.5" fill="rgb(70,112,154)" stroke="#222240" stroke-width="0.2"/>
  <polygon points="297.1,112.5 297.1,187.7 297.1,113.3" fill="rgb(69,111,153)" stroke="#222240" stroke-width="0.2"/>
  <polygon points="297.1,113.3 297.3,188.6 297.3,114.2" fill="rgb(69,110,152)" stroke="#222240" stroke-width="0.2"/>
  <polygon points="297.3,114.2 297.5,189.4 297.5,115.0" fill="rgb(68,109,150)" stroke="#222240" stroke-width="0.2"/>
  <polygon points="297.5,115.0 297.7,190.2 297.7,115.8" fill="rgb(67,108,148)" stroke="#222240" stroke-width="0.2"/>
  <polygon points="297.7,115.8 298.1,191.0 298.1,116.6" fill="rgb(66,106,147)" stroke="#222240" stroke-width="0.2"/>
  <polygon points="298.1,116.6 298.5,191.8 298.5,117.4" fill="rgb(65,105,144)" stroke="#222240" stroke-width="0.2"/>
  <polygon points="298.5,117.4 299.0,192.6 299.0,118.2" fill="rgb(64,103,142)" stroke="#222240" stroke-width="0.2"/>
  <polygon points="299.0,118.2 299.5,193.4 299.5,119.0" fill="rgb(63,101,140)" stroke="#222240" stroke-width="0.2"/>
  <polygon points="299.5,119.0 300.2,194.1 300.2,119.7" fill="rgb(62,100,137)" stroke="#222240" stroke-width="0.2"/>
  <polygon points="300.2,119.7 300.8,194.9 300.8,120.5" fill="rgb(61,97,134)" stroke="#222240" stroke-width="0.2"/>
  <polygon points="300.8,120.5 301.6,195.6 301.6,121.2" fill="rgb(59,95,131)" stroke="#222240" stroke-width="0.2"/>
  <polygon points="301.6,121.2 302.4,196.3 302.4,121.9" fill="rgb(58,93,128)" stroke="#222240" stroke-width="0.2"/>
  <polygon points="302.4,121.9 303.3,196.9 303.3,122.6" fill="rgb(56,91,125)" stroke="#222240" stroke-width="0.2"/>
  <polygon points="303.3,122.6 304.2,197.6 304.2,123.2" fill="rgb(55,88,121)" stroke="#222240" stroke-width="0.2"/>
  <polygon points="304.2,123.2 305.2,198.2 305.2,123.8" fill="rgb(53,86,118)" stroke="#222240" stroke-width="0.2"/>
  <polygon points="305.2,123.8 306.2,198.8 306.2,124.4" fill="rgb(52,83,114)" stroke="#222240" stroke-width="0.2"/>
  <polygon points="160.1,185.0 159.1,260.0 159.1,185.6" fill="rgb(64,103,142)" stroke="#222240" stroke-width="0.2"/>
  <polygon points="161.2,184.5 160.1,259.4 160.1,185.0" fill="rgb(63,101,140)" stroke="#222240" stroke-width="0.2"/>
  <polygon points="162.4,184.0 161.2,258.9 161.2,184.5" fill="rgb(62,99,137)" stroke="#222240" stroke-width="0.2"/>
  <polygon points="163.6,183.5 162.4,258.3 162.4,184.0" fill="rgb(61,97,134)" stroke="#222240" stroke-width="0.2"/>
  <polygon points="164.8,183.0 163.6,257.9 163.6,183.5" fill="rgb(59,95,131)" stroke="#222240" stroke-width="0.2"/>
  <polygon points="166.1,182.6 164.8,257.4 164.8,183.0" fill="rgb(58,93,128)" stroke="#222240" stroke-width="0.2"/>
  <polygon points="167.4,182.2 166.1,257.0 166.1,182.6" fill="rgb(56,91,125)" stroke="#222240" stroke-width="0.2"/>
  <polygon points="168.7,181.9 167.4,256.6 167.4,182.2" fill="rgb(55,88,121)" stroke="#222240" stroke-width="0.2"/>
  <polygon points="170.1,181.6 168.7,256.2 168.7,181.9" fill="rgb(53,85,118)" stroke="#222240" stroke-width="0.2"/>
  <polygon points="171.5,181.3 170.1,255.9 170.1,181.6" fill="rgb(52,83,114)" stroke="#222240" stroke-width="0.2"/>
  <polygon points="172.9,181.0 171.5,255.7 171.5,181.3" fill="rgb(50,80,110)" stroke="#222240" stroke-width="0.2"/>
  <polygon points="174.3,180.9 172.9,255.4 172.9,181.0" fill="rgb(48,77,106)" stroke="#222240" stroke-width="0.2"/>
  <polygon points="175.8,180.7 174.3,255.2 174.3,180.9" fill="rgb(46,74,102)" stroke="#222240" stroke-width="0.2"/>
  <polygon points="177.2,180.6 175.8,255.1 175.8,180.7" fill="rgb(44,71,98)" stroke="#222240" stroke-width="0.2"/>
  <polygon points="178.7,180.5 177.2,255.0 177.2,180.6" fill="rgb(42,68,94)" stroke="#222240" stroke-width="0.2"/>
  <polygon points="180.2,180.5 178.7,254.9 178.7,180.5" fill="rgb(40,65,90)" stroke="#222240" stroke-width="0.2"/>
  <polygon points="181.7,180.5 180.2,254.9 180.2,180.5" fill="rgb(39,62,85)" stroke="#222240" stroke-width="0.2"/>
  <polygon points="183.1,180.5 181.7,254.9 181.7,180.5" fill="rgb(37,59,81)" stroke="#222240" stroke-width="0.2"/>
  <polygon points="184.6,180.6 183.1,254.9 183.1,180.5" fill="rgb(35,56,77)" stroke="#222240" stroke-width="0.2"/>
  <polygon points="186.1,180.8 184.6,255.0 184.6,180.6" fill="rgb(33,52,72)" stroke="#222240" stroke-width="0.2"/>
  <polygon points="187.5,180.9 186.1,255.1 186.1,180.8" fill="rgb(30,49,68)" stroke="#222240" stroke-width="0.2"/>
  <polygon points="188.9,181.1 187.5,255.3 187.5,180.9" fill="rgb(31,49,68)" stroke="#222240" stroke-width="0.2"/>
  <polygon points="190.3,181.4 188.9,255.5 188.9,181.1" fill="rgb(33,52,72)" stroke="#222240" stroke-width="0.2"/>
  <polygon points="191.7,181.7 190.3,255.8 190.3,181.4" fill="rgb(35,56,77)" stroke="#222240" stroke-width="0.2"/>
  <polygon points="193.1,182.0 191.7,256.1 191.7,181.7" fill="rgb(37,59,81)" stroke="#222240" stroke-width="0.2"/>
  <polygon points="194.4,182.4 193.1,256.4 193.1,182.0" fill="rgb(39,62,85)" stroke="#222240" stroke-width="0.2"/>
  <polygon points="195.7,182.8 194.4,256.7 194.4,182.4" fill="rgb(41,65,90)" stroke="#222240" stroke-width="0.2"/>
  <polygon points="196.9,183.2 195.7,257.1 195.7,182.8" fill="rgb(42,68,94)" stroke="#222240" stroke-width="0.2"/>
  <polygon points="198.2,183.7 196.9,257.6 196.9,183.2" fill="rgb(44,71,98)" stroke="#222240" stroke-width="0.2"/>
  <polygon points="199.3,184.2 198.2,258.0 198.2,183.7" fill="rgb(46,74,102)" stroke="#222240" stroke-width="0.2"/>
  <polygon points="200.5,184.7 199.3,258.6 199.3,184.2" fill="rgb(48,77,106)" stroke="#222240" stroke-width="0.2"/>
  <polygon points="201.6,185.3 200.5,259.1 200.5,184.7" fill="rgb(50,80,110)" stroke="#222240" stroke-width="0.2"/>
  <polygon points="198.4,65.4 199.5,140.3 199.5,65.9" fill="rgb(50,80,110)" stroke="#222240" stroke-width="0.2"/>
  <polygon points="199.5,65.9 200.7,140.8 200.7,66.4" fill="rgb(48,77,106)" stroke="#222240" stroke-width="0.2"/>
  <polygon points="200.7,66.4 201.8,141.3 201.8,67.0" fill="rgb(46,74,102)" stroke="#222240" stroke-width="0.2"/>
  <polygon points="201.8,67.0 203.1,141.8 203.1,67.4" fill="rgb(44,71,98)" stroke="#222240" stroke-width="0.2"/>
  <polygon points="203.1,67.4 204.3,142.2 204.3,67.9" fill="rgb(42,68,94)" stroke="#222240" stroke-width="0.2"/>
  <polygon points="204.3,67.9 205.6,142.6 205.6,68.3" fill="rgb(41,65,90)" stroke="#222240" stroke-width="0.2"/>
  <polygon points="205.6,68.3 206.9,143.0 206.9,68.6" fill="rgb(39,62,85)" stroke="#222240" stroke-width="0.2"/>
  <polygon points="206.9,68.6 208.3,143.3 208.3,68.9" fill="rgb(37,59,81)" stroke="#222240" stroke-width="0.2"/>
  <polygon points="208.3,68.9 209.7,143.6 209.7,69.2" fill="rgb(35,56,77)" stroke="#222240" stroke-width="0.2"/>
  <polygon points="209.7,69.2 211.1,143.9 211.1,69.5" fill="rgb(33,52,72)" stroke="#222240" stroke-width="0.2"/>
  <polygon points="211.1,69.5 212.5,144.1 212.5,69.7" fill="rgb(31,49,68)" stroke="#222240" stroke-width="0.2"/>
  <polygon points="212.5,69.7 213.9,144.2 213.9,69.9" fill="rgb(30,49,68)" stroke="#222240" stroke-width="0.2"/>
  <polygon points="213.9,69.9 215.4,144.4 215.4,70.0" fill="rgb(33,52,72)" stroke="#222240" stroke-width="0.2"/>
  <polygon points="215.4,70.0 216.9,144.5 216.9,70.1" fill="rgb(35,56,77)" stroke="#222240" stroke-width="0.2"/>
  <polygon points="216.9,70.1 218.3,144.5 218.3,70.1" fill="rgb(37,59,81)" stroke="#222240" stroke-width="0.2"/>
  <polygon points="218.3,70.1 219.8,144.5 219.8,70.1" fill="rgb(39,62,85)" stroke="#222240" stroke-width="0.2"/>
  <polygon points="219.8,70.1 221.3,144.5 221.3,70.1" fill="rgb(40,65,90)" stroke="#222240" stroke-width="0.2"/>
  <polygon points="221.3,70.1 222.8,144.4 222.8,70.0" fill="rgb(42,68,94)" stroke="#222240" stroke-width="0.2"/>
  <polygon points="222.8,70.0 224.2,144.3 224.2,69.9" fill="rgb(44,71,98)" stroke="#222240" stroke-width="0.2"/>
  <polygon points="224.2,69.9 225.7,144.1 225.7,69.8" fill="rgb(46,74,102)" stroke="#222240" stroke-width="0.2"/>
  <polygon points="225.7,69.8 227.1,144.0 227.1,69.6" fill="rgb(48,77,106)" stroke="#222240" stroke-width="0.2"/>
  <polygon points="227.1,69.6 228.5,143.7 228.5,69.3" fill="rgb(50,80,110)" stroke="#222240" stroke-width="0.2"/>
  <polygon points="228.5,69.3 229.9,143.4 229.9,69.1" fill="rgb(52,83,114)" stroke="#222240" stroke-width="0.2"/>
  <polygon points="229.9,69.1 231.3,143.1 231.3,68.8" fill="rgb(53,85,118)" stroke="#222240" stroke-width="0.2"/>
  <polygon points="231.3,68.8 232.6,142.8 232.6,68.4" fill="rgb(55,88,121)" stroke="#222240" stroke-width="0.2"/>
  <polygon points="232.6,68.4 233.9,142.4 233.9,68.0" fill="rgb(56,91,125)" stroke="#222240" stroke-width="0.2"/>
  <polygon points="233.9,68.0 235.2,142.0 235.2,67.6" fill="rgb(58,93,128)" stroke="#222240" stroke-width="0.2"/>
  <polygon points="235.2,67.6 236.4,141.5 236.4,67.1" fill="rgb(59,95,131)" stroke="#222240" stroke-width="0.2"/>
  <polygon points="236.4,67.1 237.6,141.0 237.6,66.7" fill="rgb(61,97,134)" stroke="#222240" stroke-width="0.2"/>
  <polygon points="237.6,66.7 238.8,140.5 238.8,66.1" fill="rgb(62,99,137)" stroke="#222240" stroke-width="0.2"/>
  <polygon points="238.8,66.1 239.9,140.0 239.9,65.6" fill="rgb(63,101,140)" stroke="#222240" stroke-width="0.2"/>
  <polygon points="239.9,65.6 240.9,139.4 240.9,65.0" fill="rgb(64,103,142)" stroke="#222240" stroke-width="0.2"/>
  <polygon points="94.4,150.2 95.4,223.9 95.4,149.6" fill="rgb(65,105,144)" stroke="#222240" stroke-width="0.2"/>
  <polygon points="95.4,149.6 96.4,223.3 96.4,148.9" fill="rgb(66,106,147)" stroke="#222240" stroke-width="0.2"/>
  <polygon points="96.4,148.9 97.3,222.6 97.3,148.3" fill="rgb(67,108,148)" stroke="#222240" stroke-width="0.2"/>
  <polygon points="97.3,148.3 98.1,221.9 98.1,147.6" fill="rgb(68,109,150)" stroke="#222240" stroke-width="0.2"/>
  <polygon points="98.1,147.6 98.9,221.2 98.9,146.9" fill="rgb(69,110,152)" stroke="#222240" stroke-width="0.2"/>
  <polygon points="98.9,146.9 99.6,220.5 99.6,146.1" fill="rgb(69,111,153)" stroke="#222240" stroke-width="0.2"/>
  <polygon points="99.6,146.1 100.2,219.8 100.2,145.4" fill="rgb(70,112,154)" stroke="#222240" stroke-width="0.2"/>
  <polygon points="100.2,145.4 100.8,219.0 100.8,144.6" fill="rgb(70,112,155)" stroke="#222240" stroke-width="0.2"/>
  <polygon points="100.8,144.6 101.3,218.2 101.3,143.8" fill="rgb(70,113,156)" stroke="#222240" stroke-width="0.2"/>
  <polygon points="101.3,143.8 101.7,217.4 101.7,143.0" fill="rgb(71,113,156)" stroke="#222240" stroke-width="0.2"/>
  <polygon points="101.7,143.0 102.1,216.6 102.1,142.2" fill="rgb(71,113,156)" stroke="#222240" stroke-width="0.2"/>
  <polygon points="102.1,142.2 102.4,215.8 102.4,141.4" fill="rgb(71,113,156)" stroke="#222240" stroke-width="0.2"/>
  <polygon points="102.4,141.4 102.7,215.0 102.7,140.6" fill="rgb(71,113,156)" stroke="#222240" stroke-width="0.2"/>
  <polygon points="102.7,140.6 102.8,214.1 102.8,139.8" fill="rgb(70,113,156)" stroke="#222240" stroke-width="0.2"/>
  <polygon points="102.8,139.8 102.9,213.3 102.9,138.9" fill="rgb(70,113,155)" stroke="#222240" stroke-width="0.2"/>
  <polygon points="102.9,138.9 102.9,212.5 102.9,138.1" fill="rgb(70,112,154)" stroke="#222240" stroke-width="0.2"/>
  <polygon points="102.9,138.1 102.9,211.7 102.9,137.3" fill="rgb(69,111,153)" stroke="#222240" stroke-width="0.2"/>
  <polygon points="102.9,137.3 102.7,210.8 102.7,136.4" fill="rgb(69,110,152)" stroke="#222240" stroke-width="0.2"/>
  <polygon points="102.7,136.4 102.5,210.0 102.5,135.6" fill="rgb(68,109,150)" stroke="#222240" stroke-width="0.2"/>
  <polygon points="102.5,135.6 102.3,209.2 102.3,134.8" fill="rgb(67,108,148)" stroke="#222240" stroke-width="0.2"/>
  <polygon points="102.3,134.8 101.9,208.4 101.9,134.0" fill="rgb(66,106,147)" stroke="#222240" stroke-width="0.2"/>
  <polygon points="101.9,134.0 101.5,207.6 101.5,133.2" fill="rgb(65,105,144)" stroke="#222240" stroke-width="0.2"/>
  <polygon points="101.5,133.2 101.0,206.8 101.0,132.4" fill="rgb(64,103,142)" stroke="#222240" stroke-width="0.2"/>
  <polygon points="101.0,132.4 100.5,206.0 100.5,131.6" fill="rgb(63,101,140)" stroke="#222240" stroke-width="0.2"/>
  <polygon points="100.5,131.6 99.8,205.3 99.8,130.9" fill="rgb(62,100,137)" stroke="#222240" stroke-width="0.2"/>
  <polygon points="99.8,130.9 99.2,204.5 99.2,130.1" fill="rgb(61,97,134)" stroke="#222240" stroke-width="0.2"/>
  <polygon points="99.2,130.1 98.4,203.8 98.4,129.4" fill="rgb(59,95,131)" stroke="#222240" stroke-width="0.2"/>
  <polygon points="98.4,129.4 97.6,203.1 97.6,128.7" fill="rgb(58,93,128)" stroke="#222240" stroke-width="0.2"/>
  <polygon points="97.6,128.7 96.7,202.4 96.7,128.1" fill="rgb(56,91,125)" stroke="#222240" stroke-width="0.2"/>
  <polygon points="96.7,128.1 95.8,201.8 95.8,127.4" fill="rgb(55,88,121)" stroke="#222240" stroke-width="0.2"/>
  <polygon points="95.8,127.4 94.8,201.2 94.8,126.8" fill="rgb(53,86,118)" stroke="#222240" stroke-width="0.2"/>
  <polygon points="94.8,126.8 93.8,200.6 93.8,126.2" fill="rgb(52,83,114)" stroke="#222240" stroke-width="0.2"/>
  <polygon points="93.8,126.2 159.1,185.6 201.6,185.3" fill="rgb(86,138,190)" stroke="#222240" stroke-width="0.2"/>
  <polygon points="93.8,126.2 201.6,185.3 305.6,100.5" fill="rgb(86,138,190)" stroke="#222240" stroke-width="0.2"/>
  <polygon points="305.6,100.5 306.2,124.4 198.4,65.4" fill="rgb(86,138,190)" stroke="#222240" stroke-width="0.2"/>
  <polygon points="305.6,100.5 198.4,65.4 240.9,65.0" fill="rgb(86,138,190)" stroke="#222240" stroke-width="0.2"/>
  <polygon points="305.6,100.5 240.9,65.0 94.4,150.2" fill="rgb(86,138,190)" stroke="#222240" stroke-width="0.2"/>
  <polygon points="305.6,100.5 94.4,150.2 93.8,126.2" fill="rgb(86,138,190)" stroke="#222240" stroke-width="0.2"/>
  <text x="200" y="292" font-family="monospace" font-size="10" fill="#5a6080" text-anchor="middle">276 triangles, 264 vertices</text>
</svg>
