<svg xmlns="http://www.w3.org/2000/svg" width="400" height="300" style="background:#1a1a2e">
<text x="200" y="20" font-family="monospace" font-size="13" fill="#8892b0" text-anchor="middle">Plate with Hole (96 seg)</text>
  <polygon points="231.6,112.9 229.4,174.2 231.6,175.3" fill="rgb(110,40,30)" stroke="#222240" stroke-width="0.2"/>
  <polygon points="229.4,111.8 227.1,173.2 229.4,174.2" fill="rgb(104,38,28)" stroke="#222240" stroke-width="0.2"/>
  <polygon points="227.1,110.7 224.7,172.2 227.1,173.2" fill="rgb(99,36,27)" stroke="#222240" stroke-width="0.2"/>
  <polygon points="224.7,109.8 222.1,171.3 224.7,172.2" fill="rgb(93,34,25)" stroke="#222240" stroke-width="0.2"/>
  <polygon points="222.1,108.9 219.5,170.6 222.1,171.3" fill="rgb(88,32,24)" stroke="#222240" stroke-width="0.2"/>
  <polygon points="219.5,108.1 216.8,169.9 219.5,170.6" fill="rgb(82,29,22)" stroke="#222240" stroke-width="0.2"/>
  <polygon points="216.8,107.5 214.0,169.3 216.8,169.9" fill="rgb(76,27,20)" stroke="#222240" stroke-width="0.2"/>
  <polygon points="214.0,106.9 211.1,168.9 214.0,169.3" fill="rgb(70,25,19)" stroke="#222240" stroke-width="0.2"/>
  <polygon points="211.1,106.4 208.2,168.5 211.1,168.9" fill="rgb(67,24,18)" stroke="#222240" stroke-width="0.2"/>
  <polygon points="208.2,106.1 205.3,168.3 208.2,168.5" fill="rgb(73,26,20)" stroke="#222240" stroke-width="0.2"/>
  <polygon points="205.3,105.8 202.3,168.1 205.3,168.3" fill="rgb(79,28,21)" stroke="#222240" stroke-width="0.2"/>
  <polygon points="202.3,105.7 199.3,168.1 202.3,168.1" fill="rgb(85,30,23)" stroke="#222240" stroke-width="0.2"/>
  <polygon points="199.3,105.7 196.4,168.2 199.3,168.1" fill="rgb(90,33,24)" stroke="#222240" stroke-width="0.2"/>
  <polygon points="196.4,105.7 193.4,168.4 196.4,168.2" fill="rgb(96,35,26)" stroke="#222240" stroke-width="0.2"/>
  <polygon points="193.4,105.9 190.5,168.7 193.4,168.4" fill="rgb(102,37,27)" stroke="#222240" stroke-width="0.2"/>
  <polygon points="190.5,106.2 187.6,169.1 190.5,168.7" fill="rgb(107,39,29)" stroke="#222240" stroke-width="0.2"/>
  <polygon points="187.6,106.6 184.8,169.6 187.6,169.1" fill="rgb(112,40,30)" stroke="#222240" stroke-width="0.2"/>
  <polygon points="184.8,107.1 182.0,170.2 184.8,169.6" fill="rgb(117,42,32)" stroke="#222240" stroke-width="0.2"/>
  <polygon points="182.0,107.8 179.3,170.9 182.0,170.2" fill="rgb(122,44,33)" stroke="#222240" stroke-width="0.2"/>
  <polygon points="179.3,108.5 176.7,171.7 179.3,170.9" fill="rgb(126,46,34)" stroke="#222240" stroke-width="0.2"/>
  <polygon points="176.7,109.3 174.2,172.6 176.7,171.7" fill="rgb(131,47,35)" stroke="#222240" stroke-width="0.2"/>
  <polygon points="174.2,110.2 171.9,173.6 174.2,172.6" fill="rgb(135,49,36)" stroke="#222240" stroke-width="0.2"/>
  <polygon points="171.9,111.2 169.6,174.7 171.9,173.6" fill="rgb(138,50,37)" stroke="#222240" stroke-width="0.2"/>
  <polygon points="169.6,112.3 167.4,175.9 169.6,174.7" fill="rgb(142,51,38)" stroke="#222240" stroke-width="0.2"/>
  <polygon points="167.4,113.4 165.4,177.1 167.4,175.9" fill="rgb(145,52,39)" stroke="#222240" stroke-width="0.2"/>
  <polygon points="165.4,114.7 163.6,178.4 165.4,177.1" fill="rgb(147,53,40)" stroke="#222240" stroke-width="0.2"/>
  <polygon points="163.6,116.0 161.9,179.8 163.6,178.4" fill="rgb(150,54,41)" stroke="#222240" stroke-width="0.2"/>
  <polygon points="161.9,117.4 160.4,181.2 161.9,179.8" fill="rgb(152,55,41)" stroke="#222240" stroke-width="0.2"/>
  <polygon points="160.4,118.8 159.0,182.7 160.4,181.2" fill="rgb(153,55,41)" stroke="#222240" stroke-width="0.2"/>
  <polygon points="159.0,120.3 157.8,184.3 159.0,182.7" fill="rgb(155,56,42)" stroke="#222240" stroke-width="0.2"/>
  <polygon points="157.8,121.8 156.8,185.8 157.8,184.3" fill="rgb(156,56,42)" stroke="#222240" stroke-width="0.2"/>
  <polygon points="156.8,123.4 156.0,187.4 156.8,185.8" fill="rgb(156,56,42)" stroke="#222240" stroke-width="0.2"/>
  <polygon points="156.0,125.0 155.4,189.1 156.0,187.4" fill="rgb(156,56,42)" stroke="#222240" stroke-width="0.2"/>
  <polygon points="155.4,126.7 154.9,190.7 155.4,189.1" fill="rgb(156,56,42)" stroke="#222240" stroke-width="0.2"/>
  <polygon points="154.9,128.3 154.7,192.4 154.9,190.7" fill="rgb(155,56,42)" stroke="#222240" stroke-width="0.2"/>
  <polygon points="154.7,130.0 154.6,194.1 154.7,192.4" fill="rgb(154,56,42)" stroke="#222240" stroke-width="0.2"/>
  <polygon points="154.6,131.7 154.8,195.8 154.6,194.1" fill="rgb(69,111,153)" stroke="#222240" stroke-width="0.2"/>
  <polygon points="154.8,133.3 155.1,197.4 154.8,195.8" fill="rgb(68,110,151)" stroke="#222240" stroke-width="0.2"/>
  <polygon points="155.1,135.0 155.6,199.1 155.1,197.4" fill="rgb(67,108,149)" stroke="#222240" stroke-width="0.2"/>
  <polygon points="155.6,136.7 156.3,200.7 155.6,199.1" fill="rgb(66,106,146)" stroke="#222240" stroke-width="0.2"/>
  <polygon points="156.3,138.3 157.2,202.3 156.3,200.7" fill="rgb(65,104,143)" stroke="#222240" stroke-width="0.2"/>
  <polygon points="157.2,139.9 158.3,203.9 157.2,202.3" fill="rgb(63,102,140)" stroke="#222240" stroke-width="0.2"/>
  <polygon points="158.3,141.4 159.6,205.4 158.3,203.9" fill="rgb(62,99,137)" stroke="#222240" stroke-width="0.2"/>
  <polygon points="159.6,143.0 161.0,206.8 159.6,205.4" fill="rgb(60,96,133)" stroke="#222240" stroke-width="0.2"/>
  <polygon points="161.0,144.4 162.6,208.3 161.0,206.8" fill="rgb(58,93,129)" stroke="#222240" stroke-width="0.2"/>
  <polygon points="162.6,145.8 164.4,209.6 162.6,208.3" fill="rgb(56,90,124)" stroke="#222240" stroke-width="0.2"/>
  <polygon points="164.4,147.2 166.3,210.9 164.4,209.6" fill="rgb(54,87,120)" stroke="#222240" stroke-width="0.2"/>
  <polygon points="166.3,148.5 168.4,212.1 166.3,210.9" fill="rgb(52,83,115)" stroke="#222240" stroke-width="0.2"/>
  <polygon points="168.4,149.7 170.6,213.2 168.4,212.1" fill="rgb(50,80,110)" stroke="#222240" stroke-width="0.2"/>
  <polygon points="170.6,150.8 172.9,214.3 170.6,213.2" fill="rgb(47,76,104)" stroke="#222240" stroke-width="0.2"/>
  <polygon points="172.9,151.8 175.3,215.2 172.9,214.3" fill="rgb(45,72,99)" stroke="#222240" stroke-width="0.2"/>
  <polygon points="175.3,152.8 177.9,216.1 175.3,215.2" fill="rgb(42,68,93)" stroke="#222240" stroke-width="0.2"/>
  <polygon points="177.9,153.7 180.5,216.9 177.9,216.1" fill="rgb(40,64,88)" stroke="#222240" stroke-width="0.2"/>
  <polygon points="180.5,154.4 183.2,217.5 180.5,216.9" fill="rgb(37,59,82)" stroke="#222240" stroke-width="0.2"/>
  <polygon points="183.2,155.1 186.0,218.1 183.2,217.5" fill="rgb(34,55,76)" stroke="#222240" stroke-width="0.2"/>
  <polygon points="186.0,155.7 188.9,218.6 186.0,218.1" fill="rgb(32,51,70)" stroke="#222240" stroke-width="0.2"/>
  <polygon points="188.9,156.1 191.8,218.9 188.9,218.6" fill="rgb(30,49,67)" stroke="#222240" stroke-width="0.2"/>
  <polygon points="191.8,156.5 194.7,219.2 191.8,218.9" fill="rgb(33,53,73)" stroke="#222240" stroke-width="0.2"/>
  <polygon points="194.7,156.7 197.7,219.3 194.7,219.2" fill="rgb(36,57,79)" stroke="#222240" stroke-width="0.2"/>
  <polygon points="197.7,156.9 200.7,219.3 197.7,219.3" fill="rgb(38,61,85)" stroke="#222240" stroke-width="0.2"/>
  <polygon points="200.7,156.9 203.6,219.3 200.7,219.3" fill="rgb(41,66,90)" stroke="#222240" stroke-width="0.2"/>
  <polygon points="203.6,156.8 206.6,219.1 203.6,219.3" fill="rgb(43,70,96)" stroke="#222240" stroke-width="0.2"/>
  <polygon points="206.6,156.6 209.5,218.8 206.6,219.1" fill="rgb(46,74,102)" stroke="#222240" stroke-width="0.2"/>
  <polygon points="209.5,156.3 212.4,218.4 209.5,218.8" fill="rgb(48,78,107)" stroke="#222240" stroke-width="0.2"/>
  <polygon points="212.4,155.9 215.2,217.9 212.4,218.4" fill="rgb(51,81,112)" stroke="#222240" stroke-width="0.2"/>
  <polygon points="215.2,155.4 218.0,217.2 215.2,217.9" fill="rgb(53,85,117)" stroke="#222240" stroke-width="0.2"/>
  <polygon points="218.0,154.8 220.7,216.5 218.0,217.2" fill="rgb(55,88,122)" stroke="#222240" stroke-width="0.2"/>
  <polygon points="220.7,154.1 223.3,215.7 220.7,216.5" fill="rgb(57,92,126)" stroke="#222240" stroke-width="0.2"/>
  <polygon points="223.3,153.3 225.8,214.8 223.3,215.7" fill="rgb(59,95,131)" stroke="#222240" stroke-width="0.2"/>
  <polygon points="225.8,152.4 228.1,213.8 225.8,214.8" fill="rgb(61,98,135)" stroke="#222240" stroke-width="0.2"/>
  <polygon points="228.1,151.4 230.4,212.7 228.1,213.8" fill="rgb(63,100,138)" stroke="#222240" stroke-width="0.2"/>
  <polygon points="230.4,150.3 232.6,211.6 230.4,212.7" fill="rgb(64,103,142)" stroke="#222240" stroke-width="0.2"/>
  <polygon points="232.6,149.1 234.6,210.3 232.6,211.6" fill="rgb(66,105,145)" stroke="#222240" stroke-width="0.2"/>
  <polygon points="234.6,147.9 236.4,209.0 234.6,210.3" fill="rgb(67,107,147)" stroke="#222240" stroke-width="0.2"/>
  <polygon points="236.4,146.6 238.1,207.6 236.4,209.0" fill="rgb(68,109,150)" stroke="#222240" stroke-width="0.2"/>
  <polygon points="238.1,145.2 239.6,206.2 238.1,207.6" fill="rgb(69,110,152)" stroke="#222240" stroke-width="0.2"/>
  <polygon points="239.6,143.8 241.0,204.7 239.6,206.2" fill="rgb(69,111,153)" stroke="#222240" stroke-width="0.2"/>
  <polygon points="241.0,142.3 242.2,203.2 241.0,204.7" fill="rgb(70,112,155)" stroke="#222240" stroke-width="0.2"/>
  <polygon points="242.2,140.7 243.2,201.6 242.2,203.2" fill="rgb(70,113,156)" stroke="#222240" stroke-width="0.2"/>
  <polygon points="243.2,139.2 244.0,200.0 243.2,201.6" fill="rgb(71,113,156)" stroke="#222240" stroke-width="0.2"/>
  <polygon points="244.0,137.6 244.6,198.3 244.0,200.0" fill="rgb(71,113,156)" stroke="#222240" stroke-width="0.2"/>
  <polygon points="244.6,135.9 245.1,196.7 244.6,198.3" fill="rgb(71,113,156)" stroke="#222240" stroke-width="0.2"/>
  <polygon points="245.1,134.3 245.3,195.0 245.1,196.7" fill="rgb(70,113,155)" stroke="#222240" stroke-width="0.2"/>
  <polygon points="245.3,132.6 245.4,193.3 245.3,195.0" fill="rgb(70,112,154)" stroke="#222240" stroke-width="0.2"/>
  <polygon points="245.4,130.9 245.2,191.7 245.4,193.3" fill="rgb(153,55,41)" stroke="#222240" stroke-width="0.2"/>
  <polygon points="245.2,129.2 244.9,190.0 245.2,191.7" fill="rgb(151,55,41)" stroke="#222240" stroke-width="0.2"/>
  <polygon points="244.9,127.6 244.4,188.3 244.9,190.0" fill="rgb(149,54,40)" stroke="#222240" stroke-width="0.2"/>
  <polygon points="244.4,125.9 243.7,186.7 244.4,188.3" fill="rgb(146,53,40)" stroke="#222240" stroke-width="0.2"/>
  <polygon points="243.7,124.3 242.8,185.1 243.7,186.7" fill="rgb(143,52,39)" stroke="#222240" stroke-width="0.2"/>
  <polygon points="242.8,122.7 241.7,183.6 242.8,185.1" fill="rgb(140,51,38)" stroke="#222240" stroke-width="0.2"/>
  <polygon points="241.7,121.1 240.4,182.0 241.7,183.6" fill="rgb(137,49,37)" stroke="#222240" stroke-width="0.2"/>
  <polygon points="240.4,119.6 239.0,180.6 240.4,182.0" fill="rgb(133,48,36)" stroke="#222240" stroke-width="0.2"/>
  <polygon points="239.0,118.2 237.4,179.2 239.0,180.6" fill="rgb(129,46,35)" stroke="#222240" stroke-width="0.2"/>
  <polygon points="237.4,116.7 235.6,177.8 237.4,179.2" fill="rgb(124,45,34)" stroke="#222240" stroke-width="0.2"/>
  <polygon points="235.6,115.4 233.7,176.5 235.6,177.8" fill="rgb(120,43,32)" stroke="#222240" stroke-width="0.2"/>
  <polygon points="169.9,222.5 61.4,200.5 169.9,260.0" fill="rgb(112,40,30)" stroke="#222240" stroke-width="0.2"/>
  <polygon points="230.1,102.5 338.6,124.5 338.6,162.0" fill="rgb(51,81,112)" stroke="#222240" stroke-width="0.2"/>
  <polygon points="338.6,162.0 169.9,222.5 169.9,260.0" fill="rgb(143,52,39)" stroke="#222240" stroke-width="0.2"/>
  <polygon points="61.4,163.0 230.1,102.5 61.4,200.5" fill="rgb(65,104,143)" stroke="#222240" stroke-width="0.2"/>
  <polygon points="233.7,164.1 231.6,112.9 231.6,162.8" fill="rgb(115,41,31)" stroke="#222240" stroke-width="0.2"/>
  <polygon points="61.4,200.5 169.9,222.5 61.4,163.0" fill="rgb(112,40,30)" stroke="#222240" stroke-width="0.2"/>
  <polygon points="338.6,124.5 230.1,102.5 230.1,65.0" fill="rgb(51,81,112)" stroke="#222240" stroke-width="0.2"/>
  <polygon points="169.9,222.5 338.6,162.0 338.6,124.5" fill="rgb(143,52,39)" stroke="#222240" stroke-width="0.2"/>
  <polygon points="230.1,102.5 61.4,163.0 230.1,65.0" fill="rgb(65,104,143)" stroke="#222240" stroke-width="0.2"/>
  <polygon points="229.4,174.2 231.6,112.9 229.4,111.8" fill="rgb(110,40,30)" stroke="#222240" stroke-width="0.2"/>
  <polygon points="227.1,173.2 229.4,111.8 227.1,110.7" fill="rgb(104,38,28)" stroke="#222240" stroke-width="0.2"/>
  <polygon points="224.7,172.2 227.1,110.7 224.7,109.8" fill="rgb(99,36,27)" stroke="#222240" stroke-width="0.2"/>
  <polygon points="222.1,171.3 224.7,109.8 222.1,108.9" fill="rgb(93,34,25)" stroke="#222240" stroke-width="0.2"/>
  <polygon points="219.5,170.6 222.1,108.9 219.5,108.1" fill="rgb(88,32,24)" stroke="#222240" stroke-width="0.2"/>
  <polygon points="216.8,169.9 219.5,108.1 216.8,107.5" fill="rgb(82,29,22)" stroke="#222240" stroke-width="0.2"/>
  <polygon points="214.0,169.3 216.8,107.5 214.0,106.9" fill="rgb(76,27,20)" stroke="#222240" stroke-width="0.2"/>
  <polygon points="211.1,168.9 214.0,106.9 211.1,106.4" fill="rgb(70,25,19)" stroke="#222240" stroke-width="0.2"/>
  <polygon points="208.2,168.5 211.1,106.4 208.2,106.1" fill="rgb(67,24,18)" stroke="#222240" stroke-width="0.2"/>
  <polygon points="205.3,168.3 208.2,106.1 205.3,105.8" fill="rgb(73,26,20)" stroke="#222240" stroke-width="0.2"/>
  <polygon points="202.3,168.1 205.3,105.8 202.3,105.7" fill="rgb(79,28,21)" stroke="#222240" stroke-width="0.2"/>
  <polygon points="199.3,168.1 202.3,105.7 199.3,105.7" fill="rgb(85,30,23)" stroke="#222240" stroke-width="0.2"/>
  <polygon points="196.4,168.2 199.3,105.7 196.4,105.7" fill="rgb(90,33,24)" stroke="#222240" stroke-width="0.2"/>
  <polygon points="193.4,168.4 196.4,105.7 193.4,105.9" fill="rgb(96,35,26)" stroke="#222240" stroke-width="0.2"/>
  <polygon points="190.5,168.7 193.4,105.9 190.5,106.2" fill="rgb(102,37,27)" stroke="#222240" stroke-width="0.2"/>
  <polygon points="187.6,169.1 190.5,106.2 187.6,106.6" fill="rgb(107,39,29)" stroke="#222240" stroke-width="0.2"/>
  <polygon points="184.8,169.6 187.6,106.6 184.8,107.1" fill="rgb(112,40,30)" stroke="#222240" stroke-width="0.2"/>
  <polygon points="182.0,170.2 184.8,107.1 182.0,107.8" fill="rgb(117,42,32)" stroke="#222240" stroke-width="0.2"/>
  <polygon points="179.3,170.9 182.0,107.8 179.3,108.5" fill="rgb(122,44,33)" stroke="#222240" stroke-width="0.2"/>
  <polygon points="176.7,171.7 179.3,108.5 176.7,109.3" fill="rgb(126,46,34)" stroke="#222240" stroke-width="0.2"/>
  <polygon points="174.2,172.6 176.7,109.3 174.2,110.2" fill="rgb(131,47,35)" stroke="#222240" stroke-width="0.2"/>
  <polygon points="171.9,173.6 174.2,110.2 171.9,111.2" fill="rgb(135,49,36)" stroke="#222240" stroke-width="0.2"/>
  <polygon points="169.6,174.7 171.9,111.2 169.6,112.3" fill="rgb(138,50,37)" stroke="#222240" stroke-width="0.2"/>
  <polygon points="167.4,175.9 169.6,112.3 167.4,113.4" fill="rgb(142,51,38)" stroke="#222240" stroke-width="0.2"/>
  <polygon points="165.4,177.1 167.4,113.4 165.4,114.7" fill="rgb(145,52,39)" stroke="#222240" stroke-width="0.2"/>
  <polygon points="163.6,178.4 165.4,114.7 163.6,116.0" fill="rgb(147,53,40)" stroke="#222240" stroke-width="0.2"/>
  <polygon points="161.9,179.8 163.6,116.0 161.9,117.4" fill="rgb(150,54,41)" stroke="#222240" stroke-width="0.2"/>
  <polygon points="160.4,181.2 161.9,117.4 160.4,118.8" fill="rgb(152,55,41)" stroke="#222240" stroke-width="0.2"/>
  <polygon points="159.0,182.7 160.4,118.8 159.0,120.3" fill="rgb(153,55,41)" stroke="#222240" stroke-width="0.2"/>
  <polygon points="157.8,184.3 159.0,120.3 157.8,121.8" fill="rgb(155,56,42)" stroke="#222240" stroke-width="0.2"/>
  <polygon points="156.8,185.8 157.8,121.8 156.8,123.4" fill="rgb(156,56,42)" stroke="#222240" stroke-width="0.2"/>
  <polygon points="156.0,187.4 156.8,123.4 156.0,125.0" fill="rgb(156,56,42)" stroke="#222240" stroke-width="0.2"/>
  <polygon points="155.4,189.1 156.0,125.0 155.4,126.7" fill="rgb(156,56,42)" stroke="#222240" stroke-width="0.2"/>
  <polygon points="154.9,190.7 155.4,126.7 154.9,128.3" fill="rgb(156,56,42)" stroke="#222240" stroke-width="0.2"/>
  <polygon points="154.7,192.4 154.9,128.3 154.7,130.0" fill="rgb(155,56,42)" stroke="#222240" stroke-width="0.2"/>
  <polygon points="154.6,194.1 154.7,130.0 154.6,131.7" fill="rgb(154,56,42)" stroke="#222240" stroke-width="0.2"/>
  <polygon points="154.8,195.8 154.6,131.7 154.8,133.3" fill="rgb(69,111,153)" stroke="#222240" stroke-width="0.2"/>
  <polygon points="155.1,197.4 154.8,133.3 155.1,135.0" fill="rgb(68,110,151)" stroke="#222240" stroke-width="0.2"/>
  <polygon points="155.6,199.1 155.1,135.0 155.6,136.7" fill="rgb(67,108,149)" stroke="#222240" stroke-width="0.2"/>
  <polygon points="156.3,200.7 155.6,136.7 156.3,138.3" fill="rgb(66,106,146)" stroke="#222240" stroke-width="0.2"/>
  <polygon points="157.2,202.3 156.3,138.3 157.2,139.9" fill="rgb(65,104,143)" stroke="#222240" stroke-width="0.2"/>
  <polygon points="158.3,203.9 157.2,139.9 158.3,141.4" fill="rgb(63,102,140)" stroke="#222240" stroke-width="0.2"/>
  <polygon points="159.6,205.4 158.3,141.4 159.6,143.0" fill="rgb(62,99,137)" stroke="#222240" stroke-width="0.2"/>
  <polygon points="161.0,206.8 159.6,143.0 161.0,144.4" fill="rgb(60,96,133)" stroke="#222240" stroke-width="0.2"/>
  <polygon points="162.6,208.3 161.0,144.4 162.6,145.8" fill="rgb(58,93,129)" stroke="#222240" stroke-width="0.2"/>
  <polygon points="164.4,209.6 162.6,145.8 164.4,147.2" fill="rgb(56,90,124)" stroke="#222240" stroke-width="0.2"/>
  <polygon points="166.3,210.9 164.4,147.2 166.3,148.5" fill="rgb(54,87,120)" stroke="#222240" stroke-width="0.2"/>
  <polygon points="168.4,212.1 166.3,148.5 168.4,149.7" fill="rgb(52,83,115)" stroke="#222240" stroke-width="0.2"/>
  <polygon points="170.6,213.2 168.4,149.7 170.6,150.8" fill="rgb(50,80,110)" stroke="#222240" stroke-width="0.2"/>
  <polygon points="172.9,214.3 170.6,150.8 172.9,151.8" fill="rgb(47,76,104)" stroke="#222240" stroke-width="0.2"/>
  <polygon points="175.3,215.2 172.9,151.8 175.3,152.8" fill="rgb(45,72,99)" stroke="#222240" stroke-width="0.2"/>
  <polygon points="177.9,216.1 175.3,152.8 177.9,153.7" fill="rgb(42,68,93)" stroke="#222240" stroke-width="0.2"/>
  <polygon points="180.5,216.9 177.9,153.7 180.5,154.4" fill="rgb(40,64,88)" stroke="#222240" stroke-width="0.2"/>
  <polygon points="183.2,217.5 180.5,154.4 183.2,155.1" fill="rgb(37,59,82)" stroke="#222240" stroke-width="0.2"/>
  <polygon points="186.0,218.1 183.2,155.1 186.0,155.7" fill="rgb(34,55,76)" stroke="#222240" stroke-width="0.2"/>
  <polygon points="188.9,218.6 186.0,155.7 188.9,156.1" fill="rgb(32,51,70)" stroke="#222240" stroke-width="0.2"/>
  <polygon points="191.8,218.9 188.9,156.1 191.8,156.5" fill="rgb(30,49,67)" stroke="#222240" stroke-width="0.2"/>
  <polygon points="194.7,219.2 191.8,156.5 194.7,156.7" fill="rgb(33,53,73)" stroke="#222240" stroke-width="0.2"/>
  <polygon points="197.7,219.3 194.7,156.7 197.7,156.9" fill="rgb(36,57,79)" stroke="#222240" stroke-width="0.2"/>
  <polygon points="200.7,219.3 197.7,156.9 200.7,156.9" fill="rgb(38,61,85)" stroke="#222240" stroke-width="0.2"/>
  <polygon points="203.6,219.3 200.7,156.9 203.6,156.8" fill="rgb(41,66,90)" stroke="#222240" stroke-width="0.2"/>
  <polygon points="206.6,219.1 203.6,156.8 206.6,156.6" fill="rgb(43,70,96)" stroke="#222240" stroke-width="0.2"/>
  <polygon points="209.5,218.8 206.6,156.6 209.5,156.3" fill="rgb(46,74,102)" stroke="#222240" stroke-width="0.2"/>
  <polygon points="212.4,218.4 209.5,156.3 212.4,155.9" fill="rgb(48,78,107)" stroke="#222240" stroke-width="0.2"/>
  <polygon points="215.2,217.9 212.4,155.9 215.2,155.4" fill="rgb(51,81,112)" stroke="#222240" stroke-width="0.2"/>
  <polygon points="218.0,217.2 215.2,155.4 218.0,154.8" fill="rgb(53,85,117)" stroke="#222240" stroke-width="0.2"/>
  <polygon points="220.7,216.5 218.0,154.8 220.7,154.1" fill="rgb(55,88,122)" stroke="#222240" stroke-width="0.2"/>
  <polygon points="223.3,215.7 220.7,154.1 223.3,153.3" fill="rgb(57,92,126)" stroke="#222240" stroke-width="0.2"/>
  <polygon points="225.8,214.8 223.3,153.3 225.8,152.4" fill="rgb(59,95,131)" stroke="#222240" stroke-width="0.2"/>
  <polygon points="228.1,213.8 225.8,152.4 228.1,151.4" fill="rgb(61,98,135)" stroke="#222240" stroke-width="0.2"/>
  <polygon points="230.4,212.7 228.1,151.4 230.4,150.3" fill="rgb(63,100,138)" stroke="#222240" stroke-width="0.2"/>
  <polygon points="232.6,211.6 230.4,150.3 232.6,149.1" fill="rgb(64,103,142)" stroke="#222240" stroke-width="0.2"/>
  <polygon points="234.6,210.3 232.6,149.1 234.6,147.9" fill="rgb(66,105,145)" stroke="#222240" stroke-width="0.2"/>
  <polygon points="236.4,209.0 234.6,147.9 236.4,146.6" fill="rgb(67,107,147)" stroke="#222240" stroke-width="0.2"/>
  <polygon points="238.1,207.6 236.4,146.6 238.1,145.2" fill="rgb(68,109,150)" stroke="#222240" stroke-width="0.2"/>
  <polygon points="239.6,206.2 238.1,145.2 239.6,143.8" fill="rgb(69,110,152)" stroke="#222240" stroke-width="0.2"/>
  <polygon points="241.0,204.7 239.6,143.8 241.0,142.3" fill="rgb(69,111,153)" stroke="#222240" stroke-width="0.2"/>
  <polygon points="242.2,203.2 241.0,142.3 242.2,140.7" fill="rgb(70,112,155)" stroke="#222240" stroke-width="0.2"/>
  <polygon points="243.2,201.6 242.2,140.7 243.2,139.2" fill="rgb(70,113,156)" stroke="#222240" stroke-width="0.2"/>
  <polygon points="244.0,200.0 243.2,139.2 244.0,137.6" fill="rgb(71,113,156)" stroke="#222240" stroke-width="0.2"/>
  <polygon points="244.6,198.3 244.0,137.6 244.6,135.9" fill="rgb(71,113,156)" stroke="#222240" stroke-width="0.2"/>
  <polygon points="245.1,196.7 244.6,135.9 245.1,134.3" fill="rgb(71,113,156)" stroke="#222240" stroke-width="0.2"/>
  <polygon points="245.3,195.0 245.1,134.3 245.3,132.6" fill="rgb(70,113,155)" stroke="#222240" stroke-width="0.2"/>
  <polygon points="245.4,193.3 245.3,132.6 245.4,130.9" fill="rgb(70,112,154)" stroke="#222240" stroke-width="0.2"/>
  <polygon points="245.2,191.7 245.4,130.9 245.2,129.2" fill="rgb(153,55,41)" stroke="#222240" stroke-width="0.2"/>
  <polygon points="244.9,190.0 245.2,129.2 244.9,127.6" fill="rgb(151,55,41)" stroke="#222240" stroke-width="0.2"/>
  <polygon points="244.4,188.3 244.9,127.6 244.4,125.9" fill="rgb(149,54,40)" stroke="#222240" stroke-width="0.2"/>
  <polygon points="243.7,186.7 244.4,125.9 243.7,124.3" fill="rgb(146,53,40)" stroke="#222240" stroke-width="0.2"/>
  <polygon points="242.8,185.1 243.7,124.3 242.8,122.7" fill="rgb(143,52,39)" stroke="#222240" stroke-width="0.2"/>
  <polygon points="241.7,183.6 242.8,122.7 241.7,121.1" fill="rgb(140,51,38)" stroke="#222240" stroke-width="0.2"/>
  <polygon points="240.4,182.0 241.7,121.1 240.4,119.6" fill="rgb(137,49,37)" stroke="#222240" stroke-width="0.2"/>
  <polygon points="239.0,180.6 240.4,119.6 239.0,118.2" fill="rgb(133,48,36)" stroke="#222240" stroke-width="0.2"/>
  <polygon points="237.4,179.2 239.0,118.2 237.4,116.7" fill="rgb(129,46,35)" stroke="#222240" stroke-width="0.2"/>
  <polygon points="235.6,177.8 237.4,116.7 235.6,115.4" fill="rgb(124,45,34)" stroke="#222240" stroke-width="0.2"/>
  <polygon points="233.7,176.5 235.6,115.4 233.7,114.1" fill="rgb(120,43,32)" stroke="#222240" stroke-width="0.2"/>
  <polygon points="231.6,112.9 233.7,164.1 233.7,114.1" fill="rgb(115,41,31)" stroke="#222240" stroke-width="0.2"/>
  <polygon points="287.6,154.1 230.1,65.0 175.6,96.6" fill="rgb(190,69,51)" stroke="#222240" stroke-width="0.2"/>
  <polygon points="230.1,65.0 287.6,154.1 338.6,124.5" fill="rgb(190,69,51)" stroke="#222240" stroke-width="0.2"/>
  <text x="200" y="292" font-family="monospace" font-size="10" fill="#5a6080" text-anchor="middle">202 triangles, 204 vertices</text>
</svg>
