<svg xmlns="http://www.w3.org/2000/svg" width="400" height="350" style="background:#1a1a2e">
<text x="200" y="20" font-family="monospace" font-size="13" fill="#8892b0" text-anchor="middle">Stepped Shaft (24-gon, boolean union)</text>
  <polygon points="248.2,151.7 248.2,243.0 233.7,236.9" fill="rgb(46,74,102)" stroke="#2a2a4a" stroke-width="0.5"/>
  <polygon points="233.7,145.6 233.7,236.9 216.9,233.1" fill="rgb(36,57,79)" stroke="#2a2a4a" stroke-width="0.5"/>
  <polygon points="216.9,141.9 216.9,233.1 199.0,231.9" fill="rgb(34,55,76)" stroke="#2a2a4a" stroke-width="0.5"/>
  <polygon points="199.0,140.7 199.0,231.9 181.1,233.4" fill="rgb(45,72,99)" stroke="#2a2a4a" stroke-width="0.5"/>
  <polygon points="181.1,142.1 181.1,233.4 164.6,237.5" fill="rgb(54,87,120)" stroke="#2a2a4a" stroke-width="0.5"/>
  <polygon points="164.6,146.2 164.6,237.5 150.4,243.8" fill="rgb(62,99,137)" stroke="#2a2a4a" stroke-width="0.5"/>
  <polygon points="150.4,152.5 150.4,243.8 139.6,252.0" fill="rgb(67,108,149)" stroke="#2a2a4a" stroke-width="0.5"/>
  <polygon points="139.6,160.7 139.6,252.0 133.0,261.4" fill="rgb(70,113,155)" stroke="#2a2a4a" stroke-width="0.5"/>
  <polygon points="133.0,170.1 133.0,261.4 130.9,271.5" fill="rgb(70,113,156)" stroke="#2a2a4a" stroke-width="0.5"/>
  <polygon points="130.9,180.3 130.9,271.5 133.5,281.6" fill="rgb(150,54,41)" stroke="#2a2a4a" stroke-width="0.5"/>
  <polygon points="133.5,190.3 133.5,281.6 140.6,291.0" fill="rgb(138,50,37)" stroke="#2a2a4a" stroke-width="0.5"/>
  <polygon points="140.6,199.7 140.6,291.0 151.8,299.0" fill="rgb(122,44,33)" stroke="#2a2a4a" stroke-width="0.5"/>
  <polygon points="151.8,207.7 151.8,299.0 166.3,305.1" fill="rgb(102,37,27)" stroke="#2a2a4a" stroke-width="0.5"/>
  <polygon points="166.3,213.8 166.3,305.1 183.1,308.8" fill="rgb(79,28,21)" stroke="#2a2a4a" stroke-width="0.5"/>
  <polygon points="183.1,217.5 183.1,308.8 201.0,310.0" fill="rgb(76,27,20)" stroke="#2a2a4a" stroke-width="0.5"/>
  <polygon points="201.0,218.7 201.0,310.0 218.9,308.5" fill="rgb(99,36,27)" stroke="#2a2a4a" stroke-width="0.5"/>
  <polygon points="218.9,217.2 218.9,308.5 235.4,304.5" fill="rgb(120,43,32)" stroke="#2a2a4a" stroke-width="0.5"/>
  <polygon points="235.4,213.2 235.4,304.5 249.6,298.2" fill="rgb(137,49,37)" stroke="#2a2a4a" stroke-width="0.5"/>
  <polygon points="249.6,206.9 249.6,298.2 260.4,290.0" fill="rgb(149,54,40)" stroke="#2a2a4a" stroke-width="0.5"/>
  <polygon points="260.4,198.7 260.4,290.0 267.0,280.5" fill="rgb(155,56,42)" stroke="#2a2a4a" stroke-width="0.5"/>
  <polygon points="267.0,189.2 267.0,280.5 269.1,270.4" fill="rgb(156,56,42)" stroke="#2a2a4a" stroke-width="0.5"/>
  <polygon points="269.1,179.1 269.1,270.4 266.5,260.3" fill="rgb(68,109,150)" stroke="#2a2a4a" stroke-width="0.5"/>
  <polygon points="266.5,169.0 266.5,260.3 259.4,251.0" fill="rgb(63,101,138)" stroke="#2a2a4a" stroke-width="0.5"/>
  <polygon points="259.4,159.7 259.4,251.0 248.2,243.0" fill="rgb(55,89,122)" stroke="#2a2a4a" stroke-width="0.5"/>
  <polygon points="228.9,71.6 228.9,254.2 220.2,250.5" fill="rgb(46,74,102)" stroke="#2a2a4a" stroke-width="0.5"/>
  <polygon points="220.2,68.0 220.2,250.5 210.1,248.3" fill="rgb(36,57,79)" stroke="#2a2a4a" stroke-width="0.5"/>
  <polygon points="210.1,65.7 210.1,248.3 199.4,247.6" fill="rgb(34,55,76)" stroke="#2a2a4a" stroke-width="0.5"/>
  <polygon points="199.4,65.0 199.4,247.6 188.7,248.4" fill="rgb(45,72,99)" stroke="#2a2a4a" stroke-width="0.5"/>
  <polygon points="188.7,65.9 188.7,248.4 178.7,250.9" fill="rgb(54,87,120)" stroke="#2a2a4a" stroke-width="0.5"/>
  <polygon points="178.7,68.3 178.7,250.9 170.2,254.7" fill="rgb(62,99,137)" stroke="#2a2a4a" stroke-width="0.5"/>
  <polygon points="170.2,72.1 170.2,254.7 163.8,259.6" fill="rgb(67,108,149)" stroke="#2a2a4a" stroke-width="0.5"/>
  <polygon points="163.8,77.0 163.8,259.6 159.8,265.2" fill="rgb(70,113,155)" stroke="#2a2a4a" stroke-width="0.5"/>
  <polygon points="159.8,82.7 159.8,265.2 158.5,271.3" fill="rgb(70,113,156)" stroke="#2a2a4a" stroke-width="0.5"/>
  <polygon points="158.5,88.8 158.5,271.3 160.1,277.4" fill="rgb(150,54,41)" stroke="#2a2a4a" stroke-width="0.5"/>
  <polygon points="160.1,94.8 160.1,277.4 164.4,283.0" fill="rgb(138,50,37)" stroke="#2a2a4a" stroke-width="0.5"/>
  <polygon points="164.4,100.4 164.4,283.0 171.1,287.8" fill="rgb(122,44,33)" stroke="#2a2a4a" stroke-width="0.5"/>
  <polygon points="171.1,105.2 171.1,287.8 179.8,291.4" fill="rgb(102,37,27)" stroke="#2a2a4a" stroke-width="0.5"/>
  <polygon points="179.8,108.9 179.8,291.4 189.9,293.7" fill="rgb(79,28,21)" stroke="#2a2a4a" stroke-width="0.5"/>
  <polygon points="189.9,111.1 189.9,293.7 200.6,294.4" fill="rgb(76,27,20)" stroke="#2a2a4a" stroke-width="0.5"/>
  <polygon points="200.6,111.8 200.6,294.4 211.3,293.5" fill="rgb(99,36,27)" stroke="#2a2a4a" stroke-width="0.5"/>
  <polygon points="211.3,110.9 211.3,293.5 221.3,291.1" fill="rgb(120,43,32)" stroke="#2a2a4a" stroke-width="0.5"/>
  <polygon points="221.3,108.5 221.3,291.1 229.8,287.3" fill="rgb(137,49,37)" stroke="#2a2a4a" stroke-width="0.5"/>
  <polygon points="229.8,104.7 229.8,287.3 236.2,282.4" fill="rgb(149,54,40)" stroke="#2a2a4a" stroke-width="0.5"/>
  <polygon points="236.2,99.8 236.2,282.4 240.2,276.7" fill="rgb(155,56,42)" stroke="#2a2a4a" stroke-width="0.5"/>
  <polygon points="240.2,94.1 240.2,276.7 241.5,270.6" fill="rgb(156,56,42)" stroke="#2a2a4a" stroke-width="0.5"/>
  <polygon points="241.5,88.1 241.5,270.6 239.9,264.6" fill="rgb(68,109,150)" stroke="#2a2a4a" stroke-width="0.5"/>
  <polygon points="239.9,82.0 239.9,264.6 235.6,259.0" fill="rgb(63,101,138)" stroke="#2a2a4a" stroke-width="0.5"/>
  <polygon points="235.6,259.0 228.9,254.2 228.9,71.6" fill="rgb(55,89,122)" stroke="#2a2a4a" stroke-width="0.5"/>
  <polygon points="233.7,236.9 233.7,145.6 248.2,151.7" fill="rgb(46,74,102)" stroke="#2a2a4a" stroke-width="0.5"/>
  <polygon points="216.9,233.1 216.9,141.9 233.7,145.6" fill="rgb(36,57,79)" stroke="#2a2a4a" stroke-width="0.5"/>
  <polygon points="199.0,231.9 199.0,140.7 216.9,141.9" fill="rgb(34,55,76)" stroke="#2a2a4a" stroke-width="0.5"/>
  <polygon points="181.1,233.4 181.1,142.1 199.0,140.7" fill="rgb(45,72,99)" stroke="#2a2a4a" stroke-width="0.5"/>
  <polygon points="164.6,237.5 164.6,146.2 181.1,142.1" fill="rgb(54,87,120)" stroke="#2a2a4a" stroke-width="0.5"/>
  <polygon points="150.4,243.8 150.4,152.5 164.6,146.2" fill="rgb(62,99,137)" stroke="#2a2a4a" stroke-width="0.5"/>
  <polygon points="139.6,252.0 139.6,160.7 150.4,152.5" fill="rgb(67,108,149)" stroke="#2a2a4a" stroke-width="0.5"/>
  <polygon points="133.0,261.4 133.0,170.1 139.6,160.7" fill="rgb(70,113,155)" stroke="#2a2a4a" stroke-width="0.5"/>
  <polygon points="130.9,271.5 130.9,180.3 133.0,170.1" fill="rgb(70,113,156)" stroke="#2a2a4a" stroke-width="0.5"/>
  <polygon points="133.5,281.6 133.5,190.3 130.9,180.3" fill="rgb(150,54,41)" stroke="#2a2a4a" stroke-width="0.5"/>
  <polygon points="140.6,291.0 140.6,199.7 133.5,190.3" fill="rgb(138,50,37)" stroke="#2a2a4a" stroke-width="0.5"/>
  <polygon points="151.8,299.0 151.8,207.7 140.6,199.7" fill="rgb(122,44,33)" stroke="#2a2a4a" stroke-width="0.5"/>
  <polygon points="166.3,305.1 166.3,213.8 151.8,207.7" fill="rgb(102,37,27)" stroke="#2a2a4a" stroke-width="0.5"/>
  <polygon points="183.1,308.8 183.1,217.5 166.3,213.8" fill="rgb(79,28,21)" stroke="#2a2a4a" stroke-width="0.5"/>
  <polygon points="201.0,310.0 201.0,218.7 183.1,217.5" fill="rgb(76,27,20)" stroke="#2a2a4a" stroke-width="0.5"/>
  <polygon points="218.9,308.5 218.9,217.2 201.0,218.7" fill="rgb(99,36,27)" stroke="#2a2a4a" stroke-width="0.5"/>
  <polygon points="235.4,304.5 235.4,213.2 218.9,217.2" fill="rgb(120,43,32)" stroke="#2a2a4a" stroke-width="0.5"/>
  <polygon points="249.6,298.2 249.6,206.9 235.4,213.2" fill="rgb(137,49,37)" stroke="#2a2a4a" stroke-width="0.5"/>
  <polygon points="260.4,290.0 260.4,198.7 249.6,206.9" fill="rgb(149,54,40)" stroke="#2a2a4a" stroke-width="0.5"/>
  <polygon points="267.0,280.5 267.0,189.2 260.4,198.7" fill="rgb(155,56,42)" stroke="#2a2a4a" stroke-width="0.5"/>
  <polygon points="269.1,270.4 269.1,179.1 267.0,189.2" fill="rgb(156,56,42)" stroke="#2a2a4a" stroke-width="0.5"/>
  <polygon points="266.5,260.3 266.5,169.0 269.1,179.1" fill="rgb(68,109,150)" stroke="#2a2a4a" stroke-width="0.5"/>
  <polygon points="259.4,251.0 259.4,159.7 266.5,169.0" fill="rgb(63,101,138)" stroke="#2a2a4a" stroke-width="0.5"/>
  <polygon points="248.2,243.0 248.2,151.7 259.4,159.7" fill="rgb(55,89,122)" stroke="#2a2a4a" stroke-width="0.5"/>
  <polygon points="180.1,142.4 269.0,179.7 269.1,179.1" fill="rgb(190,69,51)" stroke="#2a2a4a" stroke-width="0.5"/>
  <polygon points="180.1,142.4 269.1,179.1 266.5,169.0" fill="rgb(190,69,51)" stroke="#2a2a4a" stroke-width="0.5"/>
  <polygon points="180.1,142.4 266.5,169.0 259.4,159.7" fill="rgb(190,69,51)" stroke="#2a2a4a" stroke-width="0.5"/>
  <polygon points="180.1,142.4 259.4,159.7 248.2,151.7" fill="rgb(190,69,51)" stroke="#2a2a4a" stroke-width="0.5"/>
  <polygon points="180.1,142.4 248.2,151.7 233.7,145.6" fill="rgb(190,69,51)" stroke="#2a2a4a" stroke-width="0.5"/>
  <polygon points="180.1,142.4 233.7,145.6 216.9,141.9" fill="rgb(190,69,51)" stroke="#2a2a4a" stroke-width="0.5"/>
  <polygon points="180.1,142.4 216.9,141.9 199.0,140.7" fill="rgb(190,69,51)" stroke="#2a2a4a" stroke-width="0.5"/>
  <polygon points="199.0,140.7 181.1,142.1 180.1,142.4" fill="rgb(190,69,51)" stroke="#2a2a4a" stroke-width="0.5"/>
  <polygon points="220.2,250.5 220.2,68.0 228.9,71.6" fill="rgb(46,74,102)" stroke="#2a2a4a" stroke-width="0.5"/>
  <polygon points="210.1,248.3 210.1,65.7 220.2,68.0" fill="rgb(36,57,79)" stroke="#2a2a4a" stroke-width="0.5"/>
  <polygon points="199.4,247.6 199.4,65.0 210.1,65.7" fill="rgb(34,55,76)" stroke="#2a2a4a" stroke-width="0.5"/>
  <polygon points="188.7,248.4 188.7,65.9 199.4,65.0" fill="rgb(45,72,99)" stroke="#2a2a4a" stroke-width="0.5"/>
  <polygon points="178.7,250.9 178.7,68.3 188.7,65.9" fill="rgb(54,87,120)" stroke="#2a2a4a" stroke-width="0.5"/>
  <polygon points="170.2,254.7 170.2,72.1 178.7,68.3" fill="rgb(62,99,137)" stroke="#2a2a4a" stroke-width="0.5"/>
  <polygon points="163.8,259.6 163.8,77.0 170.2,72.1" fill="rgb(67,108,149)" stroke="#2a2a4a" stroke-width="0.5"/>
  <polygon points="159.8,265.2 159.8,82.7 163.8,77.0" fill="rgb(70,113,155)" stroke="#2a2a4a" stroke-width="0.5"/>
  <polygon points="158.5,271.3 158.5,88.8 159.8,82.7" fill="rgb(70,113,156)" stroke="#2a2a4a" stroke-width="0.5"/>
  <polygon points="160.1,277.4 160.1,94.8 158.5,88.8" fill="rgb(150,54,41)" stroke="#2a2a4a" stroke-width="0.5"/>
  <polygon points="164.4,283.0 164.4,100.4 160.1,94.8" fill="rgb(138,50,37)" stroke="#2a2a4a" stroke-width="0.5"/>
  <polygon points="171.1,287.8 171.1,105.2 164.4,100.4" fill="rgb(122,44,33)" stroke="#2a2a4a" stroke-width="0.5"/>
  <polygon points="179.8,291.4 179.8,108.9 171.1,105.2" fill="rgb(102,37,27)" stroke="#2a2a4a" stroke-width="0.5"/>
  <polygon points="189.9,293.7 189.9,111.1 179.8,108.9" fill="rgb(79,28,21)" stroke="#2a2a4a" stroke-width="0.5"/>
  <polygon points="200.6,294.4 200.6,111.8 189.9,111.1" fill="rgb(76,27,20)" stroke="#2a2a4a" stroke-width="0.5"/>
  <polygon points="211.3,293.5 211.3,110.9 200.6,111.8" fill="rgb(99,36,27)" stroke="#2a2a4a" stroke-width="0.5"/>
  <polygon points="221.3,291.1 221.3,108.5 211.3,110.9" fill="rgb(120,43,32)" stroke="#2a2a4a" stroke-width="0.5"/>
  <polygon points="229.8,287.3 229.8,104.7 221.3,108.5" fill="rgb(137,49,37)" stroke="#2a2a4a" stroke-width="0.5"/>
  <polygon points="236.2,282.4 236.2,99.8 229.8,104.7" fill="rgb(149,54,40)" stroke="#2a2a4a" stroke-width="0.5"/>
  <polygon points="240.2,276.7 240.2,94.1 236.2,99.8" fill="rgb(155,56,42)" stroke="#2a2a4a" stroke-width="0.5"/>
  <polygon points="241.5,270.6 241.5,88.1 240.2,94.1" fill="rgb(156,56,42)" stroke="#2a2a4a" stroke-width="0.5"/>
  <polygon points="239.9,264.6 239.9,82.0 241.5,88.1" fill="rgb(68,109,150)" stroke="#2a2a4a" stroke-width="0.5"/>
  <polygon points="235.6,259.0 235.6,76.4 239.9,82.0" fill="rgb(63,101,138)" stroke="#2a2a4a" stroke-width="0.5"/>
  <polygon points="228.9,71.6 235.6,76.4 235.6,259.0" fill="rgb(55,89,122)" stroke="#2a2a4a" stroke-width="0.5"/>
  <polygon points="235.6,76.4 228.9,71.6 220.2,68.0" fill="rgb(190,69,51)" stroke="#2a2a4a" stroke-width="0.5"/>
  <polygon points="235.6,76.4 220.2,68.0 210.1,65.7" fill="rgb(190,69,51)" stroke="#2a2a4a" stroke-width="0.5"/>
  <polygon points="235.6,76.4 210.1,65.7 199.4,65.0" fill="rgb(190,69,51)" stroke="#2a2a4a" stroke-width="0.5"/>
  <polygon points="235.6,76.4 199.4,65.0 188.7,65.9" fill="rgb(190,69,51)" stroke="#2a2a4a" stroke-width="0.5"/>
  <polygon points="235.6,76.4 188.7,65.9 178.7,68.3" fill="rgb(190,69,51)" stroke="#2a2a4a" stroke-width="0.5"/>
  <polygon points="235.6,76.4 178.7,68.3 170.2,72.1" fill="rgb(190,69,51)" stroke="#2a2a4a" stroke-width="0.5"/>
  <polygon points="235.6,76.4 170.2,72.1 163.8,77.0" fill="rgb(190,69,51)" stroke="#2a2a4a" stroke-width="0.5"/>
  <polygon points="235.6,76.4 163.8,77.0 159.8,82.7" fill="rgb(190,69,51)" stroke="#2a2a4a" stroke-width="0.5"/>
  <polygon points="235.6,76.4 159.8,82.7 158.5,88.8" fill="rgb(190,69,51)" stroke="#2a2a4a" stroke-width="0.5"/>
  <polygon points="235.6,76.4 158.5,88.8 160.1,94.8" fill="rgb(190,69,51)" stroke="#2a2a4a" stroke-width="0.5"/>
  <polygon points="235.6,76.4 160.1,94.8 164.4,100.4" fill="rgb(190,69,51)" stroke="#2a2a4a" stroke-width="0.5"/>
  <polygon points="235.6,76.4 164.4,100.4 171.1,105.2" fill="rgb(190,69,51)" stroke="#2a2a4a" stroke-width="0.5"/>
  <polygon points="235.6,76.4 171.1,105.2 179.8,108.9" fill="rgb(190,69,51)" stroke="#2a2a4a" stroke-width="0.5"/>
  <polygon points="235.6,76.4 179.8,108.9 189.9,111.1" fill="rgb(190,69,51)" stroke="#2a2a4a" stroke-width="0.5"/>
  <polygon points="235.6,76.4 189.9,111.1 200.6,111.8" fill="rgb(190,69,51)" stroke="#2a2a4a" stroke-width="0.5"/>
  <polygon points="235.6,76.4 200.6,111.8 211.3,110.9" fill="rgb(190,69,51)" stroke="#2a2a4a" stroke-width="0.5"/>
  <polygon points="235.6,76.4 211.3,110.9 221.3,108.5" fill="rgb(190,69,51)" stroke="#2a2a4a" stroke-width="0.5"/>
  <polygon points="235.6,76.4 221.3,108.5 229.8,104.7" fill="rgb(190,69,51)" stroke="#2a2a4a" stroke-width="0.5"/>
  <polygon points="235.6,76.4 229.8,104.7 236.2,99.8" fill="rgb(190,69,51)" stroke="#2a2a4a" stroke-width="0.5"/>
  <polygon points="235.6,76.4 236.2,99.8 240.2,94.1" fill="rgb(190,69,51)" stroke="#2a2a4a" stroke-width="0.5"/>
  <polygon points="235.6,76.4 240.2,94.1 241.5,88.1" fill="rgb(190,69,51)" stroke="#2a2a4a" stroke-width="0.5"/>
  <polygon points="241.5,88.1 239.9,82.0 235.6,76.4" fill="rgb(190,69,51)" stroke="#2a2a4a" stroke-width="0.5"/>
  <text x="200" y="342" font-family="monospace" font-size="10" fill="#5a6080" text-anchor="middle">126 triangles, 98 vertices</text>
</svg>
