<svg xmlns="http://www.w3.org/2000/svg" width="400" height="350" style="background:#1a1a2e">
<text x="200" y="20" font-family="monospace" font-size="13" fill="#8892b0" text-anchor="middle">Stepped Shaft (48-gon, boolean union)</text>
  <polygon points="248.2,151.7 248.2,243.0 241.3,239.7" fill="rgb(48,78,107)" stroke="#222240" stroke-width="0.2"/>
  <polygon points="241.3,148.4 241.3,239.7 233.7,236.9" fill="rgb(43,70,96)" stroke="#222240" stroke-width="0.2"/>
  <polygon points="233.7,145.6 233.7,236.9 225.5,234.7" fill="rgb(38,61,85)" stroke="#222240" stroke-width="0.2"/>
  <polygon points="225.5,143.4 225.5,234.7 216.9,233.1" fill="rgb(33,53,73)" stroke="#222240" stroke-width="0.2"/>
  <polygon points="216.9,141.9 216.9,233.1 208.0,232.2" fill="rgb(32,51,70)" stroke="#222240" stroke-width="0.2"/>
  <polygon points="208.0,140.9 208.0,232.2 199.0,231.9" fill="rgb(37,59,82)" stroke="#222240" stroke-width="0.2"/>
  <polygon points="199.0,140.7 199.0,231.9 190.0,232.4" fill="rgb(42,68,93)" stroke="#222240" stroke-width="0.2"/>
  <polygon points="190.0,141.1 190.0,232.4 181.1,233.4" fill="rgb(47,76,104)" stroke="#222240" stroke-width="0.2"/>
  <polygon points="181.1,142.1 181.1,233.4 172.6,235.1" fill="rgb(52,83,115)" stroke="#222240" stroke-width="0.2"/>
  <polygon points="172.6,143.9 172.6,235.1 164.6,237.5" fill="rgb(56,90,124)" stroke="#222240" stroke-width="0.2"/>
  <polygon points="164.6,146.2 164.6,237.5 157.1,240.4" fill="rgb(60,96,133)" stroke="#222240" stroke-width="0.2"/>
  <polygon points="157.1,149.1 157.1,240.4 150.4,243.8" fill="rgb(63,102,140)" stroke="#222240" stroke-width="0.2"/>
  <polygon points="150.4,152.5 150.4,243.8 144.6,247.7" fill="rgb(66,106,146)" stroke="#222240" stroke-width="0.2"/>
  <polygon points="144.6,156.4 144.6,247.7 139.6,252.0" fill="rgb(68,110,151)" stroke="#222240" stroke-width="0.2"/>
  <polygon points="139.6,160.7 139.6,252.0 135.8,256.6" fill="rgb(70,112,154)" stroke="#222240" stroke-width="0.2"/>
  <polygon points="135.8,165.3 135.8,256.6 133.0,261.4" fill="rgb(71,113,156)" stroke="#222240" stroke-width="0.2"/>
  <polygon points="133.0,170.1 133.0,261.4 131.3,266.4" fill="rgb(71,113,156)" stroke="#222240" stroke-width="0.2"/>
  <polygon points="131.3,175.2 131.3,266.4 130.9,271.5" fill="rgb(70,112,155)" stroke="#222240" stroke-width="0.2"/>
  <polygon points="130.9,180.3 130.9,271.5 131.6,276.6" fill="rgb(69,110,152)" stroke="#222240" stroke-width="0.2"/>
  <polygon points="131.6,185.4 131.6,276.6 133.5,281.6" fill="rgb(67,107,148)" stroke="#222240" stroke-width="0.2"/>
  <polygon points="133.5,190.3 133.5,281.6 136.5,286.4" fill="rgb(64,103,142)" stroke="#222240" stroke-width="0.2"/>
  <polygon points="136.5,195.2 136.5,286.4 140.6,291.0" fill="rgb(61,98,135)" stroke="#222240" stroke-width="0.2"/>
  <polygon points="140.6,199.7 140.6,291.0 145.8,295.2" fill="rgb(57,92,126)" stroke="#222240" stroke-width="0.2"/>
  <polygon points="145.8,203.9 145.8,295.2 151.8,299.0" fill="rgb(53,85,117)" stroke="#222240" stroke-width="0.2"/>
  <polygon points="151.8,207.7 151.8,299.0 158.7,302.3" fill="rgb(48,78,107)" stroke="#222240" stroke-width="0.2"/>
  <polygon points="158.7,211.0 158.7,302.3 166.3,305.1" fill="rgb(43,70,96)" stroke="#222240" stroke-width="0.2"/>
  <polygon points="166.3,213.8 166.3,305.1 174.5,307.2" fill="rgb(38,61,85)" stroke="#222240" stroke-width="0.2"/>
  <polygon points="174.5,216.0 174.5,307.2 183.1,308.8" fill="rgb(33,53,73)" stroke="#222240" stroke-width="0.2"/>
  <polygon points="183.1,217.5 183.1,308.8 192.0,309.7" fill="rgb(32,51,70)" stroke="#222240" stroke-width="0.2"/>
  <polygon points="192.0,218.5 192.0,309.7 201.0,310.0" fill="rgb(37,59,82)" stroke="#222240" stroke-width="0.2"/>
  <polygon points="201.0,218.7 201.0,310.0 210.0,309.6" fill="rgb(42,68,93)" stroke="#222240" stroke-width="0.2"/>
  <polygon points="210.0,218.3 210.0,309.6 218.9,308.5" fill="rgb(47,76,104)" stroke="#222240" stroke-width="0.2"/>
  <polygon points="218.9,217.2 218.9,308.5 227.4,306.8" fill="rgb(52,83,115)" stroke="#222240" stroke-width="0.2"/>
  <polygon points="227.4,215.5 227.4,306.8 235.4,304.5" fill="rgb(56,90,124)" stroke="#222240" stroke-width="0.2"/>
  <polygon points="235.4,213.2 235.4,304.5 242.9,301.6" fill="rgb(60,96,133)" stroke="#222240" stroke-width="0.2"/>
  <polygon points="242.9,210.3 242.9,301.6 249.6,298.2" fill="rgb(63,102,140)" stroke="#222240" stroke-width="0.2"/>
  <polygon points="249.6,206.9 249.6,298.2 255.4,294.3" fill="rgb(66,106,146)" stroke="#222240" stroke-width="0.2"/>
  <polygon points="255.4,203.0 255.4,294.3 260.4,290.0" fill="rgb(68,110,151)" stroke="#222240" stroke-width="0.2"/>
  <polygon points="260.4,198.7 260.4,290.0 264.2,285.4" fill="rgb(70,112,154)" stroke="#222240" stroke-width="0.2"/>
  <polygon points="264.2,194.1 264.2,285.4 267.0,280.5" fill="rgb(71,113,156)" stroke="#222240" stroke-width="0.2"/>
  <polygon points="267.0,189.2 267.0,280.5 268.7,275.5" fill="rgb(71,113,156)" stroke="#222240" stroke-width="0.2"/>
  <polygon points="268.7,184.2 268.7,275.5 269.1,270.4" fill="rgb(70,112,155)" stroke="#222240" stroke-width="0.2"/>
  <polygon points="269.1,179.1 269.1,270.4 268.4,265.3" fill="rgb(69,110,152)" stroke="#222240" stroke-width="0.2"/>
  <polygon points="268.4,174.0 268.4,265.3 266.5,260.3" fill="rgb(67,107,148)" stroke="#222240" stroke-width="0.2"/>
  <polygon points="266.5,169.0 266.5,260.3 263.5,255.5" fill="rgb(64,103,142)" stroke="#222240" stroke-width="0.2"/>
  <polygon points="263.5,164.2 263.5,255.5 259.4,251.0" fill="rgb(61,98,135)" stroke="#222240" stroke-width="0.2"/>
  <polygon points="259.4,159.7 259.4,251.0 254.2,246.8" fill="rgb(57,92,126)" stroke="#222240" stroke-width="0.2"/>
  <polygon points="254.2,155.5 254.2,246.8 248.2,243.0" fill="rgb(53,85,117)" stroke="#222240" stroke-width="0.2"/>
  <polygon points="228.9,71.6 228.9,254.2 224.8,252.2" fill="rgb(48,78,107)" stroke="#222240" stroke-width="0.2"/>
  <polygon points="224.8,69.6 224.8,252.2 220.2,250.5" fill="rgb(43,70,96)" stroke="#222240" stroke-width="0.2"/>
  <polygon points="220.2,68.0 220.2,250.5 215.3,249.2" fill="rgb(38,61,85)" stroke="#222240" stroke-width="0.2"/>
  <polygon points="215.3,66.7 215.3,249.2 210.1,248.3" fill="rgb(33,53,73)" stroke="#222240" stroke-width="0.2"/>
  <polygon points="210.1,65.7 210.1,248.3 204.8,247.7" fill="rgb(32,51,70)" stroke="#222240" stroke-width="0.2"/>
  <polygon points="204.8,65.2 204.8,247.7 199.4,247.6" fill="rgb(37,59,82)" stroke="#222240" stroke-width="0.2"/>
  <polygon points="199.4,65.0 199.4,247.6 194.0,247.8" fill="rgb(42,68,93)" stroke="#222240" stroke-width="0.2"/>
  <polygon points="194.0,65.2 194.0,247.8 188.7,248.4" fill="rgb(47,76,104)" stroke="#222240" stroke-width="0.2"/>
  <polygon points="188.7,65.9 188.7,248.4 183.6,249.5" fill="rgb(52,83,115)" stroke="#222240" stroke-width="0.2"/>
  <polygon points="183.6,66.9 183.6,249.5 178.7,250.9" fill="rgb(56,90,124)" stroke="#222240" stroke-width="0.2"/>
  <polygon points="178.7,68.3 178.7,250.9 174.3,252.6" fill="rgb(60,96,133)" stroke="#222240" stroke-width="0.2"/>
  <polygon points="174.3,70.0 174.3,252.6 170.2,254.7" fill="rgb(63,102,140)" stroke="#222240" stroke-width="0.2"/>
  <polygon points="170.2,72.1 170.2,254.7 166.7,257.0" fill="rgb(66,106,146)" stroke="#222240" stroke-width="0.2"/>
  <polygon points="166.7,74.4 166.7,257.0 163.8,259.6" fill="rgb(68,110,151)" stroke="#222240" stroke-width="0.2"/>
  <polygon points="163.8,77.0 163.8,259.6 161.5,262.3" fill="rgb(70,112,154)" stroke="#222240" stroke-width="0.2"/>
  <polygon points="161.5,79.8 161.5,262.3 159.8,265.2" fill="rgb(71,113,156)" stroke="#222240" stroke-width="0.2"/>
  <polygon points="159.8,82.7 159.8,265.2 158.8,268.3" fill="rgb(71,113,156)" stroke="#222240" stroke-width="0.2"/>
  <polygon points="158.8,85.7 158.8,268.3 158.5,271.3" fill="rgb(70,112,155)" stroke="#222240" stroke-width="0.2"/>
  <polygon points="158.5,88.8 158.5,271.3 159.0,274.4" fill="rgb(69,110,152)" stroke="#222240" stroke-width="0.2"/>
  <polygon points="159.0,91.8 159.0,274.4 160.1,277.4" fill="rgb(67,107,148)" stroke="#222240" stroke-width="0.2"/>
  <polygon points="160.1,94.8 160.1,277.4 161.9,280.3" fill="rgb(64,103,142)" stroke="#222240" stroke-width="0.2"/>
  <polygon points="161.9,97.7 161.9,280.3 164.4,283.0" fill="rgb(61,98,135)" stroke="#222240" stroke-width="0.2"/>
  <polygon points="164.4,100.4 164.4,283.0 167.5,285.5" fill="rgb(57,92,126)" stroke="#222240" stroke-width="0.2"/>
  <polygon points="167.5,102.9 167.5,285.5 171.1,287.8" fill="rgb(53,85,117)" stroke="#222240" stroke-width="0.2"/>
  <polygon points="171.1,105.2 171.1,287.8 175.2,289.8" fill="rgb(48,78,107)" stroke="#222240" stroke-width="0.2"/>
  <polygon points="175.2,107.2 175.2,289.8 179.8,291.4" fill="rgb(43,70,96)" stroke="#222240" stroke-width="0.2"/>
  <polygon points="179.8,108.9 179.8,291.4 184.7,292.7" fill="rgb(38,61,85)" stroke="#222240" stroke-width="0.2"/>
  <polygon points="184.7,110.2 184.7,292.7 189.9,293.7" fill="rgb(33,53,73)" stroke="#222240" stroke-width="0.2"/>
  <polygon points="189.9,111.1 189.9,293.7 195.2,294.2" fill="rgb(32,51,70)" stroke="#222240" stroke-width="0.2"/>
  <polygon points="195.2,111.7 195.2,294.2 200.6,294.4" fill="rgb(37,59,82)" stroke="#222240" stroke-width="0.2"/>
  <polygon points="200.6,111.8 200.6,294.4 206.0,294.1" fill="rgb(42,68,93)" stroke="#222240" stroke-width="0.2"/>
  <polygon points="206.0,111.6 206.0,294.1 211.3,293.5" fill="rgb(47,76,104)" stroke="#222240" stroke-width="0.2"/>
  <polygon points="211.3,110.9 211.3,293.5 216.4,292.5" fill="rgb(52,83,115)" stroke="#222240" stroke-width="0.2"/>
  <polygon points="216.4,109.9 216.4,292.5 221.3,291.1" fill="rgb(56,90,124)" stroke="#222240" stroke-width="0.2"/>
  <polygon points="221.3,108.5 221.3,291.1 225.7,289.3" fill="rgb(60,96,133)" stroke="#222240" stroke-width="0.2"/>
  <polygon points="225.7,106.8 225.7,289.3 229.8,287.3" fill="rgb(63,102,140)" stroke="#222240" stroke-width="0.2"/>
  <polygon points="229.8,104.7 229.8,287.3 233.3,285.0" fill="rgb(66,106,146)" stroke="#222240" stroke-width="0.2"/>
  <polygon points="233.3,102.4 233.3,285.0 236.2,282.4" fill="rgb(68,110,151)" stroke="#222240" stroke-width="0.2"/>
  <polygon points="236.2,99.8 236.2,282.4 238.5,279.6" fill="rgb(70,112,154)" stroke="#222240" stroke-width="0.2"/>
  <polygon points="238.5,97.1 238.5,279.6 240.2,276.7" fill="rgb(71,113,156)" stroke="#222240" stroke-width="0.2"/>
  <polygon points="240.2,94.1 240.2,276.7 241.2,273.7" fill="rgb(71,113,156)" stroke="#222240" stroke-width="0.2"/>
  <polygon points="241.2,91.1 241.2,273.7 241.5,270.6" fill="rgb(70,112,155)" stroke="#222240" stroke-width="0.2"/>
  <polygon points="241.5,88.1 241.5,270.6 241.0,267.6" fill="rgb(69,110,152)" stroke="#222240" stroke-width="0.2"/>
  <polygon points="241.0,85.0 241.0,267.6 239.9,264.6" fill="rgb(67,107,148)" stroke="#222240" stroke-width="0.2"/>
  <polygon points="239.9,82.0 239.9,264.6 238.1,261.7" fill="rgb(64,103,142)" stroke="#222240" stroke-width="0.2"/>
  <polygon points="238.1,79.1 238.1,261.7 235.6,259.0" fill="rgb(61,98,135)" stroke="#222240" stroke-width="0.2"/>
  <polygon points="235.6,76.4 235.6,259.0 232.5,256.4" fill="rgb(57,92,126)" stroke="#222240" stroke-width="0.2"/>
  <polygon points="232.5,73.9 232.5,256.4 228.9,254.2" fill="rgb(53,85,117)" stroke="#222240" stroke-width="0.2"/>
  <polygon points="241.3,239.7 241.3,148.4 248.2,151.7" fill="rgb(48,78,107)" stroke="#222240" stroke-width="0.2"/>
  <polygon points="233.7,236.9 233.7,145.6 241.3,148.4" fill="rgb(43,70,96)" stroke="#222240" stroke-width="0.2"/>
  <polygon points="225.5,234.7 225.5,143.4 233.7,145.6" fill="rgb(38,61,85)" stroke="#222240" stroke-width="0.2"/>
  <polygon points="216.9,233.1 216.9,141.9 225.5,143.4" fill="rgb(33,53,73)" stroke="#222240" stroke-width="0.2"/>
  <polygon points="208.0,232.2 208.0,140.9 216.9,141.9" fill="rgb(32,51,70)" stroke="#222240" stroke-width="0.2"/>
  <polygon points="199.0,231.9 199.0,140.7 208.0,140.9" fill="rgb(37,59,82)" stroke="#222240" stroke-width="0.2"/>
  <polygon points="190.0,232.4 190.0,141.1 199.0,140.7" fill="rgb(42,68,93)" stroke="#222240" stroke-width="0.2"/>
  <polygon points="181.1,233.4 181.1,142.1 190.0,141.1" fill="rgb(47,76,104)" stroke="#222240" stroke-width="0.2"/>
  <polygon points="172.6,235.1 172.6,143.9 181.1,142.1" fill="rgb(52,83,115)" stroke="#222240" stroke-width="0.2"/>
  <polygon points="164.6,237.5 164.6,146.2 172.6,143.9" fill="rgb(56,90,124)" stroke="#222240" stroke-width="0.2"/>
  <polygon points="157.1,240.4 157.1,149.1 164.6,146.2" fill="rgb(60,96,133)" stroke="#222240" stroke-width="0.2"/>
  <polygon points="150.4,243.8 150.4,152.5 157.1,149.1" fill="rgb(63,102,140)" stroke="#222240" stroke-width="0.2"/>
  <polygon points="144.6,247.7 144.6,156.4 150.4,152.5" fill="rgb(66,106,146)" stroke="#222240" stroke-width="0.2"/>
  <polygon points="139.6,252.0 139.6,160.7 144.6,156.4" fill="rgb(68,110,151)" stroke="#222240" stroke-width="0.2"/>
  <polygon points="135.8,256.6 135.8,165.3 139.6,160.7" fill="rgb(70,112,154)" stroke="#222240" stroke-width="0.2"/>
  <polygon points="133.0,261.4 133.0,170.1 135.8,165.3" fill="rgb(71,113,156)" stroke="#222240" stroke-width="0.2"/>
  <polygon points="131.3,266.4 131.3,175.2 133.0,170.1" fill="rgb(71,113,156)" stroke="#222240" stroke-width="0.2"/>
  <polygon points="130.9,271.5 130.9,180.3 131.3,175.2" fill="rgb(70,112,155)" stroke="#222240" stroke-width="0.2"/>
  <polygon points="131.6,276.6 131.6,185.4 130.9,180.3" fill="rgb(69,110,152)" stroke="#222240" stroke-width="0.2"/>
  <polygon points="133.5,281.6 133.5,190.3 131.6,185.4" fill="rgb(67,107,148)" stroke="#222240" stroke-width="0.2"/>
  <polygon points="136.5,286.4 136.5,195.2 133.5,190.3" fill="rgb(64,103,142)" stroke="#222240" stroke-width="0.2"/>
  <polygon points="140.6,291.0 140.6,199.7 136.5,195.2" fill="rgb(61,98,135)" stroke="#222240" stroke-width="0.2"/>
  <polygon points="145.8,295.2 145.8,203.9 140.6,199.7" fill="rgb(57,92,126)" stroke="#222240" stroke-width="0.2"/>
  <polygon points="151.8,299.0 151.8,207.7 145.8,203.9" fill="rgb(53,85,117)" stroke="#222240" stroke-width="0.2"/>
  <polygon points="158.7,302.3 158.7,211.0 151.8,207.7" fill="rgb(48,78,107)" stroke="#222240" stroke-width="0.2"/>
  <polygon points="166.3,305.1 166.3,213.8 158.7,211.0" fill="rgb(43,70,96)" stroke="#222240" stroke-width="0.2"/>
  <polygon points="174.5,307.2 174.5,216.0 166.3,213.8" fill="rgb(38,61,85)" stroke="#222240" stroke-width="0.2"/>
  <polygon points="183.1,308.8 183.1,217.5 174.5,216.0" fill="rgb(33,53,73)" stroke="#222240" stroke-width="0.2"/>
  <polygon points="192.0,309.7 192.0,218.5 183.1,217.5" fill="rgb(32,51,70)" stroke="#222240" stroke-width="0.2"/>
  <polygon points="201.0,310.0 201.0,218.7 192.0,218.5" fill="rgb(37,59,82)" stroke="#222240" stroke-width="0.2"/>
  <polygon points="210.0,309.6 210.0,218.3 201.0,218.7" fill="rgb(42,68,93)" stroke="#222240" stroke-width="0.2"/>
  <polygon points="218.9,308.5 218.9,217.2 210.0,218.3" fill="rgb(47,76,104)" stroke="#222240" stroke-width="0.2"/>
  <polygon points="227.4,306.8 227.4,215.5 218.9,217.2" fill="rgb(52,83,115)" stroke="#222240" stroke-width="0.2"/>
  <polygon points="235.4,304.5 235.4,213.2 227.4,215.5" fill="rgb(56,90,124)" stroke="#222240" stroke-width="0.2"/>
  <polygon points="242.9,301.6 242.9,210.3 235.4,213.2" fill="rgb(60,96,133)" stroke="#222240" stroke-width="0.2"/>
  <polygon points="249.6,298.2 249.6,206.9 242.9,210.3" fill="rgb(63,102,140)" stroke="#222240" stroke-width="0.2"/>
  <polygon points="255.4,294.3 255.4,203.0 249.6,206.9" fill="rgb(66,106,146)" stroke="#222240" stroke-width="0.2"/>
  <polygon points="260.4,290.0 260.4,198.7 255.4,203.0" fill="rgb(68,110,151)" stroke="#222240" stroke-width="0.2"/>
  <polygon points="264.2,285.4 264.2,194.1 260.4,198.7" fill="rgb(70,112,154)" stroke="#222240" stroke-width="0.2"/>
  <polygon points="267.0,280.5 267.0,189.2 264.2,194.1" fill="rgb(71,113,156)" stroke="#222240" stroke-width="0.2"/>
  <polygon points="268.7,275.5 268.7,184.2 267.0,189.2" fill="rgb(71,113,156)" stroke="#222240" stroke-width="0.2"/>
  <polygon points="269.1,270.4 269.1,179.1 268.7,184.2" fill="rgb(70,112,155)" stroke="#222240" stroke-width="0.2"/>
  <polygon points="268.4,265.3 268.4,174.0 269.1,179.1" fill="rgb(69,110,152)" stroke="#222240" stroke-width="0.2"/>
  <polygon points="266.5,260.3 266.5,169.0 268.4,174.0" fill="rgb(67,107,148)" stroke="#222240" stroke-width="0.2"/>
  <polygon points="263.5,255.5 263.5,164.2 266.5,169.0" fill="rgb(64,103,142)" stroke="#222240" stroke-width="0.2"/>
  <polygon points="259.4,251.0 259.4,159.7 263.5,164.2" fill="rgb(61,98,135)" stroke="#222240" stroke-width="0.2"/>
  <polygon points="254.2,246.8 254.2,155.5 259.4,159.7" fill="rgb(57,92,126)" stroke="#222240" stroke-width="0.2"/>
  <polygon points="248.2,243.0 248.2,151.7 254.2,155.5" fill="rgb(53,85,117)" stroke="#222240" stroke-width="0.2"/>
  <polygon points="224.8,252.2 224.8,69.6 228.9,71.6" fill="rgb(48,78,107)" stroke="#222240" stroke-width="0.2"/>
  <polygon points="220.2,250.5 220.2,68.0 224.8,69.6" fill="rgb(43,70,96)" stroke="#222240" stroke-width="0.2"/>
  <polygon points="215.3,249.2 215.3,66.7 220.2,68.0" fill="rgb(38,61,85)" stroke="#222240" stroke-width="0.2"/>
  <polygon points="210.1,248.3 210.1,65.7 215.3,66.7" fill="rgb(33,53,73)" stroke="#222240" stroke-width="0.2"/>
  <polygon points="204.8,247.7 204.8,65.2 210.1,65.7" fill="rgb(32,51,70)" stroke="#222240" stroke-width="0.2"/>
  <polygon points="199.4,247.6 199.4,65.0 204.8,65.2" fill="rgb(37,59,82)" stroke="#222240" stroke-width="0.2"/>
  <polygon points="194.0,247.8 194.0,65.2 199.4,65.0" fill="rgb(42,68,93)" stroke="#222240" stroke-width="0.2"/>
  <polygon points="188.7,248.4 188.7,65.9 194.0,65.2" fill="rgb(47,76,104)" stroke="#222240" stroke-width="0.2"/>
  <polygon points="183.6,249.5 183.6,66.9 188.7,65.9" fill="rgb(52,83,115)" stroke="#222240" stroke-width="0.2"/>
  <polygon points="178.7,250.9 178.7,68.3 183.6,66.9" fill="rgb(56,90,124)" stroke="#222240" stroke-width="0.2"/>
  <polygon points="174.3,252.6 174.3,70.0 178.7,68.3" fill="rgb(60,96,133)" stroke="#222240" stroke-width="0.2"/>
  <polygon points="170.2,254.7 170.2,72.1 174.3,70.0" fill="rgb(63,102,140)" stroke="#222240" stroke-width="0.2"/>
  <polygon points="166.7,257.0 166.7,74.4 170.2,72.1" fill="rgb(66,106,146)" stroke="#222240" stroke-width="0.2"/>
  <polygon points="163.8,259.6 163.8,77.0 166.7,74.4" fill="rgb(68,110,151)" stroke="#222240" stroke-width="0.2"/>
  <polygon points="161.5,262.3 161.5,79.8 163.8,77.0" fill="rgb(70,112,154)" stroke="#222240" stroke-width="0.2"/>
  <polygon points="159.8,265.2 159.8,82.7 161.5,79.8" fill="rgb(71,113,156)" stroke="#222240" stroke-width="0.2"/>
  <polygon points="158.8,268.3 158.8,85.7 159.8,82.7" fill="rgb(71,113,156)" stroke="#222240" stroke-width="0.2"/>
  <polygon points="158.5,271.3 158.5,88.8 158.8,85.7" fill="rgb(70,112,155)" stroke="#222240" stroke-width="0.2"/>
  <polygon points="159.0,274.4 159.0,91.8 158.5,88.8" fill="rgb(69,110,152)" stroke="#222240" stroke-width="0.2"/>
  <polygon points="160.1,277.4 160.1,94.8 159.0,91.8" fill="rgb(67,107,148)" stroke="#222240" stroke-width="0.2"/>
  <polygon points="161.9,280.3 161.9,97.7 160.1,94.8" fill="rgb(64,103,142)" stroke="#222240" stroke-width="0.2"/>
  <polygon points="164.4,283.0 164.4,100.4 161.9,97.7" fill="rgb(61,98,135)" stroke="#222240" stroke-width="0.2"/>
  <polygon points="167.5,285.5 167.5,102.9 164.4,100.4" fill="rgb(57,92,126)" stroke="#222240" stroke-width="0.2"/>
  <polygon points="171.1,287.8 171.1,105.2 167.5,102.9" fill="rgb(53,85,117)" stroke="#222240" stroke-width="0.2"/>
  <polygon points="175.2,289.8 175.2,107.2 171.1,105.2" fill="rgb(48,78,107)" stroke="#222240" stroke-width="0.2"/>
  <polygon points="179.8,291.4 179.8,108.9 175.2,107.2" fill="rgb(43,70,96)" stroke="#222240" stroke-width="0.2"/>
  <polygon points="184.7,292.7 184.7,110.2 179.8,108.9" fill="rgb(38,61,85)" stroke="#222240" stroke-width="0.2"/>
  <polygon points="189.9,293.7 189.9,111.1 184.7,110.2" fill="rgb(33,53,73)" stroke="#222240" stroke-width="0.2"/>
  <polygon points="195.2,294.2 195.2,111.7 189.9,111.1" fill="rgb(32,51,70)" stroke="#222240" stroke-width="0.2"/>
  <polygon points="200.6,294.4 200.6,111.8 195.2,111.7" fill="rgb(37,59,82)" stroke="#222240" stroke-width="0.2"/>
  <polygon points="206.0,294.1 206.0,111.6 200.6,111.8" fill="rgb(42,68,93)" stroke="#222240" stroke-width="0.2"/>
  <polygon points="211.3,293.5 211.3,110.9 206.0,111.6" fill="rgb(47,76,104)" stroke="#222240" stroke-width="0.2"/>
  <polygon points="216.4,292.5 216.4,109.9 211.3,110.9" fill="rgb(52,83,115)" stroke="#222240" stroke-width="0.2"/>
  <polygon points="221.3,291.1 221.3,108.5 216.4,109.9" fill="rgb(56,90,124)" stroke="#222240" stroke-width="0.2"/>
  <polygon points="225.7,289.3 225.7,106.8 221.3,108.5" fill="rgb(60,96,133)" stroke="#222240" stroke-width="0.2"/>
  <polygon points="229.8,287.3 229.8,104.7 225.7,106.8" fill="rgb(63,102,140)" stroke="#222240" stroke-width="0.2"/>
  <polygon points="233.3,285.0 233.3,102.4 229.8,104.7" fill="rgb(66,106,146)" stroke="#222240" stroke-width="0.2"/>
  <polygon points="236.2,282.4 236.2,99.8 233.3,102.4" fill="rgb(68,110,151)" stroke="#222240" stroke-width="0.2"/>
  <polygon points="238.5,279.6 238.5,97.1 236.2,99.8" fill="rgb(70,112,154)" stroke="#222240" stroke-width="0.2"/>
  <polygon points="240.2,276.7 240.2,94.1 238.5,97.1" fill="rgb(71,113,156)" stroke="#222240" stroke-width="0.2"/>
  <polygon points="241.2,273.7 241.2,91.1 240.2,94.1" fill="rgb(71,113,156)" stroke="#222240" stroke-width="0.2"/>
  <polygon points="241.5,270.6 241.5,88.1 241.2,91.1" fill="rgb(70,112,155)" stroke="#222240" stroke-width="0.2"/>
  <polygon points="241.0,267.6 241.0,85.0 241.5,88.1" fill="rgb(69,110,152)" stroke="#222240" stroke-width="0.2"/>
  <polygon points="239.9,264.6 239.9,82.0 241.0,85.0" fill="rgb(67,107,148)" stroke="#222240" stroke-width="0.2"/>
  <polygon points="238.1,261.7 238.1,79.1 239.9,82.0" fill="rgb(64,103,142)" stroke="#222240" stroke-width="0.2"/>
  <polygon points="235.6,259.0 235.6,76.4 238.1,79.1" fill="rgb(61,98,135)" stroke="#222240" stroke-width="0.2"/>
  <polygon points="232.5,256.4 232.5,73.9 235.6,76.4" fill="rgb(57,92,126)" stroke="#222240" stroke-width="0.2"/>
  <polygon points="228.9,254.2 228.9,71.6 232.5,73.9" fill="rgb(53,85,117)" stroke="#222240" stroke-width="0.2"/>
  <polygon points="228.9,71.6 232.5,73.9 235.6,76.4" fill="rgb(86,138,190)" stroke="#222240" stroke-width="0.2"/>
  <polygon points="228.9,71.6 235.6,76.4 238.1,79.1" fill="rgb(86,138,190)" stroke="#222240" stroke-width="0.2"/>
  <polygon points="228.9,71.6 238.1,79.1 239.9,82.0" fill="rgb(86,138,190)" stroke="#222240" stroke-width="0.2"/>
  <polygon points="228.9,71.6 239.9,82.0 241.0,85.0" fill="rgb(86,138,190)" stroke="#222240" stroke-width="0.2"/>
  <polygon points="228.9,71.6 241.0,85.0 241.5,88.1" fill="rgb(86,138,190)" stroke="#222240" stroke-width="0.2"/>
  <polygon points="228.9,71.6 241.5,88.1 241.2,91.1" fill="rgb(86,138,190)" stroke="#222240" stroke-width="0.2"/>
  <polygon points="228.9,71.6 241.2,91.1 240.2,94.1" fill="rgb(86,138,190)" stroke="#222240" stroke-width="0.2"/>
  <polygon points="228.9,71.6 240.2,94.1 238.5,97.1" fill="rgb(86,138,190)" stroke="#222240" stroke-width="0.2"/>
  <polygon points="228.9,71.6 238.5,97.1 236.2,99.8" fill="rgb(86,138,190)" stroke="#222240" stroke-width="0.2"/>
  <polygon points="228.9,71.6 236.2,99.8 233.3,102.4" fill="rgb(86,138,190)" stroke="#222240" stroke-width="0.2"/>
  <polygon points="228.9,71.6 233.3,102.4 229.8,104.7" fill="rgb(86,138,190)" stroke="#222240" stroke-width="0.2"/>
  <polygon points="228.9,71.6 229.8,104.7 225.7,106.8" fill="rgb(86,138,190)" stroke="#222240" stroke-width="0.2"/>
  <polygon points="228.9,71.6 225.7,106.8 221.3,108.5" fill="rgb(86,138,190)" stroke="#222240" stroke-width="0.2"/>
  <polygon points="228.9,71.6 221.3,108.5 216.4,109.9" fill="rgb(86,138,190)" stroke="#222240" stroke-width="0.2"/>
  <polygon points="228.9,71.6 216.4,109.9 211.3,110.9" fill="rgb(86,138,190)" stroke="#222240" stroke-width="0.2"/>
  <polygon points="228.9,71.6 211.3,110.9 206.0,111.6" fill="rgb(86,138,190)" stroke="#222240" stroke-width="0.2"/>
  <polygon points="228.9,71.6 206.0,111.6 200.6,111.8" fill="rgb(86,138,190)" stroke="#222240" stroke-width="0.2"/>
  <polygon points="228.9,71.6 200.6,111.8 195.2,111.7" fill="rgb(86,138,190)" stroke="#222240" stroke-width="0.2"/>
  <polygon points="228.9,71.6 195.2,111.7 189.9,111.1" fill="rgb(86,138,190)" stroke="#222240" stroke-width="0.2"/>
  <polygon points="228.9,71.6 189.9,111.1 184.7,110.2" fill="rgb(86,138,190)" stroke="#222240" stroke-width="0.2"/>
  <polygon points="228.9,71.6 184.7,110.2 179.8,108.9" fill="rgb(86,138,190)" stroke="#222240" stroke-width="0.2"/>
  <polygon points="228.9,71.6 179.8,108.9 175.2,107.2" fill="rgb(86,138,190)" stroke="#222240" stroke-width="0.2"/>
  <polygon points="228.9,71.6 175.2,107.2 171.1,105.2" fill="rgb(86,138,190)" stroke="#222240" stroke-width="0.2"/>
  <polygon points="228.9,71.6 171.1,105.2 167.5,102.9" fill="rgb(86,138,190)" stroke="#222240" stroke-width="0.2"/>
  <polygon points="228.9,71.6 167.5,102.9 164.4,100.4" fill="rgb(86,138,190)" stroke="#222240" stroke-width="0.2"/>
  <polygon points="228.9,71.6 164.4,100.4 161.9,97.7" fill="rgb(86,138,190)" stroke="#222240" stroke-width="0.2"/>
  <polygon points="228.9,71.6 161.9,97.7 160.1,94.8" fill="rgb(86,138,190)" stroke="#222240" stroke-width="0.2"/>
  <polygon points="228.9,71.6 160.1,94.8 159.0,91.8" fill="rgb(86,138,190)" stroke="#222240" stroke-width="0.2"/>
  <polygon points="228.9,71.6 159.0,91.8 158.5,88.8" fill="rgb(86,138,190)" stroke="#222240" stroke-width="0.2"/>
  <polygon points="228.9,71.6 158.5,88.8 158.8,85.7" fill="rgb(86,138,190)" stroke="#222240" stroke-width="0.2"/>
  <polygon points="228.9,71.6 158.8,85.7 159.8,82.7" fill="rgb(86,138,190)" stroke="#222240" stroke-width="0.2"/>
  <polygon points="228.9,71.6 159.8,82.7 161.5,79.8" fill="rgb(86,138,190)" stroke="#222240" stroke-width="0.2"/>
  <polygon points="228.9,71.6 161.5,79.8 163.8,77.0" fill="rgb(86,138,190)" stroke="#222240" stroke-width="0.2"/>
  <polygon points="228.9,71.6 163.8,77.0 166.7,74.4" fill="rgb(86,138,190)" stroke="#222240" stroke-width="0.2"/>
  <polygon points="228.9,71.6 166.7,74.4 170.2,72.1" fill="rgb(86,138,190)" stroke="#222240" stroke-width="0.2"/>
  <polygon points="228.9,71.6 170.2,72.1 174.3,70.0" fill="rgb(86,138,190)" stroke="#222240" stroke-width="0.2"/>
  <polygon points="228.9,71.6 174.3,70.0 178.7,68.3" fill="rgb(86,138,190)" stroke="#222240" stroke-width="0.2"/>
  <polygon points="228.9,71.6 178.7,68.3 183.6,66.9" fill="rgb(86,138,190)" stroke="#222240" stroke-width="0.2"/>
  <polygon points="228.9,71.6 183.6,66.9 188.7,65.9" fill="rgb(86,138,190)" stroke="#222240" stroke-width="0.2"/>
  <polygon points="228.9,71.6 188.7,65.9 194.0,65.2" fill="rgb(86,138,190)" stroke="#222240" stroke-width="0.2"/>
  <polygon points="228.9,71.6 194.0,65.2 199.4,65.0" fill="rgb(86,138,190)" stroke="#222240" stroke-width="0.2"/>
  <polygon points="228.9,71.6 199.4,65.0 204.8,65.2" fill="rgb(86,138,190)" stroke="#222240" stroke-width="0.2"/>
  <polygon points="228.9,71.6 204.8,65.2 210.1,65.7" fill="rgb(86,138,190)" stroke="#222240" stroke-width="0.2"/>
  <polygon points="228.9,71.6 210.1,65.7 215.3,66.7" fill="rgb(86,138,190)" stroke="#222240" stroke-width="0.2"/>
  <polygon points="228.9,71.6 215.3,66.7 220.2,68.0" fill="rgb(86,138,190)" stroke="#222240" stroke-width="0.2"/>
  <polygon points="220.2,68.0 224.8,69.6 228.9,71.6" fill="rgb(86,138,190)" stroke="#222240" stroke-width="0.2"/>
  <text x="200" y="342" font-family="monospace" font-size="10" fill="#5a6080" text-anchor="middle">238 triangles, 192 vertices</text>
</svg>
