<svg xmlns="http://www.w3.org/2000/svg" width="400" height="300" style="background:#1a1a2e">
<text x="200" y="20" font-family="monospace" font-size="13" fill="#8892b0" text-anchor="middle">T-Bracket with Chamfer</text>
  <polygon points="124.6,249.3 296.4,171.5 144.2,260.0" fill="rgb(86,138,190)" stroke="#2a2a4a" stroke-width="0.5"/>
  <polygon points="296.4,171.5 226.1,190.3 276.9,160.8" fill="rgb(86,138,190)" stroke="#2a2a4a" stroke-width="0.5"/>
  <polygon points="226.1,190.3 84.0,169.6 134.7,140.1" fill="rgb(86,138,190)" stroke="#2a2a4a" stroke-width="0.5"/>
  <polygon points="226.1,190.3 175.4,219.8 84.0,169.6" fill="rgb(86,138,190)" stroke="#2a2a4a" stroke-width="0.5"/>
  <polygon points="296.4,171.5 175.4,219.8 226.1,190.3" fill="rgb(86,138,190)" stroke="#2a2a4a" stroke-width="0.5"/>
  <polygon points="296.4,171.5 124.6,249.3 175.4,219.8" fill="rgb(86,138,190)" stroke="#2a2a4a" stroke-width="0.5"/>
  <polygon points="316.0,159.7 144.2,260.0 296.4,171.5" fill="rgb(44,72,98)" stroke="#2a2a4a" stroke-width="0.5"/>
  <polygon points="144.2,260.0 316.0,159.7 163.8,248.2" fill="rgb(44,72,98)" stroke="#2a2a4a" stroke-width="0.5"/>
  <polygon points="316.0,107.1 296.4,171.5 276.9,160.8" fill="rgb(51,81,112)" stroke="#2a2a4a" stroke-width="0.5"/>
  <polygon points="276.9,85.6 276.9,160.8 226.1,190.3" fill="rgb(65,104,143)" stroke="#2a2a4a" stroke-width="0.5"/>
  <polygon points="226.1,115.1 226.1,190.3 134.7,140.1" fill="rgb(51,81,112)" stroke="#2a2a4a" stroke-width="0.5"/>
  <polygon points="134.7,65.0 134.7,140.1 84.0,169.6" fill="rgb(65,104,143)" stroke="#2a2a4a" stroke-width="0.5"/>
  <polygon points="84.0,94.5 84.0,169.6 175.4,219.8" fill="rgb(51,81,112)" stroke="#2a2a4a" stroke-width="0.5"/>
  <polygon points="175.4,144.6 175.4,219.8 124.6,249.3" fill="rgb(65,104,143)" stroke="#2a2a4a" stroke-width="0.5"/>
  <polygon points="316.0,107.1 316.0,159.7 296.4,171.5" fill="rgb(51,81,112)" stroke="#2a2a4a" stroke-width="0.5"/>
  <polygon points="124.6,174.1 124.6,249.3 163.8,248.2" fill="rgb(51,81,112)" stroke="#2a2a4a" stroke-width="0.5"/>
  <polygon points="163.8,248.2 144.2,260.0 124.6,174.1" fill="rgb(51,81,112)" stroke="#2a2a4a" stroke-width="0.5"/>
  <polygon points="163.8,195.6 163.8,248.2 316.0,159.7" fill="rgb(65,104,143)" stroke="#2a2a4a" stroke-width="0.5"/>
  <polygon points="276.9,160.8 276.9,85.6 316.0,107.1" fill="rgb(51,81,112)" stroke="#2a2a4a" stroke-width="0.5"/>
  <polygon points="226.1,190.3 226.1,115.1 276.9,85.6" fill="rgb(65,104,143)" stroke="#2a2a4a" stroke-width="0.5"/>
  <polygon points="134.7,140.1 134.7,65.0 226.1,115.1" fill="rgb(51,81,112)" stroke="#2a2a4a" stroke-width="0.5"/>
  <polygon points="84.0,169.6 84.0,94.5 134.7,65.0" fill="rgb(65,104,143)" stroke="#2a2a4a" stroke-width="0.5"/>
  <polygon points="175.4,219.8 175.4,144.6 84.0,94.5" fill="rgb(51,81,112)" stroke="#2a2a4a" stroke-width="0.5"/>
  <polygon points="124.6,249.3 124.6,174.1 175.4,144.6" fill="rgb(65,104,143)" stroke="#2a2a4a" stroke-width="0.5"/>
  <polygon points="144.2,260.0 163.8,195.6 124.6,174.1" fill="rgb(51,81,112)" stroke="#2a2a4a" stroke-width="0.5"/>
  <polygon points="316.0,159.7 316.0,107.1 163.8,195.6" fill="rgb(65,104,143)" stroke="#2a2a4a" stroke-width="0.5"/>
  <polygon points="163.8,195.6 175.4,144.6 124.6,174.1" fill="rgb(86,138,190)" stroke="#2a2a4a" stroke-width="0.5"/>
  <polygon points="175.4,144.6 134.7,65.0 84.0,94.5" fill="rgb(86,138,190)" stroke="#2a2a4a" stroke-width="0.5"/>
  <polygon points="175.4,144.6 226.1,115.1 134.7,65.0" fill="rgb(86,138,190)" stroke="#2a2a4a" stroke-width="0.5"/>
  <polygon points="163.8,195.6 226.1,115.1 175.4,144.6" fill="rgb(86,138,190)" stroke="#2a2a4a" stroke-width="0.5"/>
  <polygon points="163.8,195.6 276.9,85.6 226.1,115.1" fill="rgb(86,138,190)" stroke="#2a2a4a" stroke-width="0.5"/>
  <polygon points="276.9,85.6 163.8,195.6 316.0,107.1" fill="rgb(86,138,190)" stroke="#2a2a4a" stroke-width="0.5"/>
  <text x="200" y="292" font-family="monospace" font-size="10" fill="#5a6080" text-anchor="middle">32 triangles, 18 vertices</text>
</svg>
