<svg xmlns="http://www.w3.org/2000/svg" width="400" height="300" style="background:#1a1a2e">
<text x="200" y="20" font-family="monospace" font-size="13" fill="#8892b0" text-anchor="middle">Revolved Profile (vase, 24 seg)</text>
  <polygon points="220.6,215.3 229.4,219.1 249.0,161.2" fill="rgb(40,64,88)" stroke="#2a2a4a" stroke-width="0.5"/>
  <polygon points="210.3,213.0 220.6,215.3 234.3,155.0" fill="rgb(49,79,109)" stroke="#2a2a4a" stroke-width="0.5"/>
  <polygon points="199.4,212.3 210.3,213.0 217.2,151.2" fill="rgb(59,94,130)" stroke="#2a2a4a" stroke-width="0.5"/>
  <polygon points="188.5,213.2 199.4,212.3 199.0,150.0" fill="rgb(68,109,151)" stroke="#2a2a4a" stroke-width="0.5"/>
  <polygon points="178.4,215.7 188.5,213.2 180.8,151.5" fill="rgb(77,123,169)" stroke="#2a2a4a" stroke-width="0.5"/>
  <polygon points="169.7,219.6 178.4,215.7 163.9,155.6" fill="rgb(84,134,184)" stroke="#2a2a4a" stroke-width="0.5"/>
  <polygon points="163.1,224.5 169.7,219.6 149.5,162.0" fill="rgb(89,142,195)" stroke="#2a2a4a" stroke-width="0.5"/>
  <polygon points="159.1,230.3 163.1,224.5 138.6,170.3" fill="rgb(91,146,201)" stroke="#2a2a4a" stroke-width="0.5"/>
  <polygon points="157.8,236.5 159.1,230.3 131.8,180.0" fill="rgb(91,146,202)" stroke="#2a2a4a" stroke-width="0.5"/>
  <polygon points="159.4,242.7 157.8,236.5 129.6,190.3" fill="rgb(89,143,196)" stroke="#2a2a4a" stroke-width="0.5"/>
  <polygon points="163.7,248.4 159.4,242.7 132.3,200.5" fill="rgb(84,135,186)" stroke="#2a2a4a" stroke-width="0.5"/>
  <polygon points="170.6,253.3 163.7,248.4 139.6,210.1" fill="rgb(78,124,171)" stroke="#2a2a4a" stroke-width="0.5"/>
  <polygon points="179.4,257.0 170.6,253.3 151.0,218.2" fill="rgb(69,111,153)" stroke="#2a2a4a" stroke-width="0.5"/>
  <polygon points="189.7,259.3 179.4,257.0 165.7,224.4" fill="rgb(60,96,133)" stroke="#2a2a4a" stroke-width="0.5"/>
  <polygon points="200.6,260.0 189.7,259.3 182.8,228.2" fill="rgb(50,81,112)" stroke="#2a2a4a" stroke-width="0.5"/>
  <polygon points="211.5,259.1 200.6,260.0 201.0,229.4" fill="rgb(41,66,91)" stroke="#2a2a4a" stroke-width="0.5"/>
  <polygon points="221.6,256.6 211.5,259.1 219.2,227.9" fill="rgb(33,53,72)" stroke="#2a2a4a" stroke-width="0.5"/>
  <polygon points="230.3,252.8 221.6,256.6 236.1,223.8" fill="rgb(33,54,74)" stroke="#2a2a4a" stroke-width="0.5"/>
  <polygon points="236.9,247.8 230.3,252.8 250.5,217.4" fill="rgb(38,62,85)" stroke="#2a2a4a" stroke-width="0.5"/>
  <polygon points="240.9,242.0 236.9,247.8 261.4,209.1" fill="rgb(41,66,91)" stroke="#2a2a4a" stroke-width="0.5"/>
  <polygon points="242.2,235.8 240.9,242.0 268.2,199.4" fill="rgb(41,66,91)" stroke="#2a2a4a" stroke-width="0.5"/>
  <polygon points="240.6,229.7 242.2,235.8 270.4,189.1" fill="rgb(39,62,86)" stroke="#2a2a4a" stroke-width="0.5"/>
  <polygon points="236.3,223.9 240.6,229.7 267.7,178.9" fill="rgb(34,55,76)" stroke="#2a2a4a" stroke-width="0.5"/>
  <polygon points="229.4,219.1 236.3,223.9 260.4,169.3" fill="rgb(32,51,70)" stroke="#2a2a4a" stroke-width="0.5"/>
  <polygon points="249.0,161.2 234.3,155.0 220.6,215.3" fill="rgb(40,64,88)" stroke="#2a2a4a" stroke-width="0.5"/>
  <polygon points="234.3,155.0 217.2,151.2 210.3,213.0" fill="rgb(49,79,109)" stroke="#2a2a4a" stroke-width="0.5"/>
  <polygon points="217.2,151.2 199.0,150.0 199.4,212.3" fill="rgb(59,94,130)" stroke="#2a2a4a" stroke-width="0.5"/>
  <polygon points="199.0,150.0 180.8,151.5 188.5,213.2" fill="rgb(68,109,151)" stroke="#2a2a4a" stroke-width="0.5"/>
  <polygon points="180.8,151.5 163.9,155.6 178.4,215.7" fill="rgb(77,123,169)" stroke="#2a2a4a" stroke-width="0.5"/>
  <polygon points="163.9,155.6 149.5,162.0 169.7,219.6" fill="rgb(84,134,184)" stroke="#2a2a4a" stroke-width="0.5"/>
  <polygon points="149.5,162.0 138.6,170.3 163.1,224.5" fill="rgb(89,142,195)" stroke="#2a2a4a" stroke-width="0.5"/>
  <polygon points="138.6,170.3 131.8,180.0 159.1,230.3" fill="rgb(91,146,201)" stroke="#2a2a4a" stroke-width="0.5"/>
  <polygon points="131.8,180.0 129.6,190.3 157.8,236.5" fill="rgb(91,146,202)" stroke="#2a2a4a" stroke-width="0.5"/>
  <polygon points="129.6,190.3 132.3,200.5 159.4,242.7" fill="rgb(89,143,196)" stroke="#2a2a4a" stroke-width="0.5"/>
  <polygon points="132.3,200.5 139.6,210.1 163.7,248.4" fill="rgb(84,135,186)" stroke="#2a2a4a" stroke-width="0.5"/>
  <polygon points="139.6,210.1 151.0,218.2 170.6,253.3" fill="rgb(78,124,171)" stroke="#2a2a4a" stroke-width="0.5"/>
  <polygon points="151.0,218.2 165.7,224.4 179.4,257.0" fill="rgb(69,111,153)" stroke="#2a2a4a" stroke-width="0.5"/>
  <polygon points="165.7,224.4 182.8,228.2 189.7,259.3" fill="rgb(60,96,133)" stroke="#2a2a4a" stroke-width="0.5"/>
  <polygon points="182.8,228.2 201.0,229.4 200.6,260.0" fill="rgb(50,81,112)" stroke="#2a2a4a" stroke-width="0.5"/>
  <polygon points="201.0,229.4 219.2,227.9 211.5,259.1" fill="rgb(41,66,91)" stroke="#2a2a4a" stroke-width="0.5"/>
  <polygon points="219.2,227.9 236.1,223.8 221.6,256.6" fill="rgb(33,53,72)" stroke="#2a2a4a" stroke-width="0.5"/>
  <polygon points="236.1,223.8 250.5,217.4 230.3,252.8" fill="rgb(33,54,74)" stroke="#2a2a4a" stroke-width="0.5"/>
  <polygon points="250.5,217.4 261.4,209.1 236.9,247.8" fill="rgb(38,62,85)" stroke="#2a2a4a" stroke-width="0.5"/>
  <polygon points="261.4,209.1 268.2,199.4 240.9,242.0" fill="rgb(41,66,91)" stroke="#2a2a4a" stroke-width="0.5"/>
  <polygon points="268.2,199.4 270.4,189.1 242.2,235.8" fill="rgb(41,66,91)" stroke="#2a2a4a" stroke-width="0.5"/>
  <polygon points="270.4,189.1 267.7,178.9 240.6,229.7" fill="rgb(39,62,86)" stroke="#2a2a4a" stroke-width="0.5"/>
  <polygon points="267.7,178.9 260.4,169.3 236.3,223.9" fill="rgb(34,55,76)" stroke="#2a2a4a" stroke-width="0.5"/>
  <polygon points="260.4,169.3 249.0,161.2 229.4,219.1" fill="rgb(32,51,70)" stroke="#2a2a4a" stroke-width="0.5"/>
  <polygon points="234.3,155.0 249.0,161.2 234.3,123.3" fill="rgb(65,104,143)" stroke="#2a2a4a" stroke-width="0.5"/>
  <polygon points="217.2,151.2 234.3,155.0 224.0,119.0" fill="rgb(55,88,121)" stroke="#2a2a4a" stroke-width="0.5"/>
  <polygon points="199.0,150.0 217.2,151.2 212.1,116.3" fill="rgb(45,72,99)" stroke="#2a2a4a" stroke-width="0.5"/>
  <polygon points="180.8,151.5 199.0,150.0 199.3,115.4" fill="rgb(35,56,78)" stroke="#2a2a4a" stroke-width="0.5"/>
  <polygon points="163.9,155.6 180.8,151.5 186.6,116.5" fill="rgb(33,53,73)" stroke="#2a2a4a" stroke-width="0.5"/>
  <polygon points="149.5,162.0 163.9,155.6 174.8,119.4" fill="rgb(40,64,89)" stroke="#2a2a4a" stroke-width="0.5"/>
  <polygon points="138.6,170.3 149.5,162.0 164.7,123.9" fill="rgb(45,73,100)" stroke="#2a2a4a" stroke-width="0.5"/>
  <polygon points="131.8,180.0 138.6,170.3 157.0,129.7" fill="rgb(48,77,106)" stroke="#2a2a4a" stroke-width="0.5"/>
  <polygon points="129.6,190.3 131.8,180.0 152.2,136.4" fill="rgb(48,77,107)" stroke="#2a2a4a" stroke-width="0.5"/>
  <polygon points="132.3,200.5 129.6,190.3 150.7,143.6" fill="rgb(46,73,101)" stroke="#2a2a4a" stroke-width="0.5"/>
  <polygon points="139.6,210.1 132.3,200.5 152.6,150.8" fill="rgb(41,66,90)" stroke="#2a2a4a" stroke-width="0.5"/>
  <polygon points="151.0,218.2 139.6,210.1 157.7,157.5" fill="rgb(34,54,75)" stroke="#2a2a4a" stroke-width="0.5"/>
  <polygon points="165.7,224.4 151.0,218.2 165.7,163.2" fill="rgb(34,54,75)" stroke="#2a2a4a" stroke-width="0.5"/>
  <polygon points="182.8,228.2 165.7,224.4 176.0,167.5" fill="rgb(44,70,96)" stroke="#2a2a4a" stroke-width="0.5"/>
  <polygon points="201.0,229.4 182.8,228.2 187.9,170.2" fill="rgb(54,86,119)" stroke="#2a2a4a" stroke-width="0.5"/>
  <polygon points="219.2,227.9 201.0,229.4 200.7,171.1" fill="rgb(63,102,140)" stroke="#2a2a4a" stroke-width="0.5"/>
  <polygon points="236.1,223.8 219.2,227.9 213.4,170.0" fill="rgb(72,116,159)" stroke="#2a2a4a" stroke-width="0.5"/>
  <polygon points="250.5,217.4 236.1,223.8 225.2,167.1" fill="rgb(79,127,175)" stroke="#2a2a4a" stroke-width="0.5"/>
  <polygon points="261.4,209.1 250.5,217.4 235.3,162.6" fill="rgb(85,136,187)" stroke="#2a2a4a" stroke-width="0.5"/>
  <polygon points="268.2,199.4 261.4,209.1 243.0,156.8" fill="rgb(87,140,193)" stroke="#2a2a4a" stroke-width="0.5"/>
  <polygon points="270.4,189.1 268.2,199.4 247.8,150.0" fill="rgb(88,140,193)" stroke="#2a2a4a" stroke-width="0.5"/>
  <polygon points="267.7,178.9 270.4,189.1 249.3,142.8" fill="rgb(85,137,188)" stroke="#2a2a4a" stroke-width="0.5"/>
  <polygon points="260.4,169.3 267.7,178.9 247.4,135.7" fill="rgb(80,129,177)" stroke="#2a2a4a" stroke-width="0.5"/>
  <polygon points="249.0,161.2 260.4,169.3 242.3,129.0" fill="rgb(73,118,162)" stroke="#2a2a4a" stroke-width="0.5"/>
  <polygon points="234.3,123.3 224.0,119.0 234.3,155.0" fill="rgb(65,104,143)" stroke="#2a2a4a" stroke-width="0.5"/>
  <polygon points="224.0,119.0 212.1,116.3 217.2,151.2" fill="rgb(55,88,121)" stroke="#2a2a4a" stroke-width="0.5"/>
  <polygon points="212.1,116.3 199.3,115.4 199.0,150.0" fill="rgb(45,72,99)" stroke="#2a2a4a" stroke-width="0.5"/>
  <polygon points="199.3,115.4 186.6,116.5 180.8,151.5" fill="rgb(35,56,78)" stroke="#2a2a4a" stroke-width="0.5"/>
  <polygon points="186.6,116.5 174.8,119.4 163.9,155.6" fill="rgb(33,53,73)" stroke="#2a2a4a" stroke-width="0.5"/>
  <polygon points="174.8,119.4 164.7,123.9 149.5,162.0" fill="rgb(40,64,89)" stroke="#2a2a4a" stroke-width="0.5"/>
  <polygon points="164.7,123.9 157.0,129.7 138.6,170.3" fill="rgb(45,73,100)" stroke="#2a2a4a" stroke-width="0.5"/>
  <polygon points="157.0,129.7 152.2,136.4 131.8,180.0" fill="rgb(48,77,106)" stroke="#2a2a4a" stroke-width="0.5"/>
  <polygon points="152.2,136.4 150.7,143.6 129.6,190.3" fill="rgb(48,77,107)" stroke="#2a2a4a" stroke-width="0.5"/>
  <polygon points="150.7,143.6 152.6,150.8 132.3,200.5" fill="rgb(46,73,101)" stroke="#2a2a4a" stroke-width="0.5"/>
  <polygon points="152.6,150.8 157.7,157.5 139.6,210.1" fill="rgb(41,66,90)" stroke="#2a2a4a" stroke-width="0.5"/>
  <polygon points="157.7,157.5 165.7,163.2 151.0,218.2" fill="rgb(34,54,75)" stroke="#2a2a4a" stroke-width="0.5"/>
  <polygon points="165.7,163.2 176.0,167.5 165.7,224.4" fill="rgb(34,54,75)" stroke="#2a2a4a" stroke-width="0.5"/>
  <polygon points="176.0,167.5 187.9,170.2 182.8,228.2" fill="rgb(44,70,96)" stroke="#2a2a4a" stroke-width="0.5"/>
  <polygon points="187.9,170.2 200.7,171.1 201.0,229.4" fill="rgb(54,86,119)" stroke="#2a2a4a" stroke-width="0.5"/>
  <polygon points="200.7,171.1 213.4,170.0 219.2,227.9" fill="rgb(63,102,140)" stroke="#2a2a4a" stroke-width="0.5"/>
  <polygon points="213.4,170.0 225.2,167.1 236.1,223.8" fill="rgb(72,116,159)" stroke="#2a2a4a" stroke-width="0.5"/>
  <polygon points="225.2,167.1 235.3,162.6 250.5,217.4" fill="rgb(79,127,175)" stroke="#2a2a4a" stroke-width="0.5"/>
  <polygon points="235.3,162.6 243.0,156.8 261.4,209.1" fill="rgb(85,136,187)" stroke="#2a2a4a" stroke-width="0.5"/>
  <polygon points="243.0,156.8 247.8,150.0 268.2,199.4" fill="rgb(87,140,193)" stroke="#2a2a4a" stroke-width="0.5"/>
  <polygon points="247.8,150.0 249.3,142.8 270.4,189.1" fill="rgb(88,140,193)" stroke="#2a2a4a" stroke-width="0.5"/>
  <polygon points="249.3,142.8 247.4,135.7 267.7,178.9" fill="rgb(85,137,188)" stroke="#2a2a4a" stroke-width="0.5"/>
  <polygon points="247.4,135.7 242.3,129.0 260.4,169.3" fill="rgb(80,129,177)" stroke="#2a2a4a" stroke-width="0.5"/>
  <polygon points="242.3,129.0 234.3,123.3 249.0,161.2" fill="rgb(73,118,162)" stroke="#2a2a4a" stroke-width="0.5"/>
  <polygon points="224.0,119.0 234.3,123.3 239.2,74.0" fill="rgb(39,62,86)" stroke="#2a2a4a" stroke-width="0.5"/>
  <polygon points="212.1,116.3 224.0,119.0 227.4,69.0" fill="rgb(30,49,68)" stroke="#2a2a4a" stroke-width="0.5"/>
  <polygon points="199.3,115.4 212.1,116.3 213.8,66.0" fill="rgb(41,66,91)" stroke="#2a2a4a" stroke-width="0.5"/>
  <polygon points="186.6,116.5 199.3,115.4 199.2,65.0" fill="rgb(51,83,114)" stroke="#2a2a4a" stroke-width="0.5"/>
  <polygon points="174.8,119.4 186.6,116.5 184.6,66.2" fill="rgb(61,98,134)" stroke="#2a2a4a" stroke-width="0.5"/>
  <polygon points="164.7,123.9 174.8,119.4 171.1,69.5" fill="rgb(68,110,151)" stroke="#2a2a4a" stroke-width="0.5"/>
  <polygon points="157.0,129.7 164.7,123.9 159.6,74.6" fill="rgb(74,119,163)" stroke="#2a2a4a" stroke-width="0.5"/>
  <polygon points="152.2,136.4 157.0,129.7 150.8,81.3" fill="rgb(77,123,170)" stroke="#2a2a4a" stroke-width="0.5"/>
  <polygon points="150.7,143.6 152.2,136.4 145.4,89.0" fill="rgb(77,124,170)" stroke="#2a2a4a" stroke-width="0.5"/>
  <polygon points="152.6,150.8 150.7,143.6 143.7,97.2" fill="rgb(75,120,165)" stroke="#2a2a4a" stroke-width="0.5"/>
  <polygon points="157.7,157.5 152.6,150.8 145.8,105.5" fill="rgb(69,111,153)" stroke="#2a2a4a" stroke-width="0.5"/>
  <polygon points="165.7,163.2 157.7,157.5 151.7,113.1" fill="rgb(62,99,137)" stroke="#2a2a4a" stroke-width="0.5"/>
  <polygon points="176.0,167.5 165.7,163.2 160.8,119.6" fill="rgb(53,85,117)" stroke="#2a2a4a" stroke-width="0.5"/>
  <polygon points="187.9,170.2 176.0,167.5 172.6,124.5" fill="rgb(42,68,94)" stroke="#2a2a4a" stroke-width="0.5"/>
  <polygon points="200.7,171.1 187.9,170.2 186.2,127.6" fill="rgb(32,51,71)" stroke="#2a2a4a" stroke-width="0.5"/>
  <polygon points="213.4,170.0 200.7,171.1 200.8,128.6" fill="rgb(38,60,83)" stroke="#2a2a4a" stroke-width="0.5"/>
  <polygon points="225.2,167.1 213.4,170.0 215.4,127.4" fill="rgb(47,75,104)" stroke="#2a2a4a" stroke-width="0.5"/>
  <polygon points="235.3,162.6 225.2,167.1 228.9,124.1" fill="rgb(55,88,121)" stroke="#2a2a4a" stroke-width="0.5"/>
  <polygon points="243.0,156.8 235.3,162.6 240.4,118.9" fill="rgb(60,96,133)" stroke="#2a2a4a" stroke-width="0.5"/>
  <polygon points="247.8,150.0 243.0,156.8 249.2,112.3" fill="rgb(63,101,139)" stroke="#2a2a4a" stroke-width="0.5"/>
  <polygon points="249.3,142.8 247.8,150.0 254.6,104.6" fill="rgb(63,101,140)" stroke="#2a2a4a" stroke-width="0.5"/>
  <polygon points="247.4,135.7 249.3,142.8 256.3,96.3" fill="rgb(61,97,134)" stroke="#2a2a4a" stroke-width="0.5"/>
  <polygon points="242.3,129.0 247.4,135.7 254.2,88.1" fill="rgb(55,89,123)" stroke="#2a2a4a" stroke-width="0.5"/>
  <polygon points="234.3,123.3 242.3,129.0 248.3,80.5" fill="rgb(48,77,106)" stroke="#2a2a4a" stroke-width="0.5"/>
  <polygon points="239.2,74.0 227.4,69.0 224.0,119.0" fill="rgb(39,62,86)" stroke="#2a2a4a" stroke-width="0.5"/>
  <polygon points="227.4,69.0 213.8,66.0 212.1,116.3" fill="rgb(30,49,68)" stroke="#2a2a4a" stroke-width="0.5"/>
  <polygon points="213.8,66.0 199.2,65.0 199.3,115.4" fill="rgb(41,66,91)" stroke="#2a2a4a" stroke-width="0.5"/>
  <polygon points="199.2,65.0 184.6,66.2 186.6,116.5" fill="rgb(51,83,114)" stroke="#2a2a4a" stroke-width="0.5"/>
  <polygon points="184.6,66.2 171.1,69.5 174.8,119.4" fill="rgb(61,98,134)" stroke="#2a2a4a" stroke-width="0.5"/>
  <polygon points="171.1,69.5 159.6,74.6 164.7,123.9" fill="rgb(68,110,151)" stroke="#2a2a4a" stroke-width="0.5"/>
  <polygon points="159.6,74.6 150.8,81.3 157.0,129.7" fill="rgb(74,119,163)" stroke="#2a2a4a" stroke-width="0.5"/>
  <polygon points="150.8,81.3 145.4,89.0 152.2,136.4" fill="rgb(77,123,170)" stroke="#2a2a4a" stroke-width="0.5"/>
  <polygon points="145.4,89.0 143.7,97.2 150.7,143.6" fill="rgb(77,124,170)" stroke="#2a2a4a" stroke-width="0.5"/>
  <polygon points="143.7,97.2 145.8,105.5 152.6,150.8" fill="rgb(75,120,165)" stroke="#2a2a4a" stroke-width="0.5"/>
  <polygon points="145.8,105.5 151.7,113.1 157.7,157.5" fill="rgb(69,111,153)" stroke="#2a2a4a" stroke-width="0.5"/>
  <polygon points="151.7,113.1 160.8,119.6 165.7,163.2" fill="rgb(62,99,137)" stroke="#2a2a4a" stroke-width="0.5"/>
  <polygon points="160.8,119.6 172.6,124.5 176.0,167.5" fill="rgb(53,85,117)" stroke="#2a2a4a" stroke-width="0.5"/>
  <polygon points="172.6,124.5 186.2,127.6 187.9,170.2" fill="rgb(42,68,94)" stroke="#2a2a4a" stroke-width="0.5"/>
  <polygon points="186.2,127.6 200.8,128.6 200.7,171.1" fill="rgb(32,51,71)" stroke="#2a2a4a" stroke-width="0.5"/>
  <polygon points="200.8,128.6 215.4,127.4 213.4,170.0" fill="rgb(38,60,83)" stroke="#2a2a4a" stroke-width="0.5"/>
  <polygon points="215.4,127.4 228.9,124.1 225.2,167.1" fill="rgb(47,75,104)" stroke="#2a2a4a" stroke-width="0.5"/>
  <polygon points="228.9,124.1 240.4,118.9 235.3,162.6" fill="rgb(55,88,121)" stroke="#2a2a4a" stroke-width="0.5"/>
  <polygon points="240.4,118.9 249.2,112.3 243.0,156.8" fill="rgb(60,96,133)" stroke="#2a2a4a" stroke-width="0.5"/>
  <polygon points="249.2,112.3 254.6,104.6 247.8,150.0" fill="rgb(63,101,139)" stroke="#2a2a4a" stroke-width="0.5"/>
  <polygon points="254.6,104.6 256.3,96.3 249.3,142.8" fill="rgb(63,101,140)" stroke="#2a2a4a" stroke-width="0.5"/>
  <polygon points="256.3,96.3 254.2,88.1 247.4,135.7" fill="rgb(61,97,134)" stroke="#2a2a4a" stroke-width="0.5"/>
  <polygon points="254.2,88.1 248.3,80.5 242.3,129.0" fill="rgb(55,89,123)" stroke="#2a2a4a" stroke-width="0.5"/>
  <polygon points="248.3,80.5 239.2,74.0 234.3,123.3" fill="rgb(48,77,106)" stroke="#2a2a4a" stroke-width="0.5"/>
  <text x="200" y="292" font-family="monospace" font-size="10" fill="#5a6080" text-anchor="middle">144 triangles, 288 vertices</text>
</svg>
