<svg xmlns="http://www.w3.org/2000/svg" width="400" height="300" style="background:#1a1a2e">
<text x="200" y="20" font-family="monospace" font-size="13" fill="#8892b0" text-anchor="middle">Sphere (r=6, 16x12)</text>
  <polygon points="217.6,230.2 200.0,243.2 209.3,227.2" fill="rgb(84,134,185)" stroke="#2a2a4a" stroke-width="0.5"/>
  <polygon points="209.3,227.2 200.0,243.2 199.6,226.2" fill="rgb(86,138,189)" stroke="#2a2a4a" stroke-width="0.5"/>
  <polygon points="199.6,226.2 200.0,243.2 190.0,227.3" fill="rgb(88,141,194)" stroke="#2a2a4a" stroke-width="0.5"/>
  <polygon points="190.0,227.3 200.0,243.2 181.8,230.5" fill="rgb(90,144,198)" stroke="#2a2a4a" stroke-width="0.5"/>
  <polygon points="181.8,230.5 200.0,243.2 176.5,235.2" fill="rgb(91,145,200)" stroke="#2a2a4a" stroke-width="0.5"/>
  <polygon points="176.5,235.2 200.0,243.2 174.7,240.7" fill="rgb(91,146,201)" stroke="#2a2a4a" stroke-width="0.5"/>
  <polygon points="174.7,240.7 200.0,243.2 176.8,246.1" fill="rgb(91,145,200)" stroke="#2a2a4a" stroke-width="0.5"/>
  <polygon points="176.8,246.1 200.0,243.2 182.4,250.7" fill="rgb(89,143,197)" stroke="#2a2a4a" stroke-width="0.5"/>
  <polygon points="182.4,250.7 200.0,243.2 190.7,253.7" fill="rgb(87,140,193)" stroke="#2a2a4a" stroke-width="0.5"/>
  <polygon points="190.7,253.7 200.0,243.2 200.4,254.7" fill="rgb(85,137,188)" stroke="#2a2a4a" stroke-width="0.5"/>
  <polygon points="200.4,254.7 200.0,243.2 210.0,253.6" fill="rgb(83,133,184)" stroke="#2a2a4a" stroke-width="0.5"/>
  <polygon points="210.0,253.6 200.0,243.2 218.2,250.4" fill="rgb(82,131,180)" stroke="#2a2a4a" stroke-width="0.5"/>
  <polygon points="218.2,250.4 200.0,243.2 223.5,245.7" fill="rgb(80,129,177)" stroke="#2a2a4a" stroke-width="0.5"/>
  <polygon points="223.5,245.7 200.0,243.2 225.3,240.2" fill="rgb(80,128,177)" stroke="#2a2a4a" stroke-width="0.5"/>
  <polygon points="225.3,240.2 200.0,243.2 223.2,234.8" fill="rgb(81,129,178)" stroke="#2a2a4a" stroke-width="0.5"/>
  <polygon points="223.2,234.8 200.0,243.2 217.6,230.2" fill="rgb(82,131,181)" stroke="#2a2a4a" stroke-width="0.5"/>
  <polygon points="218.0,206.7 209.3,227.2 217.6,230.2" fill="rgb(76,122,168)" stroke="#2a2a4a" stroke-width="0.5"/>
  <polygon points="199.3,204.8 199.6,226.2 209.3,227.2" fill="rgb(82,132,182)" stroke="#2a2a4a" stroke-width="0.5"/>
  <polygon points="180.6,207.0 190.0,227.3 199.6,226.2" fill="rgb(88,142,195)" stroke="#2a2a4a" stroke-width="0.5"/>
  <polygon points="164.9,213.2 181.8,230.5 190.0,227.3" fill="rgb(93,150,206)" stroke="#2a2a4a" stroke-width="0.5"/>
  <polygon points="154.6,222.2 176.5,235.2 181.8,230.5" fill="rgb(97,155,213)" stroke="#2a2a4a" stroke-width="0.5"/>
  <polygon points="151.1,232.8 174.7,240.7 176.5,235.2" fill="rgb(98,157,215)" stroke="#2a2a4a" stroke-width="0.5"/>
  <polygon points="155.1,243.3 176.8,246.1 174.7,240.7" fill="rgb(96,154,212)" stroke="#2a2a4a" stroke-width="0.5"/>
  <polygon points="165.9,252.2 182.4,250.7 176.8,246.1" fill="rgb(92,148,204)" stroke="#2a2a4a" stroke-width="0.5"/>
  <polygon points="182.0,258.1 190.7,253.7 182.4,250.7" fill="rgb(87,140,192)" stroke="#2a2a4a" stroke-width="0.5"/>
  <polygon points="200.7,260.0 200.4,254.7 190.7,253.7" fill="rgb(81,130,178)" stroke="#2a2a4a" stroke-width="0.5"/>
  <polygon points="219.4,257.7 210.0,253.6 200.4,254.7" fill="rgb(75,120,165)" stroke="#2a2a4a" stroke-width="0.5"/>
  <polygon points="235.1,251.6 218.2,250.4 210.0,253.6" fill="rgb(70,112,154)" stroke="#2a2a4a" stroke-width="0.5"/>
  <polygon points="245.4,242.6 223.5,245.7 218.2,250.4" fill="rgb(67,107,147)" stroke="#2a2a4a" stroke-width="0.5"/>
  <polygon points="248.9,232.0 225.3,240.2 223.5,245.7" fill="rgb(66,105,145)" stroke="#2a2a4a" stroke-width="0.5"/>
  <polygon points="244.9,221.5 223.2,234.8 225.3,240.2" fill="rgb(67,108,148)" stroke="#2a2a4a" stroke-width="0.5"/>
  <polygon points="234.1,212.6 217.6,230.2 223.2,234.8" fill="rgb(71,114,156)" stroke="#2a2a4a" stroke-width="0.5"/>
  <polygon points="217.6,230.2 234.1,212.6 218.0,206.7" fill="rgb(76,122,168)" stroke="#2a2a4a" stroke-width="0.5"/>
  <polygon points="209.3,227.2 218.0,206.7 199.3,204.8" fill="rgb(82,132,182)" stroke="#2a2a4a" stroke-width="0.5"/>
  <polygon points="199.6,226.2 199.3,204.8 180.6,207.0" fill="rgb(88,142,195)" stroke="#2a2a4a" stroke-width="0.5"/>
  <polygon points="190.0,227.3 180.6,207.0 164.9,213.2" fill="rgb(93,150,206)" stroke="#2a2a4a" stroke-width="0.5"/>
  <polygon points="181.8,230.5 164.9,213.2 154.6,222.2" fill="rgb(97,155,213)" stroke="#2a2a4a" stroke-width="0.5"/>
  <polygon points="176.5,235.2 154.6,222.2 151.1,232.8" fill="rgb(98,157,215)" stroke="#2a2a4a" stroke-width="0.5"/>
  <polygon points="174.7,240.7 151.1,232.8 155.1,243.3" fill="rgb(96,154,212)" stroke="#2a2a4a" stroke-width="0.5"/>
  <polygon points="176.8,246.1 155.1,243.3 165.9,252.2" fill="rgb(92,148,204)" stroke="#2a2a4a" stroke-width="0.5"/>
  <polygon points="182.4,250.7 165.9,252.2 182.0,258.1" fill="rgb(87,140,192)" stroke="#2a2a4a" stroke-width="0.5"/>
  <polygon points="190.7,253.7 182.0,258.1 200.7,260.0" fill="rgb(81,130,178)" stroke="#2a2a4a" stroke-width="0.5"/>
  <polygon points="200.4,254.7 200.7,260.0 219.4,257.7" fill="rgb(75,120,165)" stroke="#2a2a4a" stroke-width="0.5"/>
  <polygon points="210.0,253.6 219.4,257.7 235.1,251.6" fill="rgb(70,112,154)" stroke="#2a2a4a" stroke-width="0.5"/>
  <polygon points="218.2,250.4 235.1,251.6 245.4,242.6" fill="rgb(67,107,147)" stroke="#2a2a4a" stroke-width="0.5"/>
  <polygon points="223.5,245.7 245.4,242.6 248.9,232.0" fill="rgb(66,105,145)" stroke="#2a2a4a" stroke-width="0.5"/>
  <polygon points="225.3,240.2 248.9,232.0 244.9,221.5" fill="rgb(67,108,148)" stroke="#2a2a4a" stroke-width="0.5"/>
  <polygon points="223.2,234.8 244.9,221.5 234.1,212.6" fill="rgb(71,114,156)" stroke="#2a2a4a" stroke-width="0.5"/>
  <polygon points="225.5,183.3 218.0,206.7 234.1,212.6" fill="rgb(65,105,145)" stroke="#2a2a4a" stroke-width="0.5"/>
  <polygon points="199.0,180.5 199.3,204.8 218.0,206.7" fill="rgb(75,121,166)" stroke="#2a2a4a" stroke-width="0.5"/>
  <polygon points="172.6,183.7 180.6,207.0 199.3,204.8" fill="rgb(85,136,187)" stroke="#2a2a4a" stroke-width="0.5"/>
  <polygon points="150.4,192.4 164.9,213.2 180.6,207.0" fill="rgb(93,149,205)" stroke="#2a2a4a" stroke-width="0.5"/>
  <polygon points="135.7,205.2 154.6,222.2 164.9,213.2" fill="rgb(98,157,216)" stroke="#2a2a4a" stroke-width="0.5"/>
  <polygon points="130.9,220.1 151.1,232.8 154.6,222.2" fill="rgb(99,159,219)" stroke="#2a2a4a" stroke-width="0.5"/>
  <polygon points="136.5,235.0 155.1,243.3 151.1,232.8" fill="rgb(97,156,214)" stroke="#2a2a4a" stroke-width="0.5"/>
  <polygon points="151.8,247.6 165.9,252.2 155.1,243.3" fill="rgb(91,146,201)" stroke="#2a2a4a" stroke-width="0.5"/>
  <polygon points="174.5,255.9 182.0,258.1 165.9,252.2" fill="rgb(83,132,182)" stroke="#2a2a4a" stroke-width="0.5"/>
  <polygon points="201.0,258.6 200.7,260.0 182.0,258.1" fill="rgb(73,117,161)" stroke="#2a2a4a" stroke-width="0.5"/>
  <polygon points="227.4,255.4 219.4,257.7 200.7,260.0" fill="rgb(63,101,140)" stroke="#2a2a4a" stroke-width="0.5"/>
  <polygon points="249.6,246.8 235.1,251.6 219.4,257.7" fill="rgb(55,89,122)" stroke="#2a2a4a" stroke-width="0.5"/>
  <polygon points="264.3,234.0 245.4,242.6 235.1,251.6" fill="rgb(50,81,111)" stroke="#2a2a4a" stroke-width="0.5"/>
  <polygon points="269.1,219.0 248.9,232.0 245.4,242.6" fill="rgb(49,78,108)" stroke="#2a2a4a" stroke-width="0.5"/>
  <polygon points="263.5,204.1 244.9,221.5 248.9,232.0" fill="rgb(51,82,113)" stroke="#2a2a4a" stroke-width="0.5"/>
  <polygon points="248.2,191.6 234.1,212.6 244.9,221.5" fill="rgb(57,91,126)" stroke="#2a2a4a" stroke-width="0.5"/>
  <polygon points="234.1,212.6 248.2,191.6 225.5,183.3" fill="rgb(65,105,145)" stroke="#2a2a4a" stroke-width="0.5"/>
  <polygon points="218.0,206.7 225.5,183.3 199.0,180.5" fill="rgb(75,121,166)" stroke="#2a2a4a" stroke-width="0.5"/>
  <polygon points="199.3,204.8 199.0,180.5 172.6,183.7" fill="rgb(85,136,187)" stroke="#2a2a4a" stroke-width="0.5"/>
  <polygon points="180.6,207.0 172.6,183.7 150.4,192.4" fill="rgb(93,149,205)" stroke="#2a2a4a" stroke-width="0.5"/>
  <polygon points="164.9,213.2 150.4,192.4 135.7,205.2" fill="rgb(98,157,216)" stroke="#2a2a4a" stroke-width="0.5"/>
  <polygon points="154.6,222.2 135.7,205.2 130.9,220.1" fill="rgb(99,159,219)" stroke="#2a2a4a" stroke-width="0.5"/>
  <polygon points="151.1,232.8 130.9,220.1 136.5,235.0" fill="rgb(97,156,214)" stroke="#2a2a4a" stroke-width="0.5"/>
  <polygon points="155.1,243.3 136.5,235.0 151.8,247.6" fill="rgb(91,146,201)" stroke="#2a2a4a" stroke-width="0.5"/>
  <polygon points="165.9,252.2 151.8,247.6 174.5,255.9" fill="rgb(83,132,182)" stroke="#2a2a4a" stroke-width="0.5"/>
  <polygon points="182.0,258.1 174.5,255.9 201.0,258.6" fill="rgb(73,117,161)" stroke="#2a2a4a" stroke-width="0.5"/>
  <polygon points="200.7,260.0 201.0,258.6 227.4,255.4" fill="rgb(63,101,140)" stroke="#2a2a4a" stroke-width="0.5"/>
  <polygon points="219.4,257.7 227.4,255.4 249.6,246.8" fill="rgb(55,89,122)" stroke="#2a2a4a" stroke-width="0.5"/>
  <polygon points="235.1,251.6 249.6,246.8 264.3,234.0" fill="rgb(50,81,111)" stroke="#2a2a4a" stroke-width="0.5"/>
  <polygon points="245.4,242.6 264.3,234.0 269.1,219.0" fill="rgb(49,78,108)" stroke="#2a2a4a" stroke-width="0.5"/>
  <polygon points="248.9,232.0 269.1,219.0 263.5,204.1" fill="rgb(51,82,113)" stroke="#2a2a4a" stroke-width="0.5"/>
  <polygon points="244.9,221.5 263.5,204.1 248.2,191.6" fill="rgb(57,91,126)" stroke="#2a2a4a" stroke-width="0.5"/>
  <polygon points="231.3,158.4 225.5,183.3 248.2,191.6" fill="rgb(52,84,116)" stroke="#2a2a4a" stroke-width="0.5"/>
  <polygon points="198.8,155.0 199.0,180.5 225.5,183.3" fill="rgb(65,104,144)" stroke="#2a2a4a" stroke-width="0.5"/>
  <polygon points="166.5,158.9 172.6,183.7 199.0,180.5" fill="rgb(78,124,171)" stroke="#2a2a4a" stroke-width="0.5"/>
  <polygon points="139.2,169.5 150.4,192.4 172.6,183.7" fill="rgb(88,141,194)" stroke="#2a2a4a" stroke-width="0.5"/>
  <polygon points="121.3,185.2 135.7,205.2 150.4,192.4" fill="rgb(95,152,209)" stroke="#2a2a4a" stroke-width="0.5"/>
  <polygon points="115.3,203.6 130.9,220.1 135.7,205.2" fill="rgb(96,155,213)" stroke="#2a2a4a" stroke-width="0.5"/>
  <polygon points="122.2,221.8 136.5,235.0 130.9,220.1" fill="rgb(93,150,206)" stroke="#2a2a4a" stroke-width="0.5"/>
  <polygon points="141.0,237.2 151.8,247.6 136.5,235.0" fill="rgb(86,137,189)" stroke="#2a2a4a" stroke-width="0.5"/>
  <polygon points="168.7,247.3 174.5,255.9 151.8,247.6" fill="rgb(75,120,165)" stroke="#2a2a4a" stroke-width="0.5"/>
  <polygon points="201.2,250.7 201.0,258.6 174.5,255.9" fill="rgb(62,99,137)" stroke="#2a2a4a" stroke-width="0.5"/>
  <polygon points="233.5,246.8 227.4,255.4 201.0,258.6" fill="rgb(49,79,109)" stroke="#2a2a4a" stroke-width="0.5"/>
  <polygon points="260.8,236.2 249.6,246.8 227.4,255.4" fill="rgb(39,63,87)" stroke="#2a2a4a" stroke-width="0.5"/>
  <polygon points="278.7,220.5 264.3,234.0 249.6,246.8" fill="rgb(33,52,72)" stroke="#2a2a4a" stroke-width="0.5"/>
  <polygon points="284.7,202.2 269.1,219.0 264.3,234.0" fill="rgb(31,49,68)" stroke="#2a2a4a" stroke-width="0.5"/>
  <polygon points="277.8,183.9 263.5,204.1 269.1,219.0" fill="rgb(34,54,75)" stroke="#2a2a4a" stroke-width="0.5"/>
  <polygon points="259.0,168.6 248.2,191.6 263.5,204.1" fill="rgb(41,67,92)" stroke="#2a2a4a" stroke-width="0.5"/>
  <polygon points="248.2,191.6 259.0,168.6 231.3,158.4" fill="rgb(52,84,116)" stroke="#2a2a4a" stroke-width="0.5"/>
  <polygon points="225.5,183.3 231.3,158.4 198.8,155.0" fill="rgb(65,104,144)" stroke="#2a2a4a" stroke-width="0.5"/>
  <polygon points="199.0,180.5 198.8,155.0 166.5,158.9" fill="rgb(78,124,171)" stroke="#2a2a4a" stroke-width="0.5"/>
  <polygon points="172.6,183.7 166.5,158.9 139.2,169.5" fill="rgb(88,141,194)" stroke="#2a2a4a" stroke-width="0.5"/>
  <polygon points="150.4,192.4 139.2,169.5 121.3,185.2" fill="rgb(95,152,209)" stroke="#2a2a4a" stroke-width="0.5"/>
  <polygon points="135.7,205.2 121.3,185.2 115.3,203.6" fill="rgb(96,155,213)" stroke="#2a2a4a" stroke-width="0.5"/>
  <polygon points="130.9,220.1 115.3,203.6 122.2,221.8" fill="rgb(93,150,206)" stroke="#2a2a4a" stroke-width="0.5"/>
  <polygon points="136.5,235.0 122.2,221.8 141.0,237.2" fill="rgb(86,137,189)" stroke="#2a2a4a" stroke-width="0.5"/>
  <polygon points="151.8,247.6 141.0,237.2 168.7,247.3" fill="rgb(75,120,165)" stroke="#2a2a4a" stroke-width="0.5"/>
  <polygon points="174.5,255.9 168.7,247.3 201.2,250.7" fill="rgb(62,99,137)" stroke="#2a2a4a" stroke-width="0.5"/>
  <polygon points="201.0,258.6 201.2,250.7 233.5,246.8" fill="rgb(49,79,109)" stroke="#2a2a4a" stroke-width="0.5"/>
  <polygon points="227.4,255.4 233.5,246.8 260.8,236.2" fill="rgb(39,63,87)" stroke="#2a2a4a" stroke-width="0.5"/>
  <polygon points="249.6,246.8 260.8,236.2 278.7,220.5" fill="rgb(33,52,72)" stroke="#2a2a4a" stroke-width="0.5"/>
  <polygon points="264.3,234.0 278.7,220.5 284.7,202.2" fill="rgb(31,49,68)" stroke="#2a2a4a" stroke-width="0.5"/>
  <polygon points="269.1,219.0 284.7,202.2 277.8,183.9" fill="rgb(34,54,75)" stroke="#2a2a4a" stroke-width="0.5"/>
  <polygon points="263.5,204.1 277.8,183.9 259.0,168.6" fill="rgb(41,67,92)" stroke="#2a2a4a" stroke-width="0.5"/>
  <polygon points="234.9,133.8 231.3,158.4 259.0,168.6" fill="rgb(38,61,84)" stroke="#2a2a4a" stroke-width="0.5"/>
  <polygon points="198.6,130.1 198.8,155.0 231.3,158.4" fill="rgb(53,85,116)" stroke="#2a2a4a" stroke-width="0.5"/>
  <polygon points="162.6,134.4 166.5,158.9 198.8,155.0" fill="rgb(67,108,148)" stroke="#2a2a4a" stroke-width="0.5"/>
  <polygon points="132.2,146.2 139.2,169.5 166.5,158.9" fill="rgb(79,127,175)" stroke="#2a2a4a" stroke-width="0.5"/>
  <polygon points="112.2,163.7 121.3,185.2 139.2,169.5" fill="rgb(87,139,191)" stroke="#2a2a4a" stroke-width="0.5"/>
  <polygon points="105.6,184.2 115.3,203.6 121.3,185.2" fill="rgb(89,143,196)" stroke="#2a2a4a" stroke-width="0.5"/>
  <polygon points="113.3,204.5 122.2,221.8 115.3,203.6" fill="rgb(85,137,188)" stroke="#2a2a4a" stroke-width="0.5"/>
  <polygon points="134.2,221.6 141.0,237.2 122.2,221.8" fill="rgb(76,123,169)" stroke="#2a2a4a" stroke-width="0.5"/>
  <polygon points="165.1,233.0 168.7,247.3 141.0,237.2" fill="rgb(64,102,141)" stroke="#2a2a4a" stroke-width="0.5"/>
  <polygon points="201.4,236.7 201.2,250.7 168.7,247.3" fill="rgb(49,79,108)" stroke="#2a2a4a" stroke-width="0.5"/>
  <polygon points="237.4,232.4 233.5,246.8 201.2,250.7" fill="rgb(34,55,76)" stroke="#2a2a4a" stroke-width="0.5"/>
  <polygon points="267.8,220.5 260.8,236.2 233.5,246.8" fill="rgb(37,59,81)" stroke="#2a2a4a" stroke-width="0.5"/>
  <polygon points="287.8,203.1 278.7,220.5 260.8,236.2" fill="rgb(44,71,98)" stroke="#2a2a4a" stroke-width="0.5"/>
  <polygon points="294.4,182.6 284.7,202.2 278.7,220.5" fill="rgb(46,74,103)" stroke="#2a2a4a" stroke-width="0.5"/>
  <polygon points="286.7,162.3 277.8,183.9 284.7,202.2" fill="rgb(43,69,95)" stroke="#2a2a4a" stroke-width="0.5"/>
  <polygon points="265.8,145.1 259.0,168.6 277.8,183.9" fill="rgb(34,54,75)" stroke="#2a2a4a" stroke-width="0.5"/>
  <polygon points="259.0,168.6 265.8,145.1 234.9,133.8" fill="rgb(38,61,84)" stroke="#2a2a4a" stroke-width="0.5"/>
  <polygon points="231.3,158.4 234.9,133.8 198.6,130.1" fill="rgb(53,85,116)" stroke="#2a2a4a" stroke-width="0.5"/>
  <polygon points="198.8,155.0 198.6,130.1 162.6,134.4" fill="rgb(67,108,148)" stroke="#2a2a4a" stroke-width="0.5"/>
  <polygon points="166.5,158.9 162.6,134.4 132.2,146.2" fill="rgb(79,127,175)" stroke="#2a2a4a" stroke-width="0.5"/>
  <polygon points="139.2,169.5 132.2,146.2 112.2,163.7" fill="rgb(87,139,191)" stroke="#2a2a4a" stroke-width="0.5"/>
  <polygon points="121.3,185.2 112.2,163.7 105.6,184.2" fill="rgb(89,143,196)" stroke="#2a2a4a" stroke-width="0.5"/>
  <polygon points="115.3,203.6 105.6,184.2 113.3,204.5" fill="rgb(85,137,188)" stroke="#2a2a4a" stroke-width="0.5"/>
  <polygon points="122.2,221.8 113.3,204.5 134.2,221.6" fill="rgb(76,123,169)" stroke="#2a2a4a" stroke-width="0.5"/>
  <polygon points="141.0,237.2 134.2,221.6 165.1,233.0" fill="rgb(64,102,141)" stroke="#2a2a4a" stroke-width="0.5"/>
  <polygon points="168.7,247.3 165.1,233.0 201.4,236.7" fill="rgb(49,79,108)" stroke="#2a2a4a" stroke-width="0.5"/>
  <polygon points="201.2,250.7 201.4,236.7 237.4,232.4" fill="rgb(34,55,76)" stroke="#2a2a4a" stroke-width="0.5"/>
  <polygon points="233.5,246.8 237.4,232.4 267.8,220.5" fill="rgb(37,59,81)" stroke="#2a2a4a" stroke-width="0.5"/>
  <polygon points="260.8,236.2 267.8,220.5 287.8,203.1" fill="rgb(44,71,98)" stroke="#2a2a4a" stroke-width="0.5"/>
  <polygon points="278.7,220.5 287.8,203.1 294.4,182.6" fill="rgb(46,74,103)" stroke="#2a2a4a" stroke-width="0.5"/>
  <polygon points="284.7,202.2 294.4,182.6 286.7,162.3" fill="rgb(43,69,95)" stroke="#2a2a4a" stroke-width="0.5"/>
  <polygon points="277.8,183.9 286.7,162.3 265.8,145.1" fill="rgb(34,54,75)" stroke="#2a2a4a" stroke-width="0.5"/>
  <polygon points="236.1,111.2 234.9,133.8 265.8,145.1" fill="rgb(36,58,80)" stroke="#2a2a4a" stroke-width="0.5"/>
  <polygon points="198.6,107.3 198.6,130.1 234.9,133.8" fill="rgb(39,62,86)" stroke="#2a2a4a" stroke-width="0.5"/>
  <polygon points="161.3,111.8 162.6,134.4 198.6,130.1" fill="rgb(54,87,120)" stroke="#2a2a4a" stroke-width="0.5"/>
  <polygon points="129.9,124.0 132.2,146.2 162.6,134.4" fill="rgb(67,108,148)" stroke="#2a2a4a" stroke-width="0.5"/>
  <polygon points="109.1,142.1 112.2,163.7 132.2,146.2" fill="rgb(75,121,166)" stroke="#2a2a4a" stroke-width="0.5"/>
  <polygon points="102.2,163.3 105.6,184.2 112.2,163.7" fill="rgb(78,124,171)" stroke="#2a2a4a" stroke-width="0.5"/>
  <polygon points="110.2,184.4 113.3,204.5 105.6,184.2" fill="rgb(74,118,163)" stroke="#2a2a4a" stroke-width="0.5"/>
  <polygon points="131.9,202.1 134.2,221.6 113.3,204.5" fill="rgb(64,103,142)" stroke="#2a2a4a" stroke-width="0.5"/>
  <polygon points="163.9,213.8 165.1,233.0 134.2,221.6" fill="rgb(51,81,112)" stroke="#2a2a4a" stroke-width="0.5"/>
  <polygon points="201.4,217.7 201.4,236.7 165.1,233.0" fill="rgb(35,56,77)" stroke="#2a2a4a" stroke-width="0.5"/>
  <polygon points="238.7,213.2 237.4,232.4 201.4,236.7" fill="rgb(40,64,88)" stroke="#2a2a4a" stroke-width="0.5"/>
  <polygon points="270.1,201.0 267.8,220.5 237.4,232.4" fill="rgb(53,84,116)" stroke="#2a2a4a" stroke-width="0.5"/>
  <polygon points="290.9,182.9 287.8,203.1 267.8,220.5" fill="rgb(61,98,134)" stroke="#2a2a4a" stroke-width="0.5"/>
  <polygon points="297.8,161.7 294.4,182.6 287.8,203.1" fill="rgb(63,101,139)" stroke="#2a2a4a" stroke-width="0.5"/>
  <polygon points="289.8,140.6 286.7,162.3 294.4,182.6" fill="rgb(59,95,131)" stroke="#2a2a4a" stroke-width="0.5"/>
  <polygon points="268.1,122.9 265.8,145.1 286.7,162.3" fill="rgb(50,80,110)" stroke="#2a2a4a" stroke-width="0.5"/>
  <polygon points="265.8,145.1 268.1,122.9 236.1,111.2" fill="rgb(36,58,80)" stroke="#2a2a4a" stroke-width="0.5"/>
  <polygon points="234.9,133.8 236.1,111.2 198.6,107.3" fill="rgb(39,62,86)" stroke="#2a2a4a" stroke-width="0.5"/>
  <polygon points="198.6,130.1 198.6,107.3 161.3,111.8" fill="rgb(54,87,120)" stroke="#2a2a4a" stroke-width="0.5"/>
  <polygon points="162.6,134.4 161.3,111.8 129.9,124.0" fill="rgb(67,108,148)" stroke="#2a2a4a" stroke-width="0.5"/>
  <polygon points="132.2,146.2 129.9,124.0 109.1,142.1" fill="rgb(75,121,166)" stroke="#2a2a4a" stroke-width="0.5"/>
  <polygon points="112.2,163.7 109.1,142.1 102.2,163.3" fill="rgb(78,124,171)" stroke="#2a2a4a" stroke-width="0.5"/>
  <polygon points="105.6,184.2 102.2,163.3 110.2,184.4" fill="rgb(74,118,163)" stroke="#2a2a4a" stroke-width="0.5"/>
  <polygon points="113.3,204.5 110.2,184.4 131.9,202.1" fill="rgb(64,103,142)" stroke="#2a2a4a" stroke-width="0.5"/>
  <polygon points="134.2,221.6 131.9,202.1 163.9,213.8" fill="rgb(51,81,112)" stroke="#2a2a4a" stroke-width="0.5"/>
  <polygon points="165.1,233.0 163.9,213.8 201.4,217.7" fill="rgb(35,56,77)" stroke="#2a2a4a" stroke-width="0.5"/>
  <polygon points="201.4,236.7 201.4,217.7 238.7,213.2" fill="rgb(40,64,88)" stroke="#2a2a4a" stroke-width="0.5"/>
  <polygon points="237.4,232.4 238.7,213.2 270.1,201.0" fill="rgb(53,84,116)" stroke="#2a2a4a" stroke-width="0.5"/>
  <polygon points="267.8,220.5 270.1,201.0 290.9,182.9" fill="rgb(61,98,134)" stroke="#2a2a4a" stroke-width="0.5"/>
  <polygon points="287.8,203.1 290.9,182.9 297.8,161.7" fill="rgb(63,101,139)" stroke="#2a2a4a" stroke-width="0.5"/>
  <polygon points="294.4,182.6 297.8,161.7 289.8,140.6" fill="rgb(59,95,131)" stroke="#2a2a4a" stroke-width="0.5"/>
  <polygon points="286.7,162.3 289.8,140.6 268.1,122.9" fill="rgb(50,80,110)" stroke="#2a2a4a" stroke-width="0.5"/>
  <polygon points="234.9,92.0 236.1,111.2 268.1,122.9" fill="rgb(51,81,112)" stroke="#2a2a4a" stroke-width="0.5"/>
  <polygon points="198.6,88.3 198.6,107.3 236.1,111.2" fill="rgb(35,56,77)" stroke="#2a2a4a" stroke-width="0.5"/>
  <polygon points="162.6,92.6 161.3,111.8 198.6,107.3" fill="rgb(40,64,88)" stroke="#2a2a4a" stroke-width="0.5"/>
  <polygon points="132.2,104.5 129.9,124.0 161.3,111.8" fill="rgb(53,84,116)" stroke="#2a2a4a" stroke-width="0.5"/>
  <polygon points="112.2,121.9 109.1,142.1 129.9,124.0" fill="rgb(61,98,134)" stroke="#2a2a4a" stroke-width="0.5"/>
  <polygon points="105.6,142.4 102.2,163.3 109.1,142.1" fill="rgb(63,101,139)" stroke="#2a2a4a" stroke-width="0.5"/>
  <polygon points="113.3,162.7 110.2,184.4 102.2,163.3" fill="rgb(59,95,131)" stroke="#2a2a4a" stroke-width="0.5"/>
  <polygon points="134.2,179.9 131.9,202.1 110.2,184.4" fill="rgb(50,80,110)" stroke="#2a2a4a" stroke-width="0.5"/>
  <polygon points="165.1,191.2 163.9,213.8 131.9,202.1" fill="rgb(36,58,80)" stroke="#2a2a4a" stroke-width="0.5"/>
  <polygon points="201.4,194.9 201.4,217.7 163.9,213.8" fill="rgb(39,62,86)" stroke="#2a2a4a" stroke-width="0.5"/>
  <polygon points="237.4,190.6 238.7,213.2 201.4,217.7" fill="rgb(54,87,120)" stroke="#2a2a4a" stroke-width="0.5"/>
  <polygon points="267.8,178.8 270.1,201.0 238.7,213.2" fill="rgb(67,108,148)" stroke="#2a2a4a" stroke-width="0.5"/>
  <polygon points="287.8,161.3 290.9,182.9 270.1,201.0" fill="rgb(75,121,166)" stroke="#2a2a4a" stroke-width="0.5"/>
  <polygon points="294.4,140.8 297.8,161.7 290.9,182.9" fill="rgb(78,124,171)" stroke="#2a2a4a" stroke-width="0.5"/>
  <polygon points="286.7,120.5 289.8,140.6 297.8,161.7" fill="rgb(74,118,163)" stroke="#2a2a4a" stroke-width="0.5"/>
  <polygon points="265.8,103.4 268.1,122.9 289.8,140.6" fill="rgb(64,103,142)" stroke="#2a2a4a" stroke-width="0.5"/>
  <polygon points="268.1,122.9 265.8,103.4 234.9,92.0" fill="rgb(51,81,112)" stroke="#2a2a4a" stroke-width="0.5"/>
  <polygon points="236.1,111.2 234.9,92.0 198.6,88.3" fill="rgb(35,56,77)" stroke="#2a2a4a" stroke-width="0.5"/>
  <polygon points="198.6,107.3 198.6,88.3 162.6,92.6" fill="rgb(40,64,88)" stroke="#2a2a4a" stroke-width="0.5"/>
  <polygon points="161.3,111.8 162.6,92.6 132.2,104.5" fill="rgb(53,84,116)" stroke="#2a2a4a" stroke-width="0.5"/>
  <polygon points="129.9,124.0 132.2,104.5 112.2,121.9" fill="rgb(61,98,134)" stroke="#2a2a4a" stroke-width="0.5"/>
  <polygon points="109.1,142.1 112.2,121.9 105.6,142.4" fill="rgb(63,101,139)" stroke="#2a2a4a" stroke-width="0.5"/>
  <polygon points="102.2,163.3 105.6,142.4 113.3,162.7" fill="rgb(59,95,131)" stroke="#2a2a4a" stroke-width="0.5"/>
  <polygon points="110.2,184.4 113.3,162.7 134.2,179.9" fill="rgb(50,80,110)" stroke="#2a2a4a" stroke-width="0.5"/>
  <polygon points="131.9,202.1 134.2,179.9 165.1,191.2" fill="rgb(36,58,80)" stroke="#2a2a4a" stroke-width="0.5"/>
  <polygon points="163.9,213.8 165.1,191.2 201.4,194.9" fill="rgb(39,62,86)" stroke="#2a2a4a" stroke-width="0.5"/>
  <polygon points="201.4,217.7 201.4,194.9 237.4,190.6" fill="rgb(54,87,120)" stroke="#2a2a4a" stroke-width="0.5"/>
  <polygon points="238.7,213.2 237.4,190.6 267.8,178.8" fill="rgb(67,108,148)" stroke="#2a2a4a" stroke-width="0.5"/>
  <polygon points="270.1,201.0 267.8,178.8 287.8,161.3" fill="rgb(75,121,166)" stroke="#2a2a4a" stroke-width="0.5"/>
  <polygon points="290.9,182.9 287.8,161.3 294.4,140.8" fill="rgb(78,124,171)" stroke="#2a2a4a" stroke-width="0.5"/>
  <polygon points="297.8,161.7 294.4,140.8 286.7,120.5" fill="rgb(74,118,163)" stroke="#2a2a4a" stroke-width="0.5"/>
  <polygon points="289.8,140.6 286.7,120.5 265.8,103.4" fill="rgb(64,103,142)" stroke="#2a2a4a" stroke-width="0.5"/>
  <polygon points="231.3,77.7 234.9,92.0 265.8,103.4" fill="rgb(64,102,141)" stroke="#2a2a4a" stroke-width="0.5"/>
  <polygon points="198.8,74.3 198.6,88.3 234.9,92.0" fill="rgb(49,79,108)" stroke="#2a2a4a" stroke-width="0.5"/>
  <polygon points="166.5,78.2 162.6,92.6 198.6,88.3" fill="rgb(34,55,76)" stroke="#2a2a4a" stroke-width="0.5"/>
  <polygon points="139.2,88.8 132.2,104.5 162.6,92.6" fill="rgb(37,59,81)" stroke="#2a2a4a" stroke-width="0.5"/>
  <polygon points="121.3,104.5 112.2,121.9 132.2,104.5" fill="rgb(44,71,98)" stroke="#2a2a4a" stroke-width="0.5"/>
  <polygon points="115.3,122.8 105.6,142.4 112.2,121.9" fill="rgb(46,74,103)" stroke="#2a2a4a" stroke-width="0.5"/>
  <polygon points="122.2,141.1 113.3,162.7 105.6,142.4" fill="rgb(43,69,95)" stroke="#2a2a4a" stroke-width="0.5"/>
  <polygon points="141.0,156.4 134.2,179.9 113.3,162.7" fill="rgb(34,54,75)" stroke="#2a2a4a" stroke-width="0.5"/>
  <polygon points="168.7,166.6 165.1,191.2 134.2,179.9" fill="rgb(38,61,84)" stroke="#2a2a4a" stroke-width="0.5"/>
  <polygon points="201.2,170.0 201.4,194.9 165.1,191.2" fill="rgb(53,85,116)" stroke="#2a2a4a" stroke-width="0.5"/>
  <polygon points="233.5,166.1 237.4,190.6 201.4,194.9" fill="rgb(67,108,148)" stroke="#2a2a4a" stroke-width="0.5"/>
  <polygon points="260.8,155.5 267.8,178.8 237.4,190.6" fill="rgb(79,127,175)" stroke="#2a2a4a" stroke-width="0.5"/>
  <polygon points="278.7,139.8 287.8,161.3 267.8,178.8" fill="rgb(87,139,191)" stroke="#2a2a4a" stroke-width="0.5"/>
  <polygon points="284.7,121.4 294.4,140.8 287.8,161.3" fill="rgb(89,143,196)" stroke="#2a2a4a" stroke-width="0.5"/>
  <polygon points="277.8,103.2 286.7,120.5 294.4,140.8" fill="rgb(85,137,188)" stroke="#2a2a4a" stroke-width="0.5"/>
  <polygon points="259.0,87.8 265.8,103.4 286.7,120.5" fill="rgb(76,123,169)" stroke="#2a2a4a" stroke-width="0.5"/>
  <polygon points="265.8,103.4 259.0,87.8 231.3,77.7" fill="rgb(64,102,141)" stroke="#2a2a4a" stroke-width="0.5"/>
  <polygon points="234.9,92.0 231.3,77.7 198.8,74.3" fill="rgb(49,79,108)" stroke="#2a2a4a" stroke-width="0.5"/>
  <polygon points="198.6,88.3 198.8,74.3 166.5,78.2" fill="rgb(34,55,76)" stroke="#2a2a4a" stroke-width="0.5"/>
  <polygon points="162.6,92.6 166.5,78.2 139.2,88.8" fill="rgb(37,59,81)" stroke="#2a2a4a" stroke-width="0.5"/>
  <polygon points="132.2,104.5 139.2,88.8 121.3,104.5" fill="rgb(44,71,98)" stroke="#2a2a4a" stroke-width="0.5"/>
  <polygon points="112.2,121.9 121.3,104.5 115.3,122.8" fill="rgb(46,74,103)" stroke="#2a2a4a" stroke-width="0.5"/>
  <polygon points="105.6,142.4 115.3,122.8 122.2,141.1" fill="rgb(43,69,95)" stroke="#2a2a4a" stroke-width="0.5"/>
  <polygon points="113.3,162.7 122.2,141.1 141.0,156.4" fill="rgb(34,54,75)" stroke="#2a2a4a" stroke-width="0.5"/>
  <polygon points="134.2,179.9 141.0,156.4 168.7,166.6" fill="rgb(38,61,84)" stroke="#2a2a4a" stroke-width="0.5"/>
  <polygon points="165.1,191.2 168.7,166.6 201.2,170.0" fill="rgb(53,85,116)" stroke="#2a2a4a" stroke-width="0.5"/>
  <polygon points="201.4,194.9 201.2,170.0 233.5,166.1" fill="rgb(67,108,148)" stroke="#2a2a4a" stroke-width="0.5"/>
  <polygon points="237.4,190.6 233.5,166.1 260.8,155.5" fill="rgb(79,127,175)" stroke="#2a2a4a" stroke-width="0.5"/>
  <polygon points="267.8,178.8 260.8,155.5 278.7,139.8" fill="rgb(87,139,191)" stroke="#2a2a4a" stroke-width="0.5"/>
  <polygon points="287.8,161.3 278.7,139.8 284.7,121.4" fill="rgb(89,143,196)" stroke="#2a2a4a" stroke-width="0.5"/>
  <polygon points="294.4,140.8 284.7,121.4 277.8,103.2" fill="rgb(85,137,188)" stroke="#2a2a4a" stroke-width="0.5"/>
  <polygon points="286.7,120.5 277.8,103.2 259.0,87.8" fill="rgb(76,123,169)" stroke="#2a2a4a" stroke-width="0.5"/>
  <polygon points="225.5,69.1 231.3,77.7 259.0,87.8" fill="rgb(75,120,165)" stroke="#2a2a4a" stroke-width="0.5"/>
  <polygon points="199.0,66.4 198.8,74.3 231.3,77.7" fill="rgb(62,99,137)" stroke="#2a2a4a" stroke-width="0.5"/>
  <polygon points="172.6,69.6 166.5,78.2 198.8,74.3" fill="rgb(49,79,109)" stroke="#2a2a4a" stroke-width="0.5"/>
  <polygon points="150.4,78.2 139.2,88.8 166.5,78.2" fill="rgb(39,63,87)" stroke="#2a2a4a" stroke-width="0.5"/>
  <polygon points="135.7,91.0 121.3,104.5 139.2,88.8" fill="rgb(33,52,72)" stroke="#2a2a4a" stroke-width="0.5"/>
  <polygon points="130.9,106.0 115.3,122.8 121.3,104.5" fill="rgb(31,49,68)" stroke="#2a2a4a" stroke-width="0.5"/>
  <polygon points="136.5,120.9 122.2,141.1 115.3,122.8" fill="rgb(34,54,75)" stroke="#2a2a4a" stroke-width="0.5"/>
  <polygon points="151.8,133.4 141.0,156.4 122.2,141.1" fill="rgb(41,67,92)" stroke="#2a2a4a" stroke-width="0.5"/>
  <polygon points="174.5,141.7 168.7,166.6 141.0,156.4" fill="rgb(52,84,116)" stroke="#2a2a4a" stroke-width="0.5"/>
  <polygon points="201.0,144.5 201.2,170.0 168.7,166.6" fill="rgb(65,104,144)" stroke="#2a2a4a" stroke-width="0.5"/>
  <polygon points="227.4,141.3 233.5,166.1 201.2,170.0" fill="rgb(78,124,171)" stroke="#2a2a4a" stroke-width="0.5"/>
  <polygon points="249.6,132.6 260.8,155.5 233.5,166.1" fill="rgb(88,141,194)" stroke="#2a2a4a" stroke-width="0.5"/>
  <polygon points="264.3,119.8 278.7,139.8 260.8,155.5" fill="rgb(95,152,209)" stroke="#2a2a4a" stroke-width="0.5"/>
  <polygon points="269.1,104.9 284.7,121.4 278.7,139.8" fill="rgb(96,155,213)" stroke="#2a2a4a" stroke-width="0.5"/>
  <polygon points="263.5,90.0 277.8,103.2 284.7,121.4" fill="rgb(93,150,206)" stroke="#2a2a4a" stroke-width="0.5"/>
  <polygon points="248.2,77.4 259.0,87.8 277.8,103.2" fill="rgb(86,137,189)" stroke="#2a2a4a" stroke-width="0.5"/>
  <polygon points="259.0,87.8 248.2,77.4 225.5,69.1" fill="rgb(75,120,165)" stroke="#2a2a4a" stroke-width="0.5"/>
  <polygon points="231.3,77.7 225.5,69.1 199.0,66.4" fill="rgb(62,99,137)" stroke="#2a2a4a" stroke-width="0.5"/>
  <polygon points="198.8,74.3 199.0,66.4 172.6,69.6" fill="rgb(49,79,109)" stroke="#2a2a4a" stroke-width="0.5"/>
  <polygon points="166.5,78.2 172.6,69.6 150.4,78.2" fill="rgb(39,63,87)" stroke="#2a2a4a" stroke-width="0.5"/>
  <polygon points="139.2,88.8 150.4,78.2 135.7,91.0" fill="rgb(33,52,72)" stroke="#2a2a4a" stroke-width="0.5"/>
  <polygon points="121.3,104.5 135.7,91.0 130.9,106.0" fill="rgb(31,49,68)" stroke="#2a2a4a" stroke-width="0.5"/>
  <polygon points="115.3,122.8 130.9,106.0 136.5,120.9" fill="rgb(34,54,75)" stroke="#2a2a4a" stroke-width="0.5"/>
  <polygon points="122.2,141.1 136.5,120.9 151.8,133.4" fill="rgb(41,67,92)" stroke="#2a2a4a" stroke-width="0.5"/>
  <polygon points="141.0,156.4 151.8,133.4 174.5,141.7" fill="rgb(52,84,116)" stroke="#2a2a4a" stroke-width="0.5"/>
  <polygon points="168.7,166.6 174.5,141.7 201.0,144.5" fill="rgb(65,104,144)" stroke="#2a2a4a" stroke-width="0.5"/>
  <polygon points="201.2,170.0 201.0,144.5 227.4,141.3" fill="rgb(78,124,171)" stroke="#2a2a4a" stroke-width="0.5"/>
  <polygon points="233.5,166.1 227.4,141.3 249.6,132.6" fill="rgb(88,141,194)" stroke="#2a2a4a" stroke-width="0.5"/>
  <polygon points="260.8,155.5 249.6,132.6 264.3,119.8" fill="rgb(95,152,209)" stroke="#2a2a4a" stroke-width="0.5"/>
  <polygon points="278.7,139.8 264.3,119.8 269.1,104.9" fill="rgb(96,155,213)" stroke="#2a2a4a" stroke-width="0.5"/>
  <polygon points="284.7,121.4 269.1,104.9 263.5,90.0" fill="rgb(93,150,206)" stroke="#2a2a4a" stroke-width="0.5"/>
  <polygon points="277.8,103.2 263.5,90.0 248.2,77.4" fill="rgb(86,137,189)" stroke="#2a2a4a" stroke-width="0.5"/>
  <polygon points="218.0,66.9 225.5,69.1 248.2,77.4" fill="rgb(83,132,182)" stroke="#2a2a4a" stroke-width="0.5"/>
  <polygon points="199.3,65.0 199.0,66.4 225.5,69.1" fill="rgb(73,117,161)" stroke="#2a2a4a" stroke-width="0.5"/>
  <polygon points="180.6,67.3 172.6,69.6 199.0,66.4" fill="rgb(63,101,140)" stroke="#2a2a4a" stroke-width="0.5"/>
  <polygon points="164.9,73.4 150.4,78.2 172.6,69.6" fill="rgb(55,89,122)" stroke="#2a2a4a" stroke-width="0.5"/>
  <polygon points="154.6,82.4 135.7,91.0 150.4,78.2" fill="rgb(50,81,111)" stroke="#2a2a4a" stroke-width="0.5"/>
  <polygon points="151.1,93.0 130.9,106.0 135.7,91.0" fill="rgb(49,78,108)" stroke="#2a2a4a" stroke-width="0.5"/>
  <polygon points="155.1,103.5 136.5,120.9 130.9,106.0" fill="rgb(51,82,113)" stroke="#2a2a4a" stroke-width="0.5"/>
  <polygon points="165.9,112.4 151.8,133.4 136.5,120.9" fill="rgb(57,91,126)" stroke="#2a2a4a" stroke-width="0.5"/>
  <polygon points="182.0,118.3 174.5,141.7 151.8,133.4" fill="rgb(65,105,145)" stroke="#2a2a4a" stroke-width="0.5"/>
  <polygon points="200.7,120.2 201.0,144.5 174.5,141.7" fill="rgb(75,121,166)" stroke="#2a2a4a" stroke-width="0.5"/>
  <polygon points="219.4,118.0 227.4,141.3 201.0,144.5" fill="rgb(85,136,187)" stroke="#2a2a4a" stroke-width="0.5"/>
  <polygon points="235.1,111.8 249.6,132.6 227.4,141.3" fill="rgb(93,149,205)" stroke="#2a2a4a" stroke-width="0.5"/>
  <polygon points="245.4,102.8 264.3,119.8 249.6,132.6" fill="rgb(98,157,216)" stroke="#2a2a4a" stroke-width="0.5"/>
  <polygon points="248.9,92.2 269.1,104.9 264.3,119.8" fill="rgb(99,159,219)" stroke="#2a2a4a" stroke-width="0.5"/>
  <polygon points="244.9,81.7 263.5,90.0 269.1,104.9" fill="rgb(97,156,214)" stroke="#2a2a4a" stroke-width="0.5"/>
  <polygon points="234.1,72.8 248.2,77.4 263.5,90.0" fill="rgb(91,146,201)" stroke="#2a2a4a" stroke-width="0.5"/>
  <polygon points="248.2,77.4 234.1,72.8 218.0,66.9" fill="rgb(83,132,182)" stroke="#2a2a4a" stroke-width="0.5"/>
  <polygon points="225.5,69.1 218.0,66.9 199.3,65.0" fill="rgb(73,117,161)" stroke="#2a2a4a" stroke-width="0.5"/>
  <polygon points="199.0,66.4 199.3,65.0 180.6,67.3" fill="rgb(63,101,140)" stroke="#2a2a4a" stroke-width="0.5"/>
  <polygon points="172.6,69.6 180.6,67.3 164.9,73.4" fill="rgb(55,89,122)" stroke="#2a2a4a" stroke-width="0.5"/>
  <polygon points="150.4,78.2 164.9,73.4 154.6,82.4" fill="rgb(50,81,111)" stroke="#2a2a4a" stroke-width="0.5"/>
  <polygon points="135.7,91.0 154.6,82.4 151.1,93.0" fill="rgb(49,78,108)" stroke="#2a2a4a" stroke-width="0.5"/>
  <polygon points="130.9,106.0 151.1,93.0 155.1,103.5" fill="rgb(51,82,113)" stroke="#2a2a4a" stroke-width="0.5"/>
  <polygon points="136.5,120.9 155.1,103.5 165.9,112.4" fill="rgb(57,91,126)" stroke="#2a2a4a" stroke-width="0.5"/>
  <polygon points="151.8,133.4 165.9,112.4 182.0,118.3" fill="rgb(65,105,145)" stroke="#2a2a4a" stroke-width="0.5"/>
  <polygon points="174.5,141.7 182.0,118.3 200.7,120.2" fill="rgb(75,121,166)" stroke="#2a2a4a" stroke-width="0.5"/>
  <polygon points="201.0,144.5 200.7,120.2 219.4,118.0" fill="rgb(85,136,187)" stroke="#2a2a4a" stroke-width="0.5"/>
  <polygon points="227.4,141.3 219.4,118.0 235.1,111.8" fill="rgb(93,149,205)" stroke="#2a2a4a" stroke-width="0.5"/>
  <polygon points="249.6,132.6 235.1,111.8 245.4,102.8" fill="rgb(98,157,216)" stroke="#2a2a4a" stroke-width="0.5"/>
  <polygon points="264.3,119.8 245.4,102.8 248.9,92.2" fill="rgb(99,159,219)" stroke="#2a2a4a" stroke-width="0.5"/>
  <polygon points="269.1,104.9 248.9,92.2 244.9,81.7" fill="rgb(97,156,214)" stroke="#2a2a4a" stroke-width="0.5"/>
  <polygon points="263.5,90.0 244.9,81.7 234.1,72.8" fill="rgb(91,146,201)" stroke="#2a2a4a" stroke-width="0.5"/>
  <polygon points="209.3,71.3 218.0,66.9 234.1,72.8" fill="rgb(87,140,192)" stroke="#2a2a4a" stroke-width="0.5"/>
  <polygon points="199.6,70.3 199.3,65.0 218.0,66.9" fill="rgb(81,130,178)" stroke="#2a2a4a" stroke-width="0.5"/>
  <polygon points="190.0,71.4 180.6,67.3 199.3,65.0" fill="rgb(75,120,165)" stroke="#2a2a4a" stroke-width="0.5"/>
  <polygon points="181.8,74.6 164.9,73.4 180.6,67.3" fill="rgb(70,112,154)" stroke="#2a2a4a" stroke-width="0.5"/>
  <polygon points="176.5,79.3 154.6,82.4 164.9,73.4" fill="rgb(67,107,147)" stroke="#2a2a4a" stroke-width="0.5"/>
  <polygon points="174.7,84.8 151.1,93.0 154.6,82.4" fill="rgb(66,105,145)" stroke="#2a2a4a" stroke-width="0.5"/>
  <polygon points="176.8,90.2 155.1,103.5 151.1,93.0" fill="rgb(67,108,148)" stroke="#2a2a4a" stroke-width="0.5"/>
  <polygon points="182.4,94.8 165.9,112.4 155.1,103.5" fill="rgb(71,114,156)" stroke="#2a2a4a" stroke-width="0.5"/>
  <polygon points="190.7,97.8 182.0,118.3 165.9,112.4" fill="rgb(76,122,168)" stroke="#2a2a4a" stroke-width="0.5"/>
  <polygon points="200.4,98.8 200.7,120.2 182.0,118.3" fill="rgb(82,132,182)" stroke="#2a2a4a" stroke-width="0.5"/>
  <polygon points="210.0,97.7 219.4,118.0 200.7,120.2" fill="rgb(88,142,195)" stroke="#2a2a4a" stroke-width="0.5"/>
  <polygon points="218.2,94.5 235.1,111.8 219.4,118.0" fill="rgb(93,150,206)" stroke="#2a2a4a" stroke-width="0.5"/>
  <polygon points="223.5,89.8 245.4,102.8 235.1,111.8" fill="rgb(97,155,213)" stroke="#2a2a4a" stroke-width="0.5"/>
  <polygon points="225.3,84.3 248.9,92.2 245.4,102.8" fill="rgb(98,157,215)" stroke="#2a2a4a" stroke-width="0.5"/>
  <polygon points="223.2,78.9 244.9,81.7 248.9,92.2" fill="rgb(96,154,212)" stroke="#2a2a4a" stroke-width="0.5"/>
  <polygon points="217.6,74.3 234.1,72.8 244.9,81.7" fill="rgb(92,148,204)" stroke="#2a2a4a" stroke-width="0.5"/>
  <polygon points="234.1,72.8 217.6,74.3 209.3,71.3" fill="rgb(87,140,192)" stroke="#2a2a4a" stroke-width="0.5"/>
  <polygon points="218.0,66.9 209.3,71.3 199.6,70.3" fill="rgb(81,130,178)" stroke="#2a2a4a" stroke-width="0.5"/>
  <polygon points="199.3,65.0 199.6,70.3 190.0,71.4" fill="rgb(75,120,165)" stroke="#2a2a4a" stroke-width="0.5"/>
  <polygon points="180.6,67.3 190.0,71.4 181.8,74.6" fill="rgb(70,112,154)" stroke="#2a2a4a" stroke-width="0.5"/>
  <polygon points="164.9,73.4 181.8,74.6 176.5,79.3" fill="rgb(67,107,147)" stroke="#2a2a4a" stroke-width="0.5"/>
  <polygon points="154.6,82.4 176.5,79.3 174.7,84.8" fill="rgb(66,105,145)" stroke="#2a2a4a" stroke-width="0.5"/>
  <polygon points="151.1,93.0 174.7,84.8 176.8,90.2" fill="rgb(67,108,148)" stroke="#2a2a4a" stroke-width="0.5"/>
  <polygon points="155.1,103.5 176.8,90.2 182.4,94.8" fill="rgb(71,114,156)" stroke="#2a2a4a" stroke-width="0.5"/>
  <polygon points="165.9,112.4 182.4,94.8 190.7,97.8" fill="rgb(76,122,168)" stroke="#2a2a4a" stroke-width="0.5"/>
  <polygon points="182.0,118.3 190.7,97.8 200.4,98.8" fill="rgb(82,132,182)" stroke="#2a2a4a" stroke-width="0.5"/>
  <polygon points="200.7,120.2 200.4,98.8 210.0,97.7" fill="rgb(88,142,195)" stroke="#2a2a4a" stroke-width="0.5"/>
  <polygon points="219.4,118.0 210.0,97.7 218.2,94.5" fill="rgb(93,150,206)" stroke="#2a2a4a" stroke-width="0.5"/>
  <polygon points="235.1,111.8 218.2,94.5 223.5,89.8" fill="rgb(97,155,213)" stroke="#2a2a4a" stroke-width="0.5"/>
  <polygon points="245.4,102.8 223.5,89.8 225.3,84.3" fill="rgb(98,157,215)" stroke="#2a2a4a" stroke-width="0.5"/>
  <polygon points="248.9,92.2 225.3,84.3 223.2,78.9" fill="rgb(96,154,212)" stroke="#2a2a4a" stroke-width="0.5"/>
  <polygon points="244.9,81.7 223.2,78.9 217.6,74.3" fill="rgb(92,148,204)" stroke="#2a2a4a" stroke-width="0.5"/>
  <polygon points="200.0,81.8 217.6,74.3 209.3,71.3" fill="rgb(87,140,193)" stroke="#2a2a4a" stroke-width="0.5"/>
  <polygon points="200.0,81.8 209.3,71.3 199.6,70.3" fill="rgb(85,137,188)" stroke="#2a2a4a" stroke-width="0.5"/>
  <polygon points="200.0,81.8 199.6,70.3 190.0,71.4" fill="rgb(83,133,184)" stroke="#2a2a4a" stroke-width="0.5"/>
  <polygon points="200.0,81.8 190.0,71.4 181.8,74.6" fill="rgb(82,131,180)" stroke="#2a2a4a" stroke-width="0.5"/>
  <polygon points="200.0,81.8 181.8,74.6 176.5,79.3" fill="rgb(80,129,177)" stroke="#2a2a4a" stroke-width="0.5"/>
  <polygon points="200.0,81.8 176.5,79.3 174.7,84.8" fill="rgb(80,128,177)" stroke="#2a2a4a" stroke-width="0.5"/>
  <polygon points="200.0,81.8 174.7,84.8 176.8,90.2" fill="rgb(81,129,178)" stroke="#2a2a4a" stroke-width="0.5"/>
  <polygon points="200.0,81.8 176.8,90.2 182.4,94.8" fill="rgb(82,131,181)" stroke="#2a2a4a" stroke-width="0.5"/>
  <polygon points="200.0,81.8 182.4,94.8 190.7,97.8" fill="rgb(84,134,185)" stroke="#2a2a4a" stroke-width="0.5"/>
  <polygon points="200.0,81.8 190.7,97.8 200.4,98.8" fill="rgb(86,138,189)" stroke="#2a2a4a" stroke-width="0.5"/>
  <polygon points="200.0,81.8 200.4,98.8 210.0,97.7" fill="rgb(88,141,194)" stroke="#2a2a4a" stroke-width="0.5"/>
  <polygon points="200.0,81.8 210.0,97.7 218.2,94.5" fill="rgb(90,144,198)" stroke="#2a2a4a" stroke-width="0.5"/>
  <polygon points="200.0,81.8 218.2,94.5 223.5,89.8" fill="rgb(91,145,200)" stroke="#2a2a4a" stroke-width="0.5"/>
  <polygon points="200.0,81.8 223.5,89.8 225.3,84.3" fill="rgb(91,146,201)" stroke="#2a2a4a" stroke-width="0.5"/>
  <polygon points="200.0,81.8 225.3,84.3 223.2,78.9" fill="rgb(91,145,200)" stroke="#2a2a4a" stroke-width="0.5"/>
  <polygon points="200.0,81.8 223.2,78.9 217.6,74.3" fill="rgb(89,143,197)" stroke="#2a2a4a" stroke-width="0.5"/>
  <text x="200" y="292" font-family="monospace" font-size="10" fill="#5a6080" text-anchor="middle">352 triangles, 736 vertices</text>
</svg>
