# Generated by cad-kernel
v 0.0000000031655125 0.00000001121553 0
v 0.0000000032736598 8 0
v 12 8 0
v 12 0.00000002225078 0
v 0.0000000031655125 0.00000001121553 5
v 12 0.00000002225078 5
v 12 8 5
v 0.0000000032736598 8 5
vn -0.57735026 -0.57735026 -0.57735026
vn -0.57735026 0.57735026 -0.57735026
vn 0.57735026 0.57735026 -0.57735026
vn 0.57735026 -0.57735026 -0.57735026
vn -0.57735026 -0.57735026 0.57735026
vn 0.57735026 -0.57735026 0.57735026
vn 0.57735026 0.57735026 0.57735026
vn -0.57735026 0.57735026 0.57735026
f 4//4 1//1 2//2
f 2//2 3//3 4//4
f 8//8 5//5 6//6
f 6//6 7//7 8//8
f 5//5 1//1 4//4
f 4//4 6//6 5//5
f 6//6 4//4 3//3
f 3//3 7//7 6//6
f 7//7 3//3 2//2
f 2//2 8//8 7//7
f 8//8 2//2 1//1
f 1//1 5//5 8//8
