# Generated by cad-kernel
v 0 1.5 0
v 12 1.5 0
v 12 3 0
v 8 3 0
v 8 10 0
v 4 10 0
v 4 3 0
v 0 3 0
v 0 3 5
v 4 3 5
v 4 10 5
v 8 10 5
v 8 3 5
v 12 3 5
v 12 0 5
v 0 0 5
v 0 0 1.5
v 12 0 1.5
vn -0.47596318 -0.33655676 -0.81251997
vn 0.47596318 -0.33655676 -0.81251997
vn 0.57735026 0.57735026 -0.57735026
vn 0.57735026 0.57735026 -0.57735026
vn 0.57735026 0.57735026 -0.57735026
vn -0.57735026 0.57735026 -0.57735026
vn -0.57735026 0.57735026 -0.57735026
vn -0.57735026 0.57735026 -0.57735026
vn -0.57735026 0.57735026 0.57735026
vn -0.57735026 0.57735026 0.57735026
vn -0.57735026 0.57735026 0.57735026
vn 0.57735026 0.57735026 0.57735026
vn 0.57735026 0.57735026 0.57735026
vn 0.57735026 0.57735026 0.57735026
vn 0.57735026 -0.57735026 0.57735026
vn -0.57735026 -0.57735026 0.57735026
vn -0.47596318 -0.81251997 -0.33655676
vn 0.47596318 -0.81251997 -0.33655676
f 8//8 2//2 1//1
f 2//2 4//4 3//3
f 4//4 6//6 5//5
f 4//4 7//7 6//6
f 2//2 7//7 4//4
f 2//2 8//8 7//7
f 16//16 10//10 9//9
f 10//10 12//12 11//11
f 10//10 13//13 12//12
f 16//16 13//13 10//10
f 16//16 14//14 13//13
f 14//14 16//16 15//15
f 16//16 17//17 18//18
f 18//18 15//15 16//16
f 15//15 18//18 2//2
f 15//15 2//2 3//3
f 3//3 14//14 15//15
f 14//14 3//3 4//4
f 4//4 13//13 14//14
f 13//13 4//4 5//5
f 5//5 12//12 13//13
f 12//12 5//5 6//6
f 6//6 11//11 12//12
f 11//11 6//6 7//7
f 7//7 10//10 11//11
f 10//10 7//7 8//8
f 8//8 9//9 10//10
f 9//9 8//8 17//17
f 1//1 16//16 9//9
f 17//17 1//1 9//9
f 1//1 18//18 17//17
f 18//18 1//1 2//2
