# Generated by cad-kernel
v 0 0 6
v 1.5529143 0 5.795555
v 1.4347057 0.5942746 5.795555
v 1.0980762 1.0980762 5.795555
v 0.5942746 1.4347057 5.795555
v 0.000000000000000095088574 1.5529143 5.795555
v -0.5942746 1.4347057 5.795555
v -1.0980762 1.0980762 5.795555
v -1.4347057 0.5942746 5.795555
v -1.5529143 0.00000000000000019017715 5.795555
v -1.4347057 -0.5942746 5.795555
v -1.0980762 -1.0980762 5.795555
v -0.5942746 -1.4347057 5.795555
v -0.00000000000000028526571 -1.5529143 5.795555
v 0.5942746 -1.4347057 5.795555
v 1.0980762 -1.0980762 5.795555
v 1.4347057 -0.5942746 5.795555
v 2.7716386 1.1480503 5.196152
v 3 0 5.196152
v 2.1213202 2.1213202 5.196152
v 1.1480503 2.7716386 5.196152
v 0.00000000000000018369701 3 5.196152
v -1.1480503 2.7716386 5.196152
v -2.1213202 2.1213202 5.196152
v -2.7716386 1.1480503 5.196152
v -3 0.00000000000000036739403 5.196152
v -2.7716386 -1.1480503 5.196152
v -2.1213202 -2.1213202 5.196152
v -1.1480503 -2.7716386 5.196152
v -0.00000000000000055109107 -3 5.196152
v 1.1480503 -2.7716386 5.196152
v 2.1213202 -2.1213202 5.196152
v 2.7716386 -1.1480503 5.196152
v 3.919689 1.6235883 4.2426405
v 4.2426405 0 4.2426405
v 3 3 4.2426405
v 1.6235883 3.919689 4.2426405
v 0.0000000000000002597868 4.2426405 4.2426405
v -1.6235883 3.919689 4.2426405
v -3 3 4.2426405
v -3.919689 1.6235883 4.2426405
v -4.2426405 0.0000000000000005195736 4.2426405
v -3.919689 -1.6235883 4.2426405
v -3 -3 4.2426405
v -1.6235883 -3.919689 4.2426405
v -0.00000000000000077936047 -4.2426405 4.2426405
v 1.6235883 -3.919689 4.2426405
v 3 -3 4.2426405
v 3.919689 -1.6235883 4.2426405
v 4.8006186 1.9884814 3
v 5.196152 0 3
v 3.6742346 3.6742346 3
v 1.9884814 4.8006186 3
v 0.00000000000000031817257 5.196152 3
v -1.9884814 4.8006186 3
v -3.6742346 3.6742346 3
v -4.8006186 1.9884814 3
v -5.196152 0.00000000000000063634515 3
v -4.8006186 -1.9884814 3
v -3.6742346 -3.6742346 3
v -1.9884814 -4.8006186 3
v -0.0000000000000009545177 -5.196152 3
v 1.9884814 -4.8006186 3
v 3.6742346 -3.6742346 3
v 4.8006186 -1.9884814 3
v 5.3543944 2.2178628 1.5529143
v 5.795555 0 1.5529143
v 4.0980763 4.0980763 1.5529143
v 2.2178628 5.3543944 1.5529143
v 0.00000000000000035487539 5.795555 1.5529143
v -2.2178628 5.3543944 1.5529143
v -4.0980763 4.0980763 1.5529143
v -5.3543944 2.2178628 1.5529143
v -5.795555 0.00000000000000070975077 1.5529143
v -5.3543944 -2.2178628 1.5529143
v -4.0980763 -4.0980763 1.5529143
v -2.2178628 -5.3543944 1.5529143
v -0.0000000000000010646262 -5.795555 1.5529143
v 2.2178628 -5.3543944 1.5529143
v 4.0980763 -4.0980763 1.5529143
v 5.3543944 -2.2178628 1.5529143
v 5.5432773 2.2961006 0.00000000000000036739403
v 6 0 0.00000000000000036739403
v 4.2426405 4.2426405 0.00000000000000036739403
v 2.2961006 5.5432773 0.00000000000000036739403
v 0.00000000000000036739403 6 0.00000000000000036739403
v -2.2961006 5.5432773 0.00000000000000036739403
v -4.2426405 4.2426405 0.00000000000000036739403
v -5.5432773 2.2961006 0.00000000000000036739403
v -6 0.00000000000000073478806 0.00000000000000036739403
v -5.5432773 -2.2961006 0.00000000000000036739403
v -4.2426405 -4.2426405 0.00000000000000036739403
v -2.2961006 -5.5432773 0.00000000000000036739403
v -0.0000000000000011021821 -6 0.00000000000000036739403
v 2.2961006 -5.5432773 0.00000000000000036739403
v 4.2426405 -4.2426405 0.00000000000000036739403
v 5.5432773 -2.2961006 0.00000000000000036739403
v 5.3543944 2.2178628 -1.5529143
v 5.795555 0 -1.5529143
v 4.0980763 4.0980763 -1.5529143
v 2.2178628 5.3543944 -1.5529143
v 0.00000000000000035487539 5.795555 -1.5529143
v -2.2178628 5.3543944 -1.5529143
v -4.0980763 4.0980763 -1.5529143
v -5.3543944 2.2178628 -1.5529143
v -5.795555 0.00000000000000070975077 -1.5529143
v -5.3543944 -2.2178628 -1.5529143
v -4.0980763 -4.0980763 -1.5529143
v -2.2178628 -5.3543944 -1.5529143
v -0.0000000000000010646262 -5.795555 -1.5529143
v 2.2178628 -5.3543944 -1.5529143
v 4.0980763 -4.0980763 -1.5529143
v 5.3543944 -2.2178628 -1.5529143
v 4.8006186 1.9884814 -3
v 5.196152 0 -3
v 3.6742346 3.6742346 -3
v 1.9884814 4.8006186 -3
v 0.00000000000000031817257 5.196152 -3
v -1.9884814 4.8006186 -3
v -3.6742346 3.6742346 -3
v -4.8006186 1.9884814 -3
v -5.196152 0.00000000000000063634515 -3
v -4.8006186 -1.9884814 -3
v -3.6742346 -3.6742346 -3
v -1.9884814 -4.8006186 -3
v -0.0000000000000009545177 -5.196152 -3
v 1.9884814 -4.8006186 -3
v 3.6742346 -3.6742346 -3
v 4.8006186 -1.9884814 -3
v 3.919689 1.6235883 -4.2426405
v 4.2426405 0 -4.2426405
v 3 3 -4.2426405
v 1.6235883 3.919689 -4.2426405
v 0.0000000000000002597868 4.2426405 -4.2426405
v -1.6235883 3.919689 -4.2426405
v -3 3 -4.2426405
v -3.919689 1.6235883 -4.2426405
v -4.2426405 0.0000000000000005195736 -4.2426405
v -3.919689 -1.6235883 -4.2426405
v -3 -3 -4.2426405
v -1.6235883 -3.919689 -4.2426405
v -0.00000000000000077936047 -4.2426405 -4.2426405
v 1.6235883 -3.919689 -4.2426405
v 3 -3 -4.2426405
v 3.919689 -1.6235883 -4.2426405
v 2.7716386 1.1480503 -5.196152
v 3 0 -5.196152
v 2.1213202 2.1213202 -5.196152
v 1.1480503 2.7716386 -5.196152
v 0.00000000000000018369701 3 -5.196152
v -1.1480503 2.7716386 -5.196152
v -2.1213202 2.1213202 -5.196152
v -2.7716386 1.1480503 -5.196152
v -3 0.00000000000000036739403 -5.196152
v -2.7716386 -1.1480503 -5.196152
v -2.1213202 -2.1213202 -5.196152
v -1.1480503 -2.7716386 -5.196152
v -0.00000000000000055109107 -3 -5.196152
v 1.1480503 -2.7716386 -5.196152
v 2.1213202 -2.1213202 -5.196152
v 2.7716386 -1.1480503 -5.196152
v 1.4347057 0.5942746 -5.795555
v 1.5529143 0 -5.795555
v 1.0980762 1.0980762 -5.795555
v 0.5942746 1.4347057 -5.795555
v 0.000000000000000095088574 1.5529143 -5.795555
v -0.5942746 1.4347057 -5.795555
v -1.0980762 1.0980762 -5.795555
v -1.4347057 0.5942746 -5.795555
v -1.5529143 0.00000000000000019017715 -5.795555
v -1.4347057 -0.5942746 -5.795555
v -1.0980762 -1.0980762 -5.795555
v -0.5942746 -1.4347057 -5.795555
v -0.00000000000000028526571 -1.5529143 -5.795555
v 0.5942746 -1.4347057 -5.795555
v 1.0980762 -1.0980762 -5.795555
v 1.4347057 -0.5942746 -5.795555
v 0 0 -6
vn -0.0000000009451825 0.0000000021266606 1
vn 0.2701529 0.011750962 0.9627457
vn 0.24509184 0.114239514 0.9627457
vn 0.18271776 0.19933613 0.9627457
vn 0.09252656 0.25408563 0.9627457
vn -0.011750962 0.2701529 0.9627457
vn -0.114239514 0.24509184 0.9627457
vn -0.19933613 0.18271776 0.9627457
vn -0.25408563 0.09252656 0.9627457
vn -0.2701529 -0.011750962 0.9627457
vn -0.24509184 -0.114239514 0.9627457
vn -0.18271776 -0.19933613 0.9627457
vn -0.09252656 -0.25408563 0.9627457
vn 0.011750962 -0.2701529 0.9627457
vn 0.114239514 -0.24509184 0.9627457
vn 0.19933613 -0.18271776 0.9627457
vn 0.25408563 -0.09252656 0.9627457
vn 0.4402602 0.20618892 0.8738747
vn 0.48565248 0.022013443 0.8738748
vn 0.3278423 0.35897404 0.8738748
vn 0.16551338 0.45710856 0.8738748
vn -0.022013443 0.48565248 0.8738748
vn -0.20618892 0.4402602 0.8738747
vn -0.35897404 0.3278423 0.8738748
vn -0.45710856 0.16551338 0.8738748
vn -0.48565248 -0.022013443 0.8738748
vn -0.4402602 -0.20618892 0.8738747
vn -0.3278423 -0.35897404 0.8738748
vn -0.16551338 -0.45710856 0.8738748
vn 0.022013443 -0.48565248 0.8738748
vn 0.20618892 -0.4402602 0.8738747
vn 0.35897404 -0.3278423 0.8738748
vn 0.45710856 -0.16551338 0.8738748
vn 0.6336618 0.28211212 0.7203371
vn 0.69338685 0.018145733 0.72033703
vn 0.47746754 0.50312954 0.7203371
vn 0.24858315 0.6475499 0.72033703
vn -0.018145734 0.6933868 0.7203371
vn -0.28211212 0.6336618 0.7203371
vn -0.50312954 0.47746754 0.7203371
vn -0.6475499 0.24858315 0.72033703
vn -0.6933868 -0.018145734 0.7203371
vn -0.6336618 -0.28211212 0.7203371
vn -0.47746754 -0.50312954 0.7203371
vn -0.24858315 -0.6475499 0.72033703
vn 0.018145734 -0.6933868 0.7203371
vn 0.28211212 -0.6336618 0.7203371
vn 0.50312954 -0.47746754 0.7203371
vn 0.6475499 -0.24858315 0.72033703
vn 0.78727025 0.34012148 0.514318
vn 0.8575017 0.012955984 0.514318
vn 0.597184 0.61550653 0.514318
vn 0.3161819 0.7971863 0.514318
vn -0.012955984 0.8575017 0.514318
vn -0.34012148 0.78727025 0.514318
vn -0.61550653 0.597184 0.514318
vn -0.7971863 0.3161819 0.514318
vn -0.8575017 -0.012955984 0.514318
vn -0.78727025 -0.34012148 0.514318
vn -0.597184 -0.61550653 0.514318
vn -0.3161819 -0.7971863 0.514318
vn 0.012955984 -0.8575017 0.514318
vn 0.34012148 -0.78727025 0.514318
vn 0.61550653 -0.597184 0.514318
vn 0.7971863 -0.3161819 0.514318
vn 0.88743526 0.3748994 0.2681589
vn 0.963351 0.0067550857 0.2681589
vn 0.67641544 0.6859686 0.26815888
vn 0.3624176 0.8926053 0.2681589
vn -0.0067550857 0.963351 0.2681589
vn -0.3748994 0.88743526 0.2681589
vn -0.6859686 0.67641544 0.26815888
vn -0.8926053 0.3624176 0.2681589
vn -0.963351 -0.0067550857 0.2681589
vn -0.88743526 -0.3748994 0.2681589
vn -0.67641544 -0.6859686 0.26815888
vn -0.3624176 -0.8926053 0.2681589
vn 0.0067550857 -0.963351 0.2681589
vn 0.3748994 -0.88743526 0.2681589
vn 0.6859686 -0.67641544 0.26815888
vn 0.8926053 -0.3624176 0.2681589
vn 0.92387956 0.38268346 0
vn 1 0 0
vn 0.70710677 0.70710677 0
vn 0.38268346 0.92387956 0
vn 0 1 0
vn -0.38268346 0.92387956 0
vn -0.70710677 0.70710677 0
vn -0.92387956 0.38268346 0
vn -1 0 0
vn -0.92387956 -0.38268346 0
vn -0.70710677 -0.70710677 0
vn -0.38268346 -0.92387956 0
vn 0 -1 0
vn 0.38268346 -0.92387956 0
vn 0.70710677 -0.70710677 0
vn 0.92387956 -0.38268346 0
vn 0.89260536 0.36241758 -0.26815888
vn 0.963351 -0.0067550857 -0.2681589
vn 0.6859686 0.67641544 -0.26815888
vn 0.37489936 0.88743526 -0.2681589
vn 0.0067550857 0.963351 -0.2681589
vn -0.36241758 0.89260536 -0.26815888
vn -0.67641544 0.6859686 -0.26815888
vn -0.88743526 0.37489936 -0.2681589
vn -0.963351 0.0067550857 -0.2681589
vn -0.89260536 -0.36241758 -0.26815888
vn -0.6859686 -0.67641544 -0.26815888
vn -0.37489936 -0.88743526 -0.2681589
vn -0.0067550857 -0.963351 -0.2681589
vn 0.36241758 -0.89260536 -0.26815888
vn 0.67641544 -0.6859686 -0.26815888
vn 0.88743526 -0.37489936 -0.2681589
vn 0.7971863 0.31618193 -0.514318
vn 0.85750175 -0.012955984 -0.514318
vn 0.6155066 0.597184 -0.514318
vn 0.3401215 0.78727025 -0.514318
vn 0.012955984 0.85750175 -0.514318
vn -0.31618193 0.7971863 -0.514318
vn -0.597184 0.6155066 -0.514318
vn -0.78727025 0.3401215 -0.514318
vn -0.85750175 0.012955984 -0.514318
vn -0.7971863 -0.31618193 -0.514318
vn -0.6155066 -0.597184 -0.514318
vn -0.3401215 -0.78727025 -0.514318
vn -0.012955984 -0.85750175 -0.514318
vn 0.31618193 -0.7971863 -0.514318
vn 0.597184 -0.6155066 -0.514318
vn 0.78727025 -0.3401215 -0.514318
vn 0.6475499 0.24858315 -0.72033703
vn 0.6933868 -0.018145734 -0.7203371
vn 0.5031295 0.47746754 -0.72033703
vn 0.28211212 0.6336618 -0.7203371
vn 0.018145734 0.6933868 -0.7203371
vn -0.24858315 0.6475499 -0.72033703
vn -0.47746754 0.5031295 -0.72033703
vn -0.6336618 0.28211212 -0.7203371
vn -0.6933868 0.018145734 -0.7203371
vn -0.6475499 -0.24858315 -0.72033703
vn -0.5031295 -0.47746754 -0.72033703
vn -0.28211212 -0.6336618 -0.7203371
vn -0.018145734 -0.6933868 -0.7203371
vn 0.24858315 -0.6475499 -0.72033703
vn 0.47746754 -0.5031295 -0.72033703
vn 0.6336618 -0.28211212 -0.7203371
vn 0.45710862 0.16551338 -0.8738748
vn 0.4856525 -0.022013444 -0.8738748
vn 0.35897404 0.32784232 -0.8738748
vn 0.20618893 0.44026023 -0.8738748
vn 0.022013444 0.4856525 -0.8738748
vn -0.16551338 0.45710862 -0.8738748
vn -0.32784232 0.35897404 -0.8738748
vn -0.44026023 0.20618893 -0.8738748
vn -0.4856525 0.022013444 -0.8738748
vn -0.45710862 -0.16551338 -0.8738748
vn -0.35897404 -0.32784232 -0.8738748
vn -0.20618893 -0.44026023 -0.8738748
vn -0.022013444 -0.4856525 -0.8738748
vn 0.16551338 -0.45710862 -0.8738748
vn 0.32784232 -0.35897404 -0.8738748
vn 0.44026023 -0.20618893 -0.8738748
vn 0.25408563 0.09252656 -0.9627457
vn 0.27015293 -0.011750961 -0.9627457
vn 0.19933613 0.18271776 -0.9627457
vn 0.114239514 0.24509183 -0.9627457
vn 0.011750961 0.27015293 -0.9627457
vn -0.09252656 0.25408563 -0.9627457
vn -0.18271776 0.19933613 -0.9627457
vn -0.24509183 0.114239514 -0.9627457
vn -0.27015293 0.011750961 -0.9627457
vn -0.25408563 -0.09252656 -0.9627457
vn -0.19933613 -0.18271776 -0.9627457
vn -0.114239514 -0.24509183 -0.9627457
vn -0.011750961 -0.27015293 -0.9627457
vn 0.09252656 -0.25408563 -0.9627457
vn 0.18271776 -0.19933613 -0.9627457
vn 0.24509183 -0.114239514 -0.9627457
vn -0.0000000009451825 0.0000000021266606 -1
f 1//1 2//2 3//3
f 1//1 3//3 4//4
f 1//1 4//4 5//5
f 1//1 5//5 6//6
f 1//1 6//6 7//7
f 1//1 7//7 8//8
f 1//1 8//8 9//9
f 1//1 9//9 10//10
f 1//1 10//10 11//11
f 1//1 11//11 12//12
f 1//1 12//12 13//13
f 1//1 13//13 14//14
f 1//1 14//14 15//15
f 1//1 15//15 16//16
f 1//1 16//16 17//17
f 1//1 17//17 2//2
f 19//19 3//3 2//2
f 3//3 19//19 18//18
f 18//18 4//4 3//3
f 4//4 18//18 20//20
f 20//20 5//5 4//4
f 5//5 20//20 21//21
f 21//21 6//6 5//5
f 6//6 21//21 22//22
f 22//22 7//7 6//6
f 7//7 22//22 23//23
f 23//23 8//8 7//7
f 8//8 23//23 24//24
f 24//24 9//9 8//8
f 9//9 24//24 25//25
f 25//25 10//10 9//9
f 10//10 25//25 26//26
f 26//26 11//11 10//10
f 11//11 26//26 27//27
f 27//27 12//12 11//11
f 12//12 27//27 28//28
f 28//28 13//13 12//12
f 13//13 28//28 29//29
f 29//29 14//14 13//13
f 14//14 29//29 30//30
f 30//30 15//15 14//14
f 15//15 30//30 31//31
f 31//31 16//16 15//15
f 16//16 31//31 32//32
f 32//32 17//17 16//16
f 17//17 32//32 33//33
f 33//33 2//2 17//17
f 2//2 33//33 19//19
f 35//35 18//18 19//19
f 18//18 35//35 34//34
f 34//34 20//20 18//18
f 20//20 34//34 36//36
f 36//36 21//21 20//20
f 21//21 36//36 37//37
f 37//37 22//22 21//21
f 22//22 37//37 38//38
f 38//38 23//23 22//22
f 23//23 38//38 39//39
f 39//39 24//24 23//23
f 24//24 39//39 40//40
f 40//40 25//25 24//24
f 25//25 40//40 41//41
f 41//41 26//26 25//25
f 26//26 41//41 42//42
f 42//42 27//27 26//26
f 27//27 42//42 43//43
f 43//43 28//28 27//27
f 28//28 43//43 44//44
f 44//44 29//29 28//28
f 29//29 44//44 45//45
f 45//45 30//30 29//29
f 30//30 45//45 46//46
f 46//46 31//31 30//30
f 31//31 46//46 47//47
f 47//47 32//32 31//31
f 32//32 47//47 48//48
f 48//48 33//33 32//32
f 33//33 48//48 49//49
f 49//49 19//19 33//33
f 19//19 49//49 35//35
f 51//51 34//34 35//35
f 34//34 51//51 50//50
f 50//50 36//36 34//34
f 36//36 50//50 52//52
f 52//52 37//37 36//36
f 37//37 52//52 53//53
f 53//53 38//38 37//37
f 38//38 53//53 54//54
f 54//54 39//39 38//38
f 39//39 54//54 55//55
f 55//55 40//40 39//39
f 40//40 55//55 56//56
f 56//56 41//41 40//40
f 41//41 56//56 57//57
f 57//57 42//42 41//41
f 42//42 57//57 58//58
f 58//58 43//43 42//42
f 43//43 58//58 59//59
f 59//59 44//44 43//43
f 44//44 59//59 60//60
f 60//60 45//45 44//44
f 45//45 60//60 61//61
f 61//61 46//46 45//45
f 46//46 61//61 62//62
f 62//62 47//47 46//46
f 47//47 62//62 63//63
f 63//63 48//48 47//47
f 48//48 63//63 64//64
f 64//64 49//49 48//48
f 49//49 64//64 65//65
f 65//65 35//35 49//49
f 35//35 65//65 51//51
f 67//67 50//50 51//51
f 50//50 67//67 66//66
f 66//66 52//52 50//50
f 52//52 66//66 68//68
f 68//68 53//53 52//52
f 53//53 68//68 69//69
f 69//69 54//54 53//53
f 54//54 69//69 70//70
f 70//70 55//55 54//54
f 55//55 70//70 71//71
f 71//71 56//56 55//55
f 56//56 71//71 72//72
f 72//72 57//57 56//56
f 57//57 72//72 73//73
f 73//73 58//58 57//57
f 58//58 73//73 74//74
f 74//74 59//59 58//58
f 59//59 74//74 75//75
f 75//75 60//60 59//59
f 60//60 75//75 76//76
f 76//76 61//61 60//60
f 61//61 76//76 77//77
f 77//77 62//62 61//61
f 62//62 77//77 78//78
f 78//78 63//63 62//62
f 63//63 78//78 79//79
f 79//79 64//64 63//63
f 64//64 79//79 80//80
f 80//80 65//65 64//64
f 65//65 80//80 81//81
f 81//81 51//51 65//65
f 51//51 81//81 67//67
f 83//83 66//66 67//67
f 66//66 83//83 82//82
f 82//82 68//68 66//66
f 68//68 82//82 84//84
f 84//84 69//69 68//68
f 69//69 84//84 85//85
f 85//85 70//70 69//69
f 70//70 85//85 86//86
f 86//86 71//71 70//70
f 71//71 86//86 87//87
f 87//87 72//72 71//71
f 72//72 87//87 88//88
f 88//88 73//73 72//72
f 73//73 88//88 89//89
f 89//89 74//74 73//73
f 74//74 89//89 90//90
f 90//90 75//75 74//74
f 75//75 90//90 91//91
f 91//91 76//76 75//75
f 76//76 91//91 92//92
f 92//92 77//77 76//76
f 77//77 92//92 93//93
f 93//93 78//78 77//77
f 78//78 93//93 94//94
f 94//94 79//79 78//78
f 79//79 94//94 95//95
f 95//95 80//80 79//79
f 80//80 95//95 96//96
f 96//96 81//81 80//80
f 81//81 96//96 97//97
f 97//97 67//67 81//81
f 67//67 97//97 83//83
f 99//99 82//82 83//83
f 82//82 99//99 98//98
f 98//98 84//84 82//82
f 84//84 98//98 100//100
f 100//100 85//85 84//84
f 85//85 100//100 101//101
f 101//101 86//86 85//85
f 86//86 101//101 102//102
f 102//102 87//87 86//86
f 87//87 102//102 103//103
f 103//103 88//88 87//87
f 88//88 103//103 104//104
f 104//104 89//89 88//88
f 89//89 104//104 105//105
f 105//105 90//90 89//89
f 90//90 105//105 106//106
f 106//106 91//91 90//90
f 91//91 106//106 107//107
f 107//107 92//92 91//91
f 92//92 107//107 108//108
f 108//108 93//93 92//92
f 93//93 108//108 109//109
f 109//109 94//94 93//93
f 94//94 109//109 110//110
f 110//110 95//95 94//94
f 95//95 110//110 111//111
f 111//111 96//96 95//95
f 96//96 111//111 112//112
f 112//112 97//97 96//96
f 97//97 112//112 113//113
f 113//113 83//83 97//97
f 83//83 113//113 99//99
f 115//115 98//98 99//99
f 98//98 115//115 114//114
f 114//114 100//100 98//98
f 100//100 114//114 116//116
f 116//116 101//101 100//100
f 101//101 116//116 117//117
f 117//117 102//102 101//101
f 102//102 117//117 118//118
f 118//118 103//103 102//102
f 103//103 118//118 119//119
f 119//119 104//104 103//103
f 104//104 119//119 120//120
f 120//120 105//105 104//104
f 105//105 120//120 121//121
f 121//121 106//106 105//105
f 106//106 121//121 122//122
f 122//122 107//107 106//106
f 107//107 122//122 123//123
f 123//123 108//108 107//107
f 108//108 123//123 124//124
f 124//124 109//109 108//108
f 109//109 124//124 125//125
f 125//125 110//110 109//109
f 110//110 125//125 126//126
f 126//126 111//111 110//110
f 111//111 126//126 127//127
f 127//127 112//112 111//111
f 112//112 127//127 128//128
f 128//128 113//113 112//112
f 113//113 128//128 129//129
f 129//129 99//99 113//113
f 99//99 129//129 115//115
f 131//131 114//114 115//115
f 114//114 131//131 130//130
f 130//130 116//116 114//114
f 116//116 130//130 132//132
f 132//132 117//117 116//116
f 117//117 132//132 133//133
f 133//133 118//118 117//117
f 118//118 133//133 134//134
f 134//134 119//119 118//118
f 119//119 134//134 135//135
f 135//135 120//120 119//119
f 120//120 135//135 136//136
f 136//136 121//121 120//120
f 121//121 136//136 137//137
f 137//137 122//122 121//121
f 122//122 137//137 138//138
f 138//138 123//123 122//122
f 123//123 138//138 139//139
f 139//139 124//124 123//123
f 124//124 139//139 140//140
f 140//140 125//125 124//124
f 125//125 140//140 141//141
f 141//141 126//126 125//125
f 126//126 141//141 142//142
f 142//142 127//127 126//126
f 127//127 142//142 143//143
f 143//143 128//128 127//127
f 128//128 143//143 144//144
f 144//144 129//129 128//128
f 129//129 144//144 145//145
f 145//145 115//115 129//129
f 115//115 145//145 131//131
f 147//147 130//130 131//131
f 130//130 147//147 146//146
f 146//146 132//132 130//130
f 132//132 146//146 148//148
f 148//148 133//133 132//132
f 133//133 148//148 149//149
f 149//149 134//134 133//133
f 134//134 149//149 150//150
f 150//150 135//135 134//134
f 135//135 150//150 151//151
f 151//151 136//136 135//135
f 136//136 151//151 152//152
f 152//152 137//137 136//136
f 137//137 152//152 153//153
f 153//153 138//138 137//137
f 138//138 153//153 154//154
f 154//154 139//139 138//138
f 139//139 154//154 155//155
f 155//155 140//140 139//139
f 140//140 155//155 156//156
f 156//156 141//141 140//140
f 141//141 156//156 157//157
f 157//157 142//142 141//141
f 142//142 157//157 158//158
f 158//158 143//143 142//142
f 143//143 158//158 159//159
f 159//159 144//144 143//143
f 144//144 159//159 160//160
f 160//160 145//145 144//144
f 145//145 160//160 161//161
f 161//161 131//131 145//145
f 131//131 161//161 147//147
f 163//163 146//146 147//147
f 146//146 163//163 162//162
f 162//162 148//148 146//146
f 148//148 162//162 164//164
f 164//164 149//149 148//148
f 149//149 164//164 165//165
f 165//165 150//150 149//149
f 150//150 165//165 166//166
f 166//166 151//151 150//150
f 151//151 166//166 167//167
f 167//167 152//152 151//151
f 152//152 167//167 168//168
f 168//168 153//153 152//152
f 153//153 168//168 169//169
f 169//169 154//154 153//153
f 154//154 169//169 170//170
f 170//170 155//155 154//154
f 155//155 170//170 171//171
f 171//171 156//156 155//155
f 156//156 171//171 172//172
f 172//172 157//157 156//156
f 157//157 172//172 173//173
f 173//173 158//158 157//157
f 158//158 173//173 174//174
f 174//174 159//159 158//158
f 159//159 174//174 175//175
f 175//175 160//160 159//159
f 160//160 175//175 176//176
f 176//176 161//161 160//160
f 161//161 176//176 177//177
f 177//177 147//147 161//161
f 147//147 177//177 163//163
f 163//163 178//178 162//162
f 162//162 178//178 164//164
f 164//164 178//178 165//165
f 165//165 178//178 166//166
f 166//166 178//178 167//167
f 167//167 178//178 168//168
f 168//168 178//178 169//169
f 169//169 178//178 170//170
f 170//170 178//178 171//171
f 171//171 178//178 172//172
f 172//172 178//178 173//173
f 173//173 178//178 174//174
f 174//174 178//178 175//175
f 175//175 178//178 176//176
f 176//176 178//178 177//177
f 177//177 178//178 163//163
