# Generated by cad-kernel
v 3 0 0
v 5 0 4
v 4.829629 1.2940953 4
v 2.8977776 0.77645713 0
v 5 0 4
v 3.5 0 8
v 3.3807404 0.9058667 8
v 4.829629 1.2940953 4
v 3.5 0 8
v 4 0 12
v 3.8637033 1.0352762 12
v 3.3807404 0.9058667 8
v 2.8977776 0.77645713 0
v 4.829629 1.2940953 4
v 4.3301272 2.5 4
v 2.598076 1.5 0
v 4.829629 1.2940953 4
v 3.3807404 0.9058667 8
v 3.0310888 1.75 8
v 4.3301272 2.5 4
v 3.3807404 0.9058667 8
v 3.8637033 1.0352762 12
v 3.4641016 2 12
v 3.0310888 1.75 8
v 2.598076 1.5 0
v 4.3301272 2.5 4
v 3.535534 3.535534 4
v 2.1213202 2.1213202 0
v 4.3301272 2.5 4
v 3.0310888 1.75 8
v 2.4748738 2.4748738 8
v 3.535534 3.535534 4
v 3.0310888 1.75 8
v 3.4641016 2 12
v 2.828427 2.828427 12
v 2.4748738 2.4748738 8
v 2.1213202 2.1213202 0
v 3.535534 3.535534 4
v 2.5 4.3301272 4
v 1.5 2.598076 0
v 3.535534 3.535534 4
v 2.4748738 2.4748738 8
v 1.75 3.0310888 8
v 2.5 4.3301272 4
v 2.4748738 2.4748738 8
v 2.828427 2.828427 12
v 2 3.4641016 12
v 1.75 3.0310888 8
v 1.5 2.598076 0
v 2.5 4.3301272 4
v 1.2940953 4.829629 4
v 0.77645713 2.8977776 0
v 2.5 4.3301272 4
v 1.75 3.0310888 8
v 0.9058667 3.3807404 8
v 1.2940953 4.829629 4
v 1.75 3.0310888 8
v 2 3.4641016 12
v 1.0352762 3.8637033 12
v 0.9058667 3.3807404 8
v 0.77645713 2.8977776 0
v 1.2940953 4.829629 4
v 0.0000000000000003061617 5 4
v 0.00000000000000018369701 3 0
v 1.2940953 4.829629 4
v 0.9058667 3.3807404 8
v 0.00000000000000021431319 3.5 8
v 0.0000000000000003061617 5 4
v 0.9058667 3.3807404 8
v 1.0352762 3.8637033 12
v 0.00000000000000024492937 4 12
v 0.00000000000000021431319 3.5 8
v 0.00000000000000018369701 3 0
v 0.0000000000000003061617 5 4
v -1.2940953 4.829629 4
v -0.77645713 2.8977776 0
v 0.0000000000000003061617 5 4
v 0.00000000000000021431319 3.5 8
v -0.9058667 3.3807404 8
v -1.2940953 4.829629 4
v 0.00000000000000021431319 3.5 8
v 0.00000000000000024492937 4 12
v -1.0352762 3.8637033 12
v -0.9058667 3.3807404 8
v -0.77645713 2.8977776 0
v -1.2940953 4.829629 4
v -2.5 4.3301272 4
v -1.5 2.598076 0
v -1.2940953 4.829629 4
v -0.9058667 3.3807404 8
v -1.75 3.0310888 8
v -2.5 4.3301272 4
v -0.9058667 3.3807404 8
v -1.0352762 3.8637033 12
v -2 3.4641016 12
v -1.75 3.0310888 8
v -1.5 2.598076 0
v -2.5 4.3301272 4
v -3.535534 3.535534 4
v -2.1213202 2.1213202 0
v -2.5 4.3301272 4
v -1.75 3.0310888 8
v -2.4748738 2.4748738 8
v -3.535534 3.535534 4
v -1.75 3.0310888 8
v -2 3.4641016 12
v -2.828427 2.828427 12
v -2.4748738 2.4748738 8
v -2.1213202 2.1213202 0
v -3.535534 3.535534 4
v -4.3301272 2.5 4
v -2.598076 1.5 0
v -3.535534 3.535534 4
v -2.4748738 2.4748738 8
v -3.0310888 1.75 8
v -4.3301272 2.5 4
v -2.4748738 2.4748738 8
v -2.828427 2.828427 12
v -3.4641016 2 12
v -3.0310888 1.75 8
v -2.598076 1.5 0
v -4.3301272 2.5 4
v -4.829629 1.2940953 4
v -2.8977776 0.77645713 0
v -4.3301272 2.5 4
v -3.0310888 1.75 8
v -3.3807404 0.9058667 8
v -4.829629 1.2940953 4
v -3.0310888 1.75 8
v -3.4641016 2 12
v -3.8637033 1.0352762 12
v -3.3807404 0.9058667 8
v -2.8977776 0.77645713 0
v -4.829629 1.2940953 4
v -5 0.0000000000000006123234 4
v -3 0.00000000000000036739403 0
v -4.829629 1.2940953 4
v -3.3807404 0.9058667 8
v -3.5 0.00000000000000042862639 8
v -5 0.0000000000000006123234 4
v -3.3807404 0.9058667 8
v -3.8637033 1.0352762 12
v -4 0.00000000000000048985874 12
v -3.5 0.00000000000000042862639 8
v -3 0.00000000000000036739403 0
v -5 0.0000000000000006123234 4
v -4.829629 -1.2940953 4
v -2.8977776 -0.77645713 0
v -5 0.0000000000000006123234 4
v -3.5 0.00000000000000042862639 8
v -3.3807404 -0.9058667 8
v -4.829629 -1.2940953 4
v -3.5 0.00000000000000042862639 8
v -4 0.00000000000000048985874 12
v -3.8637033 -1.0352762 12
v -3.3807404 -0.9058667 8
v -2.8977776 -0.77645713 0
v -4.829629 -1.2940953 4
v -4.3301272 -2.5 4
v -2.598076 -1.5 0
v -4.829629 -1.2940953 4
v -3.3807404 -0.9058667 8
v -3.0310888 -1.75 8
v -4.3301272 -2.5 4
v -3.3807404 -0.9058667 8
v -3.8637033 -1.0352762 12
v -3.4641016 -2 12
v -3.0310888 -1.75 8
v -2.598076 -1.5 0
v -4.3301272 -2.5 4
v -3.535534 -3.535534 4
v -2.1213202 -2.1213202 0
v -4.3301272 -2.5 4
v -3.0310888 -1.75 8
v -2.4748738 -2.4748738 8
v -3.535534 -3.535534 4
v -3.0310888 -1.75 8
v -3.4641016 -2 12
v -2.828427 -2.828427 12
v -2.4748738 -2.4748738 8
v -2.1213202 -2.1213202 0
v -3.535534 -3.535534 4
v -2.5 -4.3301272 4
v -1.5 -2.598076 0
v -3.535534 -3.535534 4
v -2.4748738 -2.4748738 8
v -1.75 -3.0310888 8
v -2.5 -4.3301272 4
v -2.4748738 -2.4748738 8
v -2.828427 -2.828427 12
v -2 -3.4641016 12
v -1.75 -3.0310888 8
v -1.5 -2.598076 0
v -2.5 -4.3301272 4
v -1.2940953 -4.829629 4
v -0.77645713 -2.8977776 0
v -2.5 -4.3301272 4
v -1.75 -3.0310888 8
v -0.9058667 -3.3807404 8
v -1.2940953 -4.829629 4
v -1.75 -3.0310888 8
v -2 -3.4641016 12
v -1.0352762 -3.8637033 12
v -0.9058667 -3.3807404 8
v -0.77645713 -2.8977776 0
v -1.2940953 -4.829629 4
v -0.000000000000000918485 -5 4
v -0.00000000000000055109107 -3 0
v -1.2940953 -4.829629 4
v -0.9058667 -3.3807404 8
v -0.00000000000000064293956 -3.5 8
v -0.000000000000000918485 -5 4
v -0.9058667 -3.3807404 8
v -1.0352762 -3.8637033 12
v -0.00000000000000073478806 -4 12
v -0.00000000000000064293956 -3.5 8
v -0.00000000000000055109107 -3 0
v -0.000000000000000918485 -5 4
v 1.2940953 -4.829629 4
v 0.77645713 -2.8977776 0
v -0.000000000000000918485 -5 4
v -0.00000000000000064293956 -3.5 8
v 0.9058667 -3.3807404 8
v 1.2940953 -4.829629 4
v -0.00000000000000064293956 -3.5 8
v -0.00000000000000073478806 -4 12
v 1.0352762 -3.8637033 12
v 0.9058667 -3.3807404 8
v 0.77645713 -2.8977776 0
v 1.2940953 -4.829629 4
v 2.5 -4.3301272 4
v 1.5 -2.598076 0
v 1.2940953 -4.829629 4
v 0.9058667 -3.3807404 8
v 1.75 -3.0310888 8
v 2.5 -4.3301272 4
v 0.9058667 -3.3807404 8
v 1.0352762 -3.8637033 12
v 2 -3.4641016 12
v 1.75 -3.0310888 8
v 1.5 -2.598076 0
v 2.5 -4.3301272 4
v 3.535534 -3.535534 4
v 2.1213202 -2.1213202 0
v 2.5 -4.3301272 4
v 1.75 -3.0310888 8
v 2.4748738 -2.4748738 8
v 3.535534 -3.535534 4
v 1.75 -3.0310888 8
v 2 -3.4641016 12
v 2.828427 -2.828427 12
v 2.4748738 -2.4748738 8
v 2.1213202 -2.1213202 0
v 3.535534 -3.535534 4
v 4.3301272 -2.5 4
v 2.598076 -1.5 0
v 3.535534 -3.535534 4
v 2.4748738 -2.4748738 8
v 3.0310888 -1.75 8
v 4.3301272 -2.5 4
v 2.4748738 -2.4748738 8
v 2.828427 -2.828427 12
v 3.4641016 -2 12
v 3.0310888 -1.75 8
v 2.598076 -1.5 0
v 4.3301272 -2.5 4
v 4.829629 -1.2940953 4
v 2.8977776 -0.77645713 0
v 4.3301272 -2.5 4
v 3.0310888 -1.75 8
v 3.3807404 -0.9058667 8
v 4.829629 -1.2940953 4
v 3.0310888 -1.75 8
v 3.4641016 -2 12
v 3.8637033 -1.0352762 12
v 3.3807404 -0.9058667 8
v 2.8977776 -0.77645713 0
v 4.829629 -1.2940953 4
v 5 0 4
v 3 0 0
v 4.829629 -1.2940953 4
v 3.3807404 -0.9058667 8
v 3.5 0 8
v 5 0 4
v 3.3807404 -0.9058667 8
v 3.8637033 -1.0352762 12
v 4 0 12
v 3.5 0 8
vn -0.8882899 -0.11694559 0.44414496
vn -0.8882899 -0.11694559 0.44414496
vn -0.8882899 -0.11694559 0.44414496
vn -0.8882899 -0.11694559 0.44414496
vn -0.92929524 -0.12234404 -0.3484857
vn -0.92929524 -0.12234404 -0.3484857
vn -0.92929524 -0.12234404 -0.3484857
vn -0.92929524 -0.12234404 -0.3484857
vn -0.9839178 -0.12953523 0.12298972
vn -0.9839178 -0.12953523 0.12298972
vn -0.9839178 -0.12953523 0.12298972
vn -0.9839178 -0.12953523 0.12298972
vn -0.82775444 -0.3428671 0.44414496
vn -0.82775444 -0.3428671 0.44414496
vn -0.82775444 -0.3428671 0.44414496
vn -0.82775444 -0.3428671 0.44414496
vn -0.8659653 -0.35869458 -0.3484857
vn -0.8659653 -0.35869458 -0.3484857
vn -0.8659653 -0.35869458 -0.3484857
vn -0.8659653 -0.35869458 -0.3484857
vn -0.9168654 -0.3797781 0.12298972
vn -0.9168654 -0.3797781 0.12298972
vn -0.9168654 -0.3797781 0.12298972
vn -0.9168654 -0.3797781 0.12298972
vn -0.7108089 -0.5454228 0.44414496
vn -0.7108089 -0.5454228 0.44414496
vn -0.7108089 -0.5454228 0.44414496
vn -0.7108089 -0.5454228 0.44414496
vn -0.7436213 -0.5706007 -0.3484857
vn -0.7436213 -0.5706007 -0.3484857
vn -0.7436213 -0.5706007 -0.3484857
vn -0.7436213 -0.5706007 -0.3484857
vn -0.78733015 -0.6041397 0.12298972
vn -0.78733015 -0.6041397 0.12298972
vn -0.78733015 -0.6041397 0.12298972
vn -0.78733015 -0.6041397 0.12298972
vn -0.5454228 -0.7108089 0.44414496
vn -0.5454228 -0.7108089 0.44414496
vn -0.5454228 -0.7108089 0.44414496
vn -0.5454228 -0.7108089 0.44414496
vn -0.5706007 -0.7436213 -0.3484857
vn -0.5706007 -0.7436213 -0.3484857
vn -0.5706007 -0.7436213 -0.3484857
vn -0.5706007 -0.7436213 -0.3484857
vn -0.6041397 -0.78733015 0.12298972
vn -0.6041397 -0.78733015 0.12298972
vn -0.6041397 -0.78733015 0.12298972
vn -0.6041397 -0.78733015 0.12298972
vn -0.3428671 -0.82775444 0.44414496
vn -0.3428671 -0.82775444 0.44414496
vn -0.3428671 -0.82775444 0.44414496
vn -0.3428671 -0.82775444 0.44414496
vn -0.35869458 -0.8659653 -0.3484857
vn -0.35869458 -0.8659653 -0.3484857
vn -0.35869458 -0.8659653 -0.3484857
vn -0.35869458 -0.8659653 -0.3484857
vn -0.3797781 -0.9168654 0.12298972
vn -0.3797781 -0.9168654 0.12298972
vn -0.3797781 -0.9168654 0.12298972
vn -0.3797781 -0.9168654 0.12298972
vn -0.11694559 -0.8882899 0.44414496
vn -0.11694559 -0.8882899 0.44414496
vn -0.11694559 -0.8882899 0.44414496
vn -0.11694559 -0.8882899 0.44414496
vn -0.12234404 -0.92929524 -0.3484857
vn -0.12234404 -0.92929524 -0.3484857
vn -0.12234404 -0.92929524 -0.3484857
vn -0.12234404 -0.92929524 -0.3484857
vn -0.12953523 -0.9839178 0.12298972
vn -0.12953523 -0.9839178 0.12298972
vn -0.12953523 -0.9839178 0.12298972
vn -0.12953523 -0.9839178 0.12298972
vn 0.11694559 -0.8882899 0.44414496
vn 0.11694559 -0.8882899 0.44414496
vn 0.11694559 -0.8882899 0.44414496
vn 0.11694559 -0.8882899 0.44414496
vn 0.12234404 -0.92929524 -0.3484857
vn 0.12234404 -0.92929524 -0.3484857
vn 0.12234404 -0.92929524 -0.3484857
vn 0.12234404 -0.92929524 -0.3484857
vn 0.12953523 -0.9839178 0.12298972
vn 0.12953523 -0.9839178 0.12298972
vn 0.12953523 -0.9839178 0.12298972
vn 0.12953523 -0.9839178 0.12298972
vn 0.3428671 -0.82775444 0.44414496
vn 0.3428671 -0.82775444 0.44414496
vn 0.3428671 -0.82775444 0.44414496
vn 0.3428671 -0.82775444 0.44414496
vn 0.35869458 -0.8659653 -0.3484857
vn 0.35869458 -0.8659653 -0.3484857
vn 0.35869458 -0.8659653 -0.3484857
vn 0.35869458 -0.8659653 -0.3484857
vn 0.3797781 -0.9168654 0.12298972
vn 0.3797781 -0.9168654 0.12298972
vn 0.3797781 -0.9168654 0.12298972
vn 0.3797781 -0.9168654 0.12298972
vn 0.5454228 -0.7108089 0.44414496
vn 0.5454228 -0.7108089 0.44414496
vn 0.5454228 -0.7108089 0.44414496
vn 0.5454228 -0.7108089 0.44414496
vn 0.5706007 -0.7436213 -0.3484857
vn 0.5706007 -0.7436213 -0.3484857
vn 0.5706007 -0.7436213 -0.3484857
vn 0.5706007 -0.7436213 -0.3484857
vn 0.6041397 -0.78733015 0.12298972
vn 0.6041397 -0.78733015 0.12298972
vn 0.6041397 -0.78733015 0.12298972
vn 0.6041397 -0.78733015 0.12298972
vn 0.7108089 -0.5454228 0.44414496
vn 0.7108089 -0.5454228 0.44414496
vn 0.7108089 -0.5454228 0.44414496
vn 0.7108089 -0.5454228 0.44414496
vn 0.7436213 -0.5706007 -0.3484857
vn 0.7436213 -0.5706007 -0.3484857
vn 0.7436213 -0.5706007 -0.3484857
vn 0.7436213 -0.5706007 -0.3484857
vn 0.78733015 -0.6041397 0.12298972
vn 0.78733015 -0.6041397 0.12298972
vn 0.78733015 -0.6041397 0.12298972
vn 0.78733015 -0.6041397 0.12298972
vn 0.82775444 -0.3428671 0.44414496
vn 0.82775444 -0.3428671 0.44414496
vn 0.82775444 -0.3428671 0.44414496
vn 0.82775444 -0.3428671 0.44414496
vn 0.8659653 -0.35869458 -0.3484857
vn 0.8659653 -0.35869458 -0.3484857
vn 0.8659653 -0.35869458 -0.3484857
vn 0.8659653 -0.35869458 -0.3484857
vn 0.9168654 -0.3797781 0.12298972
vn 0.9168654 -0.3797781 0.12298972
vn 0.9168654 -0.3797781 0.12298972
vn 0.9168654 -0.3797781 0.12298972
vn 0.8882899 -0.11694559 0.44414496
vn 0.8882899 -0.11694559 0.44414496
vn 0.8882899 -0.11694559 0.44414496
vn 0.8882899 -0.11694559 0.44414496
vn 0.92929524 -0.12234404 -0.3484857
vn 0.92929524 -0.12234404 -0.3484857
vn 0.92929524 -0.12234404 -0.3484857
vn 0.92929524 -0.12234404 -0.3484857
vn 0.9839178 -0.12953523 0.12298972
vn 0.9839178 -0.12953523 0.12298972
vn 0.9839178 -0.12953523 0.12298972
vn 0.9839178 -0.12953523 0.12298972
vn 0.8882899 0.11694559 0.44414496
vn 0.8882899 0.11694559 0.44414496
vn 0.8882899 0.11694559 0.44414496
vn 0.8882899 0.11694559 0.44414496
vn 0.92929524 0.12234404 -0.3484857
vn 0.92929524 0.12234404 -0.3484857
vn 0.92929524 0.12234404 -0.3484857
vn 0.92929524 0.12234404 -0.3484857
vn 0.9839178 0.12953523 0.12298972
vn 0.9839178 0.12953523 0.12298972
vn 0.9839178 0.12953523 0.12298972
vn 0.9839178 0.12953523 0.12298972
vn 0.82775444 0.3428671 0.44414496
vn 0.82775444 0.3428671 0.44414496
vn 0.82775444 0.3428671 0.44414496
vn 0.82775444 0.3428671 0.44414496
vn 0.8659653 0.35869458 -0.3484857
vn 0.8659653 0.35869458 -0.3484857
vn 0.8659653 0.35869458 -0.3484857
vn 0.8659653 0.35869458 -0.3484857
vn 0.9168654 0.3797781 0.12298972
vn 0.9168654 0.3797781 0.12298972
vn 0.9168654 0.3797781 0.12298972
vn 0.9168654 0.3797781 0.12298972
vn 0.7108089 0.5454228 0.44414496
vn 0.7108089 0.5454228 0.44414496
vn 0.7108089 0.5454228 0.44414496
vn 0.7108089 0.5454228 0.44414496
vn 0.7436213 0.5706007 -0.3484857
vn 0.7436213 0.5706007 -0.3484857
vn 0.7436213 0.5706007 -0.3484857
vn 0.7436213 0.5706007 -0.3484857
vn 0.78733015 0.6041397 0.12298972
vn 0.78733015 0.6041397 0.12298972
vn 0.78733015 0.6041397 0.12298972
vn 0.78733015 0.6041397 0.12298972
vn 0.5454228 0.7108089 0.44414496
vn 0.5454228 0.7108089 0.44414496
vn 0.5454228 0.7108089 0.44414496
vn 0.5454228 0.7108089 0.44414496
vn 0.5706007 0.7436213 -0.3484857
vn 0.5706007 0.7436213 -0.3484857
vn 0.5706007 0.7436213 -0.3484857
vn 0.5706007 0.7436213 -0.3484857
vn 0.6041397 0.78733015 0.12298972
vn 0.6041397 0.78733015 0.12298972
vn 0.6041397 0.78733015 0.12298972
vn 0.6041397 0.78733015 0.12298972
vn 0.3428671 0.82775444 0.44414496
vn 0.3428671 0.82775444 0.44414496
vn 0.3428671 0.82775444 0.44414496
vn 0.3428671 0.82775444 0.44414496
vn 0.35869458 0.8659653 -0.3484857
vn 0.35869458 0.8659653 -0.3484857
vn 0.35869458 0.8659653 -0.3484857
vn 0.35869458 0.8659653 -0.3484857
vn 0.3797781 0.9168654 0.12298972
vn 0.3797781 0.9168654 0.12298972
vn 0.3797781 0.9168654 0.12298972
vn 0.3797781 0.9168654 0.12298972
vn 0.11694559 0.8882899 0.44414496
vn 0.11694559 0.8882899 0.44414496
vn 0.11694559 0.8882899 0.44414496
vn 0.11694559 0.8882899 0.44414496
vn 0.12234404 0.92929524 -0.3484857
vn 0.12234404 0.92929524 -0.3484857
vn 0.12234404 0.92929524 -0.3484857
vn 0.12234404 0.92929524 -0.3484857
vn 0.12953523 0.9839178 0.12298972
vn 0.12953523 0.9839178 0.12298972
vn 0.12953523 0.9839178 0.12298972
vn 0.12953523 0.9839178 0.12298972
vn -0.11694559 0.8882899 0.44414496
vn -0.11694559 0.8882899 0.44414496
vn -0.11694559 0.8882899 0.44414496
vn -0.11694559 0.8882899 0.44414496
vn -0.12234404 0.92929524 -0.3484857
vn -0.12234404 0.92929524 -0.3484857
vn -0.12234404 0.92929524 -0.3484857
vn -0.12234404 0.92929524 -0.3484857
vn -0.12953523 0.9839178 0.12298972
vn -0.12953523 0.9839178 0.12298972
vn -0.12953523 0.9839178 0.12298972
vn -0.12953523 0.9839178 0.12298972
vn -0.3428671 0.82775444 0.44414496
vn -0.3428671 0.82775444 0.44414496
vn -0.3428671 0.82775444 0.44414496
vn -0.3428671 0.82775444 0.44414496
vn -0.35869458 0.8659653 -0.3484857
vn -0.35869458 0.8659653 -0.3484857
vn -0.35869458 0.8659653 -0.3484857
vn -0.35869458 0.8659653 -0.3484857
vn -0.3797781 0.9168654 0.12298972
vn -0.3797781 0.9168654 0.12298972
vn -0.3797781 0.9168654 0.12298972
vn -0.3797781 0.9168654 0.12298972
vn -0.5454228 0.7108089 0.44414496
vn -0.5454228 0.7108089 0.44414496
vn -0.5454228 0.7108089 0.44414496
vn -0.5454228 0.7108089 0.44414496
vn -0.5706007 0.7436213 -0.3484857
vn -0.5706007 0.7436213 -0.3484857
vn -0.5706007 0.7436213 -0.3484857
vn -0.5706007 0.7436213 -0.3484857
vn -0.6041397 0.78733015 0.12298972
vn -0.6041397 0.78733015 0.12298972
vn -0.6041397 0.78733015 0.12298972
vn -0.6041397 0.78733015 0.12298972
vn -0.7108089 0.5454228 0.44414496
vn -0.7108089 0.5454228 0.44414496
vn -0.7108089 0.5454228 0.44414496
vn -0.7108089 0.5454228 0.44414496
vn -0.7436213 0.5706007 -0.3484857
vn -0.7436213 0.5706007 -0.3484857
vn -0.7436213 0.5706007 -0.3484857
vn -0.7436213 0.5706007 -0.3484857
vn -0.78733015 0.6041397 0.12298972
vn -0.78733015 0.6041397 0.12298972
vn -0.78733015 0.6041397 0.12298972
vn -0.78733015 0.6041397 0.12298972
vn -0.82775444 0.3428671 0.44414496
vn -0.82775444 0.3428671 0.44414496
vn -0.82775444 0.3428671 0.44414496
vn -0.82775444 0.3428671 0.44414496
vn -0.8659653 0.35869458 -0.3484857
vn -0.8659653 0.35869458 -0.3484857
vn -0.8659653 0.35869458 -0.3484857
vn -0.8659653 0.35869458 -0.3484857
vn -0.9168654 0.3797781 0.12298972
vn -0.9168654 0.3797781 0.12298972
vn -0.9168654 0.3797781 0.12298972
vn -0.9168654 0.3797781 0.12298972
vn -0.8882899 0.11694559 0.44414496
vn -0.8882899 0.11694559 0.44414496
vn -0.8882899 0.11694559 0.44414496
vn -0.8882899 0.11694559 0.44414496
vn -0.92929524 0.12234404 -0.3484857
vn -0.92929524 0.12234404 -0.3484857
vn -0.92929524 0.12234404 -0.3484857
vn -0.92929524 0.12234404 -0.3484857
vn -0.9839178 0.12953523 0.12298972
vn -0.9839178 0.12953523 0.12298972
vn -0.9839178 0.12953523 0.12298972
vn -0.9839178 0.12953523 0.12298972
f 4//4 1//1 2//2
f 2//2 3//3 4//4
f 8//8 5//5 6//6
f 6//6 7//7 8//8
f 12//12 9//9 10//10
f 10//10 11//11 12//12
f 16//16 13//13 14//14
f 14//14 15//15 16//16
f 20//20 17//17 18//18
f 18//18 19//19 20//20
f 24//24 21//21 22//22
f 22//22 23//23 24//24
f 28//28 25//25 26//26
f 26//26 27//27 28//28
f 32//32 29//29 30//30
f 30//30 31//31 32//32
f 36//36 33//33 34//34
f 34//34 35//35 36//36
f 40//40 37//37 38//38
f 38//38 39//39 40//40
f 44//44 41//41 42//42
f 42//42 43//43 44//44
f 48//48 45//45 46//46
f 46//46 47//47 48//48
f 52//52 49//49 50//50
f 50//50 51//51 52//52
f 56//56 53//53 54//54
f 54//54 55//55 56//56
f 60//60 57//57 58//58
f 58//58 59//59 60//60
f 64//64 61//61 62//62
f 62//62 63//63 64//64
f 68//68 65//65 66//66
f 66//66 67//67 68//68
f 72//72 69//69 70//70
f 70//70 71//71 72//72
f 76//76 73//73 74//74
f 74//74 75//75 76//76
f 80//80 77//77 78//78
f 78//78 79//79 80//80
f 84//84 81//81 82//82
f 82//82 83//83 84//84
f 88//88 85//85 86//86
f 86//86 87//87 88//88
f 92//92 89//89 90//90
f 90//90 91//91 92//92
f 96//96 93//93 94//94
f 94//94 95//95 96//96
f 100//100 97//97 98//98
f 98//98 99//99 100//100
f 104//104 101//101 102//102
f 102//102 103//103 104//104
f 108//108 105//105 106//106
f 106//106 107//107 108//108
f 112//112 109//109 110//110
f 110//110 111//111 112//112
f 116//116 113//113 114//114
f 114//114 115//115 116//116
f 120//120 117//117 118//118
f 118//118 119//119 120//120
f 124//124 121//121 122//122
f 122//122 123//123 124//124
f 128//128 125//125 126//126
f 126//126 127//127 128//128
f 132//132 129//129 130//130
f 130//130 131//131 132//132
f 136//136 133//133 134//134
f 134//134 135//135 136//136
f 140//140 137//137 138//138
f 138//138 139//139 140//140
f 144//144 141//141 142//142
f 142//142 143//143 144//144
f 148//148 145//145 146//146
f 146//146 147//147 148//148
f 152//152 149//149 150//150
f 150//150 151//151 152//152
f 156//156 153//153 154//154
f 154//154 155//155 156//156
f 160//160 157//157 158//158
f 158//158 159//159 160//160
f 164//164 161//161 162//162
f 162//162 163//163 164//164
f 168//168 165//165 166//166
f 166//166 167//167 168//168
f 172//172 169//169 170//170
f 170//170 171//171 172//172
f 176//176 173//173 174//174
f 174//174 175//175 176//176
f 180//180 177//177 178//178
f 178//178 179//179 180//180
f 184//184 181//181 182//182
f 182//182 183//183 184//184
f 188//188 185//185 186//186
f 186//186 187//187 188//188
f 192//192 189//189 190//190
f 190//190 191//191 192//192
f 196//196 193//193 194//194
f 194//194 195//195 196//196
f 200//200 197//197 198//198
f 198//198 199//199 200//200
f 204//204 201//201 202//202
f 202//202 203//203 204//204
f 208//208 205//205 206//206
f 206//206 207//207 208//208
f 212//212 209//209 210//210
f 210//210 211//211 212//212
f 216//216 213//213 214//214
f 214//214 215//215 216//216
f 220//220 217//217 218//218
f 218//218 219//219 220//220
f 224//224 221//221 222//222
f 222//222 223//223 224//224
f 228//228 225//225 226//226
f 226//226 227//227 228//228
f 232//232 229//229 230//230
f 230//230 231//231 232//232
f 236//236 233//233 234//234
f 234//234 235//235 236//236
f 240//240 237//237 238//238
f 238//238 239//239 240//240
f 244//244 241//241 242//242
f 242//242 243//243 244//244
f 248//248 245//245 246//246
f 246//246 247//247 248//248
f 252//252 249//249 250//250
f 250//250 251//251 252//252
f 256//256 253//253 254//254
f 254//254 255//255 256//256
f 260//260 257//257 258//258
f 258//258 259//259 260//260
f 264//264 261//261 262//262
f 262//262 263//263 264//264
f 268//268 265//265 266//266
f 266//266 267//267 268//268
f 272//272 269//269 270//270
f 270//270 271//271 272//272
f 276//276 273//273 274//274
f 274//274 275//275 276//276
f 280//280 277//277 278//278
f 278//278 279//279 280//280
f 284//284 281//281 282//282
f 282//282 283//283 284//284
f 288//288 285//285 286//286
f 286//286 287//287 288//288
