<svg xmlns="http://www.w3.org/2000/svg" viewBox="-19.00 -90.80 168.00 100.10" width="336" height="200">
<rect x="-19.00000000328269" y="-90.80000000002978" width="167.99999999535666" height="100.09999999968448" fill="white"/>
<g class="grid-minor" stroke="#e0e0e0" stroke-width="0.3">
<line x1="-20.00" y1="-90.80" x2="-20.00" y2="9.30"/>
<line x1="-10.00" y1="-90.80" x2="-10.00" y2="9.30"/>
<line x1="0.00" y1="-90.80" x2="0.00" y2="9.30"/>
<line x1="10.00" y1="-90.80" x2="10.00" y2="9.30"/>
<line x1="20.00" y1="-90.80" x2="20.00" y2="9.30"/>
<line x1="30.00" y1="-90.80" x2="30.00" y2="9.30"/>
<line x1="40.00" y1="-90.80" x2="40.00" y2="9.30"/>
<line x1="50.00" y1="-90.80" x2="50.00" y2="9.30"/>
<line x1="60.00" y1="-90.80" x2="60.00" y2="9.30"/>
<line x1="70.00" y1="-90.80" x2="70.00" y2="9.30"/>
<line x1="80.00" y1="-90.80" x2="80.00" y2="9.30"/>
<line x1="90.00" y1="-90.80" x2="90.00" y2="9.30"/>
<line x1="100.00" y1="-90.80" x2="100.00" y2="9.30"/>
<line x1="110.00" y1="-90.80" x2="110.00" y2="9.30"/>
<line x1="120.00" y1="-90.80" x2="120.00" y2="9.30"/>
<line x1="130.00" y1="-90.80" x2="130.00" y2="9.30"/>
<line x1="140.00" y1="-90.80" x2="140.00" y2="9.30"/>
<line x1="-19.00" y1="-100.00" x2="149.00" y2="-100.00"/>
<line x1="-19.00" y1="-90.00" x2="149.00" y2="-90.00"/>
<line x1="-19.00" y1="-80.00" x2="149.00" y2="-80.00"/>
<line x1="-19.00" y1="-70.00" x2="149.00" y2="-70.00"/>
<line x1="-19.00" y1="-60.00" x2="149.00" y2="-60.00"/>
<line x1="-19.00" y1="-50.00" x2="149.00" y2="-50.00"/>
<line x1="-19.00" y1="-40.00" x2="149.00" y2="-40.00"/>
<line x1="-19.00" y1="-30.00" x2="149.00" y2="-30.00"/>
<line x1="-19.00" y1="-20.00" x2="149.00" y2="-20.00"/>
<line x1="-19.00" y1="-10.00" x2="149.00" y2="-10.00"/>
<line x1="-19.00" y1="0.00" x2="149.00" y2="0.00"/>
</g>
<g class="grid-major" stroke="#c0c0c0" stroke-width="0.6">
<line x1="-100.00" y1="-90.80" x2="-100.00" y2="9.30"/>
<line x1="0.00" y1="-90.80" x2="0.00" y2="9.30"/>
<line x1="100.00" y1="-90.80" x2="100.00" y2="9.30"/>
<line x1="-19.00" y1="-100.00" x2="149.00" y2="-100.00"/>
<line x1="-19.00" y1="0.00" x2="149.00" y2="0.00"/>
</g>
<path d="M5.0000,-5.0000 L125.0000,-5.0000 L125.0000,-76.5000 L5.0000,-76.5000 Z M125.0000,-5.0000 L5.0000,-5.0000 L5.0000,-76.5000 L125.0000,-76.5000 Z" fill="#E3F2FD" fill-opacity="0.5" fill-rule="evenodd" stroke="none"/>
<g class="entities">
<circle cx="5.0000" cy="-5.0000" r="2" fill="#FF9800"/>
<circle cx="125.0000" cy="-5.0000" r="2" fill="#FF9800"/>
<circle cx="125.0000" cy="-76.5000" r="2" fill="#FF9800"/>
<circle cx="5.0000" cy="-76.5000" r="2" fill="#FF9800"/>
<line x1="5.0000" y1="-5.0000" x2="125.0000" y2="-5.0000" stroke="#2196F3" stroke-width="1.5" stroke-linecap="round"/>
<line x1="125.0000" y1="-5.0000" x2="125.0000" y2="-76.5000" stroke="#2196F3" stroke-width="1.5" stroke-linecap="round"/>
<line x1="125.0000" y1="-76.5000" x2="5.0000" y2="-76.5000" stroke="#2196F3" stroke-width="1.5" stroke-linecap="round"/>
<line x1="5.0000" y1="-76.5000" x2="5.0000" y2="-5.0000" stroke="#2196F3" stroke-width="1.5" stroke-linecap="round"/>
</g>
<g class="badges" font-family="sans-serif" font-size="4">
<rect x="62.10" y="-11.00" width="5.8" height="5.0" rx="1" fill="#FFFFFF" stroke="#333333" stroke-width="0.3" opacity="0.9"/>
<text x="65.00" y="-7.00" text-anchor="middle" fill="#333333" font-family="sans-serif" font-size="4">H</text>
<rect x="62.10" y="-82.50" width="5.8" height="5.0" rx="1" fill="#FFFFFF" stroke="#333333" stroke-width="0.3" opacity="0.9"/>
<text x="65.00" y="-78.50" text-anchor="middle" fill="#333333" font-family="sans-serif" font-size="4">H</text>
<rect x="122.10" y="-46.75" width="5.8" height="5.0" rx="1" fill="#FFFFFF" stroke="#333333" stroke-width="0.3" opacity="0.9"/>
<text x="125.00" y="-42.75" text-anchor="middle" fill="#333333" font-family="sans-serif" font-size="4">V</text>
<rect x="2.10" y="-46.75" width="5.8" height="5.0" rx="1" fill="#FFFFFF" stroke="#333333" stroke-width="0.3" opacity="0.9"/>
<text x="5.00" y="-42.75" text-anchor="middle" fill="#333333" font-family="sans-serif" font-size="4">V</text>
<rect x="56.50" y="-17.50" width="17.0" height="5.0" rx="1" fill="#FFFFFF" stroke="#333333" stroke-width="0.3" opacity="0.9"/>
<text x="65.00" y="-13.50" text-anchor="middle" fill="#333333" font-family="sans-serif" font-size="4">120.0</text>
</g>
<rect x="5.30" y="-83.80" width="39.4" height="5.0" rx="1" fill="#FFFFFF" stroke="#333333" stroke-width="0.3" opacity="0.9"/>
<text x="25.00" y="-79.80" text-anchor="middle" fill="#333333" font-family="sans-serif" font-size="4">Under (1 DOF)</text>
</svg>
